G04 #@! TF.GenerationSoftware,KiCad,Pcbnew,(5.1.12)-1*
G04 #@! TF.CreationDate,2022-03-28T13:46:33+08:00*
G04 #@! TF.ProjectId,spi_mux_demo_board,7370695f-6d75-4785-9f64-656d6f5f626f,rev?*
G04 #@! TF.SameCoordinates,Original*
G04 #@! TF.FileFunction,Legend,Bot*
G04 #@! TF.FilePolarity,Positive*
%FSLAX46Y46*%
G04 Gerber Fmt 4.6, Leading zero omitted, Abs format (unit mm)*
G04 Created by KiCad (PCBNEW (5.1.12)-1) date 2022-03-28 13:46:33*
%MOMM*%
%LPD*%
G01*
G04 APERTURE LIST*
%ADD10C,1.408000*%
%ADD11C,3.300000*%
%ADD12C,2.184400*%
%ADD13C,1.300000*%
%ADD14O,1.700000X1.700000*%
%ADD15R,1.700000X1.700000*%
%ADD16C,2.600000*%
%ADD17R,2.600000X2.600000*%
%ADD18C,0.750000*%
%ADD19R,0.750000X0.750000*%
%ADD20C,0.800000*%
%ADD21C,6.400000*%
G04 APERTURE END LIST*
%LPC*%
D10*
X161570380Y-63299870D03*
X169140380Y-64819870D03*
X171678530Y-63299370D03*
X159028530Y-64819370D03*
D11*
X171069790Y-68197959D03*
X159639790Y-68197959D03*
D12*
X157479790Y-71247960D03*
X173229790Y-71247960D03*
D13*
X169799790Y-74547960D03*
X168529790Y-77087960D03*
X167259790Y-74547960D03*
X165989791Y-77087960D03*
X164719791Y-74547960D03*
X163449790Y-77087960D03*
X162179790Y-74547960D03*
X160909790Y-77087960D03*
D14*
X104648000Y-87376000D03*
X102108000Y-87376000D03*
X104648000Y-84836000D03*
X102108000Y-84836000D03*
X104648000Y-82296000D03*
X102108000Y-82296000D03*
X104648000Y-79756000D03*
D15*
X102108000Y-79756000D03*
D16*
X123951000Y-68120000D03*
X128651000Y-65120000D03*
D17*
X128651000Y-71120000D03*
D14*
X196088000Y-115570000D03*
X196088000Y-113030000D03*
D15*
X196088000Y-110490000D03*
D14*
X196088000Y-106172000D03*
X193548000Y-106172000D03*
X196088000Y-103632000D03*
X193548000Y-103632000D03*
X196088000Y-101092000D03*
D15*
X193548000Y-101092000D03*
D18*
X102616000Y-106680000D03*
X101346000Y-106680000D03*
X102616000Y-105410000D03*
X101346000Y-105410000D03*
X102616000Y-104140000D03*
X101346000Y-104140000D03*
X102616000Y-102870000D03*
D19*
X101346000Y-102870000D03*
D20*
X188844256Y-130230544D03*
X187147200Y-129527600D03*
X185450144Y-130230544D03*
X184747200Y-131927600D03*
X185450144Y-133624656D03*
X187147200Y-134327600D03*
X188844256Y-133624656D03*
X189547200Y-131927600D03*
D21*
X187147200Y-131927600D03*
D20*
X112872856Y-130255944D03*
X111175800Y-129553000D03*
X109478744Y-130255944D03*
X108775800Y-131953000D03*
X109478744Y-133650056D03*
X111175800Y-134353000D03*
X112872856Y-133650056D03*
X113575800Y-131953000D03*
D21*
X111175800Y-131953000D03*
D20*
X188869656Y-62031544D03*
X187172600Y-61328600D03*
X185475544Y-62031544D03*
X184772600Y-63728600D03*
X185475544Y-65425656D03*
X187172600Y-66128600D03*
X188869656Y-65425656D03*
X189572600Y-63728600D03*
D21*
X187172600Y-63728600D03*
D20*
X112872856Y-62031544D03*
X111175800Y-61328600D03*
X109478744Y-62031544D03*
X108775800Y-63728600D03*
X109478744Y-65425656D03*
X111175800Y-66128600D03*
X112872856Y-65425656D03*
X113575800Y-63728600D03*
D21*
X111175800Y-63728600D03*
M02*
