G04 #@! TF.GenerationSoftware,KiCad,Pcbnew,(5.1.12)-1*
G04 #@! TF.CreationDate,2022-03-28T13:46:33+08:00*
G04 #@! TF.ProjectId,spi_mux_demo_board,7370695f-6d75-4785-9f64-656d6f5f626f,rev?*
G04 #@! TF.SameCoordinates,Original*
G04 #@! TF.FileFunction,Soldermask,Top*
G04 #@! TF.FilePolarity,Negative*
%FSLAX46Y46*%
G04 Gerber Fmt 4.6, Leading zero omitted, Abs format (unit mm)*
G04 Created by KiCad (PCBNEW (5.1.12)-1) date 2022-03-28 13:46:33*
%MOMM*%
%LPD*%
G01*
G04 APERTURE LIST*
%ADD10C,0.300000*%
%ADD11C,1.408000*%
%ADD12C,3.300000*%
%ADD13C,2.184400*%
%ADD14C,1.300000*%
%ADD15O,1.700000X1.700000*%
%ADD16R,1.700000X1.700000*%
%ADD17R,1.050000X1.050000*%
%ADD18R,2.200000X1.050000*%
%ADD19C,2.600000*%
%ADD20R,2.600000X2.600000*%
%ADD21R,1.400000X1.200000*%
%ADD22R,0.550000X1.600000*%
%ADD23R,1.600000X0.550000*%
%ADD24R,1.060000X0.650000*%
%ADD25R,0.640000X1.930000*%
%ADD26C,0.750000*%
%ADD27R,0.750000X0.750000*%
%ADD28R,1.800000X2.500000*%
%ADD29R,1.600000X1.600000*%
%ADD30C,0.800000*%
%ADD31C,6.400000*%
G04 APERTURE END LIST*
D10*
X154302628Y-101567371D02*
X154302628Y-100567371D01*
X154302628Y-100067371D02*
X154231199Y-100138800D01*
X154302628Y-100210228D01*
X154374057Y-100138800D01*
X154302628Y-100067371D01*
X154302628Y-100210228D01*
X155016914Y-100567371D02*
X155016914Y-101567371D01*
X155016914Y-100710228D02*
X155088342Y-100638800D01*
X155231199Y-100567371D01*
X155445485Y-100567371D01*
X155588342Y-100638800D01*
X155659771Y-100781657D01*
X155659771Y-101567371D01*
X157516914Y-101567371D02*
X157516914Y-100067371D01*
X158374057Y-101567371D01*
X158374057Y-100067371D01*
X159731199Y-101567371D02*
X159731199Y-100781657D01*
X159659771Y-100638800D01*
X159516914Y-100567371D01*
X159231199Y-100567371D01*
X159088342Y-100638800D01*
X159731199Y-101495942D02*
X159588342Y-101567371D01*
X159231199Y-101567371D01*
X159088342Y-101495942D01*
X159016914Y-101353085D01*
X159016914Y-101210228D01*
X159088342Y-101067371D01*
X159231199Y-100995942D01*
X159588342Y-100995942D01*
X159731199Y-100924514D01*
X160445485Y-100567371D02*
X160445485Y-101567371D01*
X160445485Y-100710228D02*
X160516914Y-100638800D01*
X160659771Y-100567371D01*
X160874057Y-100567371D01*
X161016914Y-100638800D01*
X161088342Y-100781657D01*
X161088342Y-101567371D01*
X161802628Y-100567371D02*
X161802628Y-101853085D01*
X161731199Y-101995942D01*
X161588342Y-102067371D01*
X161516914Y-102067371D01*
X161802628Y-100067371D02*
X161731199Y-100138800D01*
X161802628Y-100210228D01*
X161874057Y-100138800D01*
X161802628Y-100067371D01*
X161802628Y-100210228D01*
X162516914Y-101567371D02*
X162516914Y-100567371D01*
X162516914Y-100067371D02*
X162445485Y-100138800D01*
X162516914Y-100210228D01*
X162588342Y-100138800D01*
X162516914Y-100067371D01*
X162516914Y-100210228D01*
X163231199Y-100567371D02*
X163231199Y-101567371D01*
X163231199Y-100710228D02*
X163302628Y-100638800D01*
X163445485Y-100567371D01*
X163659771Y-100567371D01*
X163802628Y-100638800D01*
X163874057Y-100781657D01*
X163874057Y-101567371D01*
X165231199Y-100567371D02*
X165231199Y-101781657D01*
X165159771Y-101924514D01*
X165088342Y-101995942D01*
X164945485Y-102067371D01*
X164731199Y-102067371D01*
X164588342Y-101995942D01*
X165231199Y-101495942D02*
X165088342Y-101567371D01*
X164802628Y-101567371D01*
X164659771Y-101495942D01*
X164588342Y-101424514D01*
X164516914Y-101281657D01*
X164516914Y-100853085D01*
X164588342Y-100710228D01*
X164659771Y-100638800D01*
X164802628Y-100567371D01*
X165088342Y-100567371D01*
X165231199Y-100638800D01*
X165945485Y-101424514D02*
X166016914Y-101495942D01*
X165945485Y-101567371D01*
X165874057Y-101495942D01*
X165945485Y-101424514D01*
X165945485Y-101567371D01*
X155016914Y-98747971D02*
X154302628Y-98747971D01*
X154302628Y-97247971D01*
X155374057Y-97747971D02*
X155731200Y-98747971D01*
X156088342Y-97747971D01*
X156731200Y-98676542D02*
X156731200Y-98747971D01*
X156659771Y-98890828D01*
X156588342Y-98962257D01*
X158802628Y-98033685D02*
X158802628Y-98747971D01*
X158302628Y-97247971D02*
X158802628Y-98033685D01*
X159302628Y-97247971D01*
X160445485Y-97747971D02*
X160445485Y-98747971D01*
X159802628Y-97747971D02*
X159802628Y-98533685D01*
X159874057Y-98676542D01*
X160016914Y-98747971D01*
X160231200Y-98747971D01*
X160374057Y-98676542D01*
X160445485Y-98605114D01*
X161731200Y-98676542D02*
X161588342Y-98747971D01*
X161302628Y-98747971D01*
X161159771Y-98676542D01*
X161088342Y-98533685D01*
X161088342Y-97962257D01*
X161159771Y-97819400D01*
X161302628Y-97747971D01*
X161588342Y-97747971D01*
X161731200Y-97819400D01*
X161802628Y-97962257D01*
X161802628Y-98105114D01*
X161088342Y-98247971D01*
X163088342Y-98747971D02*
X163088342Y-97247971D01*
X163088342Y-98676542D02*
X162945485Y-98747971D01*
X162659771Y-98747971D01*
X162516914Y-98676542D01*
X162445485Y-98605114D01*
X162374057Y-98462257D01*
X162374057Y-98033685D01*
X162445485Y-97890828D01*
X162516914Y-97819400D01*
X162659771Y-97747971D01*
X162945485Y-97747971D01*
X163088342Y-97819400D01*
X164016914Y-98747971D02*
X163874057Y-98676542D01*
X163802628Y-98605114D01*
X163731200Y-98462257D01*
X163731200Y-98033685D01*
X163802628Y-97890828D01*
X163874057Y-97819400D01*
X164016914Y-97747971D01*
X164231200Y-97747971D01*
X164374057Y-97819400D01*
X164445485Y-97890828D01*
X164516914Y-98033685D01*
X164516914Y-98462257D01*
X164445485Y-98605114D01*
X164374057Y-98676542D01*
X164231200Y-98747971D01*
X164016914Y-98747971D01*
X165159771Y-97747971D02*
X165159771Y-98747971D01*
X165159771Y-97890828D02*
X165231200Y-97819400D01*
X165374057Y-97747971D01*
X165588342Y-97747971D01*
X165731200Y-97819400D01*
X165802628Y-97962257D01*
X165802628Y-98747971D01*
X167159771Y-97747971D02*
X167159771Y-98962257D01*
X167088342Y-99105114D01*
X167016914Y-99176542D01*
X166874057Y-99247971D01*
X166659771Y-99247971D01*
X166516914Y-99176542D01*
X167159771Y-98676542D02*
X167016914Y-98747971D01*
X166731200Y-98747971D01*
X166588342Y-98676542D01*
X166516914Y-98605114D01*
X166445485Y-98462257D01*
X166445485Y-98033685D01*
X166516914Y-97890828D01*
X166588342Y-97819400D01*
X166731200Y-97747971D01*
X167016914Y-97747971D01*
X167159771Y-97819400D01*
X154302629Y-95953971D02*
X154302629Y-94453971D01*
X154659771Y-94453971D01*
X154874057Y-94525400D01*
X155016914Y-94668257D01*
X155088343Y-94811114D01*
X155159771Y-95096828D01*
X155159771Y-95311114D01*
X155088343Y-95596828D01*
X155016914Y-95739685D01*
X154874057Y-95882542D01*
X154659771Y-95953971D01*
X154302629Y-95953971D01*
X156374057Y-95882542D02*
X156231200Y-95953971D01*
X155945486Y-95953971D01*
X155802629Y-95882542D01*
X155731200Y-95739685D01*
X155731200Y-95168257D01*
X155802629Y-95025400D01*
X155945486Y-94953971D01*
X156231200Y-94953971D01*
X156374057Y-95025400D01*
X156445486Y-95168257D01*
X156445486Y-95311114D01*
X155731200Y-95453971D01*
X157016914Y-95882542D02*
X157159771Y-95953971D01*
X157445486Y-95953971D01*
X157588343Y-95882542D01*
X157659771Y-95739685D01*
X157659771Y-95668257D01*
X157588343Y-95525400D01*
X157445486Y-95453971D01*
X157231200Y-95453971D01*
X157088343Y-95382542D01*
X157016914Y-95239685D01*
X157016914Y-95168257D01*
X157088343Y-95025400D01*
X157231200Y-94953971D01*
X157445486Y-94953971D01*
X157588343Y-95025400D01*
X158302629Y-95953971D02*
X158302629Y-94953971D01*
X158302629Y-94453971D02*
X158231200Y-94525400D01*
X158302629Y-94596828D01*
X158374057Y-94525400D01*
X158302629Y-94453971D01*
X158302629Y-94596828D01*
X159659771Y-94953971D02*
X159659771Y-96168257D01*
X159588343Y-96311114D01*
X159516914Y-96382542D01*
X159374057Y-96453971D01*
X159159771Y-96453971D01*
X159016914Y-96382542D01*
X159659771Y-95882542D02*
X159516914Y-95953971D01*
X159231200Y-95953971D01*
X159088343Y-95882542D01*
X159016914Y-95811114D01*
X158945486Y-95668257D01*
X158945486Y-95239685D01*
X159016914Y-95096828D01*
X159088343Y-95025400D01*
X159231200Y-94953971D01*
X159516914Y-94953971D01*
X159659771Y-95025400D01*
X160374057Y-94953971D02*
X160374057Y-95953971D01*
X160374057Y-95096828D02*
X160445486Y-95025400D01*
X160588343Y-94953971D01*
X160802629Y-94953971D01*
X160945486Y-95025400D01*
X161016914Y-95168257D01*
X161016914Y-95953971D01*
X162302629Y-95882542D02*
X162159771Y-95953971D01*
X161874057Y-95953971D01*
X161731200Y-95882542D01*
X161659771Y-95739685D01*
X161659771Y-95168257D01*
X161731200Y-95025400D01*
X161874057Y-94953971D01*
X162159771Y-94953971D01*
X162302629Y-95025400D01*
X162374057Y-95168257D01*
X162374057Y-95311114D01*
X161659771Y-95453971D01*
X163659771Y-95953971D02*
X163659771Y-94453971D01*
X163659771Y-95882542D02*
X163516914Y-95953971D01*
X163231200Y-95953971D01*
X163088343Y-95882542D01*
X163016914Y-95811114D01*
X162945486Y-95668257D01*
X162945486Y-95239685D01*
X163016914Y-95096828D01*
X163088343Y-95025400D01*
X163231200Y-94953971D01*
X163516914Y-94953971D01*
X163659771Y-95025400D01*
X165516914Y-95953971D02*
X165516914Y-94453971D01*
X165516914Y-95025400D02*
X165659771Y-94953971D01*
X165945486Y-94953971D01*
X166088343Y-95025400D01*
X166159771Y-95096828D01*
X166231200Y-95239685D01*
X166231200Y-95668257D01*
X166159771Y-95811114D01*
X166088343Y-95882542D01*
X165945486Y-95953971D01*
X165659771Y-95953971D01*
X165516914Y-95882542D01*
X166731200Y-94953971D02*
X167088343Y-95953971D01*
X167445486Y-94953971D02*
X167088343Y-95953971D01*
X166945486Y-96311114D01*
X166874057Y-96382542D01*
X166731200Y-96453971D01*
G36*
G01*
X164879000Y-120186000D02*
X165239000Y-120186000D01*
G75*
G02*
X165259000Y-120206000I0J-20000D01*
G01*
X165259000Y-121586000D01*
G75*
G02*
X165239000Y-121606000I-20000J0D01*
G01*
X164879000Y-121606000D01*
G75*
G02*
X164859000Y-121586000I0J20000D01*
G01*
X164859000Y-120206000D01*
G75*
G02*
X164879000Y-120186000I20000J0D01*
G01*
G37*
G36*
G01*
X164229000Y-120186000D02*
X164589000Y-120186000D01*
G75*
G02*
X164609000Y-120206000I0J-20000D01*
G01*
X164609000Y-121586000D01*
G75*
G02*
X164589000Y-121606000I-20000J0D01*
G01*
X164229000Y-121606000D01*
G75*
G02*
X164209000Y-121586000I0J20000D01*
G01*
X164209000Y-120206000D01*
G75*
G02*
X164229000Y-120186000I20000J0D01*
G01*
G37*
G36*
G01*
X163579000Y-120186000D02*
X163939000Y-120186000D01*
G75*
G02*
X163959000Y-120206000I0J-20000D01*
G01*
X163959000Y-121586000D01*
G75*
G02*
X163939000Y-121606000I-20000J0D01*
G01*
X163579000Y-121606000D01*
G75*
G02*
X163559000Y-121586000I0J20000D01*
G01*
X163559000Y-120206000D01*
G75*
G02*
X163579000Y-120186000I20000J0D01*
G01*
G37*
G36*
G01*
X162929000Y-120186000D02*
X163289000Y-120186000D01*
G75*
G02*
X163309000Y-120206000I0J-20000D01*
G01*
X163309000Y-121586000D01*
G75*
G02*
X163289000Y-121606000I-20000J0D01*
G01*
X162929000Y-121606000D01*
G75*
G02*
X162909000Y-121586000I0J20000D01*
G01*
X162909000Y-120206000D01*
G75*
G02*
X162929000Y-120186000I20000J0D01*
G01*
G37*
G36*
G01*
X162929000Y-116646000D02*
X163289000Y-116646000D01*
G75*
G02*
X163309000Y-116666000I0J-20000D01*
G01*
X163309000Y-118046000D01*
G75*
G02*
X163289000Y-118066000I-20000J0D01*
G01*
X162929000Y-118066000D01*
G75*
G02*
X162909000Y-118046000I0J20000D01*
G01*
X162909000Y-116666000D01*
G75*
G02*
X162929000Y-116646000I20000J0D01*
G01*
G37*
G36*
G01*
X163579000Y-116646000D02*
X163939000Y-116646000D01*
G75*
G02*
X163959000Y-116666000I0J-20000D01*
G01*
X163959000Y-118046000D01*
G75*
G02*
X163939000Y-118066000I-20000J0D01*
G01*
X163579000Y-118066000D01*
G75*
G02*
X163559000Y-118046000I0J20000D01*
G01*
X163559000Y-116666000D01*
G75*
G02*
X163579000Y-116646000I20000J0D01*
G01*
G37*
G36*
G01*
X164229000Y-116646000D02*
X164589000Y-116646000D01*
G75*
G02*
X164609000Y-116666000I0J-20000D01*
G01*
X164609000Y-118046000D01*
G75*
G02*
X164589000Y-118066000I-20000J0D01*
G01*
X164229000Y-118066000D01*
G75*
G02*
X164209000Y-118046000I0J20000D01*
G01*
X164209000Y-116666000D01*
G75*
G02*
X164229000Y-116646000I20000J0D01*
G01*
G37*
G36*
G01*
X164879000Y-116646000D02*
X165239000Y-116646000D01*
G75*
G02*
X165259000Y-116666000I0J-20000D01*
G01*
X165259000Y-118046000D01*
G75*
G02*
X165239000Y-118066000I-20000J0D01*
G01*
X164879000Y-118066000D01*
G75*
G02*
X164859000Y-118046000I0J20000D01*
G01*
X164859000Y-116666000D01*
G75*
G02*
X164879000Y-116646000I20000J0D01*
G01*
G37*
G36*
G01*
X158229500Y-131625000D02*
X158598500Y-131625000D01*
G75*
G02*
X158619000Y-131645500I0J-20500D01*
G01*
X158619000Y-133174500D01*
G75*
G02*
X158598500Y-133195000I-20500J0D01*
G01*
X158229500Y-133195000D01*
G75*
G02*
X158209000Y-133174500I0J20500D01*
G01*
X158209000Y-131645500D01*
G75*
G02*
X158229500Y-131625000I20500J0D01*
G01*
G37*
G36*
G01*
X157579500Y-131625000D02*
X157948500Y-131625000D01*
G75*
G02*
X157969000Y-131645500I0J-20500D01*
G01*
X157969000Y-133174500D01*
G75*
G02*
X157948500Y-133195000I-20500J0D01*
G01*
X157579500Y-133195000D01*
G75*
G02*
X157559000Y-133174500I0J20500D01*
G01*
X157559000Y-131645500D01*
G75*
G02*
X157579500Y-131625000I20500J0D01*
G01*
G37*
G36*
G01*
X156929500Y-131625000D02*
X157298500Y-131625000D01*
G75*
G02*
X157319000Y-131645500I0J-20500D01*
G01*
X157319000Y-133174500D01*
G75*
G02*
X157298500Y-133195000I-20500J0D01*
G01*
X156929500Y-133195000D01*
G75*
G02*
X156909000Y-133174500I0J20500D01*
G01*
X156909000Y-131645500D01*
G75*
G02*
X156929500Y-131625000I20500J0D01*
G01*
G37*
G36*
G01*
X156279500Y-131625000D02*
X156648500Y-131625000D01*
G75*
G02*
X156669000Y-131645500I0J-20500D01*
G01*
X156669000Y-133174500D01*
G75*
G02*
X156648500Y-133195000I-20500J0D01*
G01*
X156279500Y-133195000D01*
G75*
G02*
X156259000Y-133174500I0J20500D01*
G01*
X156259000Y-131645500D01*
G75*
G02*
X156279500Y-131625000I20500J0D01*
G01*
G37*
G36*
G01*
X155629500Y-131625000D02*
X155998500Y-131625000D01*
G75*
G02*
X156019000Y-131645500I0J-20500D01*
G01*
X156019000Y-133174500D01*
G75*
G02*
X155998500Y-133195000I-20500J0D01*
G01*
X155629500Y-133195000D01*
G75*
G02*
X155609000Y-133174500I0J20500D01*
G01*
X155609000Y-131645500D01*
G75*
G02*
X155629500Y-131625000I20500J0D01*
G01*
G37*
G36*
G01*
X154979500Y-131625000D02*
X155348500Y-131625000D01*
G75*
G02*
X155369000Y-131645500I0J-20500D01*
G01*
X155369000Y-133174500D01*
G75*
G02*
X155348500Y-133195000I-20500J0D01*
G01*
X154979500Y-133195000D01*
G75*
G02*
X154959000Y-133174500I0J20500D01*
G01*
X154959000Y-131645500D01*
G75*
G02*
X154979500Y-131625000I20500J0D01*
G01*
G37*
G36*
G01*
X154329500Y-131625000D02*
X154698500Y-131625000D01*
G75*
G02*
X154719000Y-131645500I0J-20500D01*
G01*
X154719000Y-133174500D01*
G75*
G02*
X154698500Y-133195000I-20500J0D01*
G01*
X154329500Y-133195000D01*
G75*
G02*
X154309000Y-133174500I0J20500D01*
G01*
X154309000Y-131645500D01*
G75*
G02*
X154329500Y-131625000I20500J0D01*
G01*
G37*
G36*
G01*
X154329500Y-125885000D02*
X154698500Y-125885000D01*
G75*
G02*
X154719000Y-125905500I0J-20500D01*
G01*
X154719000Y-127434500D01*
G75*
G02*
X154698500Y-127455000I-20500J0D01*
G01*
X154329500Y-127455000D01*
G75*
G02*
X154309000Y-127434500I0J20500D01*
G01*
X154309000Y-125905500D01*
G75*
G02*
X154329500Y-125885000I20500J0D01*
G01*
G37*
G36*
G01*
X154979500Y-125885000D02*
X155348500Y-125885000D01*
G75*
G02*
X155369000Y-125905500I0J-20500D01*
G01*
X155369000Y-127434500D01*
G75*
G02*
X155348500Y-127455000I-20500J0D01*
G01*
X154979500Y-127455000D01*
G75*
G02*
X154959000Y-127434500I0J20500D01*
G01*
X154959000Y-125905500D01*
G75*
G02*
X154979500Y-125885000I20500J0D01*
G01*
G37*
G36*
G01*
X155629500Y-125885000D02*
X155998500Y-125885000D01*
G75*
G02*
X156019000Y-125905500I0J-20500D01*
G01*
X156019000Y-127434500D01*
G75*
G02*
X155998500Y-127455000I-20500J0D01*
G01*
X155629500Y-127455000D01*
G75*
G02*
X155609000Y-127434500I0J20500D01*
G01*
X155609000Y-125905500D01*
G75*
G02*
X155629500Y-125885000I20500J0D01*
G01*
G37*
G36*
G01*
X156279500Y-125885000D02*
X156648500Y-125885000D01*
G75*
G02*
X156669000Y-125905500I0J-20500D01*
G01*
X156669000Y-127434500D01*
G75*
G02*
X156648500Y-127455000I-20500J0D01*
G01*
X156279500Y-127455000D01*
G75*
G02*
X156259000Y-127434500I0J20500D01*
G01*
X156259000Y-125905500D01*
G75*
G02*
X156279500Y-125885000I20500J0D01*
G01*
G37*
G36*
G01*
X156929500Y-125885000D02*
X157298500Y-125885000D01*
G75*
G02*
X157319000Y-125905500I0J-20500D01*
G01*
X157319000Y-127434500D01*
G75*
G02*
X157298500Y-127455000I-20500J0D01*
G01*
X156929500Y-127455000D01*
G75*
G02*
X156909000Y-127434500I0J20500D01*
G01*
X156909000Y-125905500D01*
G75*
G02*
X156929500Y-125885000I20500J0D01*
G01*
G37*
G36*
G01*
X157579500Y-125885000D02*
X157948500Y-125885000D01*
G75*
G02*
X157969000Y-125905500I0J-20500D01*
G01*
X157969000Y-127434500D01*
G75*
G02*
X157948500Y-127455000I-20500J0D01*
G01*
X157579500Y-127455000D01*
G75*
G02*
X157559000Y-127434500I0J20500D01*
G01*
X157559000Y-125905500D01*
G75*
G02*
X157579500Y-125885000I20500J0D01*
G01*
G37*
G36*
G01*
X158229500Y-125885000D02*
X158598500Y-125885000D01*
G75*
G02*
X158619000Y-125905500I0J-20500D01*
G01*
X158619000Y-127434500D01*
G75*
G02*
X158598500Y-127455000I-20500J0D01*
G01*
X158229500Y-127455000D01*
G75*
G02*
X158209000Y-127434500I0J20500D01*
G01*
X158209000Y-125905500D01*
G75*
G02*
X158229500Y-125885000I20500J0D01*
G01*
G37*
G36*
G01*
X169278500Y-131625000D02*
X169647500Y-131625000D01*
G75*
G02*
X169668000Y-131645500I0J-20500D01*
G01*
X169668000Y-133174500D01*
G75*
G02*
X169647500Y-133195000I-20500J0D01*
G01*
X169278500Y-133195000D01*
G75*
G02*
X169258000Y-133174500I0J20500D01*
G01*
X169258000Y-131645500D01*
G75*
G02*
X169278500Y-131625000I20500J0D01*
G01*
G37*
G36*
G01*
X168628500Y-131625000D02*
X168997500Y-131625000D01*
G75*
G02*
X169018000Y-131645500I0J-20500D01*
G01*
X169018000Y-133174500D01*
G75*
G02*
X168997500Y-133195000I-20500J0D01*
G01*
X168628500Y-133195000D01*
G75*
G02*
X168608000Y-133174500I0J20500D01*
G01*
X168608000Y-131645500D01*
G75*
G02*
X168628500Y-131625000I20500J0D01*
G01*
G37*
G36*
G01*
X167978500Y-131625000D02*
X168347500Y-131625000D01*
G75*
G02*
X168368000Y-131645500I0J-20500D01*
G01*
X168368000Y-133174500D01*
G75*
G02*
X168347500Y-133195000I-20500J0D01*
G01*
X167978500Y-133195000D01*
G75*
G02*
X167958000Y-133174500I0J20500D01*
G01*
X167958000Y-131645500D01*
G75*
G02*
X167978500Y-131625000I20500J0D01*
G01*
G37*
G36*
G01*
X167328500Y-131625000D02*
X167697500Y-131625000D01*
G75*
G02*
X167718000Y-131645500I0J-20500D01*
G01*
X167718000Y-133174500D01*
G75*
G02*
X167697500Y-133195000I-20500J0D01*
G01*
X167328500Y-133195000D01*
G75*
G02*
X167308000Y-133174500I0J20500D01*
G01*
X167308000Y-131645500D01*
G75*
G02*
X167328500Y-131625000I20500J0D01*
G01*
G37*
G36*
G01*
X166678500Y-131625000D02*
X167047500Y-131625000D01*
G75*
G02*
X167068000Y-131645500I0J-20500D01*
G01*
X167068000Y-133174500D01*
G75*
G02*
X167047500Y-133195000I-20500J0D01*
G01*
X166678500Y-133195000D01*
G75*
G02*
X166658000Y-133174500I0J20500D01*
G01*
X166658000Y-131645500D01*
G75*
G02*
X166678500Y-131625000I20500J0D01*
G01*
G37*
G36*
G01*
X166028500Y-131625000D02*
X166397500Y-131625000D01*
G75*
G02*
X166418000Y-131645500I0J-20500D01*
G01*
X166418000Y-133174500D01*
G75*
G02*
X166397500Y-133195000I-20500J0D01*
G01*
X166028500Y-133195000D01*
G75*
G02*
X166008000Y-133174500I0J20500D01*
G01*
X166008000Y-131645500D01*
G75*
G02*
X166028500Y-131625000I20500J0D01*
G01*
G37*
G36*
G01*
X165378500Y-131625000D02*
X165747500Y-131625000D01*
G75*
G02*
X165768000Y-131645500I0J-20500D01*
G01*
X165768000Y-133174500D01*
G75*
G02*
X165747500Y-133195000I-20500J0D01*
G01*
X165378500Y-133195000D01*
G75*
G02*
X165358000Y-133174500I0J20500D01*
G01*
X165358000Y-131645500D01*
G75*
G02*
X165378500Y-131625000I20500J0D01*
G01*
G37*
G36*
G01*
X165378500Y-125885000D02*
X165747500Y-125885000D01*
G75*
G02*
X165768000Y-125905500I0J-20500D01*
G01*
X165768000Y-127434500D01*
G75*
G02*
X165747500Y-127455000I-20500J0D01*
G01*
X165378500Y-127455000D01*
G75*
G02*
X165358000Y-127434500I0J20500D01*
G01*
X165358000Y-125905500D01*
G75*
G02*
X165378500Y-125885000I20500J0D01*
G01*
G37*
G36*
G01*
X166028500Y-125885000D02*
X166397500Y-125885000D01*
G75*
G02*
X166418000Y-125905500I0J-20500D01*
G01*
X166418000Y-127434500D01*
G75*
G02*
X166397500Y-127455000I-20500J0D01*
G01*
X166028500Y-127455000D01*
G75*
G02*
X166008000Y-127434500I0J20500D01*
G01*
X166008000Y-125905500D01*
G75*
G02*
X166028500Y-125885000I20500J0D01*
G01*
G37*
G36*
G01*
X166678500Y-125885000D02*
X167047500Y-125885000D01*
G75*
G02*
X167068000Y-125905500I0J-20500D01*
G01*
X167068000Y-127434500D01*
G75*
G02*
X167047500Y-127455000I-20500J0D01*
G01*
X166678500Y-127455000D01*
G75*
G02*
X166658000Y-127434500I0J20500D01*
G01*
X166658000Y-125905500D01*
G75*
G02*
X166678500Y-125885000I20500J0D01*
G01*
G37*
G36*
G01*
X167328500Y-125885000D02*
X167697500Y-125885000D01*
G75*
G02*
X167718000Y-125905500I0J-20500D01*
G01*
X167718000Y-127434500D01*
G75*
G02*
X167697500Y-127455000I-20500J0D01*
G01*
X167328500Y-127455000D01*
G75*
G02*
X167308000Y-127434500I0J20500D01*
G01*
X167308000Y-125905500D01*
G75*
G02*
X167328500Y-125885000I20500J0D01*
G01*
G37*
G36*
G01*
X167978500Y-125885000D02*
X168347500Y-125885000D01*
G75*
G02*
X168368000Y-125905500I0J-20500D01*
G01*
X168368000Y-127434500D01*
G75*
G02*
X168347500Y-127455000I-20500J0D01*
G01*
X167978500Y-127455000D01*
G75*
G02*
X167958000Y-127434500I0J20500D01*
G01*
X167958000Y-125905500D01*
G75*
G02*
X167978500Y-125885000I20500J0D01*
G01*
G37*
G36*
G01*
X168628500Y-125885000D02*
X168997500Y-125885000D01*
G75*
G02*
X169018000Y-125905500I0J-20500D01*
G01*
X169018000Y-127434500D01*
G75*
G02*
X168997500Y-127455000I-20500J0D01*
G01*
X168628500Y-127455000D01*
G75*
G02*
X168608000Y-127434500I0J20500D01*
G01*
X168608000Y-125905500D01*
G75*
G02*
X168628500Y-125885000I20500J0D01*
G01*
G37*
G36*
G01*
X169278500Y-125885000D02*
X169647500Y-125885000D01*
G75*
G02*
X169668000Y-125905500I0J-20500D01*
G01*
X169668000Y-127434500D01*
G75*
G02*
X169647500Y-127455000I-20500J0D01*
G01*
X169278500Y-127455000D01*
G75*
G02*
X169258000Y-127434500I0J20500D01*
G01*
X169258000Y-125905500D01*
G75*
G02*
X169278500Y-125885000I20500J0D01*
G01*
G37*
G36*
G01*
X158229500Y-120068000D02*
X158598500Y-120068000D01*
G75*
G02*
X158619000Y-120088500I0J-20500D01*
G01*
X158619000Y-121617500D01*
G75*
G02*
X158598500Y-121638000I-20500J0D01*
G01*
X158229500Y-121638000D01*
G75*
G02*
X158209000Y-121617500I0J20500D01*
G01*
X158209000Y-120088500D01*
G75*
G02*
X158229500Y-120068000I20500J0D01*
G01*
G37*
G36*
G01*
X157579500Y-120068000D02*
X157948500Y-120068000D01*
G75*
G02*
X157969000Y-120088500I0J-20500D01*
G01*
X157969000Y-121617500D01*
G75*
G02*
X157948500Y-121638000I-20500J0D01*
G01*
X157579500Y-121638000D01*
G75*
G02*
X157559000Y-121617500I0J20500D01*
G01*
X157559000Y-120088500D01*
G75*
G02*
X157579500Y-120068000I20500J0D01*
G01*
G37*
G36*
G01*
X156929500Y-120068000D02*
X157298500Y-120068000D01*
G75*
G02*
X157319000Y-120088500I0J-20500D01*
G01*
X157319000Y-121617500D01*
G75*
G02*
X157298500Y-121638000I-20500J0D01*
G01*
X156929500Y-121638000D01*
G75*
G02*
X156909000Y-121617500I0J20500D01*
G01*
X156909000Y-120088500D01*
G75*
G02*
X156929500Y-120068000I20500J0D01*
G01*
G37*
G36*
G01*
X156279500Y-120068000D02*
X156648500Y-120068000D01*
G75*
G02*
X156669000Y-120088500I0J-20500D01*
G01*
X156669000Y-121617500D01*
G75*
G02*
X156648500Y-121638000I-20500J0D01*
G01*
X156279500Y-121638000D01*
G75*
G02*
X156259000Y-121617500I0J20500D01*
G01*
X156259000Y-120088500D01*
G75*
G02*
X156279500Y-120068000I20500J0D01*
G01*
G37*
G36*
G01*
X155629500Y-120068000D02*
X155998500Y-120068000D01*
G75*
G02*
X156019000Y-120088500I0J-20500D01*
G01*
X156019000Y-121617500D01*
G75*
G02*
X155998500Y-121638000I-20500J0D01*
G01*
X155629500Y-121638000D01*
G75*
G02*
X155609000Y-121617500I0J20500D01*
G01*
X155609000Y-120088500D01*
G75*
G02*
X155629500Y-120068000I20500J0D01*
G01*
G37*
G36*
G01*
X154979500Y-120068000D02*
X155348500Y-120068000D01*
G75*
G02*
X155369000Y-120088500I0J-20500D01*
G01*
X155369000Y-121617500D01*
G75*
G02*
X155348500Y-121638000I-20500J0D01*
G01*
X154979500Y-121638000D01*
G75*
G02*
X154959000Y-121617500I0J20500D01*
G01*
X154959000Y-120088500D01*
G75*
G02*
X154979500Y-120068000I20500J0D01*
G01*
G37*
G36*
G01*
X154329500Y-120068000D02*
X154698500Y-120068000D01*
G75*
G02*
X154719000Y-120088500I0J-20500D01*
G01*
X154719000Y-121617500D01*
G75*
G02*
X154698500Y-121638000I-20500J0D01*
G01*
X154329500Y-121638000D01*
G75*
G02*
X154309000Y-121617500I0J20500D01*
G01*
X154309000Y-120088500D01*
G75*
G02*
X154329500Y-120068000I20500J0D01*
G01*
G37*
G36*
G01*
X154329500Y-114328000D02*
X154698500Y-114328000D01*
G75*
G02*
X154719000Y-114348500I0J-20500D01*
G01*
X154719000Y-115877500D01*
G75*
G02*
X154698500Y-115898000I-20500J0D01*
G01*
X154329500Y-115898000D01*
G75*
G02*
X154309000Y-115877500I0J20500D01*
G01*
X154309000Y-114348500D01*
G75*
G02*
X154329500Y-114328000I20500J0D01*
G01*
G37*
G36*
G01*
X154979500Y-114328000D02*
X155348500Y-114328000D01*
G75*
G02*
X155369000Y-114348500I0J-20500D01*
G01*
X155369000Y-115877500D01*
G75*
G02*
X155348500Y-115898000I-20500J0D01*
G01*
X154979500Y-115898000D01*
G75*
G02*
X154959000Y-115877500I0J20500D01*
G01*
X154959000Y-114348500D01*
G75*
G02*
X154979500Y-114328000I20500J0D01*
G01*
G37*
G36*
G01*
X155629500Y-114328000D02*
X155998500Y-114328000D01*
G75*
G02*
X156019000Y-114348500I0J-20500D01*
G01*
X156019000Y-115877500D01*
G75*
G02*
X155998500Y-115898000I-20500J0D01*
G01*
X155629500Y-115898000D01*
G75*
G02*
X155609000Y-115877500I0J20500D01*
G01*
X155609000Y-114348500D01*
G75*
G02*
X155629500Y-114328000I20500J0D01*
G01*
G37*
G36*
G01*
X156279500Y-114328000D02*
X156648500Y-114328000D01*
G75*
G02*
X156669000Y-114348500I0J-20500D01*
G01*
X156669000Y-115877500D01*
G75*
G02*
X156648500Y-115898000I-20500J0D01*
G01*
X156279500Y-115898000D01*
G75*
G02*
X156259000Y-115877500I0J20500D01*
G01*
X156259000Y-114348500D01*
G75*
G02*
X156279500Y-114328000I20500J0D01*
G01*
G37*
G36*
G01*
X156929500Y-114328000D02*
X157298500Y-114328000D01*
G75*
G02*
X157319000Y-114348500I0J-20500D01*
G01*
X157319000Y-115877500D01*
G75*
G02*
X157298500Y-115898000I-20500J0D01*
G01*
X156929500Y-115898000D01*
G75*
G02*
X156909000Y-115877500I0J20500D01*
G01*
X156909000Y-114348500D01*
G75*
G02*
X156929500Y-114328000I20500J0D01*
G01*
G37*
G36*
G01*
X157579500Y-114328000D02*
X157948500Y-114328000D01*
G75*
G02*
X157969000Y-114348500I0J-20500D01*
G01*
X157969000Y-115877500D01*
G75*
G02*
X157948500Y-115898000I-20500J0D01*
G01*
X157579500Y-115898000D01*
G75*
G02*
X157559000Y-115877500I0J20500D01*
G01*
X157559000Y-114348500D01*
G75*
G02*
X157579500Y-114328000I20500J0D01*
G01*
G37*
G36*
G01*
X158229500Y-114328000D02*
X158598500Y-114328000D01*
G75*
G02*
X158619000Y-114348500I0J-20500D01*
G01*
X158619000Y-115877500D01*
G75*
G02*
X158598500Y-115898000I-20500J0D01*
G01*
X158229500Y-115898000D01*
G75*
G02*
X158209000Y-115877500I0J20500D01*
G01*
X158209000Y-114348500D01*
G75*
G02*
X158229500Y-114328000I20500J0D01*
G01*
G37*
D11*
X161570380Y-63299870D03*
X169140380Y-64819870D03*
X171678530Y-63299370D03*
X159028530Y-64819370D03*
D12*
X171069790Y-68197959D03*
X159639790Y-68197959D03*
D13*
X157479790Y-71247960D03*
X173229790Y-71247960D03*
D14*
X169799790Y-74547960D03*
X168529790Y-77087960D03*
X167259790Y-74547960D03*
X165989791Y-77087960D03*
X164719791Y-74547960D03*
X163449790Y-77087960D03*
X162179790Y-74547960D03*
X160909790Y-77087960D03*
G36*
G01*
X136357199Y-66940000D02*
X137607201Y-66940000D01*
G75*
G02*
X137857200Y-67189999I0J-249999D01*
G01*
X137857200Y-67815001D01*
G75*
G02*
X137607201Y-68065000I-249999J0D01*
G01*
X136357199Y-68065000D01*
G75*
G02*
X136107200Y-67815001I0J249999D01*
G01*
X136107200Y-67189999D01*
G75*
G02*
X136357199Y-66940000I249999J0D01*
G01*
G37*
G36*
G01*
X136357199Y-64015000D02*
X137607201Y-64015000D01*
G75*
G02*
X137857200Y-64264999I0J-249999D01*
G01*
X137857200Y-64890001D01*
G75*
G02*
X137607201Y-65140000I-249999J0D01*
G01*
X136357199Y-65140000D01*
G75*
G02*
X136107200Y-64890001I0J249999D01*
G01*
X136107200Y-64264999D01*
G75*
G02*
X136357199Y-64015000I249999J0D01*
G01*
G37*
D15*
X104648000Y-87376000D03*
X102108000Y-87376000D03*
X104648000Y-84836000D03*
X102108000Y-84836000D03*
X104648000Y-82296000D03*
X102108000Y-82296000D03*
X104648000Y-79756000D03*
D16*
X102108000Y-79756000D03*
D17*
X106985000Y-116586000D03*
D18*
X105410000Y-115111000D03*
X105410000Y-118061000D03*
D17*
X103429000Y-113030000D03*
D18*
X101854000Y-111555000D03*
X101854000Y-114505000D03*
D17*
X106985000Y-109474000D03*
D18*
X105410000Y-107999000D03*
X105410000Y-110949000D03*
D17*
X106985000Y-95758000D03*
D18*
X105410000Y-94283000D03*
X105410000Y-97233000D03*
D17*
X103429000Y-92202000D03*
D18*
X101854000Y-90727000D03*
X101854000Y-93677000D03*
D17*
X103429000Y-99314000D03*
D18*
X101854000Y-97839000D03*
X101854000Y-100789000D03*
D19*
X123951000Y-68120000D03*
X128651000Y-65120000D03*
D20*
X128651000Y-71120000D03*
G36*
G01*
X126638899Y-118916400D02*
X127538901Y-118916400D01*
G75*
G02*
X127788900Y-119166399I0J-249999D01*
G01*
X127788900Y-119691401D01*
G75*
G02*
X127538901Y-119941400I-249999J0D01*
G01*
X126638899Y-119941400D01*
G75*
G02*
X126388900Y-119691401I0J249999D01*
G01*
X126388900Y-119166399D01*
G75*
G02*
X126638899Y-118916400I249999J0D01*
G01*
G37*
G36*
G01*
X126638899Y-117091400D02*
X127538901Y-117091400D01*
G75*
G02*
X127788900Y-117341399I0J-249999D01*
G01*
X127788900Y-117866401D01*
G75*
G02*
X127538901Y-118116400I-249999J0D01*
G01*
X126638899Y-118116400D01*
G75*
G02*
X126388900Y-117866401I0J249999D01*
G01*
X126388900Y-117341399D01*
G75*
G02*
X126638899Y-117091400I249999J0D01*
G01*
G37*
G36*
G01*
X122024565Y-118916400D02*
X122924567Y-118916400D01*
G75*
G02*
X123174566Y-119166399I0J-249999D01*
G01*
X123174566Y-119691401D01*
G75*
G02*
X122924567Y-119941400I-249999J0D01*
G01*
X122024565Y-119941400D01*
G75*
G02*
X121774566Y-119691401I0J249999D01*
G01*
X121774566Y-119166399D01*
G75*
G02*
X122024565Y-118916400I249999J0D01*
G01*
G37*
G36*
G01*
X122024565Y-117091400D02*
X122924567Y-117091400D01*
G75*
G02*
X123174566Y-117341399I0J-249999D01*
G01*
X123174566Y-117866401D01*
G75*
G02*
X122924567Y-118116400I-249999J0D01*
G01*
X122024565Y-118116400D01*
G75*
G02*
X121774566Y-117866401I0J249999D01*
G01*
X121774566Y-117341399D01*
G75*
G02*
X122024565Y-117091400I249999J0D01*
G01*
G37*
G36*
G01*
X150373501Y-129350500D02*
X149473499Y-129350500D01*
G75*
G02*
X149223500Y-129100501I0J249999D01*
G01*
X149223500Y-128575499D01*
G75*
G02*
X149473499Y-128325500I249999J0D01*
G01*
X150373501Y-128325500D01*
G75*
G02*
X150623500Y-128575499I0J-249999D01*
G01*
X150623500Y-129100501D01*
G75*
G02*
X150373501Y-129350500I-249999J0D01*
G01*
G37*
G36*
G01*
X150373501Y-131175500D02*
X149473499Y-131175500D01*
G75*
G02*
X149223500Y-130925501I0J249999D01*
G01*
X149223500Y-130400499D01*
G75*
G02*
X149473499Y-130150500I249999J0D01*
G01*
X150373501Y-130150500D01*
G75*
G02*
X150623500Y-130400499I0J-249999D01*
G01*
X150623500Y-130925501D01*
G75*
G02*
X150373501Y-131175500I-249999J0D01*
G01*
G37*
G36*
G01*
X144901499Y-130150500D02*
X145801501Y-130150500D01*
G75*
G02*
X146051500Y-130400499I0J-249999D01*
G01*
X146051500Y-130925501D01*
G75*
G02*
X145801501Y-131175500I-249999J0D01*
G01*
X144901499Y-131175500D01*
G75*
G02*
X144651500Y-130925501I0J249999D01*
G01*
X144651500Y-130400499D01*
G75*
G02*
X144901499Y-130150500I249999J0D01*
G01*
G37*
G36*
G01*
X144901499Y-128325500D02*
X145801501Y-128325500D01*
G75*
G02*
X146051500Y-128575499I0J-249999D01*
G01*
X146051500Y-129100501D01*
G75*
G02*
X145801501Y-129350500I-249999J0D01*
G01*
X144901499Y-129350500D01*
G75*
G02*
X144651500Y-129100501I0J249999D01*
G01*
X144651500Y-128575499D01*
G75*
G02*
X144901499Y-128325500I249999J0D01*
G01*
G37*
G36*
G01*
X150437001Y-109538500D02*
X149536999Y-109538500D01*
G75*
G02*
X149287000Y-109288501I0J249999D01*
G01*
X149287000Y-108763499D01*
G75*
G02*
X149536999Y-108513500I249999J0D01*
G01*
X150437001Y-108513500D01*
G75*
G02*
X150687000Y-108763499I0J-249999D01*
G01*
X150687000Y-109288501D01*
G75*
G02*
X150437001Y-109538500I-249999J0D01*
G01*
G37*
G36*
G01*
X150437001Y-111363500D02*
X149536999Y-111363500D01*
G75*
G02*
X149287000Y-111113501I0J249999D01*
G01*
X149287000Y-110588499D01*
G75*
G02*
X149536999Y-110338500I249999J0D01*
G01*
X150437001Y-110338500D01*
G75*
G02*
X150687000Y-110588499I0J-249999D01*
G01*
X150687000Y-111113501D01*
G75*
G02*
X150437001Y-111363500I-249999J0D01*
G01*
G37*
G36*
G01*
X145865001Y-109538500D02*
X144964999Y-109538500D01*
G75*
G02*
X144715000Y-109288501I0J249999D01*
G01*
X144715000Y-108763499D01*
G75*
G02*
X144964999Y-108513500I249999J0D01*
G01*
X145865001Y-108513500D01*
G75*
G02*
X146115000Y-108763499I0J-249999D01*
G01*
X146115000Y-109288501D01*
G75*
G02*
X145865001Y-109538500I-249999J0D01*
G01*
G37*
G36*
G01*
X145865001Y-111363500D02*
X144964999Y-111363500D01*
G75*
G02*
X144715000Y-111113501I0J249999D01*
G01*
X144715000Y-110588499D01*
G75*
G02*
X144964999Y-110338500I249999J0D01*
G01*
X145865001Y-110338500D01*
G75*
G02*
X146115000Y-110588499I0J-249999D01*
G01*
X146115000Y-111113501D01*
G75*
G02*
X145865001Y-111363500I-249999J0D01*
G01*
G37*
G36*
G01*
X126549999Y-98583700D02*
X127450001Y-98583700D01*
G75*
G02*
X127700000Y-98833699I0J-249999D01*
G01*
X127700000Y-99358701D01*
G75*
G02*
X127450001Y-99608700I-249999J0D01*
G01*
X126549999Y-99608700D01*
G75*
G02*
X126300000Y-99358701I0J249999D01*
G01*
X126300000Y-98833699D01*
G75*
G02*
X126549999Y-98583700I249999J0D01*
G01*
G37*
G36*
G01*
X126549999Y-96758700D02*
X127450001Y-96758700D01*
G75*
G02*
X127700000Y-97008699I0J-249999D01*
G01*
X127700000Y-97533701D01*
G75*
G02*
X127450001Y-97783700I-249999J0D01*
G01*
X126549999Y-97783700D01*
G75*
G02*
X126300000Y-97533701I0J249999D01*
G01*
X126300000Y-97008699D01*
G75*
G02*
X126549999Y-96758700I249999J0D01*
G01*
G37*
G36*
G01*
X121977999Y-98583700D02*
X122878001Y-98583700D01*
G75*
G02*
X123128000Y-98833699I0J-249999D01*
G01*
X123128000Y-99358701D01*
G75*
G02*
X122878001Y-99608700I-249999J0D01*
G01*
X121977999Y-99608700D01*
G75*
G02*
X121728000Y-99358701I0J249999D01*
G01*
X121728000Y-98833699D01*
G75*
G02*
X121977999Y-98583700I249999J0D01*
G01*
G37*
G36*
G01*
X121977999Y-96758700D02*
X122878001Y-96758700D01*
G75*
G02*
X123128000Y-97008699I0J-249999D01*
G01*
X123128000Y-97533701D01*
G75*
G02*
X122878001Y-97783700I-249999J0D01*
G01*
X121977999Y-97783700D01*
G75*
G02*
X121728000Y-97533701I0J249999D01*
G01*
X121728000Y-97008699D01*
G75*
G02*
X121977999Y-96758700I249999J0D01*
G01*
G37*
G36*
G01*
X150373501Y-89389000D02*
X149473499Y-89389000D01*
G75*
G02*
X149223500Y-89139001I0J249999D01*
G01*
X149223500Y-88613999D01*
G75*
G02*
X149473499Y-88364000I249999J0D01*
G01*
X150373501Y-88364000D01*
G75*
G02*
X150623500Y-88613999I0J-249999D01*
G01*
X150623500Y-89139001D01*
G75*
G02*
X150373501Y-89389000I-249999J0D01*
G01*
G37*
G36*
G01*
X150373501Y-91214000D02*
X149473499Y-91214000D01*
G75*
G02*
X149223500Y-90964001I0J249999D01*
G01*
X149223500Y-90438999D01*
G75*
G02*
X149473499Y-90189000I249999J0D01*
G01*
X150373501Y-90189000D01*
G75*
G02*
X150623500Y-90438999I0J-249999D01*
G01*
X150623500Y-90964001D01*
G75*
G02*
X150373501Y-91214000I-249999J0D01*
G01*
G37*
G36*
G01*
X145801501Y-89389000D02*
X144901499Y-89389000D01*
G75*
G02*
X144651500Y-89139001I0J249999D01*
G01*
X144651500Y-88613999D01*
G75*
G02*
X144901499Y-88364000I249999J0D01*
G01*
X145801501Y-88364000D01*
G75*
G02*
X146051500Y-88613999I0J-249999D01*
G01*
X146051500Y-89139001D01*
G75*
G02*
X145801501Y-89389000I-249999J0D01*
G01*
G37*
G36*
G01*
X145801501Y-91214000D02*
X144901499Y-91214000D01*
G75*
G02*
X144651500Y-90964001I0J249999D01*
G01*
X144651500Y-90438999D01*
G75*
G02*
X144901499Y-90189000I249999J0D01*
G01*
X145801501Y-90189000D01*
G75*
G02*
X146051500Y-90438999I0J-249999D01*
G01*
X146051500Y-90964001D01*
G75*
G02*
X145801501Y-91214000I-249999J0D01*
G01*
G37*
G36*
G01*
X127450001Y-76879500D02*
X126549999Y-76879500D01*
G75*
G02*
X126300000Y-76629501I0J249999D01*
G01*
X126300000Y-76104499D01*
G75*
G02*
X126549999Y-75854500I249999J0D01*
G01*
X127450001Y-75854500D01*
G75*
G02*
X127700000Y-76104499I0J-249999D01*
G01*
X127700000Y-76629501D01*
G75*
G02*
X127450001Y-76879500I-249999J0D01*
G01*
G37*
G36*
G01*
X127450001Y-78704500D02*
X126549999Y-78704500D01*
G75*
G02*
X126300000Y-78454501I0J249999D01*
G01*
X126300000Y-77929499D01*
G75*
G02*
X126549999Y-77679500I249999J0D01*
G01*
X127450001Y-77679500D01*
G75*
G02*
X127700000Y-77929499I0J-249999D01*
G01*
X127700000Y-78454501D01*
G75*
G02*
X127450001Y-78704500I-249999J0D01*
G01*
G37*
G36*
G01*
X122878001Y-76879500D02*
X121977999Y-76879500D01*
G75*
G02*
X121728000Y-76629501I0J249999D01*
G01*
X121728000Y-76104499D01*
G75*
G02*
X121977999Y-75854500I249999J0D01*
G01*
X122878001Y-75854500D01*
G75*
G02*
X123128000Y-76104499I0J-249999D01*
G01*
X123128000Y-76629501D01*
G75*
G02*
X122878001Y-76879500I-249999J0D01*
G01*
G37*
G36*
G01*
X122878001Y-78704500D02*
X121977999Y-78704500D01*
G75*
G02*
X121728000Y-78454501I0J249999D01*
G01*
X121728000Y-77929499D01*
G75*
G02*
X121977999Y-77679500I249999J0D01*
G01*
X122878001Y-77679500D01*
G75*
G02*
X123128000Y-77929499I0J-249999D01*
G01*
X123128000Y-78454501D01*
G75*
G02*
X122878001Y-78704500I-249999J0D01*
G01*
G37*
G36*
G01*
X176638000Y-69780999D02*
X176638000Y-70681001D01*
G75*
G02*
X176388001Y-70931000I-249999J0D01*
G01*
X175862999Y-70931000D01*
G75*
G02*
X175613000Y-70681001I0J249999D01*
G01*
X175613000Y-69780999D01*
G75*
G02*
X175862999Y-69531000I249999J0D01*
G01*
X176388001Y-69531000D01*
G75*
G02*
X176638000Y-69780999I0J-249999D01*
G01*
G37*
G36*
G01*
X178463000Y-69780999D02*
X178463000Y-70681001D01*
G75*
G02*
X178213001Y-70931000I-249999J0D01*
G01*
X177687999Y-70931000D01*
G75*
G02*
X177438000Y-70681001I0J249999D01*
G01*
X177438000Y-69780999D01*
G75*
G02*
X177687999Y-69531000I249999J0D01*
G01*
X178213001Y-69531000D01*
G75*
G02*
X178463000Y-69780999I0J-249999D01*
G01*
G37*
G36*
G01*
X121024600Y-72687601D02*
X121024600Y-71787599D01*
G75*
G02*
X121274599Y-71537600I249999J0D01*
G01*
X121799601Y-71537600D01*
G75*
G02*
X122049600Y-71787599I0J-249999D01*
G01*
X122049600Y-72687601D01*
G75*
G02*
X121799601Y-72937600I-249999J0D01*
G01*
X121274599Y-72937600D01*
G75*
G02*
X121024600Y-72687601I0J249999D01*
G01*
G37*
G36*
G01*
X119199600Y-72687601D02*
X119199600Y-71787599D01*
G75*
G02*
X119449599Y-71537600I249999J0D01*
G01*
X119974601Y-71537600D01*
G75*
G02*
X120224600Y-71787599I0J-249999D01*
G01*
X120224600Y-72687601D01*
G75*
G02*
X119974601Y-72937600I-249999J0D01*
G01*
X119449599Y-72937600D01*
G75*
G02*
X119199600Y-72687601I0J249999D01*
G01*
G37*
G36*
G01*
X171001000Y-81412501D02*
X171001000Y-80512499D01*
G75*
G02*
X171250999Y-80262500I249999J0D01*
G01*
X171776001Y-80262500D01*
G75*
G02*
X172026000Y-80512499I0J-249999D01*
G01*
X172026000Y-81412501D01*
G75*
G02*
X171776001Y-81662500I-249999J0D01*
G01*
X171250999Y-81662500D01*
G75*
G02*
X171001000Y-81412501I0J249999D01*
G01*
G37*
G36*
G01*
X169176000Y-81412501D02*
X169176000Y-80512499D01*
G75*
G02*
X169425999Y-80262500I249999J0D01*
G01*
X169951001Y-80262500D01*
G75*
G02*
X170201000Y-80512499I0J-249999D01*
G01*
X170201000Y-81412501D01*
G75*
G02*
X169951001Y-81662500I-249999J0D01*
G01*
X169425999Y-81662500D01*
G75*
G02*
X169176000Y-81412501I0J249999D01*
G01*
G37*
G36*
G01*
X155505999Y-84474000D02*
X156406001Y-84474000D01*
G75*
G02*
X156656000Y-84723999I0J-249999D01*
G01*
X156656000Y-85249001D01*
G75*
G02*
X156406001Y-85499000I-249999J0D01*
G01*
X155505999Y-85499000D01*
G75*
G02*
X155256000Y-85249001I0J249999D01*
G01*
X155256000Y-84723999D01*
G75*
G02*
X155505999Y-84474000I249999J0D01*
G01*
G37*
G36*
G01*
X155505999Y-82649000D02*
X156406001Y-82649000D01*
G75*
G02*
X156656000Y-82898999I0J-249999D01*
G01*
X156656000Y-83424001D01*
G75*
G02*
X156406001Y-83674000I-249999J0D01*
G01*
X155505999Y-83674000D01*
G75*
G02*
X155256000Y-83424001I0J249999D01*
G01*
X155256000Y-82898999D01*
G75*
G02*
X155505999Y-82649000I249999J0D01*
G01*
G37*
G36*
G01*
X164776999Y-84474000D02*
X165677001Y-84474000D01*
G75*
G02*
X165927000Y-84723999I0J-249999D01*
G01*
X165927000Y-85249001D01*
G75*
G02*
X165677001Y-85499000I-249999J0D01*
G01*
X164776999Y-85499000D01*
G75*
G02*
X164527000Y-85249001I0J249999D01*
G01*
X164527000Y-84723999D01*
G75*
G02*
X164776999Y-84474000I249999J0D01*
G01*
G37*
G36*
G01*
X164776999Y-82649000D02*
X165677001Y-82649000D01*
G75*
G02*
X165927000Y-82898999I0J-249999D01*
G01*
X165927000Y-83424001D01*
G75*
G02*
X165677001Y-83674000I-249999J0D01*
G01*
X164776999Y-83674000D01*
G75*
G02*
X164527000Y-83424001I0J249999D01*
G01*
X164527000Y-82898999D01*
G75*
G02*
X164776999Y-82649000I249999J0D01*
G01*
G37*
G36*
G01*
X176638000Y-73273499D02*
X176638000Y-74173501D01*
G75*
G02*
X176388001Y-74423500I-249999J0D01*
G01*
X175862999Y-74423500D01*
G75*
G02*
X175613000Y-74173501I0J249999D01*
G01*
X175613000Y-73273499D01*
G75*
G02*
X175862999Y-73023500I249999J0D01*
G01*
X176388001Y-73023500D01*
G75*
G02*
X176638000Y-73273499I0J-249999D01*
G01*
G37*
G36*
G01*
X178463000Y-73273499D02*
X178463000Y-74173501D01*
G75*
G02*
X178213001Y-74423500I-249999J0D01*
G01*
X177687999Y-74423500D01*
G75*
G02*
X177438000Y-74173501I0J249999D01*
G01*
X177438000Y-73273499D01*
G75*
G02*
X177687999Y-73023500I249999J0D01*
G01*
X178213001Y-73023500D01*
G75*
G02*
X178463000Y-73273499I0J-249999D01*
G01*
G37*
G36*
G01*
X191497000Y-85401999D02*
X191497000Y-86302001D01*
G75*
G02*
X191247001Y-86552000I-249999J0D01*
G01*
X190721999Y-86552000D01*
G75*
G02*
X190472000Y-86302001I0J249999D01*
G01*
X190472000Y-85401999D01*
G75*
G02*
X190721999Y-85152000I249999J0D01*
G01*
X191247001Y-85152000D01*
G75*
G02*
X191497000Y-85401999I0J-249999D01*
G01*
G37*
G36*
G01*
X193322000Y-85401999D02*
X193322000Y-86302001D01*
G75*
G02*
X193072001Y-86552000I-249999J0D01*
G01*
X192546999Y-86552000D01*
G75*
G02*
X192297000Y-86302001I0J249999D01*
G01*
X192297000Y-85401999D01*
G75*
G02*
X192546999Y-85152000I249999J0D01*
G01*
X193072001Y-85152000D01*
G75*
G02*
X193322000Y-85401999I0J-249999D01*
G01*
G37*
G36*
G01*
X177438000Y-63696001D02*
X177438000Y-62795999D01*
G75*
G02*
X177687999Y-62546000I249999J0D01*
G01*
X178213001Y-62546000D01*
G75*
G02*
X178463000Y-62795999I0J-249999D01*
G01*
X178463000Y-63696001D01*
G75*
G02*
X178213001Y-63946000I-249999J0D01*
G01*
X177687999Y-63946000D01*
G75*
G02*
X177438000Y-63696001I0J249999D01*
G01*
G37*
G36*
G01*
X175613000Y-63696001D02*
X175613000Y-62795999D01*
G75*
G02*
X175862999Y-62546000I249999J0D01*
G01*
X176388001Y-62546000D01*
G75*
G02*
X176638000Y-62795999I0J-249999D01*
G01*
X176638000Y-63696001D01*
G75*
G02*
X176388001Y-63946000I-249999J0D01*
G01*
X175862999Y-63946000D01*
G75*
G02*
X175613000Y-63696001I0J249999D01*
G01*
G37*
G36*
G01*
X177438000Y-67252001D02*
X177438000Y-66351999D01*
G75*
G02*
X177687999Y-66102000I249999J0D01*
G01*
X178213001Y-66102000D01*
G75*
G02*
X178463000Y-66351999I0J-249999D01*
G01*
X178463000Y-67252001D01*
G75*
G02*
X178213001Y-67502000I-249999J0D01*
G01*
X177687999Y-67502000D01*
G75*
G02*
X177438000Y-67252001I0J249999D01*
G01*
G37*
G36*
G01*
X175613000Y-67252001D02*
X175613000Y-66351999D01*
G75*
G02*
X175862999Y-66102000I249999J0D01*
G01*
X176388001Y-66102000D01*
G75*
G02*
X176638000Y-66351999I0J-249999D01*
G01*
X176638000Y-67252001D01*
G75*
G02*
X176388001Y-67502000I-249999J0D01*
G01*
X175862999Y-67502000D01*
G75*
G02*
X175613000Y-67252001I0J249999D01*
G01*
G37*
G36*
G01*
X181298001Y-80118000D02*
X180397999Y-80118000D01*
G75*
G02*
X180148000Y-79868001I0J249999D01*
G01*
X180148000Y-79342999D01*
G75*
G02*
X180397999Y-79093000I249999J0D01*
G01*
X181298001Y-79093000D01*
G75*
G02*
X181548000Y-79342999I0J-249999D01*
G01*
X181548000Y-79868001D01*
G75*
G02*
X181298001Y-80118000I-249999J0D01*
G01*
G37*
G36*
G01*
X181298001Y-81943000D02*
X180397999Y-81943000D01*
G75*
G02*
X180148000Y-81693001I0J249999D01*
G01*
X180148000Y-81167999D01*
G75*
G02*
X180397999Y-80918000I249999J0D01*
G01*
X181298001Y-80918000D01*
G75*
G02*
X181548000Y-81167999I0J-249999D01*
G01*
X181548000Y-81693001D01*
G75*
G02*
X181298001Y-81943000I-249999J0D01*
G01*
G37*
G36*
G01*
X185096999Y-95777000D02*
X185997001Y-95777000D01*
G75*
G02*
X186247000Y-96026999I0J-249999D01*
G01*
X186247000Y-96552001D01*
G75*
G02*
X185997001Y-96802000I-249999J0D01*
G01*
X185096999Y-96802000D01*
G75*
G02*
X184847000Y-96552001I0J249999D01*
G01*
X184847000Y-96026999D01*
G75*
G02*
X185096999Y-95777000I249999J0D01*
G01*
G37*
G36*
G01*
X185096999Y-93952000D02*
X185997001Y-93952000D01*
G75*
G02*
X186247000Y-94201999I0J-249999D01*
G01*
X186247000Y-94727001D01*
G75*
G02*
X185997001Y-94977000I-249999J0D01*
G01*
X185096999Y-94977000D01*
G75*
G02*
X184847000Y-94727001I0J249999D01*
G01*
X184847000Y-94201999D01*
G75*
G02*
X185096999Y-93952000I249999J0D01*
G01*
G37*
G36*
G01*
X183064999Y-95777000D02*
X183965001Y-95777000D01*
G75*
G02*
X184215000Y-96026999I0J-249999D01*
G01*
X184215000Y-96552001D01*
G75*
G02*
X183965001Y-96802000I-249999J0D01*
G01*
X183064999Y-96802000D01*
G75*
G02*
X182815000Y-96552001I0J249999D01*
G01*
X182815000Y-96026999D01*
G75*
G02*
X183064999Y-95777000I249999J0D01*
G01*
G37*
G36*
G01*
X183064999Y-93952000D02*
X183965001Y-93952000D01*
G75*
G02*
X184215000Y-94201999I0J-249999D01*
G01*
X184215000Y-94727001D01*
G75*
G02*
X183965001Y-94977000I-249999J0D01*
G01*
X183064999Y-94977000D01*
G75*
G02*
X182815000Y-94727001I0J249999D01*
G01*
X182815000Y-94201999D01*
G75*
G02*
X183064999Y-93952000I249999J0D01*
G01*
G37*
G36*
G01*
X181032999Y-95777000D02*
X181933001Y-95777000D01*
G75*
G02*
X182183000Y-96026999I0J-249999D01*
G01*
X182183000Y-96552001D01*
G75*
G02*
X181933001Y-96802000I-249999J0D01*
G01*
X181032999Y-96802000D01*
G75*
G02*
X180783000Y-96552001I0J249999D01*
G01*
X180783000Y-96026999D01*
G75*
G02*
X181032999Y-95777000I249999J0D01*
G01*
G37*
G36*
G01*
X181032999Y-93952000D02*
X181933001Y-93952000D01*
G75*
G02*
X182183000Y-94201999I0J-249999D01*
G01*
X182183000Y-94727001D01*
G75*
G02*
X181933001Y-94977000I-249999J0D01*
G01*
X181032999Y-94977000D01*
G75*
G02*
X180783000Y-94727001I0J249999D01*
G01*
X180783000Y-94201999D01*
G75*
G02*
X181032999Y-93952000I249999J0D01*
G01*
G37*
G36*
G01*
X179000999Y-95777000D02*
X179901001Y-95777000D01*
G75*
G02*
X180151000Y-96026999I0J-249999D01*
G01*
X180151000Y-96552001D01*
G75*
G02*
X179901001Y-96802000I-249999J0D01*
G01*
X179000999Y-96802000D01*
G75*
G02*
X178751000Y-96552001I0J249999D01*
G01*
X178751000Y-96026999D01*
G75*
G02*
X179000999Y-95777000I249999J0D01*
G01*
G37*
G36*
G01*
X179000999Y-93952000D02*
X179901001Y-93952000D01*
G75*
G02*
X180151000Y-94201999I0J-249999D01*
G01*
X180151000Y-94727001D01*
G75*
G02*
X179901001Y-94977000I-249999J0D01*
G01*
X179000999Y-94977000D01*
G75*
G02*
X178751000Y-94727001I0J249999D01*
G01*
X178751000Y-94201999D01*
G75*
G02*
X179000999Y-93952000I249999J0D01*
G01*
G37*
G36*
G01*
X176968999Y-95777000D02*
X177869001Y-95777000D01*
G75*
G02*
X178119000Y-96026999I0J-249999D01*
G01*
X178119000Y-96552001D01*
G75*
G02*
X177869001Y-96802000I-249999J0D01*
G01*
X176968999Y-96802000D01*
G75*
G02*
X176719000Y-96552001I0J249999D01*
G01*
X176719000Y-96026999D01*
G75*
G02*
X176968999Y-95777000I249999J0D01*
G01*
G37*
G36*
G01*
X176968999Y-93952000D02*
X177869001Y-93952000D01*
G75*
G02*
X178119000Y-94201999I0J-249999D01*
G01*
X178119000Y-94727001D01*
G75*
G02*
X177869001Y-94977000I-249999J0D01*
G01*
X176968999Y-94977000D01*
G75*
G02*
X176719000Y-94727001I0J249999D01*
G01*
X176719000Y-94201999D01*
G75*
G02*
X176968999Y-93952000I249999J0D01*
G01*
G37*
G36*
G01*
X177019000Y-86925999D02*
X177019000Y-87826001D01*
G75*
G02*
X176769001Y-88076000I-249999J0D01*
G01*
X176243999Y-88076000D01*
G75*
G02*
X175994000Y-87826001I0J249999D01*
G01*
X175994000Y-86925999D01*
G75*
G02*
X176243999Y-86676000I249999J0D01*
G01*
X176769001Y-86676000D01*
G75*
G02*
X177019000Y-86925999I0J-249999D01*
G01*
G37*
G36*
G01*
X178844000Y-86925999D02*
X178844000Y-87826001D01*
G75*
G02*
X178594001Y-88076000I-249999J0D01*
G01*
X178068999Y-88076000D01*
G75*
G02*
X177819000Y-87826001I0J249999D01*
G01*
X177819000Y-86925999D01*
G75*
G02*
X178068999Y-86676000I249999J0D01*
G01*
X178594001Y-86676000D01*
G75*
G02*
X178844000Y-86925999I0J-249999D01*
G01*
G37*
G36*
G01*
X187128999Y-95777000D02*
X188029001Y-95777000D01*
G75*
G02*
X188279000Y-96026999I0J-249999D01*
G01*
X188279000Y-96552001D01*
G75*
G02*
X188029001Y-96802000I-249999J0D01*
G01*
X187128999Y-96802000D01*
G75*
G02*
X186879000Y-96552001I0J249999D01*
G01*
X186879000Y-96026999D01*
G75*
G02*
X187128999Y-95777000I249999J0D01*
G01*
G37*
G36*
G01*
X187128999Y-93952000D02*
X188029001Y-93952000D01*
G75*
G02*
X188279000Y-94201999I0J-249999D01*
G01*
X188279000Y-94727001D01*
G75*
G02*
X188029001Y-94977000I-249999J0D01*
G01*
X187128999Y-94977000D01*
G75*
G02*
X186879000Y-94727001I0J249999D01*
G01*
X186879000Y-94201999D01*
G75*
G02*
X187128999Y-93952000I249999J0D01*
G01*
G37*
G36*
G01*
X189160999Y-95777000D02*
X190061001Y-95777000D01*
G75*
G02*
X190311000Y-96026999I0J-249999D01*
G01*
X190311000Y-96552001D01*
G75*
G02*
X190061001Y-96802000I-249999J0D01*
G01*
X189160999Y-96802000D01*
G75*
G02*
X188911000Y-96552001I0J249999D01*
G01*
X188911000Y-96026999D01*
G75*
G02*
X189160999Y-95777000I249999J0D01*
G01*
G37*
G36*
G01*
X189160999Y-93952000D02*
X190061001Y-93952000D01*
G75*
G02*
X190311000Y-94201999I0J-249999D01*
G01*
X190311000Y-94727001D01*
G75*
G02*
X190061001Y-94977000I-249999J0D01*
G01*
X189160999Y-94977000D01*
G75*
G02*
X188911000Y-94727001I0J249999D01*
G01*
X188911000Y-94201999D01*
G75*
G02*
X189160999Y-93952000I249999J0D01*
G01*
G37*
G36*
G01*
X191192999Y-95777000D02*
X192093001Y-95777000D01*
G75*
G02*
X192343000Y-96026999I0J-249999D01*
G01*
X192343000Y-96552001D01*
G75*
G02*
X192093001Y-96802000I-249999J0D01*
G01*
X191192999Y-96802000D01*
G75*
G02*
X190943000Y-96552001I0J249999D01*
G01*
X190943000Y-96026999D01*
G75*
G02*
X191192999Y-95777000I249999J0D01*
G01*
G37*
G36*
G01*
X191192999Y-93952000D02*
X192093001Y-93952000D01*
G75*
G02*
X192343000Y-94201999I0J-249999D01*
G01*
X192343000Y-94727001D01*
G75*
G02*
X192093001Y-94977000I-249999J0D01*
G01*
X191192999Y-94977000D01*
G75*
G02*
X190943000Y-94727001I0J249999D01*
G01*
X190943000Y-94201999D01*
G75*
G02*
X191192999Y-93952000I249999J0D01*
G01*
G37*
G36*
G01*
X177019000Y-91243999D02*
X177019000Y-92144001D01*
G75*
G02*
X176769001Y-92394000I-249999J0D01*
G01*
X176243999Y-92394000D01*
G75*
G02*
X175994000Y-92144001I0J249999D01*
G01*
X175994000Y-91243999D01*
G75*
G02*
X176243999Y-90994000I249999J0D01*
G01*
X176769001Y-90994000D01*
G75*
G02*
X177019000Y-91243999I0J-249999D01*
G01*
G37*
G36*
G01*
X178844000Y-91243999D02*
X178844000Y-92144001D01*
G75*
G02*
X178594001Y-92394000I-249999J0D01*
G01*
X178068999Y-92394000D01*
G75*
G02*
X177819000Y-92144001I0J249999D01*
G01*
X177819000Y-91243999D01*
G75*
G02*
X178068999Y-90994000I249999J0D01*
G01*
X178594001Y-90994000D01*
G75*
G02*
X178844000Y-91243999I0J-249999D01*
G01*
G37*
G36*
G01*
X177019000Y-89084999D02*
X177019000Y-89985001D01*
G75*
G02*
X176769001Y-90235000I-249999J0D01*
G01*
X176243999Y-90235000D01*
G75*
G02*
X175994000Y-89985001I0J249999D01*
G01*
X175994000Y-89084999D01*
G75*
G02*
X176243999Y-88835000I249999J0D01*
G01*
X176769001Y-88835000D01*
G75*
G02*
X177019000Y-89084999I0J-249999D01*
G01*
G37*
G36*
G01*
X178844000Y-89084999D02*
X178844000Y-89985001D01*
G75*
G02*
X178594001Y-90235000I-249999J0D01*
G01*
X178068999Y-90235000D01*
G75*
G02*
X177819000Y-89985001I0J249999D01*
G01*
X177819000Y-89084999D01*
G75*
G02*
X178068999Y-88835000I249999J0D01*
G01*
X178594001Y-88835000D01*
G75*
G02*
X178844000Y-89084999I0J-249999D01*
G01*
G37*
G36*
G01*
X166554999Y-118510000D02*
X167455001Y-118510000D01*
G75*
G02*
X167705000Y-118759999I0J-249999D01*
G01*
X167705000Y-119285001D01*
G75*
G02*
X167455001Y-119535000I-249999J0D01*
G01*
X166554999Y-119535000D01*
G75*
G02*
X166305000Y-119285001I0J249999D01*
G01*
X166305000Y-118759999D01*
G75*
G02*
X166554999Y-118510000I249999J0D01*
G01*
G37*
G36*
G01*
X166554999Y-116685000D02*
X167455001Y-116685000D01*
G75*
G02*
X167705000Y-116934999I0J-249999D01*
G01*
X167705000Y-117460001D01*
G75*
G02*
X167455001Y-117710000I-249999J0D01*
G01*
X166554999Y-117710000D01*
G75*
G02*
X166305000Y-117460001I0J249999D01*
G01*
X166305000Y-116934999D01*
G75*
G02*
X166554999Y-116685000I249999J0D01*
G01*
G37*
G36*
G01*
X151949999Y-131845000D02*
X152850001Y-131845000D01*
G75*
G02*
X153100000Y-132094999I0J-249999D01*
G01*
X153100000Y-132620001D01*
G75*
G02*
X152850001Y-132870000I-249999J0D01*
G01*
X151949999Y-132870000D01*
G75*
G02*
X151700000Y-132620001I0J249999D01*
G01*
X151700000Y-132094999D01*
G75*
G02*
X151949999Y-131845000I249999J0D01*
G01*
G37*
G36*
G01*
X151949999Y-130020000D02*
X152850001Y-130020000D01*
G75*
G02*
X153100000Y-130269999I0J-249999D01*
G01*
X153100000Y-130795001D01*
G75*
G02*
X152850001Y-131045000I-249999J0D01*
G01*
X151949999Y-131045000D01*
G75*
G02*
X151700000Y-130795001I0J249999D01*
G01*
X151700000Y-130269999D01*
G75*
G02*
X151949999Y-130020000I249999J0D01*
G01*
G37*
G36*
G01*
X162998999Y-131821500D02*
X163899001Y-131821500D01*
G75*
G02*
X164149000Y-132071499I0J-249999D01*
G01*
X164149000Y-132596501D01*
G75*
G02*
X163899001Y-132846500I-249999J0D01*
G01*
X162998999Y-132846500D01*
G75*
G02*
X162749000Y-132596501I0J249999D01*
G01*
X162749000Y-132071499D01*
G75*
G02*
X162998999Y-131821500I249999J0D01*
G01*
G37*
G36*
G01*
X162998999Y-129996500D02*
X163899001Y-129996500D01*
G75*
G02*
X164149000Y-130246499I0J-249999D01*
G01*
X164149000Y-130771501D01*
G75*
G02*
X163899001Y-131021500I-249999J0D01*
G01*
X162998999Y-131021500D01*
G75*
G02*
X162749000Y-130771501I0J249999D01*
G01*
X162749000Y-130246499D01*
G75*
G02*
X162998999Y-129996500I249999J0D01*
G01*
G37*
G36*
G01*
X151949999Y-120288000D02*
X152850001Y-120288000D01*
G75*
G02*
X153100000Y-120537999I0J-249999D01*
G01*
X153100000Y-121063001D01*
G75*
G02*
X152850001Y-121313000I-249999J0D01*
G01*
X151949999Y-121313000D01*
G75*
G02*
X151700000Y-121063001I0J249999D01*
G01*
X151700000Y-120537999D01*
G75*
G02*
X151949999Y-120288000I249999J0D01*
G01*
G37*
G36*
G01*
X151949999Y-118463000D02*
X152850001Y-118463000D01*
G75*
G02*
X153100000Y-118712999I0J-249999D01*
G01*
X153100000Y-119238001D01*
G75*
G02*
X152850001Y-119488000I-249999J0D01*
G01*
X151949999Y-119488000D01*
G75*
G02*
X151700000Y-119238001I0J249999D01*
G01*
X151700000Y-118712999D01*
G75*
G02*
X151949999Y-118463000I249999J0D01*
G01*
G37*
G36*
G01*
X167455001Y-121393000D02*
X166554999Y-121393000D01*
G75*
G02*
X166305000Y-121143001I0J249999D01*
G01*
X166305000Y-120617999D01*
G75*
G02*
X166554999Y-120368000I249999J0D01*
G01*
X167455001Y-120368000D01*
G75*
G02*
X167705000Y-120617999I0J-249999D01*
G01*
X167705000Y-121143001D01*
G75*
G02*
X167455001Y-121393000I-249999J0D01*
G01*
G37*
G36*
G01*
X167455001Y-123218000D02*
X166554999Y-123218000D01*
G75*
G02*
X166305000Y-122968001I0J249999D01*
G01*
X166305000Y-122442999D01*
G75*
G02*
X166554999Y-122193000I249999J0D01*
G01*
X167455001Y-122193000D01*
G75*
G02*
X167705000Y-122442999I0J-249999D01*
G01*
X167705000Y-122968001D01*
G75*
G02*
X167455001Y-123218000I-249999J0D01*
G01*
G37*
G36*
G01*
X175914000Y-110686001D02*
X175914000Y-109785999D01*
G75*
G02*
X176163999Y-109536000I249999J0D01*
G01*
X176689001Y-109536000D01*
G75*
G02*
X176939000Y-109785999I0J-249999D01*
G01*
X176939000Y-110686001D01*
G75*
G02*
X176689001Y-110936000I-249999J0D01*
G01*
X176163999Y-110936000D01*
G75*
G02*
X175914000Y-110686001I0J249999D01*
G01*
G37*
G36*
G01*
X174089000Y-110686001D02*
X174089000Y-109785999D01*
G75*
G02*
X174338999Y-109536000I249999J0D01*
G01*
X174864001Y-109536000D01*
G75*
G02*
X175114000Y-109785999I0J-249999D01*
G01*
X175114000Y-110686001D01*
G75*
G02*
X174864001Y-110936000I-249999J0D01*
G01*
X174338999Y-110936000D01*
G75*
G02*
X174089000Y-110686001I0J249999D01*
G01*
G37*
G36*
G01*
X176295000Y-117671001D02*
X176295000Y-116770999D01*
G75*
G02*
X176544999Y-116521000I249999J0D01*
G01*
X177070001Y-116521000D01*
G75*
G02*
X177320000Y-116770999I0J-249999D01*
G01*
X177320000Y-117671001D01*
G75*
G02*
X177070001Y-117921000I-249999J0D01*
G01*
X176544999Y-117921000D01*
G75*
G02*
X176295000Y-117671001I0J249999D01*
G01*
G37*
G36*
G01*
X174470000Y-117671001D02*
X174470000Y-116770999D01*
G75*
G02*
X174719999Y-116521000I249999J0D01*
G01*
X175245001Y-116521000D01*
G75*
G02*
X175495000Y-116770999I0J-249999D01*
G01*
X175495000Y-117671001D01*
G75*
G02*
X175245001Y-117921000I-249999J0D01*
G01*
X174719999Y-117921000D01*
G75*
G02*
X174470000Y-117671001I0J249999D01*
G01*
G37*
G36*
G01*
X191027000Y-83254001D02*
X191027000Y-82353999D01*
G75*
G02*
X191276999Y-82104000I249999J0D01*
G01*
X191802001Y-82104000D01*
G75*
G02*
X192052000Y-82353999I0J-249999D01*
G01*
X192052000Y-83254001D01*
G75*
G02*
X191802001Y-83504000I-249999J0D01*
G01*
X191276999Y-83504000D01*
G75*
G02*
X191027000Y-83254001I0J249999D01*
G01*
G37*
G36*
G01*
X189202000Y-83254001D02*
X189202000Y-82353999D01*
G75*
G02*
X189451999Y-82104000I249999J0D01*
G01*
X189977001Y-82104000D01*
G75*
G02*
X190227000Y-82353999I0J-249999D01*
G01*
X190227000Y-83254001D01*
G75*
G02*
X189977001Y-83504000I-249999J0D01*
G01*
X189451999Y-83504000D01*
G75*
G02*
X189202000Y-83254001I0J249999D01*
G01*
G37*
G36*
G01*
X170618999Y-85109000D02*
X171519001Y-85109000D01*
G75*
G02*
X171769000Y-85358999I0J-249999D01*
G01*
X171769000Y-85884001D01*
G75*
G02*
X171519001Y-86134000I-249999J0D01*
G01*
X170618999Y-86134000D01*
G75*
G02*
X170369000Y-85884001I0J249999D01*
G01*
X170369000Y-85358999D01*
G75*
G02*
X170618999Y-85109000I249999J0D01*
G01*
G37*
G36*
G01*
X170618999Y-83284000D02*
X171519001Y-83284000D01*
G75*
G02*
X171769000Y-83533999I0J-249999D01*
G01*
X171769000Y-84059001D01*
G75*
G02*
X171519001Y-84309000I-249999J0D01*
G01*
X170618999Y-84309000D01*
G75*
G02*
X170369000Y-84059001I0J249999D01*
G01*
X170369000Y-83533999D01*
G75*
G02*
X170618999Y-83284000I249999J0D01*
G01*
G37*
G36*
G01*
X168840999Y-107715000D02*
X169741001Y-107715000D01*
G75*
G02*
X169991000Y-107964999I0J-249999D01*
G01*
X169991000Y-108490001D01*
G75*
G02*
X169741001Y-108740000I-249999J0D01*
G01*
X168840999Y-108740000D01*
G75*
G02*
X168591000Y-108490001I0J249999D01*
G01*
X168591000Y-107964999D01*
G75*
G02*
X168840999Y-107715000I249999J0D01*
G01*
G37*
G36*
G01*
X168840999Y-105890000D02*
X169741001Y-105890000D01*
G75*
G02*
X169991000Y-106139999I0J-249999D01*
G01*
X169991000Y-106665001D01*
G75*
G02*
X169741001Y-106915000I-249999J0D01*
G01*
X168840999Y-106915000D01*
G75*
G02*
X168591000Y-106665001I0J249999D01*
G01*
X168591000Y-106139999D01*
G75*
G02*
X168840999Y-105890000I249999J0D01*
G01*
G37*
G36*
G01*
X125237982Y-118046400D02*
X124325482Y-118046400D01*
G75*
G02*
X124081732Y-117802650I0J243750D01*
G01*
X124081732Y-117315150D01*
G75*
G02*
X124325482Y-117071400I243750J0D01*
G01*
X125237982Y-117071400D01*
G75*
G02*
X125481732Y-117315150I0J-243750D01*
G01*
X125481732Y-117802650D01*
G75*
G02*
X125237982Y-118046400I-243750J0D01*
G01*
G37*
G36*
G01*
X125237982Y-119921400D02*
X124325482Y-119921400D01*
G75*
G02*
X124081732Y-119677650I0J243750D01*
G01*
X124081732Y-119190150D01*
G75*
G02*
X124325482Y-118946400I243750J0D01*
G01*
X125237982Y-118946400D01*
G75*
G02*
X125481732Y-119190150I0J-243750D01*
G01*
X125481732Y-119677650D01*
G75*
G02*
X125237982Y-119921400I-243750J0D01*
G01*
G37*
G36*
G01*
X120623650Y-118046400D02*
X119711150Y-118046400D01*
G75*
G02*
X119467400Y-117802650I0J243750D01*
G01*
X119467400Y-117315150D01*
G75*
G02*
X119711150Y-117071400I243750J0D01*
G01*
X120623650Y-117071400D01*
G75*
G02*
X120867400Y-117315150I0J-243750D01*
G01*
X120867400Y-117802650D01*
G75*
G02*
X120623650Y-118046400I-243750J0D01*
G01*
G37*
G36*
G01*
X120623650Y-119921400D02*
X119711150Y-119921400D01*
G75*
G02*
X119467400Y-119677650I0J243750D01*
G01*
X119467400Y-119190150D01*
G75*
G02*
X119711150Y-118946400I243750J0D01*
G01*
X120623650Y-118946400D01*
G75*
G02*
X120867400Y-119190150I0J-243750D01*
G01*
X120867400Y-119677650D01*
G75*
G02*
X120623650Y-119921400I-243750J0D01*
G01*
G37*
G36*
G01*
X148093750Y-129280500D02*
X147181250Y-129280500D01*
G75*
G02*
X146937500Y-129036750I0J243750D01*
G01*
X146937500Y-128549250D01*
G75*
G02*
X147181250Y-128305500I243750J0D01*
G01*
X148093750Y-128305500D01*
G75*
G02*
X148337500Y-128549250I0J-243750D01*
G01*
X148337500Y-129036750D01*
G75*
G02*
X148093750Y-129280500I-243750J0D01*
G01*
G37*
G36*
G01*
X148093750Y-131155500D02*
X147181250Y-131155500D01*
G75*
G02*
X146937500Y-130911750I0J243750D01*
G01*
X146937500Y-130424250D01*
G75*
G02*
X147181250Y-130180500I243750J0D01*
G01*
X148093750Y-130180500D01*
G75*
G02*
X148337500Y-130424250I0J-243750D01*
G01*
X148337500Y-130911750D01*
G75*
G02*
X148093750Y-131155500I-243750J0D01*
G01*
G37*
G36*
G01*
X143521750Y-129280500D02*
X142609250Y-129280500D01*
G75*
G02*
X142365500Y-129036750I0J243750D01*
G01*
X142365500Y-128549250D01*
G75*
G02*
X142609250Y-128305500I243750J0D01*
G01*
X143521750Y-128305500D01*
G75*
G02*
X143765500Y-128549250I0J-243750D01*
G01*
X143765500Y-129036750D01*
G75*
G02*
X143521750Y-129280500I-243750J0D01*
G01*
G37*
G36*
G01*
X143521750Y-131155500D02*
X142609250Y-131155500D01*
G75*
G02*
X142365500Y-130911750I0J243750D01*
G01*
X142365500Y-130424250D01*
G75*
G02*
X142609250Y-130180500I243750J0D01*
G01*
X143521750Y-130180500D01*
G75*
G02*
X143765500Y-130424250I0J-243750D01*
G01*
X143765500Y-130911750D01*
G75*
G02*
X143521750Y-131155500I-243750J0D01*
G01*
G37*
G36*
G01*
X148157250Y-109468500D02*
X147244750Y-109468500D01*
G75*
G02*
X147001000Y-109224750I0J243750D01*
G01*
X147001000Y-108737250D01*
G75*
G02*
X147244750Y-108493500I243750J0D01*
G01*
X148157250Y-108493500D01*
G75*
G02*
X148401000Y-108737250I0J-243750D01*
G01*
X148401000Y-109224750D01*
G75*
G02*
X148157250Y-109468500I-243750J0D01*
G01*
G37*
G36*
G01*
X148157250Y-111343500D02*
X147244750Y-111343500D01*
G75*
G02*
X147001000Y-111099750I0J243750D01*
G01*
X147001000Y-110612250D01*
G75*
G02*
X147244750Y-110368500I243750J0D01*
G01*
X148157250Y-110368500D01*
G75*
G02*
X148401000Y-110612250I0J-243750D01*
G01*
X148401000Y-111099750D01*
G75*
G02*
X148157250Y-111343500I-243750J0D01*
G01*
G37*
G36*
G01*
X143585250Y-109468500D02*
X142672750Y-109468500D01*
G75*
G02*
X142429000Y-109224750I0J243750D01*
G01*
X142429000Y-108737250D01*
G75*
G02*
X142672750Y-108493500I243750J0D01*
G01*
X143585250Y-108493500D01*
G75*
G02*
X143829000Y-108737250I0J-243750D01*
G01*
X143829000Y-109224750D01*
G75*
G02*
X143585250Y-109468500I-243750J0D01*
G01*
G37*
G36*
G01*
X143585250Y-111343500D02*
X142672750Y-111343500D01*
G75*
G02*
X142429000Y-111099750I0J243750D01*
G01*
X142429000Y-110612250D01*
G75*
G02*
X142672750Y-110368500I243750J0D01*
G01*
X143585250Y-110368500D01*
G75*
G02*
X143829000Y-110612250I0J-243750D01*
G01*
X143829000Y-111099750D01*
G75*
G02*
X143585250Y-111343500I-243750J0D01*
G01*
G37*
G36*
G01*
X125170250Y-97713700D02*
X124257750Y-97713700D01*
G75*
G02*
X124014000Y-97469950I0J243750D01*
G01*
X124014000Y-96982450D01*
G75*
G02*
X124257750Y-96738700I243750J0D01*
G01*
X125170250Y-96738700D01*
G75*
G02*
X125414000Y-96982450I0J-243750D01*
G01*
X125414000Y-97469950D01*
G75*
G02*
X125170250Y-97713700I-243750J0D01*
G01*
G37*
G36*
G01*
X125170250Y-99588700D02*
X124257750Y-99588700D01*
G75*
G02*
X124014000Y-99344950I0J243750D01*
G01*
X124014000Y-98857450D01*
G75*
G02*
X124257750Y-98613700I243750J0D01*
G01*
X125170250Y-98613700D01*
G75*
G02*
X125414000Y-98857450I0J-243750D01*
G01*
X125414000Y-99344950D01*
G75*
G02*
X125170250Y-99588700I-243750J0D01*
G01*
G37*
G36*
G01*
X120598250Y-97713700D02*
X119685750Y-97713700D01*
G75*
G02*
X119442000Y-97469950I0J243750D01*
G01*
X119442000Y-96982450D01*
G75*
G02*
X119685750Y-96738700I243750J0D01*
G01*
X120598250Y-96738700D01*
G75*
G02*
X120842000Y-96982450I0J-243750D01*
G01*
X120842000Y-97469950D01*
G75*
G02*
X120598250Y-97713700I-243750J0D01*
G01*
G37*
G36*
G01*
X120598250Y-99588700D02*
X119685750Y-99588700D01*
G75*
G02*
X119442000Y-99344950I0J243750D01*
G01*
X119442000Y-98857450D01*
G75*
G02*
X119685750Y-98613700I243750J0D01*
G01*
X120598250Y-98613700D01*
G75*
G02*
X120842000Y-98857450I0J-243750D01*
G01*
X120842000Y-99344950D01*
G75*
G02*
X120598250Y-99588700I-243750J0D01*
G01*
G37*
G36*
G01*
X148093750Y-89319000D02*
X147181250Y-89319000D01*
G75*
G02*
X146937500Y-89075250I0J243750D01*
G01*
X146937500Y-88587750D01*
G75*
G02*
X147181250Y-88344000I243750J0D01*
G01*
X148093750Y-88344000D01*
G75*
G02*
X148337500Y-88587750I0J-243750D01*
G01*
X148337500Y-89075250D01*
G75*
G02*
X148093750Y-89319000I-243750J0D01*
G01*
G37*
G36*
G01*
X148093750Y-91194000D02*
X147181250Y-91194000D01*
G75*
G02*
X146937500Y-90950250I0J243750D01*
G01*
X146937500Y-90462750D01*
G75*
G02*
X147181250Y-90219000I243750J0D01*
G01*
X148093750Y-90219000D01*
G75*
G02*
X148337500Y-90462750I0J-243750D01*
G01*
X148337500Y-90950250D01*
G75*
G02*
X148093750Y-91194000I-243750J0D01*
G01*
G37*
G36*
G01*
X143521750Y-89319000D02*
X142609250Y-89319000D01*
G75*
G02*
X142365500Y-89075250I0J243750D01*
G01*
X142365500Y-88587750D01*
G75*
G02*
X142609250Y-88344000I243750J0D01*
G01*
X143521750Y-88344000D01*
G75*
G02*
X143765500Y-88587750I0J-243750D01*
G01*
X143765500Y-89075250D01*
G75*
G02*
X143521750Y-89319000I-243750J0D01*
G01*
G37*
G36*
G01*
X143521750Y-91194000D02*
X142609250Y-91194000D01*
G75*
G02*
X142365500Y-90950250I0J243750D01*
G01*
X142365500Y-90462750D01*
G75*
G02*
X142609250Y-90219000I243750J0D01*
G01*
X143521750Y-90219000D01*
G75*
G02*
X143765500Y-90462750I0J-243750D01*
G01*
X143765500Y-90950250D01*
G75*
G02*
X143521750Y-91194000I-243750J0D01*
G01*
G37*
G36*
G01*
X125170250Y-76809500D02*
X124257750Y-76809500D01*
G75*
G02*
X124014000Y-76565750I0J243750D01*
G01*
X124014000Y-76078250D01*
G75*
G02*
X124257750Y-75834500I243750J0D01*
G01*
X125170250Y-75834500D01*
G75*
G02*
X125414000Y-76078250I0J-243750D01*
G01*
X125414000Y-76565750D01*
G75*
G02*
X125170250Y-76809500I-243750J0D01*
G01*
G37*
G36*
G01*
X125170250Y-78684500D02*
X124257750Y-78684500D01*
G75*
G02*
X124014000Y-78440750I0J243750D01*
G01*
X124014000Y-77953250D01*
G75*
G02*
X124257750Y-77709500I243750J0D01*
G01*
X125170250Y-77709500D01*
G75*
G02*
X125414000Y-77953250I0J-243750D01*
G01*
X125414000Y-78440750D01*
G75*
G02*
X125170250Y-78684500I-243750J0D01*
G01*
G37*
G36*
G01*
X120598250Y-76809500D02*
X119685750Y-76809500D01*
G75*
G02*
X119442000Y-76565750I0J243750D01*
G01*
X119442000Y-76078250D01*
G75*
G02*
X119685750Y-75834500I243750J0D01*
G01*
X120598250Y-75834500D01*
G75*
G02*
X120842000Y-76078250I0J-243750D01*
G01*
X120842000Y-76565750D01*
G75*
G02*
X120598250Y-76809500I-243750J0D01*
G01*
G37*
G36*
G01*
X120598250Y-78684500D02*
X119685750Y-78684500D01*
G75*
G02*
X119442000Y-78440750I0J243750D01*
G01*
X119442000Y-77953250D01*
G75*
G02*
X119685750Y-77709500I243750J0D01*
G01*
X120598250Y-77709500D01*
G75*
G02*
X120842000Y-77953250I0J-243750D01*
G01*
X120842000Y-78440750D01*
G75*
G02*
X120598250Y-78684500I-243750J0D01*
G01*
G37*
G36*
G01*
X168834750Y-122243000D02*
X169747250Y-122243000D01*
G75*
G02*
X169991000Y-122486750I0J-243750D01*
G01*
X169991000Y-122974250D01*
G75*
G02*
X169747250Y-123218000I-243750J0D01*
G01*
X168834750Y-123218000D01*
G75*
G02*
X168591000Y-122974250I0J243750D01*
G01*
X168591000Y-122486750D01*
G75*
G02*
X168834750Y-122243000I243750J0D01*
G01*
G37*
G36*
G01*
X168834750Y-120368000D02*
X169747250Y-120368000D01*
G75*
G02*
X169991000Y-120611750I0J-243750D01*
G01*
X169991000Y-121099250D01*
G75*
G02*
X169747250Y-121343000I-243750J0D01*
G01*
X168834750Y-121343000D01*
G75*
G02*
X168591000Y-121099250I0J243750D01*
G01*
X168591000Y-120611750D01*
G75*
G02*
X168834750Y-120368000I243750J0D01*
G01*
G37*
G36*
G01*
X116898400Y-123106600D02*
X117848400Y-123106600D01*
G75*
G02*
X118098400Y-123356600I0J-250000D01*
G01*
X118098400Y-123856600D01*
G75*
G02*
X117848400Y-124106600I-250000J0D01*
G01*
X116898400Y-124106600D01*
G75*
G02*
X116648400Y-123856600I0J250000D01*
G01*
X116648400Y-123356600D01*
G75*
G02*
X116898400Y-123106600I250000J0D01*
G01*
G37*
G36*
G01*
X116898400Y-121206600D02*
X117848400Y-121206600D01*
G75*
G02*
X118098400Y-121456600I0J-250000D01*
G01*
X118098400Y-121956600D01*
G75*
G02*
X117848400Y-122206600I-250000J0D01*
G01*
X116898400Y-122206600D01*
G75*
G02*
X116648400Y-121956600I0J250000D01*
G01*
X116648400Y-121456600D01*
G75*
G02*
X116898400Y-121206600I250000J0D01*
G01*
G37*
G36*
G01*
X138361000Y-131859000D02*
X138361000Y-132809000D01*
G75*
G02*
X138111000Y-133059000I-250000J0D01*
G01*
X137611000Y-133059000D01*
G75*
G02*
X137361000Y-132809000I0J250000D01*
G01*
X137361000Y-131859000D01*
G75*
G02*
X137611000Y-131609000I250000J0D01*
G01*
X138111000Y-131609000D01*
G75*
G02*
X138361000Y-131859000I0J-250000D01*
G01*
G37*
G36*
G01*
X140261000Y-131859000D02*
X140261000Y-132809000D01*
G75*
G02*
X140011000Y-133059000I-250000J0D01*
G01*
X139511000Y-133059000D01*
G75*
G02*
X139261000Y-132809000I0J250000D01*
G01*
X139261000Y-131859000D01*
G75*
G02*
X139511000Y-131609000I250000J0D01*
G01*
X140011000Y-131609000D01*
G75*
G02*
X140261000Y-131859000I0J-250000D01*
G01*
G37*
G36*
G01*
X116923800Y-113099000D02*
X117873800Y-113099000D01*
G75*
G02*
X118123800Y-113349000I0J-250000D01*
G01*
X118123800Y-113849000D01*
G75*
G02*
X117873800Y-114099000I-250000J0D01*
G01*
X116923800Y-114099000D01*
G75*
G02*
X116673800Y-113849000I0J250000D01*
G01*
X116673800Y-113349000D01*
G75*
G02*
X116923800Y-113099000I250000J0D01*
G01*
G37*
G36*
G01*
X116923800Y-111199000D02*
X117873800Y-111199000D01*
G75*
G02*
X118123800Y-111449000I0J-250000D01*
G01*
X118123800Y-111949000D01*
G75*
G02*
X117873800Y-112199000I-250000J0D01*
G01*
X116923800Y-112199000D01*
G75*
G02*
X116673800Y-111949000I0J250000D01*
G01*
X116673800Y-111449000D01*
G75*
G02*
X116923800Y-111199000I250000J0D01*
G01*
G37*
G36*
G01*
X132136300Y-118254800D02*
X132136300Y-117304800D01*
G75*
G02*
X132386300Y-117054800I250000J0D01*
G01*
X132886300Y-117054800D01*
G75*
G02*
X133136300Y-117304800I0J-250000D01*
G01*
X133136300Y-118254800D01*
G75*
G02*
X132886300Y-118504800I-250000J0D01*
G01*
X132386300Y-118504800D01*
G75*
G02*
X132136300Y-118254800I0J250000D01*
G01*
G37*
G36*
G01*
X130236300Y-118254800D02*
X130236300Y-117304800D01*
G75*
G02*
X130486300Y-117054800I250000J0D01*
G01*
X130986300Y-117054800D01*
G75*
G02*
X131236300Y-117304800I0J-250000D01*
G01*
X131236300Y-118254800D01*
G75*
G02*
X130986300Y-118504800I-250000J0D01*
G01*
X130486300Y-118504800D01*
G75*
G02*
X130236300Y-118254800I0J250000D01*
G01*
G37*
G36*
G01*
X116873000Y-103269200D02*
X117823000Y-103269200D01*
G75*
G02*
X118073000Y-103519200I0J-250000D01*
G01*
X118073000Y-104019200D01*
G75*
G02*
X117823000Y-104269200I-250000J0D01*
G01*
X116873000Y-104269200D01*
G75*
G02*
X116623000Y-104019200I0J250000D01*
G01*
X116623000Y-103519200D01*
G75*
G02*
X116873000Y-103269200I250000J0D01*
G01*
G37*
G36*
G01*
X116873000Y-101369200D02*
X117823000Y-101369200D01*
G75*
G02*
X118073000Y-101619200I0J-250000D01*
G01*
X118073000Y-102119200D01*
G75*
G02*
X117823000Y-102369200I-250000J0D01*
G01*
X116873000Y-102369200D01*
G75*
G02*
X116623000Y-102119200I0J250000D01*
G01*
X116623000Y-101619200D01*
G75*
G02*
X116873000Y-101369200I250000J0D01*
G01*
G37*
G36*
G01*
X138361000Y-111729500D02*
X138361000Y-112679500D01*
G75*
G02*
X138111000Y-112929500I-250000J0D01*
G01*
X137611000Y-112929500D01*
G75*
G02*
X137361000Y-112679500I0J250000D01*
G01*
X137361000Y-111729500D01*
G75*
G02*
X137611000Y-111479500I250000J0D01*
G01*
X138111000Y-111479500D01*
G75*
G02*
X138361000Y-111729500I0J-250000D01*
G01*
G37*
G36*
G01*
X140261000Y-111729500D02*
X140261000Y-112679500D01*
G75*
G02*
X140011000Y-112929500I-250000J0D01*
G01*
X139511000Y-112929500D01*
G75*
G02*
X139261000Y-112679500I0J250000D01*
G01*
X139261000Y-111729500D01*
G75*
G02*
X139511000Y-111479500I250000J0D01*
G01*
X140011000Y-111479500D01*
G75*
G02*
X140261000Y-111729500I0J-250000D01*
G01*
G37*
G36*
G01*
X116873000Y-93414000D02*
X117823000Y-93414000D01*
G75*
G02*
X118073000Y-93664000I0J-250000D01*
G01*
X118073000Y-94164000D01*
G75*
G02*
X117823000Y-94414000I-250000J0D01*
G01*
X116873000Y-94414000D01*
G75*
G02*
X116623000Y-94164000I0J250000D01*
G01*
X116623000Y-93664000D01*
G75*
G02*
X116873000Y-93414000I250000J0D01*
G01*
G37*
G36*
G01*
X116873000Y-91514000D02*
X117823000Y-91514000D01*
G75*
G02*
X118073000Y-91764000I0J-250000D01*
G01*
X118073000Y-92264000D01*
G75*
G02*
X117823000Y-92514000I-250000J0D01*
G01*
X116873000Y-92514000D01*
G75*
G02*
X116623000Y-92264000I0J250000D01*
G01*
X116623000Y-91764000D01*
G75*
G02*
X116873000Y-91514000I250000J0D01*
G01*
G37*
G36*
G01*
X131491500Y-97947500D02*
X131491500Y-96997500D01*
G75*
G02*
X131741500Y-96747500I250000J0D01*
G01*
X132241500Y-96747500D01*
G75*
G02*
X132491500Y-96997500I0J-250000D01*
G01*
X132491500Y-97947500D01*
G75*
G02*
X132241500Y-98197500I-250000J0D01*
G01*
X131741500Y-98197500D01*
G75*
G02*
X131491500Y-97947500I0J250000D01*
G01*
G37*
G36*
G01*
X129591500Y-97947500D02*
X129591500Y-96997500D01*
G75*
G02*
X129841500Y-96747500I250000J0D01*
G01*
X130341500Y-96747500D01*
G75*
G02*
X130591500Y-96997500I0J-250000D01*
G01*
X130591500Y-97947500D01*
G75*
G02*
X130341500Y-98197500I-250000J0D01*
G01*
X129841500Y-98197500D01*
G75*
G02*
X129591500Y-97947500I0J250000D01*
G01*
G37*
G36*
G01*
X116873000Y-83508000D02*
X117823000Y-83508000D01*
G75*
G02*
X118073000Y-83758000I0J-250000D01*
G01*
X118073000Y-84258000D01*
G75*
G02*
X117823000Y-84508000I-250000J0D01*
G01*
X116873000Y-84508000D01*
G75*
G02*
X116623000Y-84258000I0J250000D01*
G01*
X116623000Y-83758000D01*
G75*
G02*
X116873000Y-83508000I250000J0D01*
G01*
G37*
G36*
G01*
X116873000Y-81608000D02*
X117823000Y-81608000D01*
G75*
G02*
X118073000Y-81858000I0J-250000D01*
G01*
X118073000Y-82358000D01*
G75*
G02*
X117823000Y-82608000I-250000J0D01*
G01*
X116873000Y-82608000D01*
G75*
G02*
X116623000Y-82358000I0J250000D01*
G01*
X116623000Y-81858000D01*
G75*
G02*
X116873000Y-81608000I250000J0D01*
G01*
G37*
G36*
G01*
X138424500Y-91663500D02*
X138424500Y-92613500D01*
G75*
G02*
X138174500Y-92863500I-250000J0D01*
G01*
X137674500Y-92863500D01*
G75*
G02*
X137424500Y-92613500I0J250000D01*
G01*
X137424500Y-91663500D01*
G75*
G02*
X137674500Y-91413500I250000J0D01*
G01*
X138174500Y-91413500D01*
G75*
G02*
X138424500Y-91663500I0J-250000D01*
G01*
G37*
G36*
G01*
X140324500Y-91663500D02*
X140324500Y-92613500D01*
G75*
G02*
X140074500Y-92863500I-250000J0D01*
G01*
X139574500Y-92863500D01*
G75*
G02*
X139324500Y-92613500I0J250000D01*
G01*
X139324500Y-91663500D01*
G75*
G02*
X139574500Y-91413500I250000J0D01*
G01*
X140074500Y-91413500D01*
G75*
G02*
X140324500Y-91663500I0J-250000D01*
G01*
G37*
G36*
G01*
X116873000Y-73602000D02*
X117823000Y-73602000D01*
G75*
G02*
X118073000Y-73852000I0J-250000D01*
G01*
X118073000Y-74352000D01*
G75*
G02*
X117823000Y-74602000I-250000J0D01*
G01*
X116873000Y-74602000D01*
G75*
G02*
X116623000Y-74352000I0J250000D01*
G01*
X116623000Y-73852000D01*
G75*
G02*
X116873000Y-73602000I250000J0D01*
G01*
G37*
G36*
G01*
X116873000Y-71702000D02*
X117823000Y-71702000D01*
G75*
G02*
X118073000Y-71952000I0J-250000D01*
G01*
X118073000Y-72452000D01*
G75*
G02*
X117823000Y-72702000I-250000J0D01*
G01*
X116873000Y-72702000D01*
G75*
G02*
X116623000Y-72452000I0J250000D01*
G01*
X116623000Y-71952000D01*
G75*
G02*
X116873000Y-71702000I250000J0D01*
G01*
G37*
G36*
G01*
X131704500Y-76954400D02*
X131704500Y-76004400D01*
G75*
G02*
X131954500Y-75754400I250000J0D01*
G01*
X132454500Y-75754400D01*
G75*
G02*
X132704500Y-76004400I0J-250000D01*
G01*
X132704500Y-76954400D01*
G75*
G02*
X132454500Y-77204400I-250000J0D01*
G01*
X131954500Y-77204400D01*
G75*
G02*
X131704500Y-76954400I0J250000D01*
G01*
G37*
G36*
G01*
X129804500Y-76954400D02*
X129804500Y-76004400D01*
G75*
G02*
X130054500Y-75754400I250000J0D01*
G01*
X130554500Y-75754400D01*
G75*
G02*
X130804500Y-76004400I0J-250000D01*
G01*
X130804500Y-76954400D01*
G75*
G02*
X130554500Y-77204400I-250000J0D01*
G01*
X130054500Y-77204400D01*
G75*
G02*
X129804500Y-76954400I0J250000D01*
G01*
G37*
G36*
G01*
X165856500Y-80487500D02*
X165856500Y-81437500D01*
G75*
G02*
X165606500Y-81687500I-250000J0D01*
G01*
X165106500Y-81687500D01*
G75*
G02*
X164856500Y-81437500I0J250000D01*
G01*
X164856500Y-80487500D01*
G75*
G02*
X165106500Y-80237500I250000J0D01*
G01*
X165606500Y-80237500D01*
G75*
G02*
X165856500Y-80487500I0J-250000D01*
G01*
G37*
G36*
G01*
X167756500Y-80487500D02*
X167756500Y-81437500D01*
G75*
G02*
X167506500Y-81687500I-250000J0D01*
G01*
X167006500Y-81687500D01*
G75*
G02*
X166756500Y-81437500I0J250000D01*
G01*
X166756500Y-80487500D01*
G75*
G02*
X167006500Y-80237500I250000J0D01*
G01*
X167506500Y-80237500D01*
G75*
G02*
X167756500Y-80487500I0J-250000D01*
G01*
G37*
G36*
G01*
X161130000Y-85783000D02*
X160180000Y-85783000D01*
G75*
G02*
X159930000Y-85533000I0J250000D01*
G01*
X159930000Y-85033000D01*
G75*
G02*
X160180000Y-84783000I250000J0D01*
G01*
X161130000Y-84783000D01*
G75*
G02*
X161380000Y-85033000I0J-250000D01*
G01*
X161380000Y-85533000D01*
G75*
G02*
X161130000Y-85783000I-250000J0D01*
G01*
G37*
G36*
G01*
X161130000Y-87683000D02*
X160180000Y-87683000D01*
G75*
G02*
X159930000Y-87433000I0J250000D01*
G01*
X159930000Y-86933000D01*
G75*
G02*
X160180000Y-86683000I250000J0D01*
G01*
X161130000Y-86683000D01*
G75*
G02*
X161380000Y-86933000I0J-250000D01*
G01*
X161380000Y-87433000D01*
G75*
G02*
X161130000Y-87683000I-250000J0D01*
G01*
G37*
G36*
G01*
X158529000Y-82619000D02*
X159479000Y-82619000D01*
G75*
G02*
X159729000Y-82869000I0J-250000D01*
G01*
X159729000Y-83369000D01*
G75*
G02*
X159479000Y-83619000I-250000J0D01*
G01*
X158529000Y-83619000D01*
G75*
G02*
X158279000Y-83369000I0J250000D01*
G01*
X158279000Y-82869000D01*
G75*
G02*
X158529000Y-82619000I250000J0D01*
G01*
G37*
G36*
G01*
X158529000Y-80719000D02*
X159479000Y-80719000D01*
G75*
G02*
X159729000Y-80969000I0J-250000D01*
G01*
X159729000Y-81469000D01*
G75*
G02*
X159479000Y-81719000I-250000J0D01*
G01*
X158529000Y-81719000D01*
G75*
G02*
X158279000Y-81469000I0J250000D01*
G01*
X158279000Y-80969000D01*
G75*
G02*
X158529000Y-80719000I250000J0D01*
G01*
G37*
G36*
G01*
X161704000Y-82619000D02*
X162654000Y-82619000D01*
G75*
G02*
X162904000Y-82869000I0J-250000D01*
G01*
X162904000Y-83369000D01*
G75*
G02*
X162654000Y-83619000I-250000J0D01*
G01*
X161704000Y-83619000D01*
G75*
G02*
X161454000Y-83369000I0J250000D01*
G01*
X161454000Y-82869000D01*
G75*
G02*
X161704000Y-82619000I250000J0D01*
G01*
G37*
G36*
G01*
X161704000Y-80719000D02*
X162654000Y-80719000D01*
G75*
G02*
X162904000Y-80969000I0J-250000D01*
G01*
X162904000Y-81469000D01*
G75*
G02*
X162654000Y-81719000I-250000J0D01*
G01*
X161704000Y-81719000D01*
G75*
G02*
X161454000Y-81469000I0J250000D01*
G01*
X161454000Y-80969000D01*
G75*
G02*
X161704000Y-80719000I250000J0D01*
G01*
G37*
G36*
G01*
X182532000Y-80968000D02*
X183482000Y-80968000D01*
G75*
G02*
X183732000Y-81218000I0J-250000D01*
G01*
X183732000Y-81718000D01*
G75*
G02*
X183482000Y-81968000I-250000J0D01*
G01*
X182532000Y-81968000D01*
G75*
G02*
X182282000Y-81718000I0J250000D01*
G01*
X182282000Y-81218000D01*
G75*
G02*
X182532000Y-80968000I250000J0D01*
G01*
G37*
G36*
G01*
X182532000Y-79068000D02*
X183482000Y-79068000D01*
G75*
G02*
X183732000Y-79318000I0J-250000D01*
G01*
X183732000Y-79818000D01*
G75*
G02*
X183482000Y-80068000I-250000J0D01*
G01*
X182532000Y-80068000D01*
G75*
G02*
X182282000Y-79818000I0J250000D01*
G01*
X182282000Y-79318000D01*
G75*
G02*
X182532000Y-79068000I250000J0D01*
G01*
G37*
G36*
G01*
X184691000Y-80968000D02*
X185641000Y-80968000D01*
G75*
G02*
X185891000Y-81218000I0J-250000D01*
G01*
X185891000Y-81718000D01*
G75*
G02*
X185641000Y-81968000I-250000J0D01*
G01*
X184691000Y-81968000D01*
G75*
G02*
X184441000Y-81718000I0J250000D01*
G01*
X184441000Y-81218000D01*
G75*
G02*
X184691000Y-80968000I250000J0D01*
G01*
G37*
G36*
G01*
X184691000Y-79068000D02*
X185641000Y-79068000D01*
G75*
G02*
X185891000Y-79318000I0J-250000D01*
G01*
X185891000Y-79818000D01*
G75*
G02*
X185641000Y-80068000I-250000J0D01*
G01*
X184691000Y-80068000D01*
G75*
G02*
X184441000Y-79818000I0J250000D01*
G01*
X184441000Y-79318000D01*
G75*
G02*
X184691000Y-79068000I250000J0D01*
G01*
G37*
G36*
G01*
X172789000Y-94709000D02*
X172789000Y-93759000D01*
G75*
G02*
X173039000Y-93509000I250000J0D01*
G01*
X173539000Y-93509000D01*
G75*
G02*
X173789000Y-93759000I0J-250000D01*
G01*
X173789000Y-94709000D01*
G75*
G02*
X173539000Y-94959000I-250000J0D01*
G01*
X173039000Y-94959000D01*
G75*
G02*
X172789000Y-94709000I0J250000D01*
G01*
G37*
G36*
G01*
X170889000Y-94709000D02*
X170889000Y-93759000D01*
G75*
G02*
X171139000Y-93509000I250000J0D01*
G01*
X171639000Y-93509000D01*
G75*
G02*
X171889000Y-93759000I0J-250000D01*
G01*
X171889000Y-94709000D01*
G75*
G02*
X171639000Y-94959000I-250000J0D01*
G01*
X171139000Y-94959000D01*
G75*
G02*
X170889000Y-94709000I0J250000D01*
G01*
G37*
G36*
G01*
X172789000Y-92423000D02*
X172789000Y-91473000D01*
G75*
G02*
X173039000Y-91223000I250000J0D01*
G01*
X173539000Y-91223000D01*
G75*
G02*
X173789000Y-91473000I0J-250000D01*
G01*
X173789000Y-92423000D01*
G75*
G02*
X173539000Y-92673000I-250000J0D01*
G01*
X173039000Y-92673000D01*
G75*
G02*
X172789000Y-92423000I0J250000D01*
G01*
G37*
G36*
G01*
X170889000Y-92423000D02*
X170889000Y-91473000D01*
G75*
G02*
X171139000Y-91223000I250000J0D01*
G01*
X171639000Y-91223000D01*
G75*
G02*
X171889000Y-91473000I0J-250000D01*
G01*
X171889000Y-92423000D01*
G75*
G02*
X171639000Y-92673000I-250000J0D01*
G01*
X171139000Y-92673000D01*
G75*
G02*
X170889000Y-92423000I0J250000D01*
G01*
G37*
G36*
G01*
X174084000Y-84259000D02*
X173134000Y-84259000D01*
G75*
G02*
X172884000Y-84009000I0J250000D01*
G01*
X172884000Y-83509000D01*
G75*
G02*
X173134000Y-83259000I250000J0D01*
G01*
X174084000Y-83259000D01*
G75*
G02*
X174334000Y-83509000I0J-250000D01*
G01*
X174334000Y-84009000D01*
G75*
G02*
X174084000Y-84259000I-250000J0D01*
G01*
G37*
G36*
G01*
X174084000Y-86159000D02*
X173134000Y-86159000D01*
G75*
G02*
X172884000Y-85909000I0J250000D01*
G01*
X172884000Y-85409000D01*
G75*
G02*
X173134000Y-85159000I250000J0D01*
G01*
X174084000Y-85159000D01*
G75*
G02*
X174334000Y-85409000I0J-250000D01*
G01*
X174334000Y-85909000D01*
G75*
G02*
X174084000Y-86159000I-250000J0D01*
G01*
G37*
G36*
G01*
X191447000Y-91854000D02*
X191447000Y-92804000D01*
G75*
G02*
X191197000Y-93054000I-250000J0D01*
G01*
X190697000Y-93054000D01*
G75*
G02*
X190447000Y-92804000I0J250000D01*
G01*
X190447000Y-91854000D01*
G75*
G02*
X190697000Y-91604000I250000J0D01*
G01*
X191197000Y-91604000D01*
G75*
G02*
X191447000Y-91854000I0J-250000D01*
G01*
G37*
G36*
G01*
X193347000Y-91854000D02*
X193347000Y-92804000D01*
G75*
G02*
X193097000Y-93054000I-250000J0D01*
G01*
X192597000Y-93054000D01*
G75*
G02*
X192347000Y-92804000I0J250000D01*
G01*
X192347000Y-91854000D01*
G75*
G02*
X192597000Y-91604000I250000J0D01*
G01*
X193097000Y-91604000D01*
G75*
G02*
X193347000Y-91854000I0J-250000D01*
G01*
G37*
G36*
G01*
X191447000Y-89695000D02*
X191447000Y-90645000D01*
G75*
G02*
X191197000Y-90895000I-250000J0D01*
G01*
X190697000Y-90895000D01*
G75*
G02*
X190447000Y-90645000I0J250000D01*
G01*
X190447000Y-89695000D01*
G75*
G02*
X190697000Y-89445000I250000J0D01*
G01*
X191197000Y-89445000D01*
G75*
G02*
X191447000Y-89695000I0J-250000D01*
G01*
G37*
G36*
G01*
X193347000Y-89695000D02*
X193347000Y-90645000D01*
G75*
G02*
X193097000Y-90895000I-250000J0D01*
G01*
X192597000Y-90895000D01*
G75*
G02*
X192347000Y-90645000I0J250000D01*
G01*
X192347000Y-89695000D01*
G75*
G02*
X192597000Y-89445000I250000J0D01*
G01*
X193097000Y-89445000D01*
G75*
G02*
X193347000Y-89695000I0J-250000D01*
G01*
G37*
G36*
G01*
X191447000Y-87536000D02*
X191447000Y-88486000D01*
G75*
G02*
X191197000Y-88736000I-250000J0D01*
G01*
X190697000Y-88736000D01*
G75*
G02*
X190447000Y-88486000I0J250000D01*
G01*
X190447000Y-87536000D01*
G75*
G02*
X190697000Y-87286000I250000J0D01*
G01*
X191197000Y-87286000D01*
G75*
G02*
X191447000Y-87536000I0J-250000D01*
G01*
G37*
G36*
G01*
X193347000Y-87536000D02*
X193347000Y-88486000D01*
G75*
G02*
X193097000Y-88736000I-250000J0D01*
G01*
X192597000Y-88736000D01*
G75*
G02*
X192347000Y-88486000I0J250000D01*
G01*
X192347000Y-87536000D01*
G75*
G02*
X192597000Y-87286000I250000J0D01*
G01*
X193097000Y-87286000D01*
G75*
G02*
X193347000Y-87536000I0J-250000D01*
G01*
G37*
G36*
G01*
X177742000Y-80739000D02*
X177742000Y-79789000D01*
G75*
G02*
X177992000Y-79539000I250000J0D01*
G01*
X178492000Y-79539000D01*
G75*
G02*
X178742000Y-79789000I0J-250000D01*
G01*
X178742000Y-80739000D01*
G75*
G02*
X178492000Y-80989000I-250000J0D01*
G01*
X177992000Y-80989000D01*
G75*
G02*
X177742000Y-80739000I0J250000D01*
G01*
G37*
G36*
G01*
X175842000Y-80739000D02*
X175842000Y-79789000D01*
G75*
G02*
X176092000Y-79539000I250000J0D01*
G01*
X176592000Y-79539000D01*
G75*
G02*
X176842000Y-79789000I0J-250000D01*
G01*
X176842000Y-80739000D01*
G75*
G02*
X176592000Y-80989000I-250000J0D01*
G01*
X176092000Y-80989000D01*
G75*
G02*
X175842000Y-80739000I0J250000D01*
G01*
G37*
G36*
G01*
X186850000Y-80968000D02*
X187800000Y-80968000D01*
G75*
G02*
X188050000Y-81218000I0J-250000D01*
G01*
X188050000Y-81718000D01*
G75*
G02*
X187800000Y-81968000I-250000J0D01*
G01*
X186850000Y-81968000D01*
G75*
G02*
X186600000Y-81718000I0J250000D01*
G01*
X186600000Y-81218000D01*
G75*
G02*
X186850000Y-80968000I250000J0D01*
G01*
G37*
G36*
G01*
X186850000Y-79068000D02*
X187800000Y-79068000D01*
G75*
G02*
X188050000Y-79318000I0J-250000D01*
G01*
X188050000Y-79818000D01*
G75*
G02*
X187800000Y-80068000I-250000J0D01*
G01*
X186850000Y-80068000D01*
G75*
G02*
X186600000Y-79818000I0J250000D01*
G01*
X186600000Y-79318000D01*
G75*
G02*
X186850000Y-79068000I250000J0D01*
G01*
G37*
G36*
G01*
X183573000Y-77122000D02*
X183573000Y-78072000D01*
G75*
G02*
X183323000Y-78322000I-250000J0D01*
G01*
X182823000Y-78322000D01*
G75*
G02*
X182573000Y-78072000I0J250000D01*
G01*
X182573000Y-77122000D01*
G75*
G02*
X182823000Y-76872000I250000J0D01*
G01*
X183323000Y-76872000D01*
G75*
G02*
X183573000Y-77122000I0J-250000D01*
G01*
G37*
G36*
G01*
X185473000Y-77122000D02*
X185473000Y-78072000D01*
G75*
G02*
X185223000Y-78322000I-250000J0D01*
G01*
X184723000Y-78322000D01*
G75*
G02*
X184473000Y-78072000I0J250000D01*
G01*
X184473000Y-77122000D01*
G75*
G02*
X184723000Y-76872000I250000J0D01*
G01*
X185223000Y-76872000D01*
G75*
G02*
X185473000Y-77122000I0J-250000D01*
G01*
G37*
G36*
G01*
X176969000Y-84742000D02*
X176969000Y-85692000D01*
G75*
G02*
X176719000Y-85942000I-250000J0D01*
G01*
X176219000Y-85942000D01*
G75*
G02*
X175969000Y-85692000I0J250000D01*
G01*
X175969000Y-84742000D01*
G75*
G02*
X176219000Y-84492000I250000J0D01*
G01*
X176719000Y-84492000D01*
G75*
G02*
X176969000Y-84742000I0J-250000D01*
G01*
G37*
G36*
G01*
X178869000Y-84742000D02*
X178869000Y-85692000D01*
G75*
G02*
X178619000Y-85942000I-250000J0D01*
G01*
X178119000Y-85942000D01*
G75*
G02*
X177869000Y-85692000I0J250000D01*
G01*
X177869000Y-84742000D01*
G75*
G02*
X178119000Y-84492000I250000J0D01*
G01*
X178619000Y-84492000D01*
G75*
G02*
X178869000Y-84742000I0J-250000D01*
G01*
G37*
G36*
G01*
X163634000Y-122715000D02*
X163634000Y-123665000D01*
G75*
G02*
X163384000Y-123915000I-250000J0D01*
G01*
X162884000Y-123915000D01*
G75*
G02*
X162634000Y-123665000I0J250000D01*
G01*
X162634000Y-122715000D01*
G75*
G02*
X162884000Y-122465000I250000J0D01*
G01*
X163384000Y-122465000D01*
G75*
G02*
X163634000Y-122715000I0J-250000D01*
G01*
G37*
G36*
G01*
X165534000Y-122715000D02*
X165534000Y-123665000D01*
G75*
G02*
X165284000Y-123915000I-250000J0D01*
G01*
X164784000Y-123915000D01*
G75*
G02*
X164534000Y-123665000I0J250000D01*
G01*
X164534000Y-122715000D01*
G75*
G02*
X164784000Y-122465000I250000J0D01*
G01*
X165284000Y-122465000D01*
G75*
G02*
X165534000Y-122715000I0J-250000D01*
G01*
G37*
G36*
G01*
X163634000Y-114587000D02*
X163634000Y-115537000D01*
G75*
G02*
X163384000Y-115787000I-250000J0D01*
G01*
X162884000Y-115787000D01*
G75*
G02*
X162634000Y-115537000I0J250000D01*
G01*
X162634000Y-114587000D01*
G75*
G02*
X162884000Y-114337000I250000J0D01*
G01*
X163384000Y-114337000D01*
G75*
G02*
X163634000Y-114587000I0J-250000D01*
G01*
G37*
G36*
G01*
X165534000Y-114587000D02*
X165534000Y-115537000D01*
G75*
G02*
X165284000Y-115787000I-250000J0D01*
G01*
X164784000Y-115787000D01*
G75*
G02*
X164534000Y-115537000I0J250000D01*
G01*
X164534000Y-114587000D01*
G75*
G02*
X164784000Y-114337000I250000J0D01*
G01*
X165284000Y-114337000D01*
G75*
G02*
X165534000Y-114587000I0J-250000D01*
G01*
G37*
G36*
G01*
X161003000Y-131122000D02*
X160053000Y-131122000D01*
G75*
G02*
X159803000Y-130872000I0J250000D01*
G01*
X159803000Y-130372000D01*
G75*
G02*
X160053000Y-130122000I250000J0D01*
G01*
X161003000Y-130122000D01*
G75*
G02*
X161253000Y-130372000I0J-250000D01*
G01*
X161253000Y-130872000D01*
G75*
G02*
X161003000Y-131122000I-250000J0D01*
G01*
G37*
G36*
G01*
X161003000Y-133022000D02*
X160053000Y-133022000D01*
G75*
G02*
X159803000Y-132772000I0J250000D01*
G01*
X159803000Y-132272000D01*
G75*
G02*
X160053000Y-132022000I250000J0D01*
G01*
X161003000Y-132022000D01*
G75*
G02*
X161253000Y-132272000I0J-250000D01*
G01*
X161253000Y-132772000D01*
G75*
G02*
X161003000Y-133022000I-250000J0D01*
G01*
G37*
G36*
G01*
X161003000Y-127312000D02*
X160053000Y-127312000D01*
G75*
G02*
X159803000Y-127062000I0J250000D01*
G01*
X159803000Y-126562000D01*
G75*
G02*
X160053000Y-126312000I250000J0D01*
G01*
X161003000Y-126312000D01*
G75*
G02*
X161253000Y-126562000I0J-250000D01*
G01*
X161253000Y-127062000D01*
G75*
G02*
X161003000Y-127312000I-250000J0D01*
G01*
G37*
G36*
G01*
X161003000Y-129212000D02*
X160053000Y-129212000D01*
G75*
G02*
X159803000Y-128962000I0J250000D01*
G01*
X159803000Y-128462000D01*
G75*
G02*
X160053000Y-128212000I250000J0D01*
G01*
X161003000Y-128212000D01*
G75*
G02*
X161253000Y-128462000I0J-250000D01*
G01*
X161253000Y-128962000D01*
G75*
G02*
X161003000Y-129212000I-250000J0D01*
G01*
G37*
G36*
G01*
X172052000Y-131122000D02*
X171102000Y-131122000D01*
G75*
G02*
X170852000Y-130872000I0J250000D01*
G01*
X170852000Y-130372000D01*
G75*
G02*
X171102000Y-130122000I250000J0D01*
G01*
X172052000Y-130122000D01*
G75*
G02*
X172302000Y-130372000I0J-250000D01*
G01*
X172302000Y-130872000D01*
G75*
G02*
X172052000Y-131122000I-250000J0D01*
G01*
G37*
G36*
G01*
X172052000Y-133022000D02*
X171102000Y-133022000D01*
G75*
G02*
X170852000Y-132772000I0J250000D01*
G01*
X170852000Y-132272000D01*
G75*
G02*
X171102000Y-132022000I250000J0D01*
G01*
X172052000Y-132022000D01*
G75*
G02*
X172302000Y-132272000I0J-250000D01*
G01*
X172302000Y-132772000D01*
G75*
G02*
X172052000Y-133022000I-250000J0D01*
G01*
G37*
G36*
G01*
X172052000Y-127312000D02*
X171102000Y-127312000D01*
G75*
G02*
X170852000Y-127062000I0J250000D01*
G01*
X170852000Y-126562000D01*
G75*
G02*
X171102000Y-126312000I250000J0D01*
G01*
X172052000Y-126312000D01*
G75*
G02*
X172302000Y-126562000I0J-250000D01*
G01*
X172302000Y-127062000D01*
G75*
G02*
X172052000Y-127312000I-250000J0D01*
G01*
G37*
G36*
G01*
X172052000Y-129212000D02*
X171102000Y-129212000D01*
G75*
G02*
X170852000Y-128962000I0J250000D01*
G01*
X170852000Y-128462000D01*
G75*
G02*
X171102000Y-128212000I250000J0D01*
G01*
X172052000Y-128212000D01*
G75*
G02*
X172302000Y-128462000I0J-250000D01*
G01*
X172302000Y-128962000D01*
G75*
G02*
X172052000Y-129212000I-250000J0D01*
G01*
G37*
G36*
G01*
X161003000Y-119438000D02*
X160053000Y-119438000D01*
G75*
G02*
X159803000Y-119188000I0J250000D01*
G01*
X159803000Y-118688000D01*
G75*
G02*
X160053000Y-118438000I250000J0D01*
G01*
X161003000Y-118438000D01*
G75*
G02*
X161253000Y-118688000I0J-250000D01*
G01*
X161253000Y-119188000D01*
G75*
G02*
X161003000Y-119438000I-250000J0D01*
G01*
G37*
G36*
G01*
X161003000Y-121338000D02*
X160053000Y-121338000D01*
G75*
G02*
X159803000Y-121088000I0J250000D01*
G01*
X159803000Y-120588000D01*
G75*
G02*
X160053000Y-120338000I250000J0D01*
G01*
X161003000Y-120338000D01*
G75*
G02*
X161253000Y-120588000I0J-250000D01*
G01*
X161253000Y-121088000D01*
G75*
G02*
X161003000Y-121338000I-250000J0D01*
G01*
G37*
G36*
G01*
X161003000Y-115628000D02*
X160053000Y-115628000D01*
G75*
G02*
X159803000Y-115378000I0J250000D01*
G01*
X159803000Y-114878000D01*
G75*
G02*
X160053000Y-114628000I250000J0D01*
G01*
X161003000Y-114628000D01*
G75*
G02*
X161253000Y-114878000I0J-250000D01*
G01*
X161253000Y-115378000D01*
G75*
G02*
X161003000Y-115628000I-250000J0D01*
G01*
G37*
G36*
G01*
X161003000Y-117528000D02*
X160053000Y-117528000D01*
G75*
G02*
X159803000Y-117278000I0J250000D01*
G01*
X159803000Y-116778000D01*
G75*
G02*
X160053000Y-116528000I250000J0D01*
G01*
X161003000Y-116528000D01*
G75*
G02*
X161253000Y-116778000I0J-250000D01*
G01*
X161253000Y-117278000D01*
G75*
G02*
X161003000Y-117528000I-250000J0D01*
G01*
G37*
G36*
G01*
X171229000Y-107765000D02*
X172179000Y-107765000D01*
G75*
G02*
X172429000Y-108015000I0J-250000D01*
G01*
X172429000Y-108515000D01*
G75*
G02*
X172179000Y-108765000I-250000J0D01*
G01*
X171229000Y-108765000D01*
G75*
G02*
X170979000Y-108515000I0J250000D01*
G01*
X170979000Y-108015000D01*
G75*
G02*
X171229000Y-107765000I250000J0D01*
G01*
G37*
G36*
G01*
X171229000Y-105865000D02*
X172179000Y-105865000D01*
G75*
G02*
X172429000Y-106115000I0J-250000D01*
G01*
X172429000Y-106615000D01*
G75*
G02*
X172179000Y-106865000I-250000J0D01*
G01*
X171229000Y-106865000D01*
G75*
G02*
X170979000Y-106615000I0J250000D01*
G01*
X170979000Y-106115000D01*
G75*
G02*
X171229000Y-105865000I250000J0D01*
G01*
G37*
G36*
G01*
X170111000Y-114333000D02*
X170111000Y-115283000D01*
G75*
G02*
X169861000Y-115533000I-250000J0D01*
G01*
X169361000Y-115533000D01*
G75*
G02*
X169111000Y-115283000I0J250000D01*
G01*
X169111000Y-114333000D01*
G75*
G02*
X169361000Y-114083000I250000J0D01*
G01*
X169861000Y-114083000D01*
G75*
G02*
X170111000Y-114333000I0J-250000D01*
G01*
G37*
G36*
G01*
X172011000Y-114333000D02*
X172011000Y-115283000D01*
G75*
G02*
X171761000Y-115533000I-250000J0D01*
G01*
X171261000Y-115533000D01*
G75*
G02*
X171011000Y-115283000I0J250000D01*
G01*
X171011000Y-114333000D01*
G75*
G02*
X171261000Y-114083000I250000J0D01*
G01*
X171761000Y-114083000D01*
G75*
G02*
X172011000Y-114333000I0J-250000D01*
G01*
G37*
G36*
G01*
X170111000Y-116619000D02*
X170111000Y-117569000D01*
G75*
G02*
X169861000Y-117819000I-250000J0D01*
G01*
X169361000Y-117819000D01*
G75*
G02*
X169111000Y-117569000I0J250000D01*
G01*
X169111000Y-116619000D01*
G75*
G02*
X169361000Y-116369000I250000J0D01*
G01*
X169861000Y-116369000D01*
G75*
G02*
X170111000Y-116619000I0J-250000D01*
G01*
G37*
G36*
G01*
X172011000Y-116619000D02*
X172011000Y-117569000D01*
G75*
G02*
X171761000Y-117819000I-250000J0D01*
G01*
X171261000Y-117819000D01*
G75*
G02*
X171011000Y-117569000I0J250000D01*
G01*
X171011000Y-116619000D01*
G75*
G02*
X171261000Y-116369000I250000J0D01*
G01*
X171761000Y-116369000D01*
G75*
G02*
X172011000Y-116619000I0J-250000D01*
G01*
G37*
G36*
G01*
X190403500Y-110675000D02*
X189453500Y-110675000D01*
G75*
G02*
X189203500Y-110425000I0J250000D01*
G01*
X189203500Y-109925000D01*
G75*
G02*
X189453500Y-109675000I250000J0D01*
G01*
X190403500Y-109675000D01*
G75*
G02*
X190653500Y-109925000I0J-250000D01*
G01*
X190653500Y-110425000D01*
G75*
G02*
X190403500Y-110675000I-250000J0D01*
G01*
G37*
G36*
G01*
X190403500Y-112575000D02*
X189453500Y-112575000D01*
G75*
G02*
X189203500Y-112325000I0J250000D01*
G01*
X189203500Y-111825000D01*
G75*
G02*
X189453500Y-111575000I250000J0D01*
G01*
X190403500Y-111575000D01*
G75*
G02*
X190653500Y-111825000I0J-250000D01*
G01*
X190653500Y-112325000D01*
G75*
G02*
X190403500Y-112575000I-250000J0D01*
G01*
G37*
G36*
G01*
X175064000Y-112047000D02*
X175064000Y-112997000D01*
G75*
G02*
X174814000Y-113247000I-250000J0D01*
G01*
X174314000Y-113247000D01*
G75*
G02*
X174064000Y-112997000I0J250000D01*
G01*
X174064000Y-112047000D01*
G75*
G02*
X174314000Y-111797000I250000J0D01*
G01*
X174814000Y-111797000D01*
G75*
G02*
X175064000Y-112047000I0J-250000D01*
G01*
G37*
G36*
G01*
X176964000Y-112047000D02*
X176964000Y-112997000D01*
G75*
G02*
X176714000Y-113247000I-250000J0D01*
G01*
X176214000Y-113247000D01*
G75*
G02*
X175964000Y-112997000I0J250000D01*
G01*
X175964000Y-112047000D01*
G75*
G02*
X176214000Y-111797000I250000J0D01*
G01*
X176714000Y-111797000D01*
G75*
G02*
X176964000Y-112047000I0J-250000D01*
G01*
G37*
G36*
G01*
X175064000Y-107475000D02*
X175064000Y-108425000D01*
G75*
G02*
X174814000Y-108675000I-250000J0D01*
G01*
X174314000Y-108675000D01*
G75*
G02*
X174064000Y-108425000I0J250000D01*
G01*
X174064000Y-107475000D01*
G75*
G02*
X174314000Y-107225000I250000J0D01*
G01*
X174814000Y-107225000D01*
G75*
G02*
X175064000Y-107475000I0J-250000D01*
G01*
G37*
G36*
G01*
X176964000Y-107475000D02*
X176964000Y-108425000D01*
G75*
G02*
X176714000Y-108675000I-250000J0D01*
G01*
X176214000Y-108675000D01*
G75*
G02*
X175964000Y-108425000I0J250000D01*
G01*
X175964000Y-107475000D01*
G75*
G02*
X176214000Y-107225000I250000J0D01*
G01*
X176714000Y-107225000D01*
G75*
G02*
X176964000Y-107475000I0J-250000D01*
G01*
G37*
G36*
G01*
X152712000Y-69121000D02*
X152712000Y-70071000D01*
G75*
G02*
X152462000Y-70321000I-250000J0D01*
G01*
X151962000Y-70321000D01*
G75*
G02*
X151712000Y-70071000I0J250000D01*
G01*
X151712000Y-69121000D01*
G75*
G02*
X151962000Y-68871000I250000J0D01*
G01*
X152462000Y-68871000D01*
G75*
G02*
X152712000Y-69121000I0J-250000D01*
G01*
G37*
G36*
G01*
X154612000Y-69121000D02*
X154612000Y-70071000D01*
G75*
G02*
X154362000Y-70321000I-250000J0D01*
G01*
X153862000Y-70321000D01*
G75*
G02*
X153612000Y-70071000I0J250000D01*
G01*
X153612000Y-69121000D01*
G75*
G02*
X153862000Y-68871000I250000J0D01*
G01*
X154362000Y-68871000D01*
G75*
G02*
X154612000Y-69121000I0J-250000D01*
G01*
G37*
G36*
G01*
X148115000Y-66490000D02*
X149065000Y-66490000D01*
G75*
G02*
X149315000Y-66740000I0J-250000D01*
G01*
X149315000Y-67240000D01*
G75*
G02*
X149065000Y-67490000I-250000J0D01*
G01*
X148115000Y-67490000D01*
G75*
G02*
X147865000Y-67240000I0J250000D01*
G01*
X147865000Y-66740000D01*
G75*
G02*
X148115000Y-66490000I250000J0D01*
G01*
G37*
G36*
G01*
X148115000Y-64590000D02*
X149065000Y-64590000D01*
G75*
G02*
X149315000Y-64840000I0J-250000D01*
G01*
X149315000Y-65340000D01*
G75*
G02*
X149065000Y-65590000I-250000J0D01*
G01*
X148115000Y-65590000D01*
G75*
G02*
X147865000Y-65340000I0J250000D01*
G01*
X147865000Y-64840000D01*
G75*
G02*
X148115000Y-64590000I250000J0D01*
G01*
G37*
G36*
G01*
X144076000Y-69121000D02*
X144076000Y-70071000D01*
G75*
G02*
X143826000Y-70321000I-250000J0D01*
G01*
X143326000Y-70321000D01*
G75*
G02*
X143076000Y-70071000I0J250000D01*
G01*
X143076000Y-69121000D01*
G75*
G02*
X143326000Y-68871000I250000J0D01*
G01*
X143826000Y-68871000D01*
G75*
G02*
X144076000Y-69121000I0J-250000D01*
G01*
G37*
G36*
G01*
X145976000Y-69121000D02*
X145976000Y-70071000D01*
G75*
G02*
X145726000Y-70321000I-250000J0D01*
G01*
X145226000Y-70321000D01*
G75*
G02*
X144976000Y-70071000I0J250000D01*
G01*
X144976000Y-69121000D01*
G75*
G02*
X145226000Y-68871000I250000J0D01*
G01*
X145726000Y-68871000D01*
G75*
G02*
X145976000Y-69121000I0J-250000D01*
G01*
G37*
G36*
G01*
X139987000Y-66439200D02*
X140937000Y-66439200D01*
G75*
G02*
X141187000Y-66689200I0J-250000D01*
G01*
X141187000Y-67189200D01*
G75*
G02*
X140937000Y-67439200I-250000J0D01*
G01*
X139987000Y-67439200D01*
G75*
G02*
X139737000Y-67189200I0J250000D01*
G01*
X139737000Y-66689200D01*
G75*
G02*
X139987000Y-66439200I250000J0D01*
G01*
G37*
G36*
G01*
X139987000Y-64539200D02*
X140937000Y-64539200D01*
G75*
G02*
X141187000Y-64789200I0J-250000D01*
G01*
X141187000Y-65289200D01*
G75*
G02*
X140937000Y-65539200I-250000J0D01*
G01*
X139987000Y-65539200D01*
G75*
G02*
X139737000Y-65289200I0J250000D01*
G01*
X139737000Y-64789200D01*
G75*
G02*
X139987000Y-64539200I250000J0D01*
G01*
G37*
D21*
X171069000Y-87546000D03*
X173609000Y-87546000D03*
X173609000Y-89746000D03*
X171069000Y-89746000D03*
X169291000Y-110279000D03*
X171831000Y-110279000D03*
X171831000Y-112479000D03*
X169291000Y-112479000D03*
G36*
G01*
X109889000Y-116218604D02*
X109889000Y-116418604D01*
G75*
G02*
X109789000Y-116518604I-100000J0D01*
G01*
X108514000Y-116518604D01*
G75*
G02*
X108414000Y-116418604I0J100000D01*
G01*
X108414000Y-116218604D01*
G75*
G02*
X108514000Y-116118604I100000J0D01*
G01*
X109789000Y-116118604D01*
G75*
G02*
X109889000Y-116218604I0J-100000D01*
G01*
G37*
G36*
G01*
X109889000Y-115568604D02*
X109889000Y-115768604D01*
G75*
G02*
X109789000Y-115868604I-100000J0D01*
G01*
X108514000Y-115868604D01*
G75*
G02*
X108414000Y-115768604I0J100000D01*
G01*
X108414000Y-115568604D01*
G75*
G02*
X108514000Y-115468604I100000J0D01*
G01*
X109789000Y-115468604D01*
G75*
G02*
X109889000Y-115568604I0J-100000D01*
G01*
G37*
G36*
G01*
X109889000Y-114918604D02*
X109889000Y-115118604D01*
G75*
G02*
X109789000Y-115218604I-100000J0D01*
G01*
X108514000Y-115218604D01*
G75*
G02*
X108414000Y-115118604I0J100000D01*
G01*
X108414000Y-114918604D01*
G75*
G02*
X108514000Y-114818604I100000J0D01*
G01*
X109789000Y-114818604D01*
G75*
G02*
X109889000Y-114918604I0J-100000D01*
G01*
G37*
G36*
G01*
X109889000Y-114268604D02*
X109889000Y-114468604D01*
G75*
G02*
X109789000Y-114568604I-100000J0D01*
G01*
X108514000Y-114568604D01*
G75*
G02*
X108414000Y-114468604I0J100000D01*
G01*
X108414000Y-114268604D01*
G75*
G02*
X108514000Y-114168604I100000J0D01*
G01*
X109789000Y-114168604D01*
G75*
G02*
X109889000Y-114268604I0J-100000D01*
G01*
G37*
G36*
G01*
X109889000Y-113618604D02*
X109889000Y-113818604D01*
G75*
G02*
X109789000Y-113918604I-100000J0D01*
G01*
X108514000Y-113918604D01*
G75*
G02*
X108414000Y-113818604I0J100000D01*
G01*
X108414000Y-113618604D01*
G75*
G02*
X108514000Y-113518604I100000J0D01*
G01*
X109789000Y-113518604D01*
G75*
G02*
X109889000Y-113618604I0J-100000D01*
G01*
G37*
G36*
G01*
X109889000Y-112968604D02*
X109889000Y-113168604D01*
G75*
G02*
X109789000Y-113268604I-100000J0D01*
G01*
X108514000Y-113268604D01*
G75*
G02*
X108414000Y-113168604I0J100000D01*
G01*
X108414000Y-112968604D01*
G75*
G02*
X108514000Y-112868604I100000J0D01*
G01*
X109789000Y-112868604D01*
G75*
G02*
X109889000Y-112968604I0J-100000D01*
G01*
G37*
G36*
G01*
X109889000Y-112318604D02*
X109889000Y-112518604D01*
G75*
G02*
X109789000Y-112618604I-100000J0D01*
G01*
X108514000Y-112618604D01*
G75*
G02*
X108414000Y-112518604I0J100000D01*
G01*
X108414000Y-112318604D01*
G75*
G02*
X108514000Y-112218604I100000J0D01*
G01*
X109789000Y-112218604D01*
G75*
G02*
X109889000Y-112318604I0J-100000D01*
G01*
G37*
G36*
G01*
X109889000Y-111668604D02*
X109889000Y-111868604D01*
G75*
G02*
X109789000Y-111968604I-100000J0D01*
G01*
X108514000Y-111968604D01*
G75*
G02*
X108414000Y-111868604I0J100000D01*
G01*
X108414000Y-111668604D01*
G75*
G02*
X108514000Y-111568604I100000J0D01*
G01*
X109789000Y-111568604D01*
G75*
G02*
X109889000Y-111668604I0J-100000D01*
G01*
G37*
G36*
G01*
X109889000Y-111018604D02*
X109889000Y-111218604D01*
G75*
G02*
X109789000Y-111318604I-100000J0D01*
G01*
X108514000Y-111318604D01*
G75*
G02*
X108414000Y-111218604I0J100000D01*
G01*
X108414000Y-111018604D01*
G75*
G02*
X108514000Y-110918604I100000J0D01*
G01*
X109789000Y-110918604D01*
G75*
G02*
X109889000Y-111018604I0J-100000D01*
G01*
G37*
G36*
G01*
X109889000Y-110368604D02*
X109889000Y-110568604D01*
G75*
G02*
X109789000Y-110668604I-100000J0D01*
G01*
X108514000Y-110668604D01*
G75*
G02*
X108414000Y-110568604I0J100000D01*
G01*
X108414000Y-110368604D01*
G75*
G02*
X108514000Y-110268604I100000J0D01*
G01*
X109789000Y-110268604D01*
G75*
G02*
X109889000Y-110368604I0J-100000D01*
G01*
G37*
G36*
G01*
X109889000Y-109718604D02*
X109889000Y-109918604D01*
G75*
G02*
X109789000Y-110018604I-100000J0D01*
G01*
X108514000Y-110018604D01*
G75*
G02*
X108414000Y-109918604I0J100000D01*
G01*
X108414000Y-109718604D01*
G75*
G02*
X108514000Y-109618604I100000J0D01*
G01*
X109789000Y-109618604D01*
G75*
G02*
X109889000Y-109718604I0J-100000D01*
G01*
G37*
G36*
G01*
X109889000Y-109068604D02*
X109889000Y-109268604D01*
G75*
G02*
X109789000Y-109368604I-100000J0D01*
G01*
X108514000Y-109368604D01*
G75*
G02*
X108414000Y-109268604I0J100000D01*
G01*
X108414000Y-109068604D01*
G75*
G02*
X108514000Y-108968604I100000J0D01*
G01*
X109789000Y-108968604D01*
G75*
G02*
X109889000Y-109068604I0J-100000D01*
G01*
G37*
G36*
G01*
X115614000Y-109068604D02*
X115614000Y-109268604D01*
G75*
G02*
X115514000Y-109368604I-100000J0D01*
G01*
X114239000Y-109368604D01*
G75*
G02*
X114139000Y-109268604I0J100000D01*
G01*
X114139000Y-109068604D01*
G75*
G02*
X114239000Y-108968604I100000J0D01*
G01*
X115514000Y-108968604D01*
G75*
G02*
X115614000Y-109068604I0J-100000D01*
G01*
G37*
G36*
G01*
X115614000Y-109718604D02*
X115614000Y-109918604D01*
G75*
G02*
X115514000Y-110018604I-100000J0D01*
G01*
X114239000Y-110018604D01*
G75*
G02*
X114139000Y-109918604I0J100000D01*
G01*
X114139000Y-109718604D01*
G75*
G02*
X114239000Y-109618604I100000J0D01*
G01*
X115514000Y-109618604D01*
G75*
G02*
X115614000Y-109718604I0J-100000D01*
G01*
G37*
G36*
G01*
X115614000Y-110368604D02*
X115614000Y-110568604D01*
G75*
G02*
X115514000Y-110668604I-100000J0D01*
G01*
X114239000Y-110668604D01*
G75*
G02*
X114139000Y-110568604I0J100000D01*
G01*
X114139000Y-110368604D01*
G75*
G02*
X114239000Y-110268604I100000J0D01*
G01*
X115514000Y-110268604D01*
G75*
G02*
X115614000Y-110368604I0J-100000D01*
G01*
G37*
G36*
G01*
X115614000Y-111018604D02*
X115614000Y-111218604D01*
G75*
G02*
X115514000Y-111318604I-100000J0D01*
G01*
X114239000Y-111318604D01*
G75*
G02*
X114139000Y-111218604I0J100000D01*
G01*
X114139000Y-111018604D01*
G75*
G02*
X114239000Y-110918604I100000J0D01*
G01*
X115514000Y-110918604D01*
G75*
G02*
X115614000Y-111018604I0J-100000D01*
G01*
G37*
G36*
G01*
X115614000Y-111668604D02*
X115614000Y-111868604D01*
G75*
G02*
X115514000Y-111968604I-100000J0D01*
G01*
X114239000Y-111968604D01*
G75*
G02*
X114139000Y-111868604I0J100000D01*
G01*
X114139000Y-111668604D01*
G75*
G02*
X114239000Y-111568604I100000J0D01*
G01*
X115514000Y-111568604D01*
G75*
G02*
X115614000Y-111668604I0J-100000D01*
G01*
G37*
G36*
G01*
X115614000Y-112318604D02*
X115614000Y-112518604D01*
G75*
G02*
X115514000Y-112618604I-100000J0D01*
G01*
X114239000Y-112618604D01*
G75*
G02*
X114139000Y-112518604I0J100000D01*
G01*
X114139000Y-112318604D01*
G75*
G02*
X114239000Y-112218604I100000J0D01*
G01*
X115514000Y-112218604D01*
G75*
G02*
X115614000Y-112318604I0J-100000D01*
G01*
G37*
G36*
G01*
X115614000Y-112968604D02*
X115614000Y-113168604D01*
G75*
G02*
X115514000Y-113268604I-100000J0D01*
G01*
X114239000Y-113268604D01*
G75*
G02*
X114139000Y-113168604I0J100000D01*
G01*
X114139000Y-112968604D01*
G75*
G02*
X114239000Y-112868604I100000J0D01*
G01*
X115514000Y-112868604D01*
G75*
G02*
X115614000Y-112968604I0J-100000D01*
G01*
G37*
G36*
G01*
X115614000Y-113618604D02*
X115614000Y-113818604D01*
G75*
G02*
X115514000Y-113918604I-100000J0D01*
G01*
X114239000Y-113918604D01*
G75*
G02*
X114139000Y-113818604I0J100000D01*
G01*
X114139000Y-113618604D01*
G75*
G02*
X114239000Y-113518604I100000J0D01*
G01*
X115514000Y-113518604D01*
G75*
G02*
X115614000Y-113618604I0J-100000D01*
G01*
G37*
G36*
G01*
X115614000Y-114268604D02*
X115614000Y-114468604D01*
G75*
G02*
X115514000Y-114568604I-100000J0D01*
G01*
X114239000Y-114568604D01*
G75*
G02*
X114139000Y-114468604I0J100000D01*
G01*
X114139000Y-114268604D01*
G75*
G02*
X114239000Y-114168604I100000J0D01*
G01*
X115514000Y-114168604D01*
G75*
G02*
X115614000Y-114268604I0J-100000D01*
G01*
G37*
G36*
G01*
X115614000Y-114918604D02*
X115614000Y-115118604D01*
G75*
G02*
X115514000Y-115218604I-100000J0D01*
G01*
X114239000Y-115218604D01*
G75*
G02*
X114139000Y-115118604I0J100000D01*
G01*
X114139000Y-114918604D01*
G75*
G02*
X114239000Y-114818604I100000J0D01*
G01*
X115514000Y-114818604D01*
G75*
G02*
X115614000Y-114918604I0J-100000D01*
G01*
G37*
G36*
G01*
X115614000Y-115568604D02*
X115614000Y-115768604D01*
G75*
G02*
X115514000Y-115868604I-100000J0D01*
G01*
X114239000Y-115868604D01*
G75*
G02*
X114139000Y-115768604I0J100000D01*
G01*
X114139000Y-115568604D01*
G75*
G02*
X114239000Y-115468604I100000J0D01*
G01*
X115514000Y-115468604D01*
G75*
G02*
X115614000Y-115568604I0J-100000D01*
G01*
G37*
G36*
G01*
X115614000Y-116218604D02*
X115614000Y-116418604D01*
G75*
G02*
X115514000Y-116518604I-100000J0D01*
G01*
X114239000Y-116518604D01*
G75*
G02*
X114139000Y-116418604I0J100000D01*
G01*
X114139000Y-116218604D01*
G75*
G02*
X114239000Y-116118604I100000J0D01*
G01*
X115514000Y-116118604D01*
G75*
G02*
X115614000Y-116218604I0J-100000D01*
G01*
G37*
G36*
G01*
X109889000Y-126116505D02*
X109889000Y-126316505D01*
G75*
G02*
X109789000Y-126416505I-100000J0D01*
G01*
X108514000Y-126416505D01*
G75*
G02*
X108414000Y-126316505I0J100000D01*
G01*
X108414000Y-126116505D01*
G75*
G02*
X108514000Y-126016505I100000J0D01*
G01*
X109789000Y-126016505D01*
G75*
G02*
X109889000Y-126116505I0J-100000D01*
G01*
G37*
G36*
G01*
X109889000Y-125466505D02*
X109889000Y-125666505D01*
G75*
G02*
X109789000Y-125766505I-100000J0D01*
G01*
X108514000Y-125766505D01*
G75*
G02*
X108414000Y-125666505I0J100000D01*
G01*
X108414000Y-125466505D01*
G75*
G02*
X108514000Y-125366505I100000J0D01*
G01*
X109789000Y-125366505D01*
G75*
G02*
X109889000Y-125466505I0J-100000D01*
G01*
G37*
G36*
G01*
X109889000Y-124816505D02*
X109889000Y-125016505D01*
G75*
G02*
X109789000Y-125116505I-100000J0D01*
G01*
X108514000Y-125116505D01*
G75*
G02*
X108414000Y-125016505I0J100000D01*
G01*
X108414000Y-124816505D01*
G75*
G02*
X108514000Y-124716505I100000J0D01*
G01*
X109789000Y-124716505D01*
G75*
G02*
X109889000Y-124816505I0J-100000D01*
G01*
G37*
G36*
G01*
X109889000Y-124166505D02*
X109889000Y-124366505D01*
G75*
G02*
X109789000Y-124466505I-100000J0D01*
G01*
X108514000Y-124466505D01*
G75*
G02*
X108414000Y-124366505I0J100000D01*
G01*
X108414000Y-124166505D01*
G75*
G02*
X108514000Y-124066505I100000J0D01*
G01*
X109789000Y-124066505D01*
G75*
G02*
X109889000Y-124166505I0J-100000D01*
G01*
G37*
G36*
G01*
X109889000Y-123516505D02*
X109889000Y-123716505D01*
G75*
G02*
X109789000Y-123816505I-100000J0D01*
G01*
X108514000Y-123816505D01*
G75*
G02*
X108414000Y-123716505I0J100000D01*
G01*
X108414000Y-123516505D01*
G75*
G02*
X108514000Y-123416505I100000J0D01*
G01*
X109789000Y-123416505D01*
G75*
G02*
X109889000Y-123516505I0J-100000D01*
G01*
G37*
G36*
G01*
X109889000Y-122866505D02*
X109889000Y-123066505D01*
G75*
G02*
X109789000Y-123166505I-100000J0D01*
G01*
X108514000Y-123166505D01*
G75*
G02*
X108414000Y-123066505I0J100000D01*
G01*
X108414000Y-122866505D01*
G75*
G02*
X108514000Y-122766505I100000J0D01*
G01*
X109789000Y-122766505D01*
G75*
G02*
X109889000Y-122866505I0J-100000D01*
G01*
G37*
G36*
G01*
X109889000Y-122216505D02*
X109889000Y-122416505D01*
G75*
G02*
X109789000Y-122516505I-100000J0D01*
G01*
X108514000Y-122516505D01*
G75*
G02*
X108414000Y-122416505I0J100000D01*
G01*
X108414000Y-122216505D01*
G75*
G02*
X108514000Y-122116505I100000J0D01*
G01*
X109789000Y-122116505D01*
G75*
G02*
X109889000Y-122216505I0J-100000D01*
G01*
G37*
G36*
G01*
X109889000Y-121566505D02*
X109889000Y-121766505D01*
G75*
G02*
X109789000Y-121866505I-100000J0D01*
G01*
X108514000Y-121866505D01*
G75*
G02*
X108414000Y-121766505I0J100000D01*
G01*
X108414000Y-121566505D01*
G75*
G02*
X108514000Y-121466505I100000J0D01*
G01*
X109789000Y-121466505D01*
G75*
G02*
X109889000Y-121566505I0J-100000D01*
G01*
G37*
G36*
G01*
X109889000Y-120916505D02*
X109889000Y-121116505D01*
G75*
G02*
X109789000Y-121216505I-100000J0D01*
G01*
X108514000Y-121216505D01*
G75*
G02*
X108414000Y-121116505I0J100000D01*
G01*
X108414000Y-120916505D01*
G75*
G02*
X108514000Y-120816505I100000J0D01*
G01*
X109789000Y-120816505D01*
G75*
G02*
X109889000Y-120916505I0J-100000D01*
G01*
G37*
G36*
G01*
X109889000Y-120266505D02*
X109889000Y-120466505D01*
G75*
G02*
X109789000Y-120566505I-100000J0D01*
G01*
X108514000Y-120566505D01*
G75*
G02*
X108414000Y-120466505I0J100000D01*
G01*
X108414000Y-120266505D01*
G75*
G02*
X108514000Y-120166505I100000J0D01*
G01*
X109789000Y-120166505D01*
G75*
G02*
X109889000Y-120266505I0J-100000D01*
G01*
G37*
G36*
G01*
X109889000Y-119616505D02*
X109889000Y-119816505D01*
G75*
G02*
X109789000Y-119916505I-100000J0D01*
G01*
X108514000Y-119916505D01*
G75*
G02*
X108414000Y-119816505I0J100000D01*
G01*
X108414000Y-119616505D01*
G75*
G02*
X108514000Y-119516505I100000J0D01*
G01*
X109789000Y-119516505D01*
G75*
G02*
X109889000Y-119616505I0J-100000D01*
G01*
G37*
G36*
G01*
X109889000Y-118966505D02*
X109889000Y-119166505D01*
G75*
G02*
X109789000Y-119266505I-100000J0D01*
G01*
X108514000Y-119266505D01*
G75*
G02*
X108414000Y-119166505I0J100000D01*
G01*
X108414000Y-118966505D01*
G75*
G02*
X108514000Y-118866505I100000J0D01*
G01*
X109789000Y-118866505D01*
G75*
G02*
X109889000Y-118966505I0J-100000D01*
G01*
G37*
G36*
G01*
X115614000Y-118966505D02*
X115614000Y-119166505D01*
G75*
G02*
X115514000Y-119266505I-100000J0D01*
G01*
X114239000Y-119266505D01*
G75*
G02*
X114139000Y-119166505I0J100000D01*
G01*
X114139000Y-118966505D01*
G75*
G02*
X114239000Y-118866505I100000J0D01*
G01*
X115514000Y-118866505D01*
G75*
G02*
X115614000Y-118966505I0J-100000D01*
G01*
G37*
G36*
G01*
X115614000Y-119616505D02*
X115614000Y-119816505D01*
G75*
G02*
X115514000Y-119916505I-100000J0D01*
G01*
X114239000Y-119916505D01*
G75*
G02*
X114139000Y-119816505I0J100000D01*
G01*
X114139000Y-119616505D01*
G75*
G02*
X114239000Y-119516505I100000J0D01*
G01*
X115514000Y-119516505D01*
G75*
G02*
X115614000Y-119616505I0J-100000D01*
G01*
G37*
G36*
G01*
X115614000Y-120266505D02*
X115614000Y-120466505D01*
G75*
G02*
X115514000Y-120566505I-100000J0D01*
G01*
X114239000Y-120566505D01*
G75*
G02*
X114139000Y-120466505I0J100000D01*
G01*
X114139000Y-120266505D01*
G75*
G02*
X114239000Y-120166505I100000J0D01*
G01*
X115514000Y-120166505D01*
G75*
G02*
X115614000Y-120266505I0J-100000D01*
G01*
G37*
G36*
G01*
X115614000Y-120916505D02*
X115614000Y-121116505D01*
G75*
G02*
X115514000Y-121216505I-100000J0D01*
G01*
X114239000Y-121216505D01*
G75*
G02*
X114139000Y-121116505I0J100000D01*
G01*
X114139000Y-120916505D01*
G75*
G02*
X114239000Y-120816505I100000J0D01*
G01*
X115514000Y-120816505D01*
G75*
G02*
X115614000Y-120916505I0J-100000D01*
G01*
G37*
G36*
G01*
X115614000Y-121566505D02*
X115614000Y-121766505D01*
G75*
G02*
X115514000Y-121866505I-100000J0D01*
G01*
X114239000Y-121866505D01*
G75*
G02*
X114139000Y-121766505I0J100000D01*
G01*
X114139000Y-121566505D01*
G75*
G02*
X114239000Y-121466505I100000J0D01*
G01*
X115514000Y-121466505D01*
G75*
G02*
X115614000Y-121566505I0J-100000D01*
G01*
G37*
G36*
G01*
X115614000Y-122216505D02*
X115614000Y-122416505D01*
G75*
G02*
X115514000Y-122516505I-100000J0D01*
G01*
X114239000Y-122516505D01*
G75*
G02*
X114139000Y-122416505I0J100000D01*
G01*
X114139000Y-122216505D01*
G75*
G02*
X114239000Y-122116505I100000J0D01*
G01*
X115514000Y-122116505D01*
G75*
G02*
X115614000Y-122216505I0J-100000D01*
G01*
G37*
G36*
G01*
X115614000Y-122866505D02*
X115614000Y-123066505D01*
G75*
G02*
X115514000Y-123166505I-100000J0D01*
G01*
X114239000Y-123166505D01*
G75*
G02*
X114139000Y-123066505I0J100000D01*
G01*
X114139000Y-122866505D01*
G75*
G02*
X114239000Y-122766505I100000J0D01*
G01*
X115514000Y-122766505D01*
G75*
G02*
X115614000Y-122866505I0J-100000D01*
G01*
G37*
G36*
G01*
X115614000Y-123516505D02*
X115614000Y-123716505D01*
G75*
G02*
X115514000Y-123816505I-100000J0D01*
G01*
X114239000Y-123816505D01*
G75*
G02*
X114139000Y-123716505I0J100000D01*
G01*
X114139000Y-123516505D01*
G75*
G02*
X114239000Y-123416505I100000J0D01*
G01*
X115514000Y-123416505D01*
G75*
G02*
X115614000Y-123516505I0J-100000D01*
G01*
G37*
G36*
G01*
X115614000Y-124166505D02*
X115614000Y-124366505D01*
G75*
G02*
X115514000Y-124466505I-100000J0D01*
G01*
X114239000Y-124466505D01*
G75*
G02*
X114139000Y-124366505I0J100000D01*
G01*
X114139000Y-124166505D01*
G75*
G02*
X114239000Y-124066505I100000J0D01*
G01*
X115514000Y-124066505D01*
G75*
G02*
X115614000Y-124166505I0J-100000D01*
G01*
G37*
G36*
G01*
X115614000Y-124816505D02*
X115614000Y-125016505D01*
G75*
G02*
X115514000Y-125116505I-100000J0D01*
G01*
X114239000Y-125116505D01*
G75*
G02*
X114139000Y-125016505I0J100000D01*
G01*
X114139000Y-124816505D01*
G75*
G02*
X114239000Y-124716505I100000J0D01*
G01*
X115514000Y-124716505D01*
G75*
G02*
X115614000Y-124816505I0J-100000D01*
G01*
G37*
G36*
G01*
X115614000Y-125466505D02*
X115614000Y-125666505D01*
G75*
G02*
X115514000Y-125766505I-100000J0D01*
G01*
X114239000Y-125766505D01*
G75*
G02*
X114139000Y-125666505I0J100000D01*
G01*
X114139000Y-125466505D01*
G75*
G02*
X114239000Y-125366505I100000J0D01*
G01*
X115514000Y-125366505D01*
G75*
G02*
X115614000Y-125466505I0J-100000D01*
G01*
G37*
G36*
G01*
X115614000Y-126116505D02*
X115614000Y-126316505D01*
G75*
G02*
X115514000Y-126416505I-100000J0D01*
G01*
X114239000Y-126416505D01*
G75*
G02*
X114139000Y-126316505I0J100000D01*
G01*
X114139000Y-126116505D01*
G75*
G02*
X114239000Y-126016505I100000J0D01*
G01*
X115514000Y-126016505D01*
G75*
G02*
X115614000Y-126116505I0J-100000D01*
G01*
G37*
G36*
G01*
X109889000Y-96422802D02*
X109889000Y-96622802D01*
G75*
G02*
X109789000Y-96722802I-100000J0D01*
G01*
X108514000Y-96722802D01*
G75*
G02*
X108414000Y-96622802I0J100000D01*
G01*
X108414000Y-96422802D01*
G75*
G02*
X108514000Y-96322802I100000J0D01*
G01*
X109789000Y-96322802D01*
G75*
G02*
X109889000Y-96422802I0J-100000D01*
G01*
G37*
G36*
G01*
X109889000Y-95772802D02*
X109889000Y-95972802D01*
G75*
G02*
X109789000Y-96072802I-100000J0D01*
G01*
X108514000Y-96072802D01*
G75*
G02*
X108414000Y-95972802I0J100000D01*
G01*
X108414000Y-95772802D01*
G75*
G02*
X108514000Y-95672802I100000J0D01*
G01*
X109789000Y-95672802D01*
G75*
G02*
X109889000Y-95772802I0J-100000D01*
G01*
G37*
G36*
G01*
X109889000Y-95122802D02*
X109889000Y-95322802D01*
G75*
G02*
X109789000Y-95422802I-100000J0D01*
G01*
X108514000Y-95422802D01*
G75*
G02*
X108414000Y-95322802I0J100000D01*
G01*
X108414000Y-95122802D01*
G75*
G02*
X108514000Y-95022802I100000J0D01*
G01*
X109789000Y-95022802D01*
G75*
G02*
X109889000Y-95122802I0J-100000D01*
G01*
G37*
G36*
G01*
X109889000Y-94472802D02*
X109889000Y-94672802D01*
G75*
G02*
X109789000Y-94772802I-100000J0D01*
G01*
X108514000Y-94772802D01*
G75*
G02*
X108414000Y-94672802I0J100000D01*
G01*
X108414000Y-94472802D01*
G75*
G02*
X108514000Y-94372802I100000J0D01*
G01*
X109789000Y-94372802D01*
G75*
G02*
X109889000Y-94472802I0J-100000D01*
G01*
G37*
G36*
G01*
X109889000Y-93822802D02*
X109889000Y-94022802D01*
G75*
G02*
X109789000Y-94122802I-100000J0D01*
G01*
X108514000Y-94122802D01*
G75*
G02*
X108414000Y-94022802I0J100000D01*
G01*
X108414000Y-93822802D01*
G75*
G02*
X108514000Y-93722802I100000J0D01*
G01*
X109789000Y-93722802D01*
G75*
G02*
X109889000Y-93822802I0J-100000D01*
G01*
G37*
G36*
G01*
X109889000Y-93172802D02*
X109889000Y-93372802D01*
G75*
G02*
X109789000Y-93472802I-100000J0D01*
G01*
X108514000Y-93472802D01*
G75*
G02*
X108414000Y-93372802I0J100000D01*
G01*
X108414000Y-93172802D01*
G75*
G02*
X108514000Y-93072802I100000J0D01*
G01*
X109789000Y-93072802D01*
G75*
G02*
X109889000Y-93172802I0J-100000D01*
G01*
G37*
G36*
G01*
X109889000Y-92522802D02*
X109889000Y-92722802D01*
G75*
G02*
X109789000Y-92822802I-100000J0D01*
G01*
X108514000Y-92822802D01*
G75*
G02*
X108414000Y-92722802I0J100000D01*
G01*
X108414000Y-92522802D01*
G75*
G02*
X108514000Y-92422802I100000J0D01*
G01*
X109789000Y-92422802D01*
G75*
G02*
X109889000Y-92522802I0J-100000D01*
G01*
G37*
G36*
G01*
X109889000Y-91872802D02*
X109889000Y-92072802D01*
G75*
G02*
X109789000Y-92172802I-100000J0D01*
G01*
X108514000Y-92172802D01*
G75*
G02*
X108414000Y-92072802I0J100000D01*
G01*
X108414000Y-91872802D01*
G75*
G02*
X108514000Y-91772802I100000J0D01*
G01*
X109789000Y-91772802D01*
G75*
G02*
X109889000Y-91872802I0J-100000D01*
G01*
G37*
G36*
G01*
X109889000Y-91222802D02*
X109889000Y-91422802D01*
G75*
G02*
X109789000Y-91522802I-100000J0D01*
G01*
X108514000Y-91522802D01*
G75*
G02*
X108414000Y-91422802I0J100000D01*
G01*
X108414000Y-91222802D01*
G75*
G02*
X108514000Y-91122802I100000J0D01*
G01*
X109789000Y-91122802D01*
G75*
G02*
X109889000Y-91222802I0J-100000D01*
G01*
G37*
G36*
G01*
X109889000Y-90572802D02*
X109889000Y-90772802D01*
G75*
G02*
X109789000Y-90872802I-100000J0D01*
G01*
X108514000Y-90872802D01*
G75*
G02*
X108414000Y-90772802I0J100000D01*
G01*
X108414000Y-90572802D01*
G75*
G02*
X108514000Y-90472802I100000J0D01*
G01*
X109789000Y-90472802D01*
G75*
G02*
X109889000Y-90572802I0J-100000D01*
G01*
G37*
G36*
G01*
X109889000Y-89922802D02*
X109889000Y-90122802D01*
G75*
G02*
X109789000Y-90222802I-100000J0D01*
G01*
X108514000Y-90222802D01*
G75*
G02*
X108414000Y-90122802I0J100000D01*
G01*
X108414000Y-89922802D01*
G75*
G02*
X108514000Y-89822802I100000J0D01*
G01*
X109789000Y-89822802D01*
G75*
G02*
X109889000Y-89922802I0J-100000D01*
G01*
G37*
G36*
G01*
X109889000Y-89272802D02*
X109889000Y-89472802D01*
G75*
G02*
X109789000Y-89572802I-100000J0D01*
G01*
X108514000Y-89572802D01*
G75*
G02*
X108414000Y-89472802I0J100000D01*
G01*
X108414000Y-89272802D01*
G75*
G02*
X108514000Y-89172802I100000J0D01*
G01*
X109789000Y-89172802D01*
G75*
G02*
X109889000Y-89272802I0J-100000D01*
G01*
G37*
G36*
G01*
X115614000Y-89272802D02*
X115614000Y-89472802D01*
G75*
G02*
X115514000Y-89572802I-100000J0D01*
G01*
X114239000Y-89572802D01*
G75*
G02*
X114139000Y-89472802I0J100000D01*
G01*
X114139000Y-89272802D01*
G75*
G02*
X114239000Y-89172802I100000J0D01*
G01*
X115514000Y-89172802D01*
G75*
G02*
X115614000Y-89272802I0J-100000D01*
G01*
G37*
G36*
G01*
X115614000Y-89922802D02*
X115614000Y-90122802D01*
G75*
G02*
X115514000Y-90222802I-100000J0D01*
G01*
X114239000Y-90222802D01*
G75*
G02*
X114139000Y-90122802I0J100000D01*
G01*
X114139000Y-89922802D01*
G75*
G02*
X114239000Y-89822802I100000J0D01*
G01*
X115514000Y-89822802D01*
G75*
G02*
X115614000Y-89922802I0J-100000D01*
G01*
G37*
G36*
G01*
X115614000Y-90572802D02*
X115614000Y-90772802D01*
G75*
G02*
X115514000Y-90872802I-100000J0D01*
G01*
X114239000Y-90872802D01*
G75*
G02*
X114139000Y-90772802I0J100000D01*
G01*
X114139000Y-90572802D01*
G75*
G02*
X114239000Y-90472802I100000J0D01*
G01*
X115514000Y-90472802D01*
G75*
G02*
X115614000Y-90572802I0J-100000D01*
G01*
G37*
G36*
G01*
X115614000Y-91222802D02*
X115614000Y-91422802D01*
G75*
G02*
X115514000Y-91522802I-100000J0D01*
G01*
X114239000Y-91522802D01*
G75*
G02*
X114139000Y-91422802I0J100000D01*
G01*
X114139000Y-91222802D01*
G75*
G02*
X114239000Y-91122802I100000J0D01*
G01*
X115514000Y-91122802D01*
G75*
G02*
X115614000Y-91222802I0J-100000D01*
G01*
G37*
G36*
G01*
X115614000Y-91872802D02*
X115614000Y-92072802D01*
G75*
G02*
X115514000Y-92172802I-100000J0D01*
G01*
X114239000Y-92172802D01*
G75*
G02*
X114139000Y-92072802I0J100000D01*
G01*
X114139000Y-91872802D01*
G75*
G02*
X114239000Y-91772802I100000J0D01*
G01*
X115514000Y-91772802D01*
G75*
G02*
X115614000Y-91872802I0J-100000D01*
G01*
G37*
G36*
G01*
X115614000Y-92522802D02*
X115614000Y-92722802D01*
G75*
G02*
X115514000Y-92822802I-100000J0D01*
G01*
X114239000Y-92822802D01*
G75*
G02*
X114139000Y-92722802I0J100000D01*
G01*
X114139000Y-92522802D01*
G75*
G02*
X114239000Y-92422802I100000J0D01*
G01*
X115514000Y-92422802D01*
G75*
G02*
X115614000Y-92522802I0J-100000D01*
G01*
G37*
G36*
G01*
X115614000Y-93172802D02*
X115614000Y-93372802D01*
G75*
G02*
X115514000Y-93472802I-100000J0D01*
G01*
X114239000Y-93472802D01*
G75*
G02*
X114139000Y-93372802I0J100000D01*
G01*
X114139000Y-93172802D01*
G75*
G02*
X114239000Y-93072802I100000J0D01*
G01*
X115514000Y-93072802D01*
G75*
G02*
X115614000Y-93172802I0J-100000D01*
G01*
G37*
G36*
G01*
X115614000Y-93822802D02*
X115614000Y-94022802D01*
G75*
G02*
X115514000Y-94122802I-100000J0D01*
G01*
X114239000Y-94122802D01*
G75*
G02*
X114139000Y-94022802I0J100000D01*
G01*
X114139000Y-93822802D01*
G75*
G02*
X114239000Y-93722802I100000J0D01*
G01*
X115514000Y-93722802D01*
G75*
G02*
X115614000Y-93822802I0J-100000D01*
G01*
G37*
G36*
G01*
X115614000Y-94472802D02*
X115614000Y-94672802D01*
G75*
G02*
X115514000Y-94772802I-100000J0D01*
G01*
X114239000Y-94772802D01*
G75*
G02*
X114139000Y-94672802I0J100000D01*
G01*
X114139000Y-94472802D01*
G75*
G02*
X114239000Y-94372802I100000J0D01*
G01*
X115514000Y-94372802D01*
G75*
G02*
X115614000Y-94472802I0J-100000D01*
G01*
G37*
G36*
G01*
X115614000Y-95122802D02*
X115614000Y-95322802D01*
G75*
G02*
X115514000Y-95422802I-100000J0D01*
G01*
X114239000Y-95422802D01*
G75*
G02*
X114139000Y-95322802I0J100000D01*
G01*
X114139000Y-95122802D01*
G75*
G02*
X114239000Y-95022802I100000J0D01*
G01*
X115514000Y-95022802D01*
G75*
G02*
X115614000Y-95122802I0J-100000D01*
G01*
G37*
G36*
G01*
X115614000Y-95772802D02*
X115614000Y-95972802D01*
G75*
G02*
X115514000Y-96072802I-100000J0D01*
G01*
X114239000Y-96072802D01*
G75*
G02*
X114139000Y-95972802I0J100000D01*
G01*
X114139000Y-95772802D01*
G75*
G02*
X114239000Y-95672802I100000J0D01*
G01*
X115514000Y-95672802D01*
G75*
G02*
X115614000Y-95772802I0J-100000D01*
G01*
G37*
G36*
G01*
X115614000Y-96422802D02*
X115614000Y-96622802D01*
G75*
G02*
X115514000Y-96722802I-100000J0D01*
G01*
X114239000Y-96722802D01*
G75*
G02*
X114139000Y-96622802I0J100000D01*
G01*
X114139000Y-96422802D01*
G75*
G02*
X114239000Y-96322802I100000J0D01*
G01*
X115514000Y-96322802D01*
G75*
G02*
X115614000Y-96422802I0J-100000D01*
G01*
G37*
G36*
G01*
X109889000Y-106320703D02*
X109889000Y-106520703D01*
G75*
G02*
X109789000Y-106620703I-100000J0D01*
G01*
X108514000Y-106620703D01*
G75*
G02*
X108414000Y-106520703I0J100000D01*
G01*
X108414000Y-106320703D01*
G75*
G02*
X108514000Y-106220703I100000J0D01*
G01*
X109789000Y-106220703D01*
G75*
G02*
X109889000Y-106320703I0J-100000D01*
G01*
G37*
G36*
G01*
X109889000Y-105670703D02*
X109889000Y-105870703D01*
G75*
G02*
X109789000Y-105970703I-100000J0D01*
G01*
X108514000Y-105970703D01*
G75*
G02*
X108414000Y-105870703I0J100000D01*
G01*
X108414000Y-105670703D01*
G75*
G02*
X108514000Y-105570703I100000J0D01*
G01*
X109789000Y-105570703D01*
G75*
G02*
X109889000Y-105670703I0J-100000D01*
G01*
G37*
G36*
G01*
X109889000Y-105020703D02*
X109889000Y-105220703D01*
G75*
G02*
X109789000Y-105320703I-100000J0D01*
G01*
X108514000Y-105320703D01*
G75*
G02*
X108414000Y-105220703I0J100000D01*
G01*
X108414000Y-105020703D01*
G75*
G02*
X108514000Y-104920703I100000J0D01*
G01*
X109789000Y-104920703D01*
G75*
G02*
X109889000Y-105020703I0J-100000D01*
G01*
G37*
G36*
G01*
X109889000Y-104370703D02*
X109889000Y-104570703D01*
G75*
G02*
X109789000Y-104670703I-100000J0D01*
G01*
X108514000Y-104670703D01*
G75*
G02*
X108414000Y-104570703I0J100000D01*
G01*
X108414000Y-104370703D01*
G75*
G02*
X108514000Y-104270703I100000J0D01*
G01*
X109789000Y-104270703D01*
G75*
G02*
X109889000Y-104370703I0J-100000D01*
G01*
G37*
G36*
G01*
X109889000Y-103720703D02*
X109889000Y-103920703D01*
G75*
G02*
X109789000Y-104020703I-100000J0D01*
G01*
X108514000Y-104020703D01*
G75*
G02*
X108414000Y-103920703I0J100000D01*
G01*
X108414000Y-103720703D01*
G75*
G02*
X108514000Y-103620703I100000J0D01*
G01*
X109789000Y-103620703D01*
G75*
G02*
X109889000Y-103720703I0J-100000D01*
G01*
G37*
G36*
G01*
X109889000Y-103070703D02*
X109889000Y-103270703D01*
G75*
G02*
X109789000Y-103370703I-100000J0D01*
G01*
X108514000Y-103370703D01*
G75*
G02*
X108414000Y-103270703I0J100000D01*
G01*
X108414000Y-103070703D01*
G75*
G02*
X108514000Y-102970703I100000J0D01*
G01*
X109789000Y-102970703D01*
G75*
G02*
X109889000Y-103070703I0J-100000D01*
G01*
G37*
G36*
G01*
X109889000Y-102420703D02*
X109889000Y-102620703D01*
G75*
G02*
X109789000Y-102720703I-100000J0D01*
G01*
X108514000Y-102720703D01*
G75*
G02*
X108414000Y-102620703I0J100000D01*
G01*
X108414000Y-102420703D01*
G75*
G02*
X108514000Y-102320703I100000J0D01*
G01*
X109789000Y-102320703D01*
G75*
G02*
X109889000Y-102420703I0J-100000D01*
G01*
G37*
G36*
G01*
X109889000Y-101770703D02*
X109889000Y-101970703D01*
G75*
G02*
X109789000Y-102070703I-100000J0D01*
G01*
X108514000Y-102070703D01*
G75*
G02*
X108414000Y-101970703I0J100000D01*
G01*
X108414000Y-101770703D01*
G75*
G02*
X108514000Y-101670703I100000J0D01*
G01*
X109789000Y-101670703D01*
G75*
G02*
X109889000Y-101770703I0J-100000D01*
G01*
G37*
G36*
G01*
X109889000Y-101120703D02*
X109889000Y-101320703D01*
G75*
G02*
X109789000Y-101420703I-100000J0D01*
G01*
X108514000Y-101420703D01*
G75*
G02*
X108414000Y-101320703I0J100000D01*
G01*
X108414000Y-101120703D01*
G75*
G02*
X108514000Y-101020703I100000J0D01*
G01*
X109789000Y-101020703D01*
G75*
G02*
X109889000Y-101120703I0J-100000D01*
G01*
G37*
G36*
G01*
X109889000Y-100470703D02*
X109889000Y-100670703D01*
G75*
G02*
X109789000Y-100770703I-100000J0D01*
G01*
X108514000Y-100770703D01*
G75*
G02*
X108414000Y-100670703I0J100000D01*
G01*
X108414000Y-100470703D01*
G75*
G02*
X108514000Y-100370703I100000J0D01*
G01*
X109789000Y-100370703D01*
G75*
G02*
X109889000Y-100470703I0J-100000D01*
G01*
G37*
G36*
G01*
X109889000Y-99820703D02*
X109889000Y-100020703D01*
G75*
G02*
X109789000Y-100120703I-100000J0D01*
G01*
X108514000Y-100120703D01*
G75*
G02*
X108414000Y-100020703I0J100000D01*
G01*
X108414000Y-99820703D01*
G75*
G02*
X108514000Y-99720703I100000J0D01*
G01*
X109789000Y-99720703D01*
G75*
G02*
X109889000Y-99820703I0J-100000D01*
G01*
G37*
G36*
G01*
X109889000Y-99170703D02*
X109889000Y-99370703D01*
G75*
G02*
X109789000Y-99470703I-100000J0D01*
G01*
X108514000Y-99470703D01*
G75*
G02*
X108414000Y-99370703I0J100000D01*
G01*
X108414000Y-99170703D01*
G75*
G02*
X108514000Y-99070703I100000J0D01*
G01*
X109789000Y-99070703D01*
G75*
G02*
X109889000Y-99170703I0J-100000D01*
G01*
G37*
G36*
G01*
X115614000Y-99170703D02*
X115614000Y-99370703D01*
G75*
G02*
X115514000Y-99470703I-100000J0D01*
G01*
X114239000Y-99470703D01*
G75*
G02*
X114139000Y-99370703I0J100000D01*
G01*
X114139000Y-99170703D01*
G75*
G02*
X114239000Y-99070703I100000J0D01*
G01*
X115514000Y-99070703D01*
G75*
G02*
X115614000Y-99170703I0J-100000D01*
G01*
G37*
G36*
G01*
X115614000Y-99820703D02*
X115614000Y-100020703D01*
G75*
G02*
X115514000Y-100120703I-100000J0D01*
G01*
X114239000Y-100120703D01*
G75*
G02*
X114139000Y-100020703I0J100000D01*
G01*
X114139000Y-99820703D01*
G75*
G02*
X114239000Y-99720703I100000J0D01*
G01*
X115514000Y-99720703D01*
G75*
G02*
X115614000Y-99820703I0J-100000D01*
G01*
G37*
G36*
G01*
X115614000Y-100470703D02*
X115614000Y-100670703D01*
G75*
G02*
X115514000Y-100770703I-100000J0D01*
G01*
X114239000Y-100770703D01*
G75*
G02*
X114139000Y-100670703I0J100000D01*
G01*
X114139000Y-100470703D01*
G75*
G02*
X114239000Y-100370703I100000J0D01*
G01*
X115514000Y-100370703D01*
G75*
G02*
X115614000Y-100470703I0J-100000D01*
G01*
G37*
G36*
G01*
X115614000Y-101120703D02*
X115614000Y-101320703D01*
G75*
G02*
X115514000Y-101420703I-100000J0D01*
G01*
X114239000Y-101420703D01*
G75*
G02*
X114139000Y-101320703I0J100000D01*
G01*
X114139000Y-101120703D01*
G75*
G02*
X114239000Y-101020703I100000J0D01*
G01*
X115514000Y-101020703D01*
G75*
G02*
X115614000Y-101120703I0J-100000D01*
G01*
G37*
G36*
G01*
X115614000Y-101770703D02*
X115614000Y-101970703D01*
G75*
G02*
X115514000Y-102070703I-100000J0D01*
G01*
X114239000Y-102070703D01*
G75*
G02*
X114139000Y-101970703I0J100000D01*
G01*
X114139000Y-101770703D01*
G75*
G02*
X114239000Y-101670703I100000J0D01*
G01*
X115514000Y-101670703D01*
G75*
G02*
X115614000Y-101770703I0J-100000D01*
G01*
G37*
G36*
G01*
X115614000Y-102420703D02*
X115614000Y-102620703D01*
G75*
G02*
X115514000Y-102720703I-100000J0D01*
G01*
X114239000Y-102720703D01*
G75*
G02*
X114139000Y-102620703I0J100000D01*
G01*
X114139000Y-102420703D01*
G75*
G02*
X114239000Y-102320703I100000J0D01*
G01*
X115514000Y-102320703D01*
G75*
G02*
X115614000Y-102420703I0J-100000D01*
G01*
G37*
G36*
G01*
X115614000Y-103070703D02*
X115614000Y-103270703D01*
G75*
G02*
X115514000Y-103370703I-100000J0D01*
G01*
X114239000Y-103370703D01*
G75*
G02*
X114139000Y-103270703I0J100000D01*
G01*
X114139000Y-103070703D01*
G75*
G02*
X114239000Y-102970703I100000J0D01*
G01*
X115514000Y-102970703D01*
G75*
G02*
X115614000Y-103070703I0J-100000D01*
G01*
G37*
G36*
G01*
X115614000Y-103720703D02*
X115614000Y-103920703D01*
G75*
G02*
X115514000Y-104020703I-100000J0D01*
G01*
X114239000Y-104020703D01*
G75*
G02*
X114139000Y-103920703I0J100000D01*
G01*
X114139000Y-103720703D01*
G75*
G02*
X114239000Y-103620703I100000J0D01*
G01*
X115514000Y-103620703D01*
G75*
G02*
X115614000Y-103720703I0J-100000D01*
G01*
G37*
G36*
G01*
X115614000Y-104370703D02*
X115614000Y-104570703D01*
G75*
G02*
X115514000Y-104670703I-100000J0D01*
G01*
X114239000Y-104670703D01*
G75*
G02*
X114139000Y-104570703I0J100000D01*
G01*
X114139000Y-104370703D01*
G75*
G02*
X114239000Y-104270703I100000J0D01*
G01*
X115514000Y-104270703D01*
G75*
G02*
X115614000Y-104370703I0J-100000D01*
G01*
G37*
G36*
G01*
X115614000Y-105020703D02*
X115614000Y-105220703D01*
G75*
G02*
X115514000Y-105320703I-100000J0D01*
G01*
X114239000Y-105320703D01*
G75*
G02*
X114139000Y-105220703I0J100000D01*
G01*
X114139000Y-105020703D01*
G75*
G02*
X114239000Y-104920703I100000J0D01*
G01*
X115514000Y-104920703D01*
G75*
G02*
X115614000Y-105020703I0J-100000D01*
G01*
G37*
G36*
G01*
X115614000Y-105670703D02*
X115614000Y-105870703D01*
G75*
G02*
X115514000Y-105970703I-100000J0D01*
G01*
X114239000Y-105970703D01*
G75*
G02*
X114139000Y-105870703I0J100000D01*
G01*
X114139000Y-105670703D01*
G75*
G02*
X114239000Y-105570703I100000J0D01*
G01*
X115514000Y-105570703D01*
G75*
G02*
X115614000Y-105670703I0J-100000D01*
G01*
G37*
G36*
G01*
X115614000Y-106320703D02*
X115614000Y-106520703D01*
G75*
G02*
X115514000Y-106620703I-100000J0D01*
G01*
X114239000Y-106620703D01*
G75*
G02*
X114139000Y-106520703I0J100000D01*
G01*
X114139000Y-106320703D01*
G75*
G02*
X114239000Y-106220703I100000J0D01*
G01*
X115514000Y-106220703D01*
G75*
G02*
X115614000Y-106320703I0J-100000D01*
G01*
G37*
G36*
G01*
X109889000Y-76627000D02*
X109889000Y-76827000D01*
G75*
G02*
X109789000Y-76927000I-100000J0D01*
G01*
X108514000Y-76927000D01*
G75*
G02*
X108414000Y-76827000I0J100000D01*
G01*
X108414000Y-76627000D01*
G75*
G02*
X108514000Y-76527000I100000J0D01*
G01*
X109789000Y-76527000D01*
G75*
G02*
X109889000Y-76627000I0J-100000D01*
G01*
G37*
G36*
G01*
X109889000Y-75977000D02*
X109889000Y-76177000D01*
G75*
G02*
X109789000Y-76277000I-100000J0D01*
G01*
X108514000Y-76277000D01*
G75*
G02*
X108414000Y-76177000I0J100000D01*
G01*
X108414000Y-75977000D01*
G75*
G02*
X108514000Y-75877000I100000J0D01*
G01*
X109789000Y-75877000D01*
G75*
G02*
X109889000Y-75977000I0J-100000D01*
G01*
G37*
G36*
G01*
X109889000Y-75327000D02*
X109889000Y-75527000D01*
G75*
G02*
X109789000Y-75627000I-100000J0D01*
G01*
X108514000Y-75627000D01*
G75*
G02*
X108414000Y-75527000I0J100000D01*
G01*
X108414000Y-75327000D01*
G75*
G02*
X108514000Y-75227000I100000J0D01*
G01*
X109789000Y-75227000D01*
G75*
G02*
X109889000Y-75327000I0J-100000D01*
G01*
G37*
G36*
G01*
X109889000Y-74677000D02*
X109889000Y-74877000D01*
G75*
G02*
X109789000Y-74977000I-100000J0D01*
G01*
X108514000Y-74977000D01*
G75*
G02*
X108414000Y-74877000I0J100000D01*
G01*
X108414000Y-74677000D01*
G75*
G02*
X108514000Y-74577000I100000J0D01*
G01*
X109789000Y-74577000D01*
G75*
G02*
X109889000Y-74677000I0J-100000D01*
G01*
G37*
G36*
G01*
X109889000Y-74027000D02*
X109889000Y-74227000D01*
G75*
G02*
X109789000Y-74327000I-100000J0D01*
G01*
X108514000Y-74327000D01*
G75*
G02*
X108414000Y-74227000I0J100000D01*
G01*
X108414000Y-74027000D01*
G75*
G02*
X108514000Y-73927000I100000J0D01*
G01*
X109789000Y-73927000D01*
G75*
G02*
X109889000Y-74027000I0J-100000D01*
G01*
G37*
G36*
G01*
X109889000Y-73377000D02*
X109889000Y-73577000D01*
G75*
G02*
X109789000Y-73677000I-100000J0D01*
G01*
X108514000Y-73677000D01*
G75*
G02*
X108414000Y-73577000I0J100000D01*
G01*
X108414000Y-73377000D01*
G75*
G02*
X108514000Y-73277000I100000J0D01*
G01*
X109789000Y-73277000D01*
G75*
G02*
X109889000Y-73377000I0J-100000D01*
G01*
G37*
G36*
G01*
X109889000Y-72727000D02*
X109889000Y-72927000D01*
G75*
G02*
X109789000Y-73027000I-100000J0D01*
G01*
X108514000Y-73027000D01*
G75*
G02*
X108414000Y-72927000I0J100000D01*
G01*
X108414000Y-72727000D01*
G75*
G02*
X108514000Y-72627000I100000J0D01*
G01*
X109789000Y-72627000D01*
G75*
G02*
X109889000Y-72727000I0J-100000D01*
G01*
G37*
G36*
G01*
X109889000Y-72077000D02*
X109889000Y-72277000D01*
G75*
G02*
X109789000Y-72377000I-100000J0D01*
G01*
X108514000Y-72377000D01*
G75*
G02*
X108414000Y-72277000I0J100000D01*
G01*
X108414000Y-72077000D01*
G75*
G02*
X108514000Y-71977000I100000J0D01*
G01*
X109789000Y-71977000D01*
G75*
G02*
X109889000Y-72077000I0J-100000D01*
G01*
G37*
G36*
G01*
X109889000Y-71427000D02*
X109889000Y-71627000D01*
G75*
G02*
X109789000Y-71727000I-100000J0D01*
G01*
X108514000Y-71727000D01*
G75*
G02*
X108414000Y-71627000I0J100000D01*
G01*
X108414000Y-71427000D01*
G75*
G02*
X108514000Y-71327000I100000J0D01*
G01*
X109789000Y-71327000D01*
G75*
G02*
X109889000Y-71427000I0J-100000D01*
G01*
G37*
G36*
G01*
X109889000Y-70777000D02*
X109889000Y-70977000D01*
G75*
G02*
X109789000Y-71077000I-100000J0D01*
G01*
X108514000Y-71077000D01*
G75*
G02*
X108414000Y-70977000I0J100000D01*
G01*
X108414000Y-70777000D01*
G75*
G02*
X108514000Y-70677000I100000J0D01*
G01*
X109789000Y-70677000D01*
G75*
G02*
X109889000Y-70777000I0J-100000D01*
G01*
G37*
G36*
G01*
X109889000Y-70127000D02*
X109889000Y-70327000D01*
G75*
G02*
X109789000Y-70427000I-100000J0D01*
G01*
X108514000Y-70427000D01*
G75*
G02*
X108414000Y-70327000I0J100000D01*
G01*
X108414000Y-70127000D01*
G75*
G02*
X108514000Y-70027000I100000J0D01*
G01*
X109789000Y-70027000D01*
G75*
G02*
X109889000Y-70127000I0J-100000D01*
G01*
G37*
G36*
G01*
X109889000Y-69477000D02*
X109889000Y-69677000D01*
G75*
G02*
X109789000Y-69777000I-100000J0D01*
G01*
X108514000Y-69777000D01*
G75*
G02*
X108414000Y-69677000I0J100000D01*
G01*
X108414000Y-69477000D01*
G75*
G02*
X108514000Y-69377000I100000J0D01*
G01*
X109789000Y-69377000D01*
G75*
G02*
X109889000Y-69477000I0J-100000D01*
G01*
G37*
G36*
G01*
X115614000Y-69477000D02*
X115614000Y-69677000D01*
G75*
G02*
X115514000Y-69777000I-100000J0D01*
G01*
X114239000Y-69777000D01*
G75*
G02*
X114139000Y-69677000I0J100000D01*
G01*
X114139000Y-69477000D01*
G75*
G02*
X114239000Y-69377000I100000J0D01*
G01*
X115514000Y-69377000D01*
G75*
G02*
X115614000Y-69477000I0J-100000D01*
G01*
G37*
G36*
G01*
X115614000Y-70127000D02*
X115614000Y-70327000D01*
G75*
G02*
X115514000Y-70427000I-100000J0D01*
G01*
X114239000Y-70427000D01*
G75*
G02*
X114139000Y-70327000I0J100000D01*
G01*
X114139000Y-70127000D01*
G75*
G02*
X114239000Y-70027000I100000J0D01*
G01*
X115514000Y-70027000D01*
G75*
G02*
X115614000Y-70127000I0J-100000D01*
G01*
G37*
G36*
G01*
X115614000Y-70777000D02*
X115614000Y-70977000D01*
G75*
G02*
X115514000Y-71077000I-100000J0D01*
G01*
X114239000Y-71077000D01*
G75*
G02*
X114139000Y-70977000I0J100000D01*
G01*
X114139000Y-70777000D01*
G75*
G02*
X114239000Y-70677000I100000J0D01*
G01*
X115514000Y-70677000D01*
G75*
G02*
X115614000Y-70777000I0J-100000D01*
G01*
G37*
G36*
G01*
X115614000Y-71427000D02*
X115614000Y-71627000D01*
G75*
G02*
X115514000Y-71727000I-100000J0D01*
G01*
X114239000Y-71727000D01*
G75*
G02*
X114139000Y-71627000I0J100000D01*
G01*
X114139000Y-71427000D01*
G75*
G02*
X114239000Y-71327000I100000J0D01*
G01*
X115514000Y-71327000D01*
G75*
G02*
X115614000Y-71427000I0J-100000D01*
G01*
G37*
G36*
G01*
X115614000Y-72077000D02*
X115614000Y-72277000D01*
G75*
G02*
X115514000Y-72377000I-100000J0D01*
G01*
X114239000Y-72377000D01*
G75*
G02*
X114139000Y-72277000I0J100000D01*
G01*
X114139000Y-72077000D01*
G75*
G02*
X114239000Y-71977000I100000J0D01*
G01*
X115514000Y-71977000D01*
G75*
G02*
X115614000Y-72077000I0J-100000D01*
G01*
G37*
G36*
G01*
X115614000Y-72727000D02*
X115614000Y-72927000D01*
G75*
G02*
X115514000Y-73027000I-100000J0D01*
G01*
X114239000Y-73027000D01*
G75*
G02*
X114139000Y-72927000I0J100000D01*
G01*
X114139000Y-72727000D01*
G75*
G02*
X114239000Y-72627000I100000J0D01*
G01*
X115514000Y-72627000D01*
G75*
G02*
X115614000Y-72727000I0J-100000D01*
G01*
G37*
G36*
G01*
X115614000Y-73377000D02*
X115614000Y-73577000D01*
G75*
G02*
X115514000Y-73677000I-100000J0D01*
G01*
X114239000Y-73677000D01*
G75*
G02*
X114139000Y-73577000I0J100000D01*
G01*
X114139000Y-73377000D01*
G75*
G02*
X114239000Y-73277000I100000J0D01*
G01*
X115514000Y-73277000D01*
G75*
G02*
X115614000Y-73377000I0J-100000D01*
G01*
G37*
G36*
G01*
X115614000Y-74027000D02*
X115614000Y-74227000D01*
G75*
G02*
X115514000Y-74327000I-100000J0D01*
G01*
X114239000Y-74327000D01*
G75*
G02*
X114139000Y-74227000I0J100000D01*
G01*
X114139000Y-74027000D01*
G75*
G02*
X114239000Y-73927000I100000J0D01*
G01*
X115514000Y-73927000D01*
G75*
G02*
X115614000Y-74027000I0J-100000D01*
G01*
G37*
G36*
G01*
X115614000Y-74677000D02*
X115614000Y-74877000D01*
G75*
G02*
X115514000Y-74977000I-100000J0D01*
G01*
X114239000Y-74977000D01*
G75*
G02*
X114139000Y-74877000I0J100000D01*
G01*
X114139000Y-74677000D01*
G75*
G02*
X114239000Y-74577000I100000J0D01*
G01*
X115514000Y-74577000D01*
G75*
G02*
X115614000Y-74677000I0J-100000D01*
G01*
G37*
G36*
G01*
X115614000Y-75327000D02*
X115614000Y-75527000D01*
G75*
G02*
X115514000Y-75627000I-100000J0D01*
G01*
X114239000Y-75627000D01*
G75*
G02*
X114139000Y-75527000I0J100000D01*
G01*
X114139000Y-75327000D01*
G75*
G02*
X114239000Y-75227000I100000J0D01*
G01*
X115514000Y-75227000D01*
G75*
G02*
X115614000Y-75327000I0J-100000D01*
G01*
G37*
G36*
G01*
X115614000Y-75977000D02*
X115614000Y-76177000D01*
G75*
G02*
X115514000Y-76277000I-100000J0D01*
G01*
X114239000Y-76277000D01*
G75*
G02*
X114139000Y-76177000I0J100000D01*
G01*
X114139000Y-75977000D01*
G75*
G02*
X114239000Y-75877000I100000J0D01*
G01*
X115514000Y-75877000D01*
G75*
G02*
X115614000Y-75977000I0J-100000D01*
G01*
G37*
G36*
G01*
X115614000Y-76627000D02*
X115614000Y-76827000D01*
G75*
G02*
X115514000Y-76927000I-100000J0D01*
G01*
X114239000Y-76927000D01*
G75*
G02*
X114139000Y-76827000I0J100000D01*
G01*
X114139000Y-76627000D01*
G75*
G02*
X114239000Y-76527000I100000J0D01*
G01*
X115514000Y-76527000D01*
G75*
G02*
X115614000Y-76627000I0J-100000D01*
G01*
G37*
G36*
G01*
X109889000Y-86524901D02*
X109889000Y-86724901D01*
G75*
G02*
X109789000Y-86824901I-100000J0D01*
G01*
X108514000Y-86824901D01*
G75*
G02*
X108414000Y-86724901I0J100000D01*
G01*
X108414000Y-86524901D01*
G75*
G02*
X108514000Y-86424901I100000J0D01*
G01*
X109789000Y-86424901D01*
G75*
G02*
X109889000Y-86524901I0J-100000D01*
G01*
G37*
G36*
G01*
X109889000Y-85874901D02*
X109889000Y-86074901D01*
G75*
G02*
X109789000Y-86174901I-100000J0D01*
G01*
X108514000Y-86174901D01*
G75*
G02*
X108414000Y-86074901I0J100000D01*
G01*
X108414000Y-85874901D01*
G75*
G02*
X108514000Y-85774901I100000J0D01*
G01*
X109789000Y-85774901D01*
G75*
G02*
X109889000Y-85874901I0J-100000D01*
G01*
G37*
G36*
G01*
X109889000Y-85224901D02*
X109889000Y-85424901D01*
G75*
G02*
X109789000Y-85524901I-100000J0D01*
G01*
X108514000Y-85524901D01*
G75*
G02*
X108414000Y-85424901I0J100000D01*
G01*
X108414000Y-85224901D01*
G75*
G02*
X108514000Y-85124901I100000J0D01*
G01*
X109789000Y-85124901D01*
G75*
G02*
X109889000Y-85224901I0J-100000D01*
G01*
G37*
G36*
G01*
X109889000Y-84574901D02*
X109889000Y-84774901D01*
G75*
G02*
X109789000Y-84874901I-100000J0D01*
G01*
X108514000Y-84874901D01*
G75*
G02*
X108414000Y-84774901I0J100000D01*
G01*
X108414000Y-84574901D01*
G75*
G02*
X108514000Y-84474901I100000J0D01*
G01*
X109789000Y-84474901D01*
G75*
G02*
X109889000Y-84574901I0J-100000D01*
G01*
G37*
G36*
G01*
X109889000Y-83924901D02*
X109889000Y-84124901D01*
G75*
G02*
X109789000Y-84224901I-100000J0D01*
G01*
X108514000Y-84224901D01*
G75*
G02*
X108414000Y-84124901I0J100000D01*
G01*
X108414000Y-83924901D01*
G75*
G02*
X108514000Y-83824901I100000J0D01*
G01*
X109789000Y-83824901D01*
G75*
G02*
X109889000Y-83924901I0J-100000D01*
G01*
G37*
G36*
G01*
X109889000Y-83274901D02*
X109889000Y-83474901D01*
G75*
G02*
X109789000Y-83574901I-100000J0D01*
G01*
X108514000Y-83574901D01*
G75*
G02*
X108414000Y-83474901I0J100000D01*
G01*
X108414000Y-83274901D01*
G75*
G02*
X108514000Y-83174901I100000J0D01*
G01*
X109789000Y-83174901D01*
G75*
G02*
X109889000Y-83274901I0J-100000D01*
G01*
G37*
G36*
G01*
X109889000Y-82624901D02*
X109889000Y-82824901D01*
G75*
G02*
X109789000Y-82924901I-100000J0D01*
G01*
X108514000Y-82924901D01*
G75*
G02*
X108414000Y-82824901I0J100000D01*
G01*
X108414000Y-82624901D01*
G75*
G02*
X108514000Y-82524901I100000J0D01*
G01*
X109789000Y-82524901D01*
G75*
G02*
X109889000Y-82624901I0J-100000D01*
G01*
G37*
G36*
G01*
X109889000Y-81974901D02*
X109889000Y-82174901D01*
G75*
G02*
X109789000Y-82274901I-100000J0D01*
G01*
X108514000Y-82274901D01*
G75*
G02*
X108414000Y-82174901I0J100000D01*
G01*
X108414000Y-81974901D01*
G75*
G02*
X108514000Y-81874901I100000J0D01*
G01*
X109789000Y-81874901D01*
G75*
G02*
X109889000Y-81974901I0J-100000D01*
G01*
G37*
G36*
G01*
X109889000Y-81324901D02*
X109889000Y-81524901D01*
G75*
G02*
X109789000Y-81624901I-100000J0D01*
G01*
X108514000Y-81624901D01*
G75*
G02*
X108414000Y-81524901I0J100000D01*
G01*
X108414000Y-81324901D01*
G75*
G02*
X108514000Y-81224901I100000J0D01*
G01*
X109789000Y-81224901D01*
G75*
G02*
X109889000Y-81324901I0J-100000D01*
G01*
G37*
G36*
G01*
X109889000Y-80674901D02*
X109889000Y-80874901D01*
G75*
G02*
X109789000Y-80974901I-100000J0D01*
G01*
X108514000Y-80974901D01*
G75*
G02*
X108414000Y-80874901I0J100000D01*
G01*
X108414000Y-80674901D01*
G75*
G02*
X108514000Y-80574901I100000J0D01*
G01*
X109789000Y-80574901D01*
G75*
G02*
X109889000Y-80674901I0J-100000D01*
G01*
G37*
G36*
G01*
X109889000Y-80024901D02*
X109889000Y-80224901D01*
G75*
G02*
X109789000Y-80324901I-100000J0D01*
G01*
X108514000Y-80324901D01*
G75*
G02*
X108414000Y-80224901I0J100000D01*
G01*
X108414000Y-80024901D01*
G75*
G02*
X108514000Y-79924901I100000J0D01*
G01*
X109789000Y-79924901D01*
G75*
G02*
X109889000Y-80024901I0J-100000D01*
G01*
G37*
G36*
G01*
X109889000Y-79374901D02*
X109889000Y-79574901D01*
G75*
G02*
X109789000Y-79674901I-100000J0D01*
G01*
X108514000Y-79674901D01*
G75*
G02*
X108414000Y-79574901I0J100000D01*
G01*
X108414000Y-79374901D01*
G75*
G02*
X108514000Y-79274901I100000J0D01*
G01*
X109789000Y-79274901D01*
G75*
G02*
X109889000Y-79374901I0J-100000D01*
G01*
G37*
G36*
G01*
X115614000Y-79374901D02*
X115614000Y-79574901D01*
G75*
G02*
X115514000Y-79674901I-100000J0D01*
G01*
X114239000Y-79674901D01*
G75*
G02*
X114139000Y-79574901I0J100000D01*
G01*
X114139000Y-79374901D01*
G75*
G02*
X114239000Y-79274901I100000J0D01*
G01*
X115514000Y-79274901D01*
G75*
G02*
X115614000Y-79374901I0J-100000D01*
G01*
G37*
G36*
G01*
X115614000Y-80024901D02*
X115614000Y-80224901D01*
G75*
G02*
X115514000Y-80324901I-100000J0D01*
G01*
X114239000Y-80324901D01*
G75*
G02*
X114139000Y-80224901I0J100000D01*
G01*
X114139000Y-80024901D01*
G75*
G02*
X114239000Y-79924901I100000J0D01*
G01*
X115514000Y-79924901D01*
G75*
G02*
X115614000Y-80024901I0J-100000D01*
G01*
G37*
G36*
G01*
X115614000Y-80674901D02*
X115614000Y-80874901D01*
G75*
G02*
X115514000Y-80974901I-100000J0D01*
G01*
X114239000Y-80974901D01*
G75*
G02*
X114139000Y-80874901I0J100000D01*
G01*
X114139000Y-80674901D01*
G75*
G02*
X114239000Y-80574901I100000J0D01*
G01*
X115514000Y-80574901D01*
G75*
G02*
X115614000Y-80674901I0J-100000D01*
G01*
G37*
G36*
G01*
X115614000Y-81324901D02*
X115614000Y-81524901D01*
G75*
G02*
X115514000Y-81624901I-100000J0D01*
G01*
X114239000Y-81624901D01*
G75*
G02*
X114139000Y-81524901I0J100000D01*
G01*
X114139000Y-81324901D01*
G75*
G02*
X114239000Y-81224901I100000J0D01*
G01*
X115514000Y-81224901D01*
G75*
G02*
X115614000Y-81324901I0J-100000D01*
G01*
G37*
G36*
G01*
X115614000Y-81974901D02*
X115614000Y-82174901D01*
G75*
G02*
X115514000Y-82274901I-100000J0D01*
G01*
X114239000Y-82274901D01*
G75*
G02*
X114139000Y-82174901I0J100000D01*
G01*
X114139000Y-81974901D01*
G75*
G02*
X114239000Y-81874901I100000J0D01*
G01*
X115514000Y-81874901D01*
G75*
G02*
X115614000Y-81974901I0J-100000D01*
G01*
G37*
G36*
G01*
X115614000Y-82624901D02*
X115614000Y-82824901D01*
G75*
G02*
X115514000Y-82924901I-100000J0D01*
G01*
X114239000Y-82924901D01*
G75*
G02*
X114139000Y-82824901I0J100000D01*
G01*
X114139000Y-82624901D01*
G75*
G02*
X114239000Y-82524901I100000J0D01*
G01*
X115514000Y-82524901D01*
G75*
G02*
X115614000Y-82624901I0J-100000D01*
G01*
G37*
G36*
G01*
X115614000Y-83274901D02*
X115614000Y-83474901D01*
G75*
G02*
X115514000Y-83574901I-100000J0D01*
G01*
X114239000Y-83574901D01*
G75*
G02*
X114139000Y-83474901I0J100000D01*
G01*
X114139000Y-83274901D01*
G75*
G02*
X114239000Y-83174901I100000J0D01*
G01*
X115514000Y-83174901D01*
G75*
G02*
X115614000Y-83274901I0J-100000D01*
G01*
G37*
G36*
G01*
X115614000Y-83924901D02*
X115614000Y-84124901D01*
G75*
G02*
X115514000Y-84224901I-100000J0D01*
G01*
X114239000Y-84224901D01*
G75*
G02*
X114139000Y-84124901I0J100000D01*
G01*
X114139000Y-83924901D01*
G75*
G02*
X114239000Y-83824901I100000J0D01*
G01*
X115514000Y-83824901D01*
G75*
G02*
X115614000Y-83924901I0J-100000D01*
G01*
G37*
G36*
G01*
X115614000Y-84574901D02*
X115614000Y-84774901D01*
G75*
G02*
X115514000Y-84874901I-100000J0D01*
G01*
X114239000Y-84874901D01*
G75*
G02*
X114139000Y-84774901I0J100000D01*
G01*
X114139000Y-84574901D01*
G75*
G02*
X114239000Y-84474901I100000J0D01*
G01*
X115514000Y-84474901D01*
G75*
G02*
X115614000Y-84574901I0J-100000D01*
G01*
G37*
G36*
G01*
X115614000Y-85224901D02*
X115614000Y-85424901D01*
G75*
G02*
X115514000Y-85524901I-100000J0D01*
G01*
X114239000Y-85524901D01*
G75*
G02*
X114139000Y-85424901I0J100000D01*
G01*
X114139000Y-85224901D01*
G75*
G02*
X114239000Y-85124901I100000J0D01*
G01*
X115514000Y-85124901D01*
G75*
G02*
X115614000Y-85224901I0J-100000D01*
G01*
G37*
G36*
G01*
X115614000Y-85874901D02*
X115614000Y-86074901D01*
G75*
G02*
X115514000Y-86174901I-100000J0D01*
G01*
X114239000Y-86174901D01*
G75*
G02*
X114139000Y-86074901I0J100000D01*
G01*
X114139000Y-85874901D01*
G75*
G02*
X114239000Y-85774901I100000J0D01*
G01*
X115514000Y-85774901D01*
G75*
G02*
X115614000Y-85874901I0J-100000D01*
G01*
G37*
G36*
G01*
X115614000Y-86524901D02*
X115614000Y-86724901D01*
G75*
G02*
X115514000Y-86824901I-100000J0D01*
G01*
X114239000Y-86824901D01*
G75*
G02*
X114139000Y-86724901I0J100000D01*
G01*
X114139000Y-86524901D01*
G75*
G02*
X114239000Y-86424901I100000J0D01*
G01*
X115514000Y-86424901D01*
G75*
G02*
X115614000Y-86524901I0J-100000D01*
G01*
G37*
G36*
G01*
X187685000Y-91130000D02*
X187685000Y-92455000D01*
G75*
G02*
X187610000Y-92530000I-75000J0D01*
G01*
X187460000Y-92530000D01*
G75*
G02*
X187385000Y-92455000I0J75000D01*
G01*
X187385000Y-91130000D01*
G75*
G02*
X187460000Y-91055000I75000J0D01*
G01*
X187610000Y-91055000D01*
G75*
G02*
X187685000Y-91130000I0J-75000D01*
G01*
G37*
G36*
G01*
X187185000Y-91130000D02*
X187185000Y-92455000D01*
G75*
G02*
X187110000Y-92530000I-75000J0D01*
G01*
X186960000Y-92530000D01*
G75*
G02*
X186885000Y-92455000I0J75000D01*
G01*
X186885000Y-91130000D01*
G75*
G02*
X186960000Y-91055000I75000J0D01*
G01*
X187110000Y-91055000D01*
G75*
G02*
X187185000Y-91130000I0J-75000D01*
G01*
G37*
G36*
G01*
X186685000Y-91130000D02*
X186685000Y-92455000D01*
G75*
G02*
X186610000Y-92530000I-75000J0D01*
G01*
X186460000Y-92530000D01*
G75*
G02*
X186385000Y-92455000I0J75000D01*
G01*
X186385000Y-91130000D01*
G75*
G02*
X186460000Y-91055000I75000J0D01*
G01*
X186610000Y-91055000D01*
G75*
G02*
X186685000Y-91130000I0J-75000D01*
G01*
G37*
G36*
G01*
X186185000Y-91130000D02*
X186185000Y-92455000D01*
G75*
G02*
X186110000Y-92530000I-75000J0D01*
G01*
X185960000Y-92530000D01*
G75*
G02*
X185885000Y-92455000I0J75000D01*
G01*
X185885000Y-91130000D01*
G75*
G02*
X185960000Y-91055000I75000J0D01*
G01*
X186110000Y-91055000D01*
G75*
G02*
X186185000Y-91130000I0J-75000D01*
G01*
G37*
G36*
G01*
X185685000Y-91130000D02*
X185685000Y-92455000D01*
G75*
G02*
X185610000Y-92530000I-75000J0D01*
G01*
X185460000Y-92530000D01*
G75*
G02*
X185385000Y-92455000I0J75000D01*
G01*
X185385000Y-91130000D01*
G75*
G02*
X185460000Y-91055000I75000J0D01*
G01*
X185610000Y-91055000D01*
G75*
G02*
X185685000Y-91130000I0J-75000D01*
G01*
G37*
G36*
G01*
X185185000Y-91130000D02*
X185185000Y-92455000D01*
G75*
G02*
X185110000Y-92530000I-75000J0D01*
G01*
X184960000Y-92530000D01*
G75*
G02*
X184885000Y-92455000I0J75000D01*
G01*
X184885000Y-91130000D01*
G75*
G02*
X184960000Y-91055000I75000J0D01*
G01*
X185110000Y-91055000D01*
G75*
G02*
X185185000Y-91130000I0J-75000D01*
G01*
G37*
G36*
G01*
X184685000Y-91130000D02*
X184685000Y-92455000D01*
G75*
G02*
X184610000Y-92530000I-75000J0D01*
G01*
X184460000Y-92530000D01*
G75*
G02*
X184385000Y-92455000I0J75000D01*
G01*
X184385000Y-91130000D01*
G75*
G02*
X184460000Y-91055000I75000J0D01*
G01*
X184610000Y-91055000D01*
G75*
G02*
X184685000Y-91130000I0J-75000D01*
G01*
G37*
G36*
G01*
X184185000Y-91130000D02*
X184185000Y-92455000D01*
G75*
G02*
X184110000Y-92530000I-75000J0D01*
G01*
X183960000Y-92530000D01*
G75*
G02*
X183885000Y-92455000I0J75000D01*
G01*
X183885000Y-91130000D01*
G75*
G02*
X183960000Y-91055000I75000J0D01*
G01*
X184110000Y-91055000D01*
G75*
G02*
X184185000Y-91130000I0J-75000D01*
G01*
G37*
G36*
G01*
X183685000Y-91130000D02*
X183685000Y-92455000D01*
G75*
G02*
X183610000Y-92530000I-75000J0D01*
G01*
X183460000Y-92530000D01*
G75*
G02*
X183385000Y-92455000I0J75000D01*
G01*
X183385000Y-91130000D01*
G75*
G02*
X183460000Y-91055000I75000J0D01*
G01*
X183610000Y-91055000D01*
G75*
G02*
X183685000Y-91130000I0J-75000D01*
G01*
G37*
G36*
G01*
X183185000Y-91130000D02*
X183185000Y-92455000D01*
G75*
G02*
X183110000Y-92530000I-75000J0D01*
G01*
X182960000Y-92530000D01*
G75*
G02*
X182885000Y-92455000I0J75000D01*
G01*
X182885000Y-91130000D01*
G75*
G02*
X182960000Y-91055000I75000J0D01*
G01*
X183110000Y-91055000D01*
G75*
G02*
X183185000Y-91130000I0J-75000D01*
G01*
G37*
G36*
G01*
X182685000Y-91130000D02*
X182685000Y-92455000D01*
G75*
G02*
X182610000Y-92530000I-75000J0D01*
G01*
X182460000Y-92530000D01*
G75*
G02*
X182385000Y-92455000I0J75000D01*
G01*
X182385000Y-91130000D01*
G75*
G02*
X182460000Y-91055000I75000J0D01*
G01*
X182610000Y-91055000D01*
G75*
G02*
X182685000Y-91130000I0J-75000D01*
G01*
G37*
G36*
G01*
X182185000Y-91130000D02*
X182185000Y-92455000D01*
G75*
G02*
X182110000Y-92530000I-75000J0D01*
G01*
X181960000Y-92530000D01*
G75*
G02*
X181885000Y-92455000I0J75000D01*
G01*
X181885000Y-91130000D01*
G75*
G02*
X181960000Y-91055000I75000J0D01*
G01*
X182110000Y-91055000D01*
G75*
G02*
X182185000Y-91130000I0J-75000D01*
G01*
G37*
G36*
G01*
X181360000Y-90305000D02*
X181360000Y-90455000D01*
G75*
G02*
X181285000Y-90530000I-75000J0D01*
G01*
X179960000Y-90530000D01*
G75*
G02*
X179885000Y-90455000I0J75000D01*
G01*
X179885000Y-90305000D01*
G75*
G02*
X179960000Y-90230000I75000J0D01*
G01*
X181285000Y-90230000D01*
G75*
G02*
X181360000Y-90305000I0J-75000D01*
G01*
G37*
G36*
G01*
X181360000Y-89805000D02*
X181360000Y-89955000D01*
G75*
G02*
X181285000Y-90030000I-75000J0D01*
G01*
X179960000Y-90030000D01*
G75*
G02*
X179885000Y-89955000I0J75000D01*
G01*
X179885000Y-89805000D01*
G75*
G02*
X179960000Y-89730000I75000J0D01*
G01*
X181285000Y-89730000D01*
G75*
G02*
X181360000Y-89805000I0J-75000D01*
G01*
G37*
G36*
G01*
X181360000Y-89305000D02*
X181360000Y-89455000D01*
G75*
G02*
X181285000Y-89530000I-75000J0D01*
G01*
X179960000Y-89530000D01*
G75*
G02*
X179885000Y-89455000I0J75000D01*
G01*
X179885000Y-89305000D01*
G75*
G02*
X179960000Y-89230000I75000J0D01*
G01*
X181285000Y-89230000D01*
G75*
G02*
X181360000Y-89305000I0J-75000D01*
G01*
G37*
G36*
G01*
X181360000Y-88805000D02*
X181360000Y-88955000D01*
G75*
G02*
X181285000Y-89030000I-75000J0D01*
G01*
X179960000Y-89030000D01*
G75*
G02*
X179885000Y-88955000I0J75000D01*
G01*
X179885000Y-88805000D01*
G75*
G02*
X179960000Y-88730000I75000J0D01*
G01*
X181285000Y-88730000D01*
G75*
G02*
X181360000Y-88805000I0J-75000D01*
G01*
G37*
G36*
G01*
X181360000Y-88305000D02*
X181360000Y-88455000D01*
G75*
G02*
X181285000Y-88530000I-75000J0D01*
G01*
X179960000Y-88530000D01*
G75*
G02*
X179885000Y-88455000I0J75000D01*
G01*
X179885000Y-88305000D01*
G75*
G02*
X179960000Y-88230000I75000J0D01*
G01*
X181285000Y-88230000D01*
G75*
G02*
X181360000Y-88305000I0J-75000D01*
G01*
G37*
G36*
G01*
X181360000Y-87805000D02*
X181360000Y-87955000D01*
G75*
G02*
X181285000Y-88030000I-75000J0D01*
G01*
X179960000Y-88030000D01*
G75*
G02*
X179885000Y-87955000I0J75000D01*
G01*
X179885000Y-87805000D01*
G75*
G02*
X179960000Y-87730000I75000J0D01*
G01*
X181285000Y-87730000D01*
G75*
G02*
X181360000Y-87805000I0J-75000D01*
G01*
G37*
G36*
G01*
X181360000Y-87305000D02*
X181360000Y-87455000D01*
G75*
G02*
X181285000Y-87530000I-75000J0D01*
G01*
X179960000Y-87530000D01*
G75*
G02*
X179885000Y-87455000I0J75000D01*
G01*
X179885000Y-87305000D01*
G75*
G02*
X179960000Y-87230000I75000J0D01*
G01*
X181285000Y-87230000D01*
G75*
G02*
X181360000Y-87305000I0J-75000D01*
G01*
G37*
G36*
G01*
X181360000Y-86805000D02*
X181360000Y-86955000D01*
G75*
G02*
X181285000Y-87030000I-75000J0D01*
G01*
X179960000Y-87030000D01*
G75*
G02*
X179885000Y-86955000I0J75000D01*
G01*
X179885000Y-86805000D01*
G75*
G02*
X179960000Y-86730000I75000J0D01*
G01*
X181285000Y-86730000D01*
G75*
G02*
X181360000Y-86805000I0J-75000D01*
G01*
G37*
G36*
G01*
X181360000Y-86305000D02*
X181360000Y-86455000D01*
G75*
G02*
X181285000Y-86530000I-75000J0D01*
G01*
X179960000Y-86530000D01*
G75*
G02*
X179885000Y-86455000I0J75000D01*
G01*
X179885000Y-86305000D01*
G75*
G02*
X179960000Y-86230000I75000J0D01*
G01*
X181285000Y-86230000D01*
G75*
G02*
X181360000Y-86305000I0J-75000D01*
G01*
G37*
G36*
G01*
X181360000Y-85805000D02*
X181360000Y-85955000D01*
G75*
G02*
X181285000Y-86030000I-75000J0D01*
G01*
X179960000Y-86030000D01*
G75*
G02*
X179885000Y-85955000I0J75000D01*
G01*
X179885000Y-85805000D01*
G75*
G02*
X179960000Y-85730000I75000J0D01*
G01*
X181285000Y-85730000D01*
G75*
G02*
X181360000Y-85805000I0J-75000D01*
G01*
G37*
G36*
G01*
X181360000Y-85305000D02*
X181360000Y-85455000D01*
G75*
G02*
X181285000Y-85530000I-75000J0D01*
G01*
X179960000Y-85530000D01*
G75*
G02*
X179885000Y-85455000I0J75000D01*
G01*
X179885000Y-85305000D01*
G75*
G02*
X179960000Y-85230000I75000J0D01*
G01*
X181285000Y-85230000D01*
G75*
G02*
X181360000Y-85305000I0J-75000D01*
G01*
G37*
G36*
G01*
X181360000Y-84805000D02*
X181360000Y-84955000D01*
G75*
G02*
X181285000Y-85030000I-75000J0D01*
G01*
X179960000Y-85030000D01*
G75*
G02*
X179885000Y-84955000I0J75000D01*
G01*
X179885000Y-84805000D01*
G75*
G02*
X179960000Y-84730000I75000J0D01*
G01*
X181285000Y-84730000D01*
G75*
G02*
X181360000Y-84805000I0J-75000D01*
G01*
G37*
G36*
G01*
X182185000Y-82805000D02*
X182185000Y-84130000D01*
G75*
G02*
X182110000Y-84205000I-75000J0D01*
G01*
X181960000Y-84205000D01*
G75*
G02*
X181885000Y-84130000I0J75000D01*
G01*
X181885000Y-82805000D01*
G75*
G02*
X181960000Y-82730000I75000J0D01*
G01*
X182110000Y-82730000D01*
G75*
G02*
X182185000Y-82805000I0J-75000D01*
G01*
G37*
G36*
G01*
X182685000Y-82805000D02*
X182685000Y-84130000D01*
G75*
G02*
X182610000Y-84205000I-75000J0D01*
G01*
X182460000Y-84205000D01*
G75*
G02*
X182385000Y-84130000I0J75000D01*
G01*
X182385000Y-82805000D01*
G75*
G02*
X182460000Y-82730000I75000J0D01*
G01*
X182610000Y-82730000D01*
G75*
G02*
X182685000Y-82805000I0J-75000D01*
G01*
G37*
G36*
G01*
X183185000Y-82805000D02*
X183185000Y-84130000D01*
G75*
G02*
X183110000Y-84205000I-75000J0D01*
G01*
X182960000Y-84205000D01*
G75*
G02*
X182885000Y-84130000I0J75000D01*
G01*
X182885000Y-82805000D01*
G75*
G02*
X182960000Y-82730000I75000J0D01*
G01*
X183110000Y-82730000D01*
G75*
G02*
X183185000Y-82805000I0J-75000D01*
G01*
G37*
G36*
G01*
X183685000Y-82805000D02*
X183685000Y-84130000D01*
G75*
G02*
X183610000Y-84205000I-75000J0D01*
G01*
X183460000Y-84205000D01*
G75*
G02*
X183385000Y-84130000I0J75000D01*
G01*
X183385000Y-82805000D01*
G75*
G02*
X183460000Y-82730000I75000J0D01*
G01*
X183610000Y-82730000D01*
G75*
G02*
X183685000Y-82805000I0J-75000D01*
G01*
G37*
G36*
G01*
X184185000Y-82805000D02*
X184185000Y-84130000D01*
G75*
G02*
X184110000Y-84205000I-75000J0D01*
G01*
X183960000Y-84205000D01*
G75*
G02*
X183885000Y-84130000I0J75000D01*
G01*
X183885000Y-82805000D01*
G75*
G02*
X183960000Y-82730000I75000J0D01*
G01*
X184110000Y-82730000D01*
G75*
G02*
X184185000Y-82805000I0J-75000D01*
G01*
G37*
G36*
G01*
X184685000Y-82805000D02*
X184685000Y-84130000D01*
G75*
G02*
X184610000Y-84205000I-75000J0D01*
G01*
X184460000Y-84205000D01*
G75*
G02*
X184385000Y-84130000I0J75000D01*
G01*
X184385000Y-82805000D01*
G75*
G02*
X184460000Y-82730000I75000J0D01*
G01*
X184610000Y-82730000D01*
G75*
G02*
X184685000Y-82805000I0J-75000D01*
G01*
G37*
G36*
G01*
X185185000Y-82805000D02*
X185185000Y-84130000D01*
G75*
G02*
X185110000Y-84205000I-75000J0D01*
G01*
X184960000Y-84205000D01*
G75*
G02*
X184885000Y-84130000I0J75000D01*
G01*
X184885000Y-82805000D01*
G75*
G02*
X184960000Y-82730000I75000J0D01*
G01*
X185110000Y-82730000D01*
G75*
G02*
X185185000Y-82805000I0J-75000D01*
G01*
G37*
G36*
G01*
X185685000Y-82805000D02*
X185685000Y-84130000D01*
G75*
G02*
X185610000Y-84205000I-75000J0D01*
G01*
X185460000Y-84205000D01*
G75*
G02*
X185385000Y-84130000I0J75000D01*
G01*
X185385000Y-82805000D01*
G75*
G02*
X185460000Y-82730000I75000J0D01*
G01*
X185610000Y-82730000D01*
G75*
G02*
X185685000Y-82805000I0J-75000D01*
G01*
G37*
G36*
G01*
X186185000Y-82805000D02*
X186185000Y-84130000D01*
G75*
G02*
X186110000Y-84205000I-75000J0D01*
G01*
X185960000Y-84205000D01*
G75*
G02*
X185885000Y-84130000I0J75000D01*
G01*
X185885000Y-82805000D01*
G75*
G02*
X185960000Y-82730000I75000J0D01*
G01*
X186110000Y-82730000D01*
G75*
G02*
X186185000Y-82805000I0J-75000D01*
G01*
G37*
G36*
G01*
X186685000Y-82805000D02*
X186685000Y-84130000D01*
G75*
G02*
X186610000Y-84205000I-75000J0D01*
G01*
X186460000Y-84205000D01*
G75*
G02*
X186385000Y-84130000I0J75000D01*
G01*
X186385000Y-82805000D01*
G75*
G02*
X186460000Y-82730000I75000J0D01*
G01*
X186610000Y-82730000D01*
G75*
G02*
X186685000Y-82805000I0J-75000D01*
G01*
G37*
G36*
G01*
X187185000Y-82805000D02*
X187185000Y-84130000D01*
G75*
G02*
X187110000Y-84205000I-75000J0D01*
G01*
X186960000Y-84205000D01*
G75*
G02*
X186885000Y-84130000I0J75000D01*
G01*
X186885000Y-82805000D01*
G75*
G02*
X186960000Y-82730000I75000J0D01*
G01*
X187110000Y-82730000D01*
G75*
G02*
X187185000Y-82805000I0J-75000D01*
G01*
G37*
G36*
G01*
X187685000Y-82805000D02*
X187685000Y-84130000D01*
G75*
G02*
X187610000Y-84205000I-75000J0D01*
G01*
X187460000Y-84205000D01*
G75*
G02*
X187385000Y-84130000I0J75000D01*
G01*
X187385000Y-82805000D01*
G75*
G02*
X187460000Y-82730000I75000J0D01*
G01*
X187610000Y-82730000D01*
G75*
G02*
X187685000Y-82805000I0J-75000D01*
G01*
G37*
G36*
G01*
X189685000Y-84805000D02*
X189685000Y-84955000D01*
G75*
G02*
X189610000Y-85030000I-75000J0D01*
G01*
X188285000Y-85030000D01*
G75*
G02*
X188210000Y-84955000I0J75000D01*
G01*
X188210000Y-84805000D01*
G75*
G02*
X188285000Y-84730000I75000J0D01*
G01*
X189610000Y-84730000D01*
G75*
G02*
X189685000Y-84805000I0J-75000D01*
G01*
G37*
G36*
G01*
X189685000Y-85305000D02*
X189685000Y-85455000D01*
G75*
G02*
X189610000Y-85530000I-75000J0D01*
G01*
X188285000Y-85530000D01*
G75*
G02*
X188210000Y-85455000I0J75000D01*
G01*
X188210000Y-85305000D01*
G75*
G02*
X188285000Y-85230000I75000J0D01*
G01*
X189610000Y-85230000D01*
G75*
G02*
X189685000Y-85305000I0J-75000D01*
G01*
G37*
G36*
G01*
X189685000Y-85805000D02*
X189685000Y-85955000D01*
G75*
G02*
X189610000Y-86030000I-75000J0D01*
G01*
X188285000Y-86030000D01*
G75*
G02*
X188210000Y-85955000I0J75000D01*
G01*
X188210000Y-85805000D01*
G75*
G02*
X188285000Y-85730000I75000J0D01*
G01*
X189610000Y-85730000D01*
G75*
G02*
X189685000Y-85805000I0J-75000D01*
G01*
G37*
G36*
G01*
X189685000Y-86305000D02*
X189685000Y-86455000D01*
G75*
G02*
X189610000Y-86530000I-75000J0D01*
G01*
X188285000Y-86530000D01*
G75*
G02*
X188210000Y-86455000I0J75000D01*
G01*
X188210000Y-86305000D01*
G75*
G02*
X188285000Y-86230000I75000J0D01*
G01*
X189610000Y-86230000D01*
G75*
G02*
X189685000Y-86305000I0J-75000D01*
G01*
G37*
G36*
G01*
X189685000Y-86805000D02*
X189685000Y-86955000D01*
G75*
G02*
X189610000Y-87030000I-75000J0D01*
G01*
X188285000Y-87030000D01*
G75*
G02*
X188210000Y-86955000I0J75000D01*
G01*
X188210000Y-86805000D01*
G75*
G02*
X188285000Y-86730000I75000J0D01*
G01*
X189610000Y-86730000D01*
G75*
G02*
X189685000Y-86805000I0J-75000D01*
G01*
G37*
G36*
G01*
X189685000Y-87305000D02*
X189685000Y-87455000D01*
G75*
G02*
X189610000Y-87530000I-75000J0D01*
G01*
X188285000Y-87530000D01*
G75*
G02*
X188210000Y-87455000I0J75000D01*
G01*
X188210000Y-87305000D01*
G75*
G02*
X188285000Y-87230000I75000J0D01*
G01*
X189610000Y-87230000D01*
G75*
G02*
X189685000Y-87305000I0J-75000D01*
G01*
G37*
G36*
G01*
X189685000Y-87805000D02*
X189685000Y-87955000D01*
G75*
G02*
X189610000Y-88030000I-75000J0D01*
G01*
X188285000Y-88030000D01*
G75*
G02*
X188210000Y-87955000I0J75000D01*
G01*
X188210000Y-87805000D01*
G75*
G02*
X188285000Y-87730000I75000J0D01*
G01*
X189610000Y-87730000D01*
G75*
G02*
X189685000Y-87805000I0J-75000D01*
G01*
G37*
G36*
G01*
X189685000Y-88305000D02*
X189685000Y-88455000D01*
G75*
G02*
X189610000Y-88530000I-75000J0D01*
G01*
X188285000Y-88530000D01*
G75*
G02*
X188210000Y-88455000I0J75000D01*
G01*
X188210000Y-88305000D01*
G75*
G02*
X188285000Y-88230000I75000J0D01*
G01*
X189610000Y-88230000D01*
G75*
G02*
X189685000Y-88305000I0J-75000D01*
G01*
G37*
G36*
G01*
X189685000Y-88805000D02*
X189685000Y-88955000D01*
G75*
G02*
X189610000Y-89030000I-75000J0D01*
G01*
X188285000Y-89030000D01*
G75*
G02*
X188210000Y-88955000I0J75000D01*
G01*
X188210000Y-88805000D01*
G75*
G02*
X188285000Y-88730000I75000J0D01*
G01*
X189610000Y-88730000D01*
G75*
G02*
X189685000Y-88805000I0J-75000D01*
G01*
G37*
G36*
G01*
X189685000Y-89305000D02*
X189685000Y-89455000D01*
G75*
G02*
X189610000Y-89530000I-75000J0D01*
G01*
X188285000Y-89530000D01*
G75*
G02*
X188210000Y-89455000I0J75000D01*
G01*
X188210000Y-89305000D01*
G75*
G02*
X188285000Y-89230000I75000J0D01*
G01*
X189610000Y-89230000D01*
G75*
G02*
X189685000Y-89305000I0J-75000D01*
G01*
G37*
G36*
G01*
X189685000Y-89805000D02*
X189685000Y-89955000D01*
G75*
G02*
X189610000Y-90030000I-75000J0D01*
G01*
X188285000Y-90030000D01*
G75*
G02*
X188210000Y-89955000I0J75000D01*
G01*
X188210000Y-89805000D01*
G75*
G02*
X188285000Y-89730000I75000J0D01*
G01*
X189610000Y-89730000D01*
G75*
G02*
X189685000Y-89805000I0J-75000D01*
G01*
G37*
G36*
G01*
X189685000Y-90305000D02*
X189685000Y-90455000D01*
G75*
G02*
X189610000Y-90530000I-75000J0D01*
G01*
X188285000Y-90530000D01*
G75*
G02*
X188210000Y-90455000I0J75000D01*
G01*
X188210000Y-90305000D01*
G75*
G02*
X188285000Y-90230000I75000J0D01*
G01*
X189610000Y-90230000D01*
G75*
G02*
X189685000Y-90305000I0J-75000D01*
G01*
G37*
D22*
X180207000Y-103954000D03*
X181007000Y-103954000D03*
X181807000Y-103954000D03*
X182607000Y-103954000D03*
X183407000Y-103954000D03*
X184207000Y-103954000D03*
X185007000Y-103954000D03*
X185807000Y-103954000D03*
D23*
X187257000Y-105404000D03*
X187257000Y-106204000D03*
X187257000Y-107004000D03*
X187257000Y-107804000D03*
X187257000Y-108604000D03*
X187257000Y-109404000D03*
X187257000Y-110204000D03*
X187257000Y-111004000D03*
D22*
X185807000Y-112454000D03*
X185007000Y-112454000D03*
X184207000Y-112454000D03*
X183407000Y-112454000D03*
X182607000Y-112454000D03*
X181807000Y-112454000D03*
X181007000Y-112454000D03*
X180207000Y-112454000D03*
D23*
X178757000Y-111004000D03*
X178757000Y-110204000D03*
X178757000Y-109404000D03*
X178757000Y-108604000D03*
X178757000Y-107804000D03*
X178757000Y-107004000D03*
X178757000Y-106204000D03*
X178757000Y-105404000D03*
D24*
X154262000Y-65090000D03*
X154262000Y-66990000D03*
X152062000Y-66990000D03*
X152062000Y-66040000D03*
X152062000Y-65090000D03*
X145626000Y-65090000D03*
X145626000Y-66990000D03*
X143426000Y-66990000D03*
X143426000Y-66040000D03*
X143426000Y-65090000D03*
D25*
X147701000Y-125439000D03*
X147701000Y-116369000D03*
X146431000Y-125439000D03*
X146431000Y-116369000D03*
X145161000Y-125439000D03*
X145161000Y-116369000D03*
X143891000Y-125439000D03*
X143891000Y-116369000D03*
X142621000Y-125439000D03*
X142621000Y-116369000D03*
X141351000Y-125439000D03*
X141351000Y-116369000D03*
X140081000Y-125439000D03*
X140081000Y-116369000D03*
X138811000Y-125439000D03*
X138811000Y-116369000D03*
X131191000Y-133059000D03*
X131191000Y-123989000D03*
X129921000Y-133059000D03*
X129921000Y-123989000D03*
X128651000Y-133059000D03*
X128651000Y-123989000D03*
X127381000Y-133059000D03*
X127381000Y-123989000D03*
X126111000Y-133059000D03*
X126111000Y-123989000D03*
X124841000Y-133059000D03*
X124841000Y-123989000D03*
X123571000Y-133059000D03*
X123571000Y-123989000D03*
X122301000Y-133059000D03*
X122301000Y-123989000D03*
X147701000Y-105373000D03*
X147701000Y-96303000D03*
X146431000Y-105373000D03*
X146431000Y-96303000D03*
X145161000Y-105373000D03*
X145161000Y-96303000D03*
X143891000Y-105373000D03*
X143891000Y-96303000D03*
X142621000Y-105373000D03*
X142621000Y-96303000D03*
X141351000Y-105373000D03*
X141351000Y-96303000D03*
X140081000Y-105373000D03*
X140081000Y-96303000D03*
X138811000Y-105373000D03*
X138811000Y-96303000D03*
X131191000Y-113120000D03*
X131191000Y-104050000D03*
X129921000Y-113120000D03*
X129921000Y-104050000D03*
X128651000Y-113120000D03*
X128651000Y-104050000D03*
X127381000Y-113120000D03*
X127381000Y-104050000D03*
X126111000Y-113120000D03*
X126111000Y-104050000D03*
X124841000Y-113120000D03*
X124841000Y-104050000D03*
X123571000Y-113120000D03*
X123571000Y-104050000D03*
X122301000Y-113120000D03*
X122301000Y-104050000D03*
X147701000Y-85307000D03*
X147701000Y-76237000D03*
X146431000Y-85307000D03*
X146431000Y-76237000D03*
X145161000Y-85307000D03*
X145161000Y-76237000D03*
X143891000Y-85307000D03*
X143891000Y-76237000D03*
X142621000Y-85307000D03*
X142621000Y-76237000D03*
X141351000Y-85307000D03*
X141351000Y-76237000D03*
X140081000Y-85307000D03*
X140081000Y-76237000D03*
X138811000Y-85307000D03*
X138811000Y-76237000D03*
X131191000Y-93181000D03*
X131191000Y-84111000D03*
X129921000Y-93181000D03*
X129921000Y-84111000D03*
X128651000Y-93181000D03*
X128651000Y-84111000D03*
X127381000Y-93181000D03*
X127381000Y-84111000D03*
X126111000Y-93181000D03*
X126111000Y-84111000D03*
X124841000Y-93181000D03*
X124841000Y-84111000D03*
X123571000Y-93181000D03*
X123571000Y-84111000D03*
X122301000Y-93181000D03*
X122301000Y-84111000D03*
D15*
X196088000Y-115570000D03*
X196088000Y-113030000D03*
D16*
X196088000Y-110490000D03*
D15*
X196088000Y-106172000D03*
X193548000Y-106172000D03*
X196088000Y-103632000D03*
X193548000Y-103632000D03*
X196088000Y-101092000D03*
D16*
X193548000Y-101092000D03*
D26*
X102616000Y-106680000D03*
X101346000Y-106680000D03*
X102616000Y-105410000D03*
X101346000Y-105410000D03*
X102616000Y-104140000D03*
X101346000Y-104140000D03*
X102616000Y-102870000D03*
D27*
X101346000Y-102870000D03*
D28*
X118211600Y-62185800D03*
X118211600Y-66185800D03*
G36*
G01*
X191658000Y-80816001D02*
X191658000Y-79965999D01*
G75*
G02*
X191907999Y-79716000I249999J0D01*
G01*
X192808001Y-79716000D01*
G75*
G02*
X193058000Y-79965999I0J-249999D01*
G01*
X193058000Y-80816001D01*
G75*
G02*
X192808001Y-81066000I-249999J0D01*
G01*
X191907999Y-81066000D01*
G75*
G02*
X191658000Y-80816001I0J249999D01*
G01*
G37*
G36*
G01*
X188958000Y-80816001D02*
X188958000Y-79965999D01*
G75*
G02*
X189207999Y-79716000I249999J0D01*
G01*
X190108001Y-79716000D01*
G75*
G02*
X190358000Y-79965999I0J-249999D01*
G01*
X190358000Y-80816001D01*
G75*
G02*
X190108001Y-81066000I-249999J0D01*
G01*
X189207999Y-81066000D01*
G75*
G02*
X188958000Y-80816001I0J249999D01*
G01*
G37*
G36*
G01*
X138161000Y-128924499D02*
X138161000Y-129774501D01*
G75*
G02*
X137911001Y-130024500I-249999J0D01*
G01*
X137010999Y-130024500D01*
G75*
G02*
X136761000Y-129774501I0J249999D01*
G01*
X136761000Y-128924499D01*
G75*
G02*
X137010999Y-128674500I249999J0D01*
G01*
X137911001Y-128674500D01*
G75*
G02*
X138161000Y-128924499I0J-249999D01*
G01*
G37*
G36*
G01*
X140861000Y-128924499D02*
X140861000Y-129774501D01*
G75*
G02*
X140611001Y-130024500I-249999J0D01*
G01*
X139710999Y-130024500D01*
G75*
G02*
X139461000Y-129774501I0J249999D01*
G01*
X139461000Y-128924499D01*
G75*
G02*
X139710999Y-128674500I249999J0D01*
G01*
X140611001Y-128674500D01*
G75*
G02*
X140861000Y-128924499I0J-249999D01*
G01*
G37*
G36*
G01*
X132358800Y-121049601D02*
X132358800Y-120199599D01*
G75*
G02*
X132608799Y-119949600I249999J0D01*
G01*
X133508801Y-119949600D01*
G75*
G02*
X133758800Y-120199599I0J-249999D01*
G01*
X133758800Y-121049601D01*
G75*
G02*
X133508801Y-121299600I-249999J0D01*
G01*
X132608799Y-121299600D01*
G75*
G02*
X132358800Y-121049601I0J249999D01*
G01*
G37*
G36*
G01*
X129658800Y-121049601D02*
X129658800Y-120199599D01*
G75*
G02*
X129908799Y-119949600I249999J0D01*
G01*
X130808801Y-119949600D01*
G75*
G02*
X131058800Y-120199599I0J-249999D01*
G01*
X131058800Y-121049601D01*
G75*
G02*
X130808801Y-121299600I-249999J0D01*
G01*
X129908799Y-121299600D01*
G75*
G02*
X129658800Y-121049601I0J249999D01*
G01*
G37*
G36*
G01*
X138183500Y-108794999D02*
X138183500Y-109645001D01*
G75*
G02*
X137933501Y-109895000I-249999J0D01*
G01*
X137033499Y-109895000D01*
G75*
G02*
X136783500Y-109645001I0J249999D01*
G01*
X136783500Y-108794999D01*
G75*
G02*
X137033499Y-108545000I249999J0D01*
G01*
X137933501Y-108545000D01*
G75*
G02*
X138183500Y-108794999I0J-249999D01*
G01*
G37*
G36*
G01*
X140883500Y-108794999D02*
X140883500Y-109645001D01*
G75*
G02*
X140633501Y-109895000I-249999J0D01*
G01*
X139733499Y-109895000D01*
G75*
G02*
X139483500Y-109645001I0J249999D01*
G01*
X139483500Y-108794999D01*
G75*
G02*
X139733499Y-108545000I249999J0D01*
G01*
X140633501Y-108545000D01*
G75*
G02*
X140883500Y-108794999I0J-249999D01*
G01*
G37*
G36*
G01*
X131714000Y-100640701D02*
X131714000Y-99790699D01*
G75*
G02*
X131963999Y-99540700I249999J0D01*
G01*
X132864001Y-99540700D01*
G75*
G02*
X133114000Y-99790699I0J-249999D01*
G01*
X133114000Y-100640701D01*
G75*
G02*
X132864001Y-100890700I-249999J0D01*
G01*
X131963999Y-100890700D01*
G75*
G02*
X131714000Y-100640701I0J249999D01*
G01*
G37*
G36*
G01*
X129014000Y-100640701D02*
X129014000Y-99790699D01*
G75*
G02*
X129263999Y-99540700I249999J0D01*
G01*
X130164001Y-99540700D01*
G75*
G02*
X130414000Y-99790699I0J-249999D01*
G01*
X130414000Y-100640701D01*
G75*
G02*
X130164001Y-100890700I-249999J0D01*
G01*
X129263999Y-100890700D01*
G75*
G02*
X129014000Y-100640701I0J249999D01*
G01*
G37*
G36*
G01*
X138202000Y-88728999D02*
X138202000Y-89579001D01*
G75*
G02*
X137952001Y-89829000I-249999J0D01*
G01*
X137051999Y-89829000D01*
G75*
G02*
X136802000Y-89579001I0J249999D01*
G01*
X136802000Y-88728999D01*
G75*
G02*
X137051999Y-88479000I249999J0D01*
G01*
X137952001Y-88479000D01*
G75*
G02*
X138202000Y-88728999I0J-249999D01*
G01*
G37*
G36*
G01*
X140902000Y-88728999D02*
X140902000Y-89579001D01*
G75*
G02*
X140652001Y-89829000I-249999J0D01*
G01*
X139751999Y-89829000D01*
G75*
G02*
X139502000Y-89579001I0J249999D01*
G01*
X139502000Y-88728999D01*
G75*
G02*
X139751999Y-88479000I249999J0D01*
G01*
X140652001Y-88479000D01*
G75*
G02*
X140902000Y-88728999I0J-249999D01*
G01*
G37*
G36*
G01*
X131977800Y-79126901D02*
X131977800Y-78276899D01*
G75*
G02*
X132227799Y-78026900I249999J0D01*
G01*
X133127801Y-78026900D01*
G75*
G02*
X133377800Y-78276899I0J-249999D01*
G01*
X133377800Y-79126901D01*
G75*
G02*
X133127801Y-79376900I-249999J0D01*
G01*
X132227799Y-79376900D01*
G75*
G02*
X131977800Y-79126901I0J249999D01*
G01*
G37*
G36*
G01*
X129277800Y-79126901D02*
X129277800Y-78276899D01*
G75*
G02*
X129527799Y-78026900I249999J0D01*
G01*
X130427801Y-78026900D01*
G75*
G02*
X130677800Y-78276899I0J-249999D01*
G01*
X130677800Y-79126901D01*
G75*
G02*
X130427801Y-79376900I-249999J0D01*
G01*
X129527799Y-79376900D01*
G75*
G02*
X129277800Y-79126901I0J249999D01*
G01*
G37*
G36*
G01*
X177942000Y-83356001D02*
X177942000Y-82505999D01*
G75*
G02*
X178191999Y-82256000I249999J0D01*
G01*
X179092001Y-82256000D01*
G75*
G02*
X179342000Y-82505999I0J-249999D01*
G01*
X179342000Y-83356001D01*
G75*
G02*
X179092001Y-83606000I-249999J0D01*
G01*
X178191999Y-83606000D01*
G75*
G02*
X177942000Y-83356001I0J249999D01*
G01*
G37*
G36*
G01*
X175242000Y-83356001D02*
X175242000Y-82505999D01*
G75*
G02*
X175491999Y-82256000I249999J0D01*
G01*
X176392001Y-82256000D01*
G75*
G02*
X176642000Y-82505999I0J-249999D01*
G01*
X176642000Y-83356001D01*
G75*
G02*
X176392001Y-83606000I-249999J0D01*
G01*
X175491999Y-83606000D01*
G75*
G02*
X175242000Y-83356001I0J249999D01*
G01*
G37*
G36*
G01*
X152512000Y-62058999D02*
X152512000Y-62909001D01*
G75*
G02*
X152262001Y-63159000I-249999J0D01*
G01*
X151361999Y-63159000D01*
G75*
G02*
X151112000Y-62909001I0J249999D01*
G01*
X151112000Y-62058999D01*
G75*
G02*
X151361999Y-61809000I249999J0D01*
G01*
X152262001Y-61809000D01*
G75*
G02*
X152512000Y-62058999I0J-249999D01*
G01*
G37*
G36*
G01*
X155212000Y-62058999D02*
X155212000Y-62909001D01*
G75*
G02*
X154962001Y-63159000I-249999J0D01*
G01*
X154061999Y-63159000D01*
G75*
G02*
X153812000Y-62909001I0J249999D01*
G01*
X153812000Y-62058999D01*
G75*
G02*
X154061999Y-61809000I249999J0D01*
G01*
X154962001Y-61809000D01*
G75*
G02*
X155212000Y-62058999I0J-249999D01*
G01*
G37*
G36*
G01*
X144130000Y-62058999D02*
X144130000Y-62909001D01*
G75*
G02*
X143880001Y-63159000I-249999J0D01*
G01*
X142979999Y-63159000D01*
G75*
G02*
X142730000Y-62909001I0J249999D01*
G01*
X142730000Y-62058999D01*
G75*
G02*
X142979999Y-61809000I249999J0D01*
G01*
X143880001Y-61809000D01*
G75*
G02*
X144130000Y-62058999I0J-249999D01*
G01*
G37*
G36*
G01*
X146830000Y-62058999D02*
X146830000Y-62909001D01*
G75*
G02*
X146580001Y-63159000I-249999J0D01*
G01*
X145679999Y-63159000D01*
G75*
G02*
X145430000Y-62909001I0J249999D01*
G01*
X145430000Y-62058999D01*
G75*
G02*
X145679999Y-61809000I249999J0D01*
G01*
X146580001Y-61809000D01*
G75*
G02*
X146830000Y-62058999I0J-249999D01*
G01*
G37*
D29*
X175702400Y-124597000D03*
X175702400Y-132197000D03*
X177952400Y-132197000D03*
X180202400Y-124597000D03*
X180202400Y-132197000D03*
D30*
X188844256Y-130230544D03*
X187147200Y-129527600D03*
X185450144Y-130230544D03*
X184747200Y-131927600D03*
X185450144Y-133624656D03*
X187147200Y-134327600D03*
X188844256Y-133624656D03*
X189547200Y-131927600D03*
D31*
X187147200Y-131927600D03*
D30*
X112872856Y-130255944D03*
X111175800Y-129553000D03*
X109478744Y-130255944D03*
X108775800Y-131953000D03*
X109478744Y-133650056D03*
X111175800Y-134353000D03*
X112872856Y-133650056D03*
X113575800Y-131953000D03*
D31*
X111175800Y-131953000D03*
D30*
X188869656Y-62031544D03*
X187172600Y-61328600D03*
X185475544Y-62031544D03*
X184772600Y-63728600D03*
X185475544Y-65425656D03*
X187172600Y-66128600D03*
X188869656Y-65425656D03*
X189572600Y-63728600D03*
D31*
X187172600Y-63728600D03*
D30*
X112872856Y-62031544D03*
X111175800Y-61328600D03*
X109478744Y-62031544D03*
X108775800Y-63728600D03*
X109478744Y-65425656D03*
X111175800Y-66128600D03*
X112872856Y-65425656D03*
X113575800Y-63728600D03*
D31*
X111175800Y-63728600D03*
M02*
