M48
; DRILL file {KiCad (5.1.12)-1} date 03/28/22 14:21:03
; FORMAT={-:-/ absolute / metric / decimal}
; #@! TF.CreationDate,2022-03-28T14:21:03+08:00
; #@! TF.GenerationSoftware,Kicad,Pcbnew,(5.1.12)-1
FMAT,2
METRIC
T1C0.200
T2C0.300
T3C0.350
T4C0.400
T5C0.500
T6C0.550
T7C0.800
T8C0.900
T9C1.000
T10C1.600
T11C3.200
T12C3.300
%
G90
G05
T1
X101.854Y-90.703
X101.854Y-93.675
X101.854Y-97.815
X101.854Y-100.762
X101.854Y-111.531
X101.854Y-114.452
X103.124Y-109.423
X104.496Y-113.995
X105.41Y-94.285
X105.41Y-97.231
X105.41Y-108.001
X105.41Y-110.947
X105.41Y-115.113
X105.41Y-118.085
X106.375Y-92.913
X107.036Y-84.074
X107.036Y-88.036
X107.219Y-78.72
X107.29Y-84.887
X107.34Y-98.349
X107.391Y-88.748
X107.475Y-72.847
X107.475Y-76.505
X107.475Y-101.041
X107.475Y-105.969
X107.475Y-115.316
X107.645Y-120.447
X107.645Y-124.155
X107.95Y-69.596
X107.95Y-89.357
X107.95Y-99.263
X107.95Y-109.169
X107.95Y-119.075
X107.965Y-79.466
X108.425Y-77.661
X109.169Y-93.929
X109.372Y-97.536
X109.626Y-78.181
X110.338Y-70.866
X110.338Y-80.772
X110.338Y-90.678
X110.338Y-100.584
X110.338Y-110.49
X110.338Y-120.396
X110.795Y-71.476
X110.795Y-81.382
X110.795Y-91.288
X110.795Y-101.194
X110.795Y-111.1
X110.795Y-121.006
X110.998Y-123.596
X111.252Y-72.136
X111.252Y-82.042
X111.252Y-91.948
X111.252Y-101.854
X111.252Y-111.76
X111.252Y-121.666
X111.506Y-126.117
X111.709Y-72.847
X111.709Y-82.753
X111.709Y-92.659
X111.709Y-102.565
X111.709Y-112.471
X111.709Y-122.377
X111.963Y-127.559
X112.166Y-73.457
X112.166Y-83.363
X112.166Y-93.269
X112.166Y-103.175
X112.166Y-113.081
X112.166Y-122.987
X112.624Y-74.778
X112.624Y-84.684
X112.624Y-94.59
X112.624Y-104.496
X112.624Y-114.402
X112.624Y-124.308
X113.081Y-75.438
X113.081Y-85.344
X113.081Y-95.25
X113.081Y-105.156
X113.081Y-115.062
X113.081Y-124.968
X113.538Y-76.098
X113.538Y-80.112
X113.538Y-86.004
X113.538Y-95.91
X113.538Y-100.584
X113.538Y-105.816
X113.538Y-115.722
X113.538Y-125.628
X113.589Y-77.978
X113.64Y-82.067
X113.64Y-91.973
X113.64Y-98.095
X113.64Y-101.879
X113.64Y-111.76
X113.64Y-121.666
X113.69Y-72.187
X116.053Y-70.231
X116.053Y-80.112
X116.053Y-90.018
X116.053Y-99.771
X116.053Y-109.804
X116.053Y-119.736
X116.18Y-125.628
X116.383Y-76.098
X116.383Y-85.954
X116.383Y-95.86
X116.383Y-105.816
X116.383Y-115.672
X117.297Y-96.52
X117.297Y-116.332
X117.323Y-74.092
X117.323Y-84.023
X117.323Y-91.999
X117.323Y-93.929
X117.323Y-103.759
X117.323Y-111.811
X117.323Y-113.716
X117.348Y-72.187
X117.348Y-82.093
X117.348Y-101.854
X117.373Y-121.742
X117.373Y-123.622
X117.602Y-77.775
X117.907Y-97.231
X118.059Y-98.095
X118.72Y-76.708
X118.72Y-86.563
X118.72Y-106.477
X118.72Y-126.238
X119.71Y-72.238
X120.117Y-78.207
X120.142Y-99.111
X120.167Y-119.431
X120.447Y-126.136
X120.853Y-109.068
X121.107Y-90.627
X121.514Y-72.238
X122.428Y-76.367
X122.428Y-99.06
X122.479Y-119.431
X122.987Y-90.678
X123.038Y-70.46
X123.571Y-93.181
X123.571Y-113.12
X123.571Y-133.477
X123.698Y-110.236
X124.409Y-100.533
X124.714Y-78.181
X124.714Y-99.111
X124.765Y-119.431
X126.644Y-86.258
X127.0Y-76.367
X127.0Y-99.111
X127.102Y-119.431
X127.152Y-100.533
X127.356Y-110.287
X129.692Y-100.203
X129.921Y-84.111
X129.921Y-104.05
X129.921Y-123.989
X129.972Y-78.664
X130.073Y-97.485
X130.302Y-76.479
X130.353Y-120.625
X130.734Y-117.78
X131.978Y-97.485
X132.207Y-76.479
X132.385Y-100.178
X132.639Y-117.78
X132.664Y-78.689
X133.045Y-120.625
X134.874Y-81.585
X134.925Y-124.054
X137.008Y-122.377
X137.439Y-129.362
X137.465Y-109.22
X137.49Y-89.154
X137.846Y-112.166
X137.846Y-132.334
X137.922Y-92.151
X139.751Y-112.192
X139.751Y-132.334
X139.827Y-92.126
X140.081Y-85.242
X140.081Y-105.258
X140.081Y-125.349
X140.157Y-129.337
X140.208Y-89.179
X140.208Y-109.22
X140.462Y-66.939
X143.078Y-90.703
X143.078Y-130.658
X143.129Y-110.846
X143.426Y-66.04
X143.43Y-62.484
X143.576Y-69.596
X145.339Y-132.08
X146.431Y-76.237
X146.431Y-96.303
X146.431Y-116.369
X147.625Y-90.703
X147.65Y-130.658
X147.676Y-110.846
X148.59Y-66.99
X149.758Y-133.096
X149.923Y-128.838
X150.978Y-87.528
X151.536Y-128.93
X151.812Y-62.484
X152.062Y-66.04
X152.212Y-69.596
X152.248Y-123.8
X152.4Y-118.999
X152.4Y-130.556
X152.451Y-108.255
X153.848Y-126.67
X154.262Y-65.09
X154.483Y-116.332
X154.512Y-62.484
X155.245Y-127.965
X155.804Y-130.708
X156.439Y-131.242
X156.446Y-125.366
X156.489Y-119.431
X157.139Y-119.403
X157.226Y-124.358
X157.277Y-130.962
X157.785Y-119.532
X158.09Y-131.039
X160.376Y-134.061
X160.528Y-115.125
X160.528Y-117.03
X160.528Y-118.935
X160.528Y-126.809
X160.528Y-128.714
X160.528Y-130.556
X160.591Y-83.121
X160.655Y-85.28
X161.874Y-128.27
X162.001Y-125.324
X162.916Y-133.706
X163.131Y-115.062
X163.131Y-123.19
X163.449Y-130.493
X163.525Y-126.238
X163.766Y-83.121
X163.779Y-119.736
X164.186Y-128.422
X164.541Y-124.917
X165.036Y-115.062
X165.075Y-119.532
X165.354Y-80.962
X165.557Y-127.94
X165.913Y-116.205
X166.218Y-125.417
X166.853Y-130.277
X167.005Y-117.221
X167.513Y-130.531
X167.996Y-128.168
X168.173Y-131.166
X168.402Y-119.101
X168.808Y-133.858
X169.291Y-106.362
X169.291Y-120.84
X171.069Y-83.82
X171.513Y-114.808
X171.513Y-117.094
X171.577Y-126.809
X171.577Y-128.714
X171.577Y-130.619
X171.704Y-106.362
X171.831Y-112.459
X173.291Y-91.948
X173.291Y-94.234
X173.609Y-83.757
X173.609Y-89.725
X174.561Y-107.95
X174.561Y-112.522
X175.704Y-124.587
X175.704Y-132.207
X175.958Y-82.931
X176.339Y-80.264
X176.466Y-85.217
X176.53Y-89.535
X176.53Y-91.694
X177.14Y-68.504
X177.419Y-96.266
X177.952Y-64.694
X178.371Y-85.217
X178.625Y-82.931
X178.664Y-115.799
X178.664Y-116.611
X178.689Y-102.413
X178.689Y-114.325
X178.689Y-115.037
X179.324Y-80.162
X179.375Y-88.341
X179.451Y-96.266
X179.476Y-102.413
X180.022Y-106.997
X180.022Y-108.648
X180.035Y-107.798
X180.035Y-109.347
X180.086Y-110.109
X180.137Y-110.871
X180.213Y-102.413
X180.848Y-79.629
X180.899Y-111.023
X180.95Y-105.41
X181.483Y-96.266
X181.695Y-105.385
X181.762Y-111.125
X181.788Y-85.598
X181.8Y-86.931
X181.813Y-89.916
X182.245Y-87.82
X182.474Y-89.408
X182.753Y-88.392
X183.007Y-79.566
X183.134Y-88.951
X183.515Y-96.266
X184.213Y-111.125
X184.531Y-84.645
X184.861Y-110.896
X184.975Y-77.597
X185.166Y-79.566
X185.395Y-110.287
X185.547Y-96.266
X185.801Y-109.423
X185.992Y-107.823
X186.055Y-84.645
X186.817Y-90.361
X187.071Y-84.645
X187.325Y-79.566
X187.325Y-89.916
X187.579Y-96.266
X187.769Y-86.36
X187.769Y-89.408
X188.278Y-91.757
X188.874Y-108.356
X189.611Y-96.266
X189.928Y-112.078
X191.516Y-82.804
X191.643Y-96.266
X192.341Y-80.391
X192.786Y-85.852
X192.849Y-88.011
X192.849Y-90.17
X192.849Y-92.329
T2
X113.64Y-74.117
X113.64Y-84.023
X113.64Y-93.929
X113.64Y-103.835
X113.64Y-113.69
X113.64Y-123.596
T3
X182.435Y-86.36
T4
X120.802Y-106.02
X123.571Y-91.618
X123.571Y-111.557
X123.571Y-131.496
X124.816Y-131.47
X124.866Y-91.592
X124.866Y-111.506
X129.896Y-105.588
X129.921Y-85.674
X129.921Y-125.552
X140.081Y-83.744
X140.081Y-103.81
X140.081Y-123.876
X141.326Y-83.718
X141.326Y-103.784
X141.326Y-123.85
X146.406Y-97.866
X146.431Y-77.8
X146.431Y-117.932
X148.996Y-107.645
X152.248Y-112.116
X153.225Y-66.04
X162.128Y-120.929
T5
X108.776Y-63.729
X108.776Y-131.953
X109.479Y-62.032
X109.479Y-65.426
X109.479Y-130.256
X109.479Y-133.65
X111.176Y-61.329
X111.176Y-66.129
X111.176Y-129.553
X111.176Y-134.353
X112.873Y-62.032
X112.873Y-65.426
X112.873Y-130.256
X112.873Y-133.65
X113.576Y-63.729
X113.576Y-131.953
X184.747Y-131.928
X184.773Y-63.729
X185.45Y-130.231
X185.45Y-133.625
X185.476Y-62.032
X185.476Y-65.426
X187.147Y-129.528
X187.147Y-134.328
X187.173Y-61.329
X187.173Y-66.129
X188.844Y-130.231
X188.844Y-133.625
X188.87Y-62.032
X188.87Y-65.426
X189.547Y-131.928
X189.573Y-63.729
T6
X101.346Y-102.87
X101.346Y-104.14
X101.346Y-105.41
X101.346Y-106.68
X102.616Y-102.87
X102.616Y-104.14
X102.616Y-105.41
X102.616Y-106.68
T7
X156.147Y-65.087
X193.294Y-82.804
T8
X159.029Y-64.819
X160.91Y-77.088
X161.57Y-63.3
X162.18Y-74.548
X163.45Y-77.088
X164.72Y-74.548
X165.99Y-77.088
X167.26Y-74.548
X168.53Y-77.088
X169.14Y-64.82
X169.8Y-74.548
X171.679Y-63.299
T9
X102.108Y-79.756
X102.108Y-82.296
X102.108Y-84.836
X102.108Y-87.376
X104.648Y-79.756
X104.648Y-82.296
X104.648Y-84.836
X104.648Y-87.376
X193.548Y-101.092
X193.548Y-103.632
X193.548Y-106.172
X196.088Y-101.092
X196.088Y-103.632
X196.088Y-106.172
X196.088Y-110.49
X196.088Y-113.03
X196.088Y-115.57
T10
X123.951Y-68.12
X128.651Y-65.12
X128.651Y-71.12
X157.48Y-71.248
X173.23Y-71.248
T11
X111.176Y-63.729
X111.176Y-131.953
X187.147Y-131.928
X187.173Y-63.729
T12
X159.64Y-68.198
X171.07Y-68.198
T0
M30
