%FSLAX45Y45*%
G04 Gerber Fmt 4.5, Leading zero omitted, Abs format (unit mm)*
G04 Created by KiCad (PCBNEW (5.1.12)-1) date 2022-03-28 13:47:30*
%MOMM*%
%LPD*%
G01*
G04 APERTURE LIST*
%TA.AperFunction,Profile*%
%ADD10C,0.050000*%
%TD*%
%ADD11C,0.200000*%
%ADD12C,0.300000*%
G04 APERTURE END LIST*
D10*
X9930704Y-7728385D02*
X9930704Y-11842315D01*
X9930704Y-11842315D02*
G75*
G02*
X10693400Y-12700000I-100904J-857685D01*
G01*
X9930704Y-7728385D02*
G75*
G03*
X10693400Y-6870700I-100904J857685D01*
G01*
X19912918Y-7739533D02*
X19912918Y-11818467D01*
X19912918Y-11818467D02*
G75*
G03*
X19138900Y-12700000I114983J-881533D01*
G01*
X19912918Y-7739533D02*
G75*
G02*
X19138900Y-6858000I114983J881533D01*
G01*
X10693400Y-12700000D02*
X10693400Y-13195300D01*
X10693400Y-6375400D02*
X10693400Y-6870700D01*
X10693400Y-13195300D02*
G75*
G03*
X11112500Y-13614400I419100J0D01*
G01*
X18719800Y-13614400D02*
X11112500Y-13614400D01*
X18719800Y-13614400D02*
G75*
G03*
X19138900Y-13195300I0J419100D01*
G01*
X19138900Y-12700000D02*
X19138900Y-13195300D01*
X10693400Y-6375400D02*
G75*
G02*
X11112500Y-5956300I419100J0D01*
G01*
X19138900Y-6375400D02*
X19138900Y-6858000D01*
X19138900Y-6375400D02*
G75*
G03*
X18719800Y-5956300I-419100J0D01*
G01*
X11112500Y-5956300D02*
X18719800Y-5956300D01*
D11*
X10175400Y-9060340D02*
X10195400Y-9080340D01*
X10195400Y-9060340D02*
X10175400Y-9080340D01*
X10175400Y-9357520D02*
X10195400Y-9377520D01*
X10195400Y-9357520D02*
X10175400Y-9377520D01*
X10175400Y-9771540D02*
X10195400Y-9791540D01*
X10195400Y-9771540D02*
X10175400Y-9791540D01*
X10175400Y-10066180D02*
X10195400Y-10086180D01*
X10195400Y-10066180D02*
X10175400Y-10086180D01*
X10175400Y-11143140D02*
X10195400Y-11163140D01*
X10195400Y-11143140D02*
X10175400Y-11163140D01*
X10175400Y-11435240D02*
X10195400Y-11455240D01*
X10195400Y-11435240D02*
X10175400Y-11455240D01*
X10302400Y-10932320D02*
X10322400Y-10952320D01*
X10322400Y-10932320D02*
X10302400Y-10952320D01*
X10439560Y-11389520D02*
X10459560Y-11409520D01*
X10459560Y-11389520D02*
X10439560Y-11409520D01*
X10531000Y-9418480D02*
X10551000Y-9438480D01*
X10551000Y-9418480D02*
X10531000Y-9438480D01*
X10531000Y-9713120D02*
X10551000Y-9733120D01*
X10551000Y-9713120D02*
X10531000Y-9733120D01*
X10531000Y-10790080D02*
X10551000Y-10810080D01*
X10551000Y-10790080D02*
X10531000Y-10810080D01*
X10531000Y-11084720D02*
X10551000Y-11104720D01*
X10551000Y-11084720D02*
X10531000Y-11104720D01*
X10531000Y-11501280D02*
X10551000Y-11521280D01*
X10551000Y-11501280D02*
X10531000Y-11521280D01*
X10531000Y-11798460D02*
X10551000Y-11818460D01*
X10551000Y-11798460D02*
X10531000Y-11818460D01*
X10627520Y-9281320D02*
X10647520Y-9301320D01*
X10647520Y-9281320D02*
X10627520Y-9301320D01*
X10693560Y-8397400D02*
X10713560Y-8417400D01*
X10713560Y-8397400D02*
X10693560Y-8417400D01*
X10693560Y-8793640D02*
X10713560Y-8813640D01*
X10713560Y-8793640D02*
X10693560Y-8813640D01*
X10711908Y-7862028D02*
X10731908Y-7882028D01*
X10731908Y-7862028D02*
X10711908Y-7882028D01*
X10718960Y-8478680D02*
X10738960Y-8498680D01*
X10738960Y-8478680D02*
X10718960Y-8498680D01*
X10724040Y-9824880D02*
X10744040Y-9844880D01*
X10744040Y-9824880D02*
X10724040Y-9844880D01*
X10729120Y-8864760D02*
X10749120Y-8884760D01*
X10749120Y-8864760D02*
X10729120Y-8884760D01*
X10737500Y-7274720D02*
X10757500Y-7294720D01*
X10757500Y-7274720D02*
X10737500Y-7294720D01*
X10737500Y-7640480D02*
X10757500Y-7660480D01*
X10757500Y-7640480D02*
X10737500Y-7660480D01*
X10737500Y-10094120D02*
X10757500Y-10114120D01*
X10757500Y-10094120D02*
X10737500Y-10114120D01*
X10737500Y-10586880D02*
X10757500Y-10606880D01*
X10757500Y-10586880D02*
X10737500Y-10606880D01*
X10737500Y-11521600D02*
X10757500Y-11541600D01*
X10757500Y-11521600D02*
X10737500Y-11541600D01*
X10754520Y-12034680D02*
X10774520Y-12054680D01*
X10774520Y-12034680D02*
X10754520Y-12054680D01*
X10754520Y-12405520D02*
X10774520Y-12425520D01*
X10774520Y-12405520D02*
X10754520Y-12425520D01*
X10785000Y-6949600D02*
X10805000Y-6969600D01*
X10805000Y-6949600D02*
X10785000Y-6969600D01*
X10785000Y-8925720D02*
X10805000Y-8945720D01*
X10805000Y-8925720D02*
X10785000Y-8945720D01*
X10785000Y-9916320D02*
X10805000Y-9936320D01*
X10805000Y-9916320D02*
X10785000Y-9936320D01*
X10785000Y-10906920D02*
X10805000Y-10926920D01*
X10805000Y-10906920D02*
X10785000Y-10926920D01*
X10785000Y-11897520D02*
X10805000Y-11917520D01*
X10805000Y-11897520D02*
X10785000Y-11917520D01*
X10786463Y-7936582D02*
X10806463Y-7956582D01*
X10806463Y-7936582D02*
X10786463Y-7956582D01*
X10832500Y-7756081D02*
X10852500Y-7776081D01*
X10852500Y-7756081D02*
X10832500Y-7776081D01*
X10906920Y-9382920D02*
X10926920Y-9402920D01*
X10926920Y-9382920D02*
X10906920Y-9402920D01*
X10927240Y-9743600D02*
X10947240Y-9763600D01*
X10947240Y-9743600D02*
X10927240Y-9763600D01*
X10952640Y-7808120D02*
X10972640Y-7828120D01*
X10972640Y-7808120D02*
X10952640Y-7828120D01*
X11023760Y-7076600D02*
X11043760Y-7096600D01*
X11043760Y-7076600D02*
X11023760Y-7096600D01*
X11023760Y-8067200D02*
X11043760Y-8087200D01*
X11043760Y-8067200D02*
X11023760Y-8087200D01*
X11023760Y-9057800D02*
X11043760Y-9077800D01*
X11043760Y-9057800D02*
X11023760Y-9077800D01*
X11023760Y-10048400D02*
X11043760Y-10068400D01*
X11043760Y-10048400D02*
X11023760Y-10068400D01*
X11023760Y-11039000D02*
X11043760Y-11059000D01*
X11043760Y-11039000D02*
X11023760Y-11059000D01*
X11023760Y-12029600D02*
X11043760Y-12049600D01*
X11043760Y-12029600D02*
X11023760Y-12049600D01*
X11069480Y-7137560D02*
X11089480Y-7157560D01*
X11089480Y-7137560D02*
X11069480Y-7157560D01*
X11069480Y-8128160D02*
X11089480Y-8148160D01*
X11089480Y-8128160D02*
X11069480Y-8148160D01*
X11069480Y-9118760D02*
X11089480Y-9138760D01*
X11089480Y-9118760D02*
X11069480Y-9138760D01*
X11069480Y-10109360D02*
X11089480Y-10129360D01*
X11089480Y-10109360D02*
X11069480Y-10129360D01*
X11069480Y-11099960D02*
X11089480Y-11119960D01*
X11089480Y-11099960D02*
X11069480Y-11119960D01*
X11069480Y-12090560D02*
X11089480Y-12110560D01*
X11089480Y-12090560D02*
X11069480Y-12110560D01*
X11089800Y-12349640D02*
X11109800Y-12369640D01*
X11109800Y-12349640D02*
X11089800Y-12369640D01*
X11115200Y-7203600D02*
X11135200Y-7223600D01*
X11135200Y-7203600D02*
X11115200Y-7223600D01*
X11115200Y-8194200D02*
X11135200Y-8214200D01*
X11135200Y-8194200D02*
X11115200Y-8214200D01*
X11115200Y-9184800D02*
X11135200Y-9204800D01*
X11135200Y-9184800D02*
X11115200Y-9204800D01*
X11115200Y-10175400D02*
X11135200Y-10195400D01*
X11135200Y-10175400D02*
X11115200Y-10195400D01*
X11115200Y-11166000D02*
X11135200Y-11186000D01*
X11135200Y-11166000D02*
X11115200Y-11186000D01*
X11115200Y-12156600D02*
X11135200Y-12176600D01*
X11135200Y-12156600D02*
X11115200Y-12176600D01*
X11140600Y-12601650D02*
X11160600Y-12621650D01*
X11160600Y-12601650D02*
X11140600Y-12621650D01*
X11160920Y-7274720D02*
X11180920Y-7294720D01*
X11180920Y-7274720D02*
X11160920Y-7294720D01*
X11160920Y-8265320D02*
X11180920Y-8285320D01*
X11180920Y-8265320D02*
X11160920Y-8285320D01*
X11160920Y-9255920D02*
X11180920Y-9275920D01*
X11180920Y-9255920D02*
X11160920Y-9275920D01*
X11160920Y-10246520D02*
X11180920Y-10266520D01*
X11180920Y-10246520D02*
X11160920Y-10266520D01*
X11160920Y-11237120D02*
X11180920Y-11257120D01*
X11180920Y-11237120D02*
X11160920Y-11257120D01*
X11160920Y-12227720D02*
X11180920Y-12247720D01*
X11180920Y-12227720D02*
X11160920Y-12247720D01*
X11186320Y-12745880D02*
X11206320Y-12765880D01*
X11206320Y-12745880D02*
X11186320Y-12765880D01*
X11206640Y-7335680D02*
X11226640Y-7355680D01*
X11226640Y-7335680D02*
X11206640Y-7355680D01*
X11206640Y-8326280D02*
X11226640Y-8346280D01*
X11226640Y-8326280D02*
X11206640Y-8346280D01*
X11206640Y-9316880D02*
X11226640Y-9336880D01*
X11226640Y-9316880D02*
X11206640Y-9336880D01*
X11206640Y-10307480D02*
X11226640Y-10327480D01*
X11226640Y-10307480D02*
X11206640Y-10327480D01*
X11206640Y-11298080D02*
X11226640Y-11318080D01*
X11226640Y-11298080D02*
X11206640Y-11318080D01*
X11206640Y-12288680D02*
X11226640Y-12308680D01*
X11226640Y-12288680D02*
X11206640Y-12308680D01*
X11252360Y-7467760D02*
X11272360Y-7487760D01*
X11272360Y-7467760D02*
X11252360Y-7487760D01*
X11252360Y-8458360D02*
X11272360Y-8478360D01*
X11272360Y-8458360D02*
X11252360Y-8478360D01*
X11252360Y-9448960D02*
X11272360Y-9468960D01*
X11272360Y-9448960D02*
X11252360Y-9468960D01*
X11252360Y-10439560D02*
X11272360Y-10459560D01*
X11272360Y-10439560D02*
X11252360Y-10459560D01*
X11252360Y-11430160D02*
X11272360Y-11450160D01*
X11272360Y-11430160D02*
X11252360Y-11450160D01*
X11252360Y-12420760D02*
X11272360Y-12440760D01*
X11272360Y-12420760D02*
X11252360Y-12440760D01*
X11298080Y-7533800D02*
X11318080Y-7553800D01*
X11318080Y-7533800D02*
X11298080Y-7553800D01*
X11298080Y-8524400D02*
X11318080Y-8544400D01*
X11318080Y-8524400D02*
X11298080Y-8544400D01*
X11298080Y-9515000D02*
X11318080Y-9535000D01*
X11318080Y-9515000D02*
X11298080Y-9535000D01*
X11298080Y-10505600D02*
X11318080Y-10525600D01*
X11318080Y-10505600D02*
X11298080Y-10525600D01*
X11298080Y-11496200D02*
X11318080Y-11516200D01*
X11318080Y-11496200D02*
X11298080Y-11516200D01*
X11298080Y-12486800D02*
X11318080Y-12506800D01*
X11318080Y-12486800D02*
X11298080Y-12506800D01*
X11343800Y-7599840D02*
X11363800Y-7619840D01*
X11363800Y-7599840D02*
X11343800Y-7619840D01*
X11343800Y-8001160D02*
X11363800Y-8021160D01*
X11363800Y-8001160D02*
X11343800Y-8021160D01*
X11343800Y-8590440D02*
X11363800Y-8610440D01*
X11363800Y-8590440D02*
X11343800Y-8610440D01*
X11343800Y-9581040D02*
X11363800Y-9601040D01*
X11363800Y-9581040D02*
X11343800Y-9601040D01*
X11343800Y-10048400D02*
X11363800Y-10068400D01*
X11363800Y-10048400D02*
X11343800Y-10068400D01*
X11343800Y-10571640D02*
X11363800Y-10591640D01*
X11363800Y-10571640D02*
X11343800Y-10591640D01*
X11343800Y-11562240D02*
X11363800Y-11582240D01*
X11363800Y-11562240D02*
X11343800Y-11582240D01*
X11343800Y-12552840D02*
X11363800Y-12572840D01*
X11363800Y-12552840D02*
X11343800Y-12572840D01*
X11348880Y-7787800D02*
X11368880Y-7807800D01*
X11368880Y-7787800D02*
X11348880Y-7807800D01*
X11353960Y-8196740D02*
X11373960Y-8216740D01*
X11373960Y-8196740D02*
X11353960Y-8216740D01*
X11353960Y-9187340D02*
X11373960Y-9207340D01*
X11373960Y-9187340D02*
X11353960Y-9207340D01*
X11353960Y-9799480D02*
X11373960Y-9819480D01*
X11373960Y-9799480D02*
X11353960Y-9819480D01*
X11353960Y-10177940D02*
X11373960Y-10197940D01*
X11373960Y-10177940D02*
X11353960Y-10197940D01*
X11353960Y-11166000D02*
X11373960Y-11186000D01*
X11373960Y-11166000D02*
X11353960Y-11186000D01*
X11353960Y-12156600D02*
X11373960Y-12176600D01*
X11373960Y-12156600D02*
X11353960Y-12176600D01*
X11359040Y-7208680D02*
X11379040Y-7228680D01*
X11379040Y-7208680D02*
X11359040Y-7228680D01*
X11595260Y-7013100D02*
X11615260Y-7033100D01*
X11615260Y-7013100D02*
X11595260Y-7033100D01*
X11595260Y-8001160D02*
X11615260Y-8021160D01*
X11615260Y-8001160D02*
X11595260Y-8021160D01*
X11595260Y-8991760D02*
X11615260Y-9011760D01*
X11615260Y-8991760D02*
X11595260Y-9011760D01*
X11595260Y-9967120D02*
X11615260Y-9987120D01*
X11615260Y-9967120D02*
X11595260Y-9987120D01*
X11595260Y-10970420D02*
X11615260Y-10990420D01*
X11615260Y-10970420D02*
X11595260Y-10990420D01*
X11595260Y-11963560D02*
X11615260Y-11983560D01*
X11615260Y-11963560D02*
X11595260Y-11983560D01*
X11607960Y-12552840D02*
X11627960Y-12572840D01*
X11627960Y-12552840D02*
X11607960Y-12572840D01*
X11628280Y-7599840D02*
X11648280Y-7619840D01*
X11648280Y-7599840D02*
X11628280Y-7619840D01*
X11628280Y-8585360D02*
X11648280Y-8605360D01*
X11648280Y-8585360D02*
X11628280Y-8605360D01*
X11628280Y-9575960D02*
X11648280Y-9595960D01*
X11648280Y-9575960D02*
X11628280Y-9595960D01*
X11628280Y-10571640D02*
X11648280Y-10591640D01*
X11648280Y-10571640D02*
X11628280Y-10591640D01*
X11628280Y-11557160D02*
X11648280Y-11577160D01*
X11648280Y-11557160D02*
X11628280Y-11577160D01*
X11719720Y-9642000D02*
X11739720Y-9662000D01*
X11739720Y-9642000D02*
X11719720Y-9662000D01*
X11719720Y-11623200D02*
X11739720Y-11643200D01*
X11739720Y-11623200D02*
X11719720Y-11643200D01*
X11722260Y-7399180D02*
X11742260Y-7419180D01*
X11742260Y-7399180D02*
X11722260Y-7419180D01*
X11722260Y-8392320D02*
X11742260Y-8412320D01*
X11742260Y-8392320D02*
X11722260Y-8412320D01*
X11722260Y-9189880D02*
X11742260Y-9209880D01*
X11742260Y-9189880D02*
X11722260Y-9209880D01*
X11722260Y-9382920D02*
X11742260Y-9402920D01*
X11742260Y-9382920D02*
X11722260Y-9402920D01*
X11722260Y-10365900D02*
X11742260Y-10385900D01*
X11742260Y-10365900D02*
X11722260Y-10385900D01*
X11722260Y-11171080D02*
X11742260Y-11191080D01*
X11742260Y-11171080D02*
X11722260Y-11191080D01*
X11722260Y-11361580D02*
X11742260Y-11381580D01*
X11742260Y-11361580D02*
X11722260Y-11381580D01*
X11724800Y-7208680D02*
X11744800Y-7228680D01*
X11744800Y-7208680D02*
X11724800Y-7228680D01*
X11724800Y-8199280D02*
X11744800Y-8219280D01*
X11744800Y-8199280D02*
X11724800Y-8219280D01*
X11724800Y-10175400D02*
X11744800Y-10195400D01*
X11744800Y-10175400D02*
X11724800Y-10195400D01*
X11727340Y-12164220D02*
X11747340Y-12184220D01*
X11747340Y-12164220D02*
X11727340Y-12184220D01*
X11727340Y-12352180D02*
X11747340Y-12372180D01*
X11747340Y-12352180D02*
X11727340Y-12372180D01*
X11750200Y-7767480D02*
X11770200Y-7787480D01*
X11770200Y-7767480D02*
X11750200Y-7787480D01*
X11780680Y-9713120D02*
X11800680Y-9733120D01*
X11800680Y-9713120D02*
X11780680Y-9733120D01*
X11795920Y-9799480D02*
X11815920Y-9819480D01*
X11815920Y-9799480D02*
X11795920Y-9819480D01*
X11861960Y-7660800D02*
X11881960Y-7680800D01*
X11881960Y-7660800D02*
X11861960Y-7680800D01*
X11861960Y-8646320D02*
X11881960Y-8666320D01*
X11881960Y-8646320D02*
X11861960Y-8666320D01*
X11861960Y-10637680D02*
X11881960Y-10657680D01*
X11881960Y-10637680D02*
X11861960Y-10657680D01*
X11861960Y-12613800D02*
X11881960Y-12633800D01*
X11881960Y-12613800D02*
X11861960Y-12633800D01*
X11961020Y-7213760D02*
X11981020Y-7233760D01*
X11981020Y-7213760D02*
X11961020Y-7233760D01*
X12001660Y-7810660D02*
X12021660Y-7830660D01*
X12021660Y-7810660D02*
X12001660Y-7830660D01*
X12004200Y-9901080D02*
X12024200Y-9921080D01*
X12024200Y-9901080D02*
X12004200Y-9921080D01*
X12006740Y-11933080D02*
X12026740Y-11953080D01*
X12026740Y-11933080D02*
X12006740Y-11953080D01*
X12034680Y-12603640D02*
X12054680Y-12623640D01*
X12054680Y-12603640D02*
X12034680Y-12623640D01*
X12075320Y-10896760D02*
X12095320Y-10916760D01*
X12095320Y-10896760D02*
X12075320Y-10916760D01*
X12100720Y-9052720D02*
X12120720Y-9072720D01*
X12120720Y-9052720D02*
X12100720Y-9072720D01*
X12141360Y-7213760D02*
X12161360Y-7233760D01*
X12161360Y-7213760D02*
X12141360Y-7233760D01*
X12232800Y-7626700D02*
X12252800Y-7646700D01*
X12252800Y-7626700D02*
X12232800Y-7646700D01*
X12232800Y-9896000D02*
X12252800Y-9916000D01*
X12252800Y-9896000D02*
X12232800Y-9916000D01*
X12237880Y-11933080D02*
X12257880Y-11953080D01*
X12257880Y-11933080D02*
X12237880Y-11953080D01*
X12288680Y-9057800D02*
X12308680Y-9077800D01*
X12308680Y-9057800D02*
X12288680Y-9077800D01*
X12293760Y-7035960D02*
X12313760Y-7055960D01*
X12313760Y-7035960D02*
X12293760Y-7055960D01*
X12347100Y-9308100D02*
X12367100Y-9328100D01*
X12367100Y-9308100D02*
X12347100Y-9328100D01*
X12347100Y-11302000D02*
X12367100Y-11322000D01*
X12367100Y-11302000D02*
X12347100Y-11322000D01*
X12347100Y-13337700D02*
X12367100Y-13357700D01*
X12367100Y-13337700D02*
X12347100Y-13357700D01*
X12359800Y-11013600D02*
X12379800Y-11033600D01*
X12379800Y-11013600D02*
X12359800Y-11033600D01*
X12430920Y-10043320D02*
X12450920Y-10063320D01*
X12450920Y-10043320D02*
X12430920Y-10063320D01*
X12461400Y-7808120D02*
X12481400Y-7828120D01*
X12481400Y-7808120D02*
X12461400Y-7828120D01*
X12461400Y-9901080D02*
X12481400Y-9921080D01*
X12481400Y-9901080D02*
X12461400Y-9921080D01*
X12466480Y-11933080D02*
X12486480Y-11953080D01*
X12486480Y-11933080D02*
X12466480Y-11953080D01*
X12654440Y-8615840D02*
X12674440Y-8635840D01*
X12674440Y-8615840D02*
X12654440Y-8635840D01*
X12690000Y-7626700D02*
X12710000Y-7646700D01*
X12710000Y-7626700D02*
X12690000Y-7646700D01*
X12690000Y-9901080D02*
X12710000Y-9921080D01*
X12710000Y-9901080D02*
X12690000Y-9921080D01*
X12700160Y-11933080D02*
X12720160Y-11953080D01*
X12720160Y-11933080D02*
X12700160Y-11953080D01*
X12705240Y-10043320D02*
X12725240Y-10063320D01*
X12725240Y-10043320D02*
X12705240Y-10063320D01*
X12725560Y-11018680D02*
X12745560Y-11038680D01*
X12745560Y-11018680D02*
X12725560Y-11038680D01*
X12959240Y-10010300D02*
X12979240Y-10030300D01*
X12979240Y-10010300D02*
X12959240Y-10030300D01*
X12982100Y-8401100D02*
X13002100Y-8421100D01*
X13002100Y-8401100D02*
X12982100Y-8421100D01*
X12982100Y-10395000D02*
X13002100Y-10415000D01*
X13002100Y-10395000D02*
X12982100Y-10415000D01*
X12982100Y-12388900D02*
X13002100Y-12408900D01*
X13002100Y-12388900D02*
X12982100Y-12408900D01*
X12987180Y-7856380D02*
X13007180Y-7876380D01*
X13007180Y-7856380D02*
X12987180Y-7876380D01*
X12997340Y-9738520D02*
X13017340Y-9758520D01*
X13017340Y-9738520D02*
X12997340Y-9758520D01*
X13020200Y-7637940D02*
X13040200Y-7657940D01*
X13040200Y-7637940D02*
X13020200Y-7657940D01*
X13025280Y-12052460D02*
X13045280Y-12072460D01*
X13045280Y-12052460D02*
X13025280Y-12072460D01*
X13063380Y-11767980D02*
X13083380Y-11787980D01*
X13083380Y-11767980D02*
X13063380Y-11787980D01*
X13187840Y-9738520D02*
X13207840Y-9758520D01*
X13207840Y-9738520D02*
X13187840Y-9758520D01*
X13210700Y-7637940D02*
X13230700Y-7657940D01*
X13230700Y-7637940D02*
X13210700Y-7657940D01*
X13228480Y-10007760D02*
X13248480Y-10027760D01*
X13248480Y-10007760D02*
X13228480Y-10027760D01*
X13253880Y-11767980D02*
X13273880Y-11787980D01*
X13273880Y-11767980D02*
X13253880Y-11787980D01*
X13256420Y-7858920D02*
X13276420Y-7878920D01*
X13276420Y-7858920D02*
X13256420Y-7878920D01*
X13294520Y-12052460D02*
X13314520Y-12072460D01*
X13314520Y-12052460D02*
X13294520Y-12072460D01*
X13477400Y-8148480D02*
X13497400Y-8168480D01*
X13497400Y-8148480D02*
X13477400Y-8168480D01*
X13482480Y-12395360D02*
X13502480Y-12415360D01*
X13502480Y-12395360D02*
X13482480Y-12415360D01*
X13690760Y-12227720D02*
X13710760Y-12247720D01*
X13710760Y-12227720D02*
X13690760Y-12247720D01*
X13733940Y-12926220D02*
X13753940Y-12946220D01*
X13753940Y-12926220D02*
X13733940Y-12946220D01*
X13736480Y-10912000D02*
X13756480Y-10932000D01*
X13756480Y-10912000D02*
X13736480Y-10932000D01*
X13739020Y-8905400D02*
X13759020Y-8925400D01*
X13759020Y-8905400D02*
X13739020Y-8925400D01*
X13774580Y-11206640D02*
X13794580Y-11226640D01*
X13794580Y-11206640D02*
X13774580Y-11226640D01*
X13774580Y-13223400D02*
X13794580Y-13243400D01*
X13794580Y-13223400D02*
X13774580Y-13243400D01*
X13782200Y-9205120D02*
X13802200Y-9225120D01*
X13802200Y-9205120D02*
X13782200Y-9225120D01*
X13965080Y-11209180D02*
X13985080Y-11229180D01*
X13985080Y-11209180D02*
X13965080Y-11229180D01*
X13965080Y-13223400D02*
X13985080Y-13243400D01*
X13985080Y-13223400D02*
X13965080Y-13243400D01*
X13972700Y-9202580D02*
X13992700Y-9222580D01*
X13992700Y-9202580D02*
X13972700Y-9222580D01*
X13998100Y-8514240D02*
X14018100Y-8534240D01*
X14018100Y-8514240D02*
X13998100Y-8534240D01*
X13998100Y-10515760D02*
X14018100Y-10535760D01*
X14018100Y-10515760D02*
X13998100Y-10535760D01*
X13998100Y-12524900D02*
X14018100Y-12544900D01*
X14018100Y-12524900D02*
X13998100Y-12544900D01*
X14005720Y-12923680D02*
X14025720Y-12943680D01*
X14025720Y-12923680D02*
X14005720Y-12943680D01*
X14010800Y-8907940D02*
X14030800Y-8927940D01*
X14030800Y-8907940D02*
X14010800Y-8927940D01*
X14010800Y-10912000D02*
X14030800Y-10932000D01*
X14030800Y-10912000D02*
X14010800Y-10932000D01*
X14036200Y-6683920D02*
X14056200Y-6703920D01*
X14056200Y-6683920D02*
X14036200Y-6703920D01*
X14297820Y-9060340D02*
X14317820Y-9080340D01*
X14317820Y-9060340D02*
X14297820Y-9080340D01*
X14297820Y-13055760D02*
X14317820Y-13075760D01*
X14317820Y-13055760D02*
X14297820Y-13075760D01*
X14302900Y-11074560D02*
X14322900Y-11094560D01*
X14322900Y-11074560D02*
X14302900Y-11094560D01*
X14332600Y-6594000D02*
X14352600Y-6614000D01*
X14352600Y-6594000D02*
X14332600Y-6614000D01*
X14333000Y-6238400D02*
X14353000Y-6258400D01*
X14353000Y-6238400D02*
X14333000Y-6258400D01*
X14347600Y-6949600D02*
X14367600Y-6969600D01*
X14367600Y-6949600D02*
X14347600Y-6969600D01*
X14523880Y-13198000D02*
X14543880Y-13218000D01*
X14543880Y-13198000D02*
X14523880Y-13218000D01*
X14633100Y-7613700D02*
X14653100Y-7633700D01*
X14653100Y-7613700D02*
X14633100Y-7633700D01*
X14633100Y-9620300D02*
X14653100Y-9640300D01*
X14653100Y-9620300D02*
X14633100Y-9640300D01*
X14633100Y-11626900D02*
X14653100Y-11646900D01*
X14653100Y-11626900D02*
X14633100Y-11646900D01*
X14752480Y-9060340D02*
X14772480Y-9080340D01*
X14772480Y-9060340D02*
X14752480Y-9080340D01*
X14755020Y-13055760D02*
X14775020Y-13075760D01*
X14775020Y-13055760D02*
X14755020Y-13075760D01*
X14757560Y-11074560D02*
X14777560Y-11094560D01*
X14777560Y-11074560D02*
X14757560Y-11094560D01*
X14849000Y-6689000D02*
X14869000Y-6709000D01*
X14869000Y-6689000D02*
X14849000Y-6709000D01*
X14965840Y-13299600D02*
X14985840Y-13319600D01*
X14985840Y-13299600D02*
X14965840Y-13319600D01*
X14982350Y-12873800D02*
X15002350Y-12893800D01*
X15002350Y-12873800D02*
X14982350Y-12893800D01*
X15087760Y-8742840D02*
X15107760Y-8762840D01*
X15107760Y-8742840D02*
X15087760Y-8762840D01*
X15143640Y-12883040D02*
X15163640Y-12903040D01*
X15163640Y-12883040D02*
X15143640Y-12903040D01*
X15171200Y-6238400D02*
X15191200Y-6258400D01*
X15191200Y-6238400D02*
X15171200Y-6258400D01*
X15196200Y-6594000D02*
X15216200Y-6614000D01*
X15216200Y-6594000D02*
X15196200Y-6614000D01*
X15211200Y-6949600D02*
X15231200Y-6969600D01*
X15231200Y-6949600D02*
X15211200Y-6969600D01*
X15214760Y-12369960D02*
X15234760Y-12389960D01*
X15234760Y-12369960D02*
X15214760Y-12389960D01*
X15230000Y-11889900D02*
X15250000Y-11909900D01*
X15250000Y-11889900D02*
X15230000Y-11909900D01*
X15230000Y-13045600D02*
X15250000Y-13065600D01*
X15250000Y-13045600D02*
X15230000Y-13065600D01*
X15235080Y-10815480D02*
X15255080Y-10835480D01*
X15255080Y-10815480D02*
X15235080Y-10835480D01*
X15374780Y-12656980D02*
X15394780Y-12676980D01*
X15394780Y-12656980D02*
X15374780Y-12676980D01*
X15416200Y-6499000D02*
X15436200Y-6519000D01*
X15436200Y-6499000D02*
X15416200Y-6519000D01*
X15438280Y-11623200D02*
X15458280Y-11643200D01*
X15458280Y-11623200D02*
X15438280Y-11643200D01*
X15441200Y-6238400D02*
X15461200Y-6258400D01*
X15461200Y-6238400D02*
X15441200Y-6258400D01*
X15514480Y-12786520D02*
X15534480Y-12806520D01*
X15534480Y-12786520D02*
X15514480Y-12806520D01*
X15570360Y-13060840D02*
X15590360Y-13080840D01*
X15590360Y-13060840D02*
X15570360Y-13080840D01*
X15633860Y-13114180D02*
X15653860Y-13134180D01*
X15653860Y-13114180D02*
X15633860Y-13134180D01*
X15634570Y-12526560D02*
X15654570Y-12546560D01*
X15654570Y-12526560D02*
X15634570Y-12546560D01*
X15638940Y-11933080D02*
X15658940Y-11953080D01*
X15658940Y-11933080D02*
X15638940Y-11953080D01*
X15703879Y-11930257D02*
X15723879Y-11950257D01*
X15723879Y-11930257D02*
X15703879Y-11950257D01*
X15712600Y-12425840D02*
X15732600Y-12445840D01*
X15732600Y-12425840D02*
X15712600Y-12445840D01*
X15717680Y-13086240D02*
X15737680Y-13106240D01*
X15737680Y-13086240D02*
X15717680Y-13106240D01*
X15768480Y-11943240D02*
X15788480Y-11963240D01*
X15788480Y-11943240D02*
X15768480Y-11963240D01*
X15798960Y-13093860D02*
X15818960Y-13113860D01*
X15818960Y-13093860D02*
X15798960Y-13113860D01*
X16027560Y-13396120D02*
X16047560Y-13416120D01*
X16047560Y-13396120D02*
X16027560Y-13416120D01*
X16042800Y-11502550D02*
X16062800Y-11522550D01*
X16062800Y-11502550D02*
X16042800Y-11522550D01*
X16042800Y-11693050D02*
X16062800Y-11713050D01*
X16062800Y-11693050D02*
X16042800Y-11713050D01*
X16042800Y-11883550D02*
X16062800Y-11903550D01*
X16062800Y-11883550D02*
X16042800Y-11903550D01*
X16042800Y-12670950D02*
X16062800Y-12690950D01*
X16062800Y-12670950D02*
X16042800Y-12690950D01*
X16042800Y-12861450D02*
X16062800Y-12881450D01*
X16062800Y-12861450D02*
X16042800Y-12881450D01*
X16042800Y-13045600D02*
X16062800Y-13065600D01*
X16062800Y-13045600D02*
X16042800Y-13065600D01*
X16049150Y-8302150D02*
X16069150Y-8322150D01*
X16069150Y-8302150D02*
X16049150Y-8322150D01*
X16055500Y-8518050D02*
X16075500Y-8538050D01*
X16075500Y-8518050D02*
X16055500Y-8538050D01*
X16177399Y-12817000D02*
X16197399Y-12837000D01*
X16197399Y-12817000D02*
X16177399Y-12837000D01*
X16190120Y-12522360D02*
X16210120Y-12542360D01*
X16210120Y-12522360D02*
X16190120Y-12542360D01*
X16281560Y-13360560D02*
X16301560Y-13380560D01*
X16301560Y-13360560D02*
X16281560Y-13380560D01*
X16303150Y-11496200D02*
X16323150Y-11516200D01*
X16323150Y-11496200D02*
X16303150Y-11516200D01*
X16303150Y-12309000D02*
X16323150Y-12329000D01*
X16323150Y-12309000D02*
X16303150Y-12329000D01*
X16334900Y-13039250D02*
X16354900Y-13059250D01*
X16354900Y-13039250D02*
X16334900Y-13059250D01*
X16342520Y-12613800D02*
X16362520Y-12633800D01*
X16362520Y-12613800D02*
X16342520Y-12633800D01*
X16366650Y-8302150D02*
X16386650Y-8322150D01*
X16386650Y-8302150D02*
X16366650Y-8322150D01*
X16367920Y-11963560D02*
X16387920Y-11983560D01*
X16387920Y-11963560D02*
X16367920Y-11983560D01*
X16408560Y-12832240D02*
X16428560Y-12852240D01*
X16428560Y-12832240D02*
X16408560Y-12852240D01*
X16444120Y-12481720D02*
X16464120Y-12501720D01*
X16464120Y-12481720D02*
X16444120Y-12501720D01*
X16493650Y-11496200D02*
X16513650Y-11516200D01*
X16513650Y-11496200D02*
X16493650Y-11516200D01*
X16497460Y-11943240D02*
X16517460Y-11963240D01*
X16517460Y-11943240D02*
X16497460Y-11963240D01*
X16525400Y-8086250D02*
X16545400Y-8106250D01*
X16545400Y-8086250D02*
X16525400Y-8106250D01*
X16545720Y-12783980D02*
X16565720Y-12803980D01*
X16565720Y-12783980D02*
X16545720Y-12803980D01*
X16581280Y-11610500D02*
X16601280Y-11630500D01*
X16601280Y-11610500D02*
X16581280Y-11630500D01*
X16611760Y-12531720D02*
X16631760Y-12551720D01*
X16631760Y-12531720D02*
X16611760Y-12551720D01*
X16675260Y-13017660D02*
X16695260Y-13037660D01*
X16695260Y-13017660D02*
X16675260Y-13037660D01*
X16690500Y-11712100D02*
X16710500Y-11732100D01*
X16710500Y-11712100D02*
X16690500Y-11732100D01*
X16741300Y-13043060D02*
X16761300Y-13063060D01*
X16761300Y-13043060D02*
X16741300Y-13063060D01*
X16789560Y-12806840D02*
X16809560Y-12826840D01*
X16809560Y-12806840D02*
X16789560Y-12826840D01*
X16807340Y-13106560D02*
X16827340Y-13126560D01*
X16827340Y-13106560D02*
X16807340Y-13126560D01*
X16830200Y-11900060D02*
X16850200Y-11920060D01*
X16850200Y-11900060D02*
X16830200Y-11920060D01*
X16870840Y-13375800D02*
X16890840Y-13395800D01*
X16890840Y-13375800D02*
X16870840Y-13395800D01*
X16919100Y-10626250D02*
X16939100Y-10646250D01*
X16939100Y-10626250D02*
X16919100Y-10646250D01*
X16919100Y-12074050D02*
X16939100Y-12094050D01*
X16939100Y-12074050D02*
X16919100Y-12094050D01*
X17096900Y-8372000D02*
X17116900Y-8392000D01*
X17116900Y-8372000D02*
X17096900Y-8392000D01*
X17141350Y-11470800D02*
X17161350Y-11490800D01*
X17161350Y-11470800D02*
X17141350Y-11490800D01*
X17141350Y-11699400D02*
X17161350Y-11719400D01*
X17161350Y-11699400D02*
X17141350Y-11719400D01*
X17147700Y-12670950D02*
X17167700Y-12690950D01*
X17167700Y-12670950D02*
X17147700Y-12690950D01*
X17147700Y-12861450D02*
X17167700Y-12881450D01*
X17167700Y-12861450D02*
X17147700Y-12881450D01*
X17147700Y-13051950D02*
X17167700Y-13071950D01*
X17167700Y-13051950D02*
X17147700Y-13071950D01*
X17160400Y-10626250D02*
X17180400Y-10646250D01*
X17180400Y-10626250D02*
X17160400Y-10646250D01*
X17173100Y-11235850D02*
X17193100Y-11255850D01*
X17193100Y-11235850D02*
X17173100Y-11255850D01*
X17319150Y-9184800D02*
X17339150Y-9204800D01*
X17339150Y-9184800D02*
X17319150Y-9204800D01*
X17319150Y-9413400D02*
X17339150Y-9433400D01*
X17339150Y-9413400D02*
X17319150Y-9433400D01*
X17350900Y-8365650D02*
X17370900Y-8385650D01*
X17370900Y-8365650D02*
X17350900Y-8385650D01*
X17350900Y-8962550D02*
X17370900Y-8982550D01*
X17370900Y-8962550D02*
X17350900Y-8982550D01*
X17446150Y-10785000D02*
X17466150Y-10805000D01*
X17466150Y-10785000D02*
X17446150Y-10805000D01*
X17446150Y-11242200D02*
X17466150Y-11262200D01*
X17466150Y-11242200D02*
X17446150Y-11262200D01*
X17560450Y-12448700D02*
X17580450Y-12468700D01*
X17580450Y-12448700D02*
X17560450Y-12468700D01*
X17560450Y-13210700D02*
X17580450Y-13230700D01*
X17580450Y-13210700D02*
X17560450Y-13230700D01*
X17585850Y-8283100D02*
X17605850Y-8303100D01*
X17605850Y-8283100D02*
X17585850Y-8303100D01*
X17623950Y-8016400D02*
X17643950Y-8036400D01*
X17643950Y-8016400D02*
X17623950Y-8036400D01*
X17636650Y-8511700D02*
X17656650Y-8531700D01*
X17656650Y-8511700D02*
X17636650Y-8531700D01*
X17643000Y-8943500D02*
X17663000Y-8963500D01*
X17663000Y-8943500D02*
X17643000Y-8963500D01*
X17643000Y-9159400D02*
X17663000Y-9179400D01*
X17663000Y-9159400D02*
X17643000Y-9179400D01*
X17703960Y-6840380D02*
X17723960Y-6860380D01*
X17723960Y-6840380D02*
X17703960Y-6860380D01*
X17731900Y-9616600D02*
X17751900Y-9636600D01*
X17751900Y-9616600D02*
X17731900Y-9636600D01*
X17785240Y-6459380D02*
X17805240Y-6479380D01*
X17805240Y-6459380D02*
X17785240Y-6479380D01*
X17827150Y-8511700D02*
X17847150Y-8531700D01*
X17847150Y-8511700D02*
X17827150Y-8531700D01*
X17852550Y-8283100D02*
X17872550Y-8303100D01*
X17872550Y-8283100D02*
X17852550Y-8303100D01*
X17856360Y-11569860D02*
X17876360Y-11589860D01*
X17876360Y-11569860D02*
X17856360Y-11589860D01*
X17856360Y-11651140D02*
X17876360Y-11671140D01*
X17876360Y-11651140D02*
X17856360Y-11671140D01*
X17858900Y-10231280D02*
X17878900Y-10251280D01*
X17878900Y-10231280D02*
X17858900Y-10251280D01*
X17858900Y-11422540D02*
X17878900Y-11442540D01*
X17878900Y-11422540D02*
X17858900Y-11442540D01*
X17858900Y-11493660D02*
X17878900Y-11513660D01*
X17878900Y-11493660D02*
X17858900Y-11513660D01*
X17922400Y-8006240D02*
X17942400Y-8026240D01*
X17942400Y-8006240D02*
X17922400Y-8026240D01*
X17927480Y-8824120D02*
X17947480Y-8844120D01*
X17947480Y-8824120D02*
X17927480Y-8844120D01*
X17935100Y-9616600D02*
X17955100Y-9636600D01*
X17955100Y-9616600D02*
X17935100Y-9636600D01*
X17937640Y-10231280D02*
X17957640Y-10251280D01*
X17957640Y-10231280D02*
X17937640Y-10251280D01*
X17992250Y-10689750D02*
X18012250Y-10709750D01*
X18012250Y-10689750D02*
X17992250Y-10709750D01*
X17992250Y-10854850D02*
X18012250Y-10874850D01*
X18012250Y-10854850D02*
X17992250Y-10874850D01*
X17993520Y-10769760D02*
X18013520Y-10789760D01*
X18013520Y-10769760D02*
X17993520Y-10789760D01*
X17993520Y-10924700D02*
X18013520Y-10944700D01*
X18013520Y-10924700D02*
X17993520Y-10944700D01*
X17998600Y-11000900D02*
X18018600Y-11020900D01*
X18018600Y-11000900D02*
X17998600Y-11020900D01*
X18003680Y-11077100D02*
X18023680Y-11097100D01*
X18023680Y-11077100D02*
X18003680Y-11097100D01*
X18011300Y-10231280D02*
X18031300Y-10251280D01*
X18031300Y-10231280D02*
X18011300Y-10251280D01*
X18074800Y-7952900D02*
X18094800Y-7972900D01*
X18094800Y-7952900D02*
X18074800Y-7972900D01*
X18079880Y-11092340D02*
X18099880Y-11112340D01*
X18099880Y-11092340D02*
X18079880Y-11112340D01*
X18084960Y-10531000D02*
X18104960Y-10551000D01*
X18104960Y-10531000D02*
X18084960Y-10551000D01*
X18138300Y-9616600D02*
X18158300Y-9636600D01*
X18158300Y-9616600D02*
X18138300Y-9636600D01*
X18159500Y-10528460D02*
X18179500Y-10548460D01*
X18179500Y-10528460D02*
X18159500Y-10548460D01*
X18166240Y-11102500D02*
X18186240Y-11122500D01*
X18186240Y-11102500D02*
X18166240Y-11122500D01*
X18168780Y-8549800D02*
X18188780Y-8569800D01*
X18188780Y-8549800D02*
X18168780Y-8569800D01*
X18170050Y-8683150D02*
X18190050Y-8703150D01*
X18190050Y-8683150D02*
X18170050Y-8703150D01*
X18171320Y-8981600D02*
X18191320Y-9001600D01*
X18191320Y-8981600D02*
X18171320Y-9001600D01*
X18214500Y-8772050D02*
X18234500Y-8792050D01*
X18234500Y-8772050D02*
X18214500Y-8792050D01*
X18237360Y-8930800D02*
X18257360Y-8950800D01*
X18257360Y-8930800D02*
X18237360Y-8950800D01*
X18265300Y-8829200D02*
X18285300Y-8849200D01*
X18285300Y-8829200D02*
X18265300Y-8849200D01*
X18290700Y-7946550D02*
X18310700Y-7966550D01*
X18310700Y-7946550D02*
X18290700Y-7966550D01*
X18303400Y-8885080D02*
X18323400Y-8905080D01*
X18323400Y-8885080D02*
X18303400Y-8905080D01*
X18341500Y-9616600D02*
X18361500Y-9636600D01*
X18361500Y-9616600D02*
X18341500Y-9636600D01*
X18411350Y-11102500D02*
X18431350Y-11122500D01*
X18431350Y-11102500D02*
X18411350Y-11122500D01*
X18443100Y-8454550D02*
X18463100Y-8474550D01*
X18463100Y-8454550D02*
X18443100Y-8474550D01*
X18476120Y-11079640D02*
X18496120Y-11099640D01*
X18496120Y-11079640D02*
X18476120Y-11099640D01*
X18487550Y-7749700D02*
X18507550Y-7769700D01*
X18507550Y-7749700D02*
X18487550Y-7769700D01*
X18506600Y-7946550D02*
X18526600Y-7966550D01*
X18526600Y-7946550D02*
X18506600Y-7966550D01*
X18529460Y-11018680D02*
X18549460Y-11038680D01*
X18549460Y-11018680D02*
X18529460Y-11038680D01*
X18544700Y-9616600D02*
X18564700Y-9636600D01*
X18564700Y-9616600D02*
X18544700Y-9636600D01*
X18570100Y-10932320D02*
X18590100Y-10952320D01*
X18590100Y-10932320D02*
X18570100Y-10952320D01*
X18589150Y-10772300D02*
X18609150Y-10792300D01*
X18609150Y-10772300D02*
X18589150Y-10792300D01*
X18595500Y-8454550D02*
X18615500Y-8474550D01*
X18615500Y-8454550D02*
X18595500Y-8474550D01*
X18671700Y-9026050D02*
X18691700Y-9046050D01*
X18691700Y-9026050D02*
X18671700Y-9046050D01*
X18697100Y-8454550D02*
X18717100Y-8474550D01*
X18717100Y-8454550D02*
X18697100Y-8474550D01*
X18722500Y-7946550D02*
X18742500Y-7966550D01*
X18742500Y-7946550D02*
X18722500Y-7966550D01*
X18722500Y-8981600D02*
X18742500Y-9001600D01*
X18742500Y-8981600D02*
X18722500Y-9001600D01*
X18747900Y-9616600D02*
X18767900Y-9636600D01*
X18767900Y-9616600D02*
X18747900Y-9636600D01*
X18766950Y-8626000D02*
X18786950Y-8646000D01*
X18786950Y-8626000D02*
X18766950Y-8646000D01*
X18766950Y-8930800D02*
X18786950Y-8950800D01*
X18786950Y-8930800D02*
X18766950Y-8950800D01*
X18817750Y-9165750D02*
X18837750Y-9185750D01*
X18837750Y-9165750D02*
X18817750Y-9185750D01*
X18877440Y-10825640D02*
X18897440Y-10845640D01*
X18897440Y-10825640D02*
X18877440Y-10845640D01*
X18951100Y-9616600D02*
X18971100Y-9636600D01*
X18971100Y-9616600D02*
X18951100Y-9636600D01*
X18982850Y-11197750D02*
X19002850Y-11217750D01*
X19002850Y-11197750D02*
X18982850Y-11217750D01*
X19141600Y-8270400D02*
X19161600Y-8290400D01*
X19161600Y-8270400D02*
X19141600Y-8290400D01*
X19154300Y-9616600D02*
X19174300Y-9636600D01*
X19174300Y-9616600D02*
X19154300Y-9636600D01*
X19224150Y-8029100D02*
X19244150Y-8049100D01*
X19244150Y-8029100D02*
X19224150Y-8049100D01*
X19268600Y-8575200D02*
X19288600Y-8595200D01*
X19288600Y-8575200D02*
X19268600Y-8595200D01*
X19274950Y-8791100D02*
X19294950Y-8811100D01*
X19294950Y-8791100D02*
X19274950Y-8811100D01*
X19274950Y-9007000D02*
X19294950Y-9027000D01*
X19294950Y-9007000D02*
X19274950Y-9027000D01*
X19274950Y-9222900D02*
X19294950Y-9242900D01*
X19294950Y-9222900D02*
X19274950Y-9242900D01*
X11378960Y-7411720D02*
G75*
G03*
X11378960Y-7411720I-15000J0D01*
G01*
X11378960Y-8402320D02*
G75*
G03*
X11378960Y-8402320I-15000J0D01*
G01*
X11378960Y-9392920D02*
G75*
G03*
X11378960Y-9392920I-15000J0D01*
G01*
X11378960Y-10383520D02*
G75*
G03*
X11378960Y-10383520I-15000J0D01*
G01*
X11378960Y-11369040D02*
G75*
G03*
X11378960Y-11369040I-15000J0D01*
G01*
X11378960Y-12359640D02*
G75*
G03*
X11378960Y-12359640I-15000J0D01*
G01*
X18243550Y-8618500D02*
X18243550Y-8653500D01*
X18226050Y-8636000D02*
X18261050Y-8636000D01*
X12094382Y-10616102D02*
X12094382Y-10587818D01*
X12066098Y-10587818D01*
X12066098Y-10616102D01*
X12094382Y-10616102D01*
X12371242Y-9175922D02*
X12371242Y-9147638D01*
X12342958Y-9147638D01*
X12342958Y-9175922D01*
X12371242Y-9175922D01*
X12371242Y-11169822D02*
X12371242Y-11141538D01*
X12342958Y-11141538D01*
X12342958Y-11169822D01*
X12371242Y-11169822D01*
X12371242Y-13163722D02*
X12371242Y-13135438D01*
X12342958Y-13135438D01*
X12342958Y-13163722D01*
X12371242Y-13163722D01*
X12495702Y-13161182D02*
X12495702Y-13132898D01*
X12467418Y-13132898D01*
X12467418Y-13161182D01*
X12495702Y-13161182D01*
X12500782Y-9173382D02*
X12500782Y-9145098D01*
X12472498Y-9145098D01*
X12472498Y-9173382D01*
X12500782Y-9173382D01*
X12500782Y-11164742D02*
X12500782Y-11136458D01*
X12472498Y-11136458D01*
X12472498Y-11164742D01*
X12500782Y-11164742D01*
X13003702Y-10572922D02*
X13003702Y-10544638D01*
X12975418Y-10544638D01*
X12975418Y-10572922D01*
X13003702Y-10572922D01*
X13006242Y-8581562D02*
X13006242Y-8553278D01*
X12977958Y-8553278D01*
X12977958Y-8581562D01*
X13006242Y-8581562D01*
X13006242Y-12569362D02*
X13006242Y-12541078D01*
X12977958Y-12541078D01*
X12977958Y-12569362D01*
X13006242Y-12569362D01*
X14022242Y-8388522D02*
X14022242Y-8360238D01*
X13993958Y-8360238D01*
X13993958Y-8388522D01*
X14022242Y-8388522D01*
X14022242Y-10395122D02*
X14022242Y-10366838D01*
X13993958Y-10366838D01*
X13993958Y-10395122D01*
X14022242Y-10395122D01*
X14022242Y-12401722D02*
X14022242Y-12373438D01*
X13993958Y-12373438D01*
X13993958Y-12401722D01*
X14022242Y-12401722D01*
X14146702Y-8385982D02*
X14146702Y-8357698D01*
X14118418Y-8357698D01*
X14118418Y-8385982D01*
X14146702Y-8385982D01*
X14146702Y-10392582D02*
X14146702Y-10364298D01*
X14118418Y-10364298D01*
X14118418Y-10392582D01*
X14146702Y-10392582D01*
X14146702Y-12399182D02*
X14146702Y-12370898D01*
X14118418Y-12370898D01*
X14118418Y-12399182D01*
X14146702Y-12399182D01*
X14654702Y-9800762D02*
X14654702Y-9772478D01*
X14626418Y-9772478D01*
X14626418Y-9800762D01*
X14654702Y-9800762D01*
X14657242Y-7794162D02*
X14657242Y-7765878D01*
X14628958Y-7765878D01*
X14628958Y-7794162D01*
X14657242Y-7794162D01*
X14657242Y-11807362D02*
X14657242Y-11779078D01*
X14628958Y-11779078D01*
X14628958Y-11807362D01*
X14657242Y-11807362D01*
X14913782Y-10778662D02*
X14913782Y-10750378D01*
X14885498Y-10750378D01*
X14885498Y-10778662D01*
X14913782Y-10778662D01*
X15238902Y-11225702D02*
X15238902Y-11197418D01*
X15210618Y-11197418D01*
X15210618Y-11225702D01*
X15238902Y-11225702D01*
X15336692Y-6618142D02*
X15336692Y-6589858D01*
X15308408Y-6589858D01*
X15308408Y-6618142D01*
X15336692Y-6618142D01*
X16226962Y-12107082D02*
X16226962Y-12078798D01*
X16198678Y-12078798D01*
X16198678Y-12107082D01*
X16226962Y-12107082D01*
X10877580Y-6397860D02*
X10902580Y-6372860D01*
X10877580Y-6347860D01*
X10852580Y-6372860D01*
X10877580Y-6397860D01*
X10877580Y-13220300D02*
X10902580Y-13195300D01*
X10877580Y-13170300D01*
X10852580Y-13195300D01*
X10877580Y-13220300D01*
X10947874Y-6228154D02*
X10972874Y-6203154D01*
X10947874Y-6178154D01*
X10922874Y-6203154D01*
X10947874Y-6228154D01*
X10947874Y-6567566D02*
X10972874Y-6542566D01*
X10947874Y-6517566D01*
X10922874Y-6542566D01*
X10947874Y-6567566D01*
X10947874Y-13050594D02*
X10972874Y-13025594D01*
X10947874Y-13000594D01*
X10922874Y-13025594D01*
X10947874Y-13050594D01*
X10947874Y-13390006D02*
X10972874Y-13365006D01*
X10947874Y-13340006D01*
X10922874Y-13365006D01*
X10947874Y-13390006D01*
X11117580Y-6157860D02*
X11142580Y-6132860D01*
X11117580Y-6107860D01*
X11092580Y-6132860D01*
X11117580Y-6157860D01*
X11117580Y-6637860D02*
X11142580Y-6612860D01*
X11117580Y-6587860D01*
X11092580Y-6612860D01*
X11117580Y-6637860D01*
X11117580Y-12980300D02*
X11142580Y-12955300D01*
X11117580Y-12930300D01*
X11092580Y-12955300D01*
X11117580Y-12980300D01*
X11117580Y-13460300D02*
X11142580Y-13435300D01*
X11117580Y-13410300D01*
X11092580Y-13435300D01*
X11117580Y-13460300D01*
X11287286Y-6228154D02*
X11312286Y-6203154D01*
X11287286Y-6178154D01*
X11262286Y-6203154D01*
X11287286Y-6228154D01*
X11287286Y-6567566D02*
X11312286Y-6542566D01*
X11287286Y-6517566D01*
X11262286Y-6542566D01*
X11287286Y-6567566D01*
X11287286Y-13050594D02*
X11312286Y-13025594D01*
X11287286Y-13000594D01*
X11262286Y-13025594D01*
X11287286Y-13050594D01*
X11287286Y-13390006D02*
X11312286Y-13365006D01*
X11287286Y-13340006D01*
X11262286Y-13365006D01*
X11287286Y-13390006D01*
X11357580Y-6397860D02*
X11382580Y-6372860D01*
X11357580Y-6347860D01*
X11332580Y-6372860D01*
X11357580Y-6397860D01*
X11357580Y-13220300D02*
X11382580Y-13195300D01*
X11357580Y-13170300D01*
X11332580Y-13195300D01*
X11357580Y-13220300D01*
X18474720Y-13217760D02*
X18499720Y-13192760D01*
X18474720Y-13167760D01*
X18449720Y-13192760D01*
X18474720Y-13217760D01*
X18477260Y-6397860D02*
X18502260Y-6372860D01*
X18477260Y-6347860D01*
X18452260Y-6372860D01*
X18477260Y-6397860D01*
X18545014Y-13048054D02*
X18570014Y-13023054D01*
X18545014Y-12998054D01*
X18520014Y-13023054D01*
X18545014Y-13048054D01*
X18545014Y-13387466D02*
X18570014Y-13362466D01*
X18545014Y-13337466D01*
X18520014Y-13362466D01*
X18545014Y-13387466D01*
X18547554Y-6228154D02*
X18572554Y-6203154D01*
X18547554Y-6178154D01*
X18522554Y-6203154D01*
X18547554Y-6228154D01*
X18547554Y-6567566D02*
X18572554Y-6542566D01*
X18547554Y-6517566D01*
X18522554Y-6542566D01*
X18547554Y-6567566D01*
X18714720Y-12977760D02*
X18739720Y-12952760D01*
X18714720Y-12927760D01*
X18689720Y-12952760D01*
X18714720Y-12977760D01*
X18714720Y-13457760D02*
X18739720Y-13432760D01*
X18714720Y-13407760D01*
X18689720Y-13432760D01*
X18714720Y-13457760D01*
X18717260Y-6157860D02*
X18742260Y-6132860D01*
X18717260Y-6107860D01*
X18692260Y-6132860D01*
X18717260Y-6157860D01*
X18717260Y-6637860D02*
X18742260Y-6612860D01*
X18717260Y-6587860D01*
X18692260Y-6612860D01*
X18717260Y-6637860D01*
X18884426Y-13048054D02*
X18909426Y-13023054D01*
X18884426Y-12998054D01*
X18859426Y-13023054D01*
X18884426Y-13048054D01*
X18884426Y-13387466D02*
X18909426Y-13362466D01*
X18884426Y-13337466D01*
X18859426Y-13362466D01*
X18884426Y-13387466D01*
X18886966Y-6228154D02*
X18911966Y-6203154D01*
X18886966Y-6178154D01*
X18861966Y-6203154D01*
X18886966Y-6228154D01*
X18886966Y-6567566D02*
X18911966Y-6542566D01*
X18886966Y-6517566D01*
X18861966Y-6542566D01*
X18886966Y-6567566D01*
X18954720Y-13217760D02*
X18979720Y-13192760D01*
X18954720Y-13167760D01*
X18929720Y-13192760D01*
X18954720Y-13217760D01*
X18957260Y-6397860D02*
X18982260Y-6372860D01*
X18957260Y-6347860D01*
X18932260Y-6372860D01*
X18957260Y-6397860D01*
X10107100Y-10259500D02*
X10162100Y-10314500D01*
X10162100Y-10259500D02*
X10107100Y-10314500D01*
X10162100Y-10287000D02*
G75*
G03*
X10162100Y-10287000I-27500J0D01*
G01*
X10107100Y-10386500D02*
X10162100Y-10441500D01*
X10162100Y-10386500D02*
X10107100Y-10441500D01*
X10162100Y-10414000D02*
G75*
G03*
X10162100Y-10414000I-27500J0D01*
G01*
X10107100Y-10513500D02*
X10162100Y-10568500D01*
X10162100Y-10513500D02*
X10107100Y-10568500D01*
X10162100Y-10541000D02*
G75*
G03*
X10162100Y-10541000I-27500J0D01*
G01*
X10107100Y-10640500D02*
X10162100Y-10695500D01*
X10162100Y-10640500D02*
X10107100Y-10695500D01*
X10162100Y-10668000D02*
G75*
G03*
X10162100Y-10668000I-27500J0D01*
G01*
X10234100Y-10259500D02*
X10289100Y-10314500D01*
X10289100Y-10259500D02*
X10234100Y-10314500D01*
X10289100Y-10287000D02*
G75*
G03*
X10289100Y-10287000I-27500J0D01*
G01*
X10234100Y-10386500D02*
X10289100Y-10441500D01*
X10289100Y-10386500D02*
X10234100Y-10441500D01*
X10289100Y-10414000D02*
G75*
G03*
X10289100Y-10414000I-27500J0D01*
G01*
X10234100Y-10513500D02*
X10289100Y-10568500D01*
X10289100Y-10513500D02*
X10234100Y-10568500D01*
X10289100Y-10541000D02*
G75*
G03*
X10289100Y-10541000I-27500J0D01*
G01*
X10234100Y-10640500D02*
X10289100Y-10695500D01*
X10289100Y-10640500D02*
X10234100Y-10695500D01*
X10289100Y-10668000D02*
G75*
G03*
X10289100Y-10668000I-27500J0D01*
G01*
X15574650Y-6468750D02*
X15654650Y-6548750D01*
X15654650Y-6468750D02*
X15574650Y-6548750D01*
X15614650Y-6468750D02*
X15614650Y-6548750D01*
X15574650Y-6508750D02*
X15654650Y-6508750D01*
X19289400Y-8240400D02*
X19369400Y-8320400D01*
X19369400Y-8240400D02*
X19289400Y-8320400D01*
X19329400Y-8240400D02*
X19329400Y-8320400D01*
X19289400Y-8280400D02*
X19369400Y-8280400D01*
X15857853Y-6436937D02*
X15947853Y-6526937D01*
X15947853Y-6436937D02*
X15857853Y-6526937D01*
X15934673Y-6513757D02*
X15934673Y-6450117D01*
X15871033Y-6450117D01*
X15871033Y-6513757D01*
X15934673Y-6513757D01*
X16045979Y-7663796D02*
X16135979Y-7753796D01*
X16135979Y-7663796D02*
X16045979Y-7753796D01*
X16122799Y-7740616D02*
X16122799Y-7676976D01*
X16059159Y-7676976D01*
X16059159Y-7740616D01*
X16122799Y-7740616D01*
X16112038Y-6284987D02*
X16202038Y-6374987D01*
X16202038Y-6284987D02*
X16112038Y-6374987D01*
X16188858Y-6361807D02*
X16188858Y-6298167D01*
X16125218Y-6298167D01*
X16125218Y-6361807D01*
X16188858Y-6361807D01*
X16172979Y-7409796D02*
X16262979Y-7499796D01*
X16262979Y-7409796D02*
X16172979Y-7499796D01*
X16249799Y-7486616D02*
X16249799Y-7422976D01*
X16186159Y-7422976D01*
X16186159Y-7486616D01*
X16249799Y-7486616D01*
X16299979Y-7663796D02*
X16389979Y-7753796D01*
X16389979Y-7663796D02*
X16299979Y-7753796D01*
X16376799Y-7740616D02*
X16376799Y-7676976D01*
X16313159Y-7676976D01*
X16313159Y-7740616D01*
X16376799Y-7740616D01*
X16426979Y-7409796D02*
X16516979Y-7499796D01*
X16516979Y-7409796D02*
X16426979Y-7499796D01*
X16503799Y-7486616D02*
X16503799Y-7422976D01*
X16440159Y-7422976D01*
X16440159Y-7486616D01*
X16503799Y-7486616D01*
X16553979Y-7663796D02*
X16643979Y-7753796D01*
X16643979Y-7663796D02*
X16553979Y-7753796D01*
X16630799Y-7740616D02*
X16630799Y-7676976D01*
X16567159Y-7676976D01*
X16567159Y-7740616D01*
X16630799Y-7740616D01*
X16680979Y-7409796D02*
X16770979Y-7499796D01*
X16770979Y-7409796D02*
X16680979Y-7499796D01*
X16757799Y-7486616D02*
X16757799Y-7422976D01*
X16694159Y-7422976D01*
X16694159Y-7486616D01*
X16757799Y-7486616D01*
X16807979Y-7663796D02*
X16897979Y-7753796D01*
X16897979Y-7663796D02*
X16807979Y-7753796D01*
X16884799Y-7740616D02*
X16884799Y-7676976D01*
X16821159Y-7676976D01*
X16821159Y-7740616D01*
X16884799Y-7740616D01*
X16869038Y-6436987D02*
X16959038Y-6526987D01*
X16959038Y-6436987D02*
X16869038Y-6526987D01*
X16945858Y-6513807D02*
X16945858Y-6450167D01*
X16882218Y-6450167D01*
X16882218Y-6513807D01*
X16945858Y-6513807D01*
X16934979Y-7409796D02*
X17024979Y-7499796D01*
X17024979Y-7409796D02*
X16934979Y-7499796D01*
X17011799Y-7486616D02*
X17011799Y-7422976D01*
X16948159Y-7422976D01*
X16948159Y-7486616D01*
X17011799Y-7486616D01*
X17122853Y-6284937D02*
X17212853Y-6374937D01*
X17212853Y-6284937D02*
X17122853Y-6374937D01*
X17199673Y-6361757D02*
X17199673Y-6298117D01*
X17136033Y-6298117D01*
X17136033Y-6361757D01*
X17199673Y-6361757D01*
X10160800Y-7925600D02*
X10260800Y-8025600D01*
X10260800Y-7925600D02*
X10160800Y-8025600D01*
X10210800Y-8025600D02*
X10260800Y-7975600D01*
X10210800Y-7925600D01*
X10160800Y-7975600D01*
X10210800Y-8025600D01*
X10160800Y-8179600D02*
X10260800Y-8279600D01*
X10260800Y-8179600D02*
X10160800Y-8279600D01*
X10210800Y-8279600D02*
X10260800Y-8229600D01*
X10210800Y-8179600D01*
X10160800Y-8229600D01*
X10210800Y-8279600D01*
X10160800Y-8433600D02*
X10260800Y-8533600D01*
X10260800Y-8433600D02*
X10160800Y-8533600D01*
X10210800Y-8533600D02*
X10260800Y-8483600D01*
X10210800Y-8433600D01*
X10160800Y-8483600D01*
X10210800Y-8533600D01*
X10160800Y-8687600D02*
X10260800Y-8787600D01*
X10260800Y-8687600D02*
X10160800Y-8787600D01*
X10210800Y-8787600D02*
X10260800Y-8737600D01*
X10210800Y-8687600D01*
X10160800Y-8737600D01*
X10210800Y-8787600D01*
X10414800Y-7925600D02*
X10514800Y-8025600D01*
X10514800Y-7925600D02*
X10414800Y-8025600D01*
X10464800Y-8025600D02*
X10514800Y-7975600D01*
X10464800Y-7925600D01*
X10414800Y-7975600D01*
X10464800Y-8025600D01*
X10414800Y-8179600D02*
X10514800Y-8279600D01*
X10514800Y-8179600D02*
X10414800Y-8279600D01*
X10464800Y-8279600D02*
X10514800Y-8229600D01*
X10464800Y-8179600D01*
X10414800Y-8229600D01*
X10464800Y-8279600D01*
X10414800Y-8433600D02*
X10514800Y-8533600D01*
X10514800Y-8433600D02*
X10414800Y-8533600D01*
X10464800Y-8533600D02*
X10514800Y-8483600D01*
X10464800Y-8433600D01*
X10414800Y-8483600D01*
X10464800Y-8533600D01*
X10414800Y-8687600D02*
X10514800Y-8787600D01*
X10514800Y-8687600D02*
X10414800Y-8787600D01*
X10464800Y-8787600D02*
X10514800Y-8737600D01*
X10464800Y-8687600D01*
X10414800Y-8737600D01*
X10464800Y-8787600D01*
X19304800Y-10059200D02*
X19404800Y-10159200D01*
X19404800Y-10059200D02*
X19304800Y-10159200D01*
X19354800Y-10159200D02*
X19404800Y-10109200D01*
X19354800Y-10059200D01*
X19304800Y-10109200D01*
X19354800Y-10159200D01*
X19304800Y-10313200D02*
X19404800Y-10413200D01*
X19404800Y-10313200D02*
X19304800Y-10413200D01*
X19354800Y-10413200D02*
X19404800Y-10363200D01*
X19354800Y-10313200D01*
X19304800Y-10363200D01*
X19354800Y-10413200D01*
X19304800Y-10567200D02*
X19404800Y-10667200D01*
X19404800Y-10567200D02*
X19304800Y-10667200D01*
X19354800Y-10667200D02*
X19404800Y-10617200D01*
X19354800Y-10567200D01*
X19304800Y-10617200D01*
X19354800Y-10667200D01*
X19558800Y-10059200D02*
X19658800Y-10159200D01*
X19658800Y-10059200D02*
X19558800Y-10159200D01*
X19608800Y-10159200D02*
X19658800Y-10109200D01*
X19608800Y-10059200D01*
X19558800Y-10109200D01*
X19608800Y-10159200D01*
X19558800Y-10313200D02*
X19658800Y-10413200D01*
X19658800Y-10313200D02*
X19558800Y-10413200D01*
X19608800Y-10413200D02*
X19658800Y-10363200D01*
X19608800Y-10313200D01*
X19558800Y-10363200D01*
X19608800Y-10413200D01*
X19558800Y-10567200D02*
X19658800Y-10667200D01*
X19658800Y-10567200D02*
X19558800Y-10667200D01*
X19608800Y-10667200D02*
X19658800Y-10617200D01*
X19608800Y-10567200D01*
X19558800Y-10617200D01*
X19608800Y-10667200D01*
X19558800Y-10999000D02*
X19658800Y-11099000D01*
X19658800Y-10999000D02*
X19558800Y-11099000D01*
X19608800Y-11099000D02*
X19658800Y-11049000D01*
X19608800Y-10999000D01*
X19558800Y-11049000D01*
X19608800Y-11099000D01*
X19558800Y-11253000D02*
X19658800Y-11353000D01*
X19658800Y-11253000D02*
X19558800Y-11353000D01*
X19608800Y-11353000D02*
X19658800Y-11303000D01*
X19608800Y-11253000D01*
X19558800Y-11303000D01*
X19608800Y-11353000D01*
X19558800Y-11507000D02*
X19658800Y-11607000D01*
X19658800Y-11507000D02*
X19558800Y-11607000D01*
X19608800Y-11607000D02*
X19658800Y-11557000D01*
X19608800Y-11507000D01*
X19558800Y-11557000D01*
X19608800Y-11607000D01*
X12395100Y-6732000D02*
X12395100Y-6892000D01*
X12315100Y-6812000D02*
X12475100Y-6812000D01*
X12475100Y-6812000D02*
G75*
G03*
X12475100Y-6812000I-80000J0D01*
G01*
X12865100Y-6432000D02*
X12865100Y-6592000D01*
X12785100Y-6512000D02*
X12945100Y-6512000D01*
X12945100Y-6512000D02*
G75*
G03*
X12945100Y-6512000I-80000J0D01*
G01*
X12865100Y-7032000D02*
X12865100Y-7192000D01*
X12785100Y-7112000D02*
X12945100Y-7112000D01*
X12945100Y-7112000D02*
G75*
G03*
X12945100Y-7112000I-80000J0D01*
G01*
X15747979Y-7044796D02*
X15747979Y-7204796D01*
X15667979Y-7124796D02*
X15827979Y-7124796D01*
X15827979Y-7124796D02*
G75*
G03*
X15827979Y-7124796I-80000J0D01*
G01*
X17322979Y-7044796D02*
X17322979Y-7204796D01*
X17242979Y-7124796D02*
X17402979Y-7124796D01*
X17402979Y-7124796D02*
G75*
G03*
X17402979Y-7124796I-80000J0D01*
G01*
X11230718Y-6485998D02*
X11230718Y-6259722D01*
X11004442Y-6259722D01*
X11004442Y-6485998D01*
X11230718Y-6485998D01*
X11277580Y-6372860D02*
G75*
G03*
X11277580Y-6372860I-160000J0D01*
G01*
X11230718Y-13308438D02*
X11230718Y-13082162D01*
X11004442Y-13082162D01*
X11004442Y-13308438D01*
X11230718Y-13308438D01*
X11277580Y-13195300D02*
G75*
G03*
X11277580Y-13195300I-160000J0D01*
G01*
X18827858Y-13305898D02*
X18827858Y-13079622D01*
X18601582Y-13079622D01*
X18601582Y-13305898D01*
X18827858Y-13305898D01*
X18874720Y-13192760D02*
G75*
G03*
X18874720Y-13192760I-160000J0D01*
G01*
X18830398Y-6485998D02*
X18830398Y-6259722D01*
X18604122Y-6259722D01*
X18604122Y-6485998D01*
X18830398Y-6485998D01*
X18877260Y-6372860D02*
G75*
G03*
X18877260Y-6372860I-160000J0D01*
G01*
X15963979Y-6984796D02*
X16128979Y-6819796D01*
X15963979Y-6654796D01*
X15798979Y-6819796D01*
X15963979Y-6984796D01*
X16128979Y-6819796D02*
G75*
G03*
X16128979Y-6819796I-165000J0D01*
G01*
X17106979Y-6984796D02*
X17271979Y-6819796D01*
X17106979Y-6654796D01*
X16941979Y-6819796D01*
X17106979Y-6984796D01*
X17271979Y-6819796D02*
G75*
G03*
X17271979Y-6819796I-165000J0D01*
G01*
D12*
X10214633Y-14082614D02*
X10214633Y-13782614D01*
X10286061Y-13782614D01*
X10328918Y-13796900D01*
X10357490Y-13825471D01*
X10371775Y-13854043D01*
X10386061Y-13911186D01*
X10386061Y-13954043D01*
X10371775Y-14011186D01*
X10357490Y-14039757D01*
X10328918Y-14068329D01*
X10286061Y-14082614D01*
X10214633Y-14082614D01*
X10514633Y-14082614D02*
X10514633Y-13882614D01*
X10514633Y-13939757D02*
X10528918Y-13911186D01*
X10543204Y-13896900D01*
X10571775Y-13882614D01*
X10600347Y-13882614D01*
X10700347Y-14082614D02*
X10700347Y-13882614D01*
X10700347Y-13782614D02*
X10686061Y-13796900D01*
X10700347Y-13811186D01*
X10714633Y-13796900D01*
X10700347Y-13782614D01*
X10700347Y-13811186D01*
X10886061Y-14082614D02*
X10857490Y-14068329D01*
X10843204Y-14039757D01*
X10843204Y-13782614D01*
X11043204Y-14082614D02*
X11014633Y-14068329D01*
X11000347Y-14039757D01*
X11000347Y-13782614D01*
X11386061Y-14082614D02*
X11386061Y-13782614D01*
X11486061Y-13996900D01*
X11586061Y-13782614D01*
X11586061Y-14082614D01*
X11857490Y-14082614D02*
X11857490Y-13925471D01*
X11843204Y-13896900D01*
X11814632Y-13882614D01*
X11757490Y-13882614D01*
X11728918Y-13896900D01*
X11857490Y-14068329D02*
X11828918Y-14082614D01*
X11757490Y-14082614D01*
X11728918Y-14068329D01*
X11714632Y-14039757D01*
X11714632Y-14011186D01*
X11728918Y-13982614D01*
X11757490Y-13968329D01*
X11828918Y-13968329D01*
X11857490Y-13954043D01*
X12000347Y-13882614D02*
X12000347Y-14182614D01*
X12000347Y-13896900D02*
X12028918Y-13882614D01*
X12086061Y-13882614D01*
X12114632Y-13896900D01*
X12128918Y-13911186D01*
X12143204Y-13939757D01*
X12143204Y-14025471D01*
X12128918Y-14054043D01*
X12114632Y-14068329D01*
X12086061Y-14082614D01*
X12028918Y-14082614D01*
X12000347Y-14068329D01*
X12271775Y-14054043D02*
X12286061Y-14068329D01*
X12271775Y-14082614D01*
X12257490Y-14068329D01*
X12271775Y-14054043D01*
X12271775Y-14082614D01*
X12271775Y-13896900D02*
X12286061Y-13911186D01*
X12271775Y-13925471D01*
X12257490Y-13911186D01*
X12271775Y-13896900D01*
X12271775Y-13925471D01*
X9908204Y-14566900D02*
X9928204Y-14586900D01*
X9928204Y-14566900D02*
X9908204Y-14586900D01*
X10271775Y-14412614D02*
X10300347Y-14412614D01*
X10328918Y-14426900D01*
X10343204Y-14441186D01*
X10357490Y-14469757D01*
X10371775Y-14526900D01*
X10371775Y-14598329D01*
X10357490Y-14655471D01*
X10343204Y-14684043D01*
X10328918Y-14698329D01*
X10300347Y-14712614D01*
X10271775Y-14712614D01*
X10243204Y-14698329D01*
X10228918Y-14684043D01*
X10214633Y-14655471D01*
X10200347Y-14598329D01*
X10200347Y-14526900D01*
X10214633Y-14469757D01*
X10228918Y-14441186D01*
X10243204Y-14426900D01*
X10271775Y-14412614D01*
X10500347Y-14684043D02*
X10514633Y-14698329D01*
X10500347Y-14712614D01*
X10486061Y-14698329D01*
X10500347Y-14684043D01*
X10500347Y-14712614D01*
X10628918Y-14441186D02*
X10643204Y-14426900D01*
X10671775Y-14412614D01*
X10743204Y-14412614D01*
X10771775Y-14426900D01*
X10786061Y-14441186D01*
X10800347Y-14469757D01*
X10800347Y-14498329D01*
X10786061Y-14541186D01*
X10614633Y-14712614D01*
X10800347Y-14712614D01*
X10986061Y-14412614D02*
X11014633Y-14412614D01*
X11043204Y-14426900D01*
X11057490Y-14441186D01*
X11071775Y-14469757D01*
X11086061Y-14526900D01*
X11086061Y-14598329D01*
X11071775Y-14655471D01*
X11057490Y-14684043D01*
X11043204Y-14698329D01*
X11014633Y-14712614D01*
X10986061Y-14712614D01*
X10957490Y-14698329D01*
X10943204Y-14684043D01*
X10928918Y-14655471D01*
X10914633Y-14598329D01*
X10914633Y-14526900D01*
X10928918Y-14469757D01*
X10943204Y-14441186D01*
X10957490Y-14426900D01*
X10986061Y-14412614D01*
X11271775Y-14412614D02*
X11300347Y-14412614D01*
X11328918Y-14426900D01*
X11343204Y-14441186D01*
X11357490Y-14469757D01*
X11371775Y-14526900D01*
X11371775Y-14598329D01*
X11357490Y-14655471D01*
X11343204Y-14684043D01*
X11328918Y-14698329D01*
X11300347Y-14712614D01*
X11271775Y-14712614D01*
X11243204Y-14698329D01*
X11228918Y-14684043D01*
X11214632Y-14655471D01*
X11200347Y-14598329D01*
X11200347Y-14526900D01*
X11214632Y-14469757D01*
X11228918Y-14441186D01*
X11243204Y-14426900D01*
X11271775Y-14412614D01*
X11500347Y-14712614D02*
X11500347Y-14512614D01*
X11500347Y-14541186D02*
X11514632Y-14526900D01*
X11543204Y-14512614D01*
X11586061Y-14512614D01*
X11614632Y-14526900D01*
X11628918Y-14555471D01*
X11628918Y-14712614D01*
X11628918Y-14555471D02*
X11643204Y-14526900D01*
X11671775Y-14512614D01*
X11714632Y-14512614D01*
X11743204Y-14526900D01*
X11757490Y-14555471D01*
X11757490Y-14712614D01*
X11900347Y-14712614D02*
X11900347Y-14512614D01*
X11900347Y-14541186D02*
X11914632Y-14526900D01*
X11943204Y-14512614D01*
X11986061Y-14512614D01*
X12014632Y-14526900D01*
X12028918Y-14555471D01*
X12028918Y-14712614D01*
X12028918Y-14555471D02*
X12043204Y-14526900D01*
X12071775Y-14512614D01*
X12114632Y-14512614D01*
X12143204Y-14526900D01*
X12157490Y-14555471D01*
X12157490Y-14712614D01*
X12743204Y-14398329D02*
X12486061Y-14784043D01*
X13128918Y-14412614D02*
X13157490Y-14412614D01*
X13186061Y-14426900D01*
X13200347Y-14441186D01*
X13214632Y-14469757D01*
X13228918Y-14526900D01*
X13228918Y-14598329D01*
X13214632Y-14655471D01*
X13200347Y-14684043D01*
X13186061Y-14698329D01*
X13157490Y-14712614D01*
X13128918Y-14712614D01*
X13100347Y-14698329D01*
X13086061Y-14684043D01*
X13071775Y-14655471D01*
X13057490Y-14598329D01*
X13057490Y-14526900D01*
X13071775Y-14469757D01*
X13086061Y-14441186D01*
X13100347Y-14426900D01*
X13128918Y-14412614D01*
X13357490Y-14684043D02*
X13371775Y-14698329D01*
X13357490Y-14712614D01*
X13343204Y-14698329D01*
X13357490Y-14684043D01*
X13357490Y-14712614D01*
X13557490Y-14412614D02*
X13586061Y-14412614D01*
X13614632Y-14426900D01*
X13628918Y-14441186D01*
X13643204Y-14469757D01*
X13657490Y-14526900D01*
X13657490Y-14598329D01*
X13643204Y-14655471D01*
X13628918Y-14684043D01*
X13614632Y-14698329D01*
X13586061Y-14712614D01*
X13557490Y-14712614D01*
X13528918Y-14698329D01*
X13514632Y-14684043D01*
X13500347Y-14655471D01*
X13486061Y-14598329D01*
X13486061Y-14526900D01*
X13500347Y-14469757D01*
X13514632Y-14441186D01*
X13528918Y-14426900D01*
X13557490Y-14412614D01*
X13843204Y-14412614D02*
X13871775Y-14412614D01*
X13900347Y-14426900D01*
X13914632Y-14441186D01*
X13928918Y-14469757D01*
X13943204Y-14526900D01*
X13943204Y-14598329D01*
X13928918Y-14655471D01*
X13914632Y-14684043D01*
X13900347Y-14698329D01*
X13871775Y-14712614D01*
X13843204Y-14712614D01*
X13814632Y-14698329D01*
X13800347Y-14684043D01*
X13786061Y-14655471D01*
X13771775Y-14598329D01*
X13771775Y-14526900D01*
X13786061Y-14469757D01*
X13800347Y-14441186D01*
X13814632Y-14426900D01*
X13843204Y-14412614D01*
X14043204Y-14412614D02*
X14243204Y-14412614D01*
X14114632Y-14712614D01*
X14371775Y-14712614D02*
X14428918Y-14712614D01*
X14457490Y-14698329D01*
X14471775Y-14684043D01*
X14500347Y-14641186D01*
X14514632Y-14584043D01*
X14514632Y-14469757D01*
X14500347Y-14441186D01*
X14486061Y-14426900D01*
X14457490Y-14412614D01*
X14400347Y-14412614D01*
X14371775Y-14426900D01*
X14357490Y-14441186D01*
X14343204Y-14469757D01*
X14343204Y-14541186D01*
X14357490Y-14569757D01*
X14371775Y-14584043D01*
X14400347Y-14598329D01*
X14457490Y-14598329D01*
X14486061Y-14584043D01*
X14500347Y-14569757D01*
X14514632Y-14541186D01*
X14628918Y-14412614D02*
X14628918Y-14469757D01*
X14743204Y-14412614D02*
X14743204Y-14469757D01*
X15186061Y-14826900D02*
X15171775Y-14812614D01*
X15143204Y-14769757D01*
X15128918Y-14741186D01*
X15114632Y-14698329D01*
X15100347Y-14626900D01*
X15100347Y-14569757D01*
X15114632Y-14498329D01*
X15128918Y-14455471D01*
X15143204Y-14426900D01*
X15171775Y-14384043D01*
X15186061Y-14369757D01*
X15271775Y-14412614D02*
X15457490Y-14412614D01*
X15357490Y-14526900D01*
X15400347Y-14526900D01*
X15428918Y-14541186D01*
X15443204Y-14555471D01*
X15457490Y-14584043D01*
X15457490Y-14655471D01*
X15443204Y-14684043D01*
X15428918Y-14698329D01*
X15400347Y-14712614D01*
X15314632Y-14712614D01*
X15286061Y-14698329D01*
X15271775Y-14684043D01*
X15728918Y-14412614D02*
X15586061Y-14412614D01*
X15571775Y-14555471D01*
X15586061Y-14541186D01*
X15614632Y-14526900D01*
X15686061Y-14526900D01*
X15714632Y-14541186D01*
X15728918Y-14555471D01*
X15743204Y-14584043D01*
X15743204Y-14655471D01*
X15728918Y-14684043D01*
X15714632Y-14698329D01*
X15686061Y-14712614D01*
X15614632Y-14712614D01*
X15586061Y-14698329D01*
X15571775Y-14684043D01*
X15857490Y-14441186D02*
X15871775Y-14426900D01*
X15900347Y-14412614D01*
X15971775Y-14412614D01*
X16000347Y-14426900D01*
X16014632Y-14441186D01*
X16028918Y-14469757D01*
X16028918Y-14498329D01*
X16014632Y-14541186D01*
X15843204Y-14712614D01*
X16028918Y-14712614D01*
X16386061Y-14712614D02*
X16386061Y-14412614D01*
X16514632Y-14712614D02*
X16514632Y-14555471D01*
X16500347Y-14526900D01*
X16471775Y-14512614D01*
X16428918Y-14512614D01*
X16400347Y-14526900D01*
X16386061Y-14541186D01*
X16700347Y-14712614D02*
X16671775Y-14698329D01*
X16657490Y-14684043D01*
X16643204Y-14655471D01*
X16643204Y-14569757D01*
X16657490Y-14541186D01*
X16671775Y-14526900D01*
X16700347Y-14512614D01*
X16743204Y-14512614D01*
X16771775Y-14526900D01*
X16786061Y-14541186D01*
X16800347Y-14569757D01*
X16800347Y-14655471D01*
X16786061Y-14684043D01*
X16771775Y-14698329D01*
X16743204Y-14712614D01*
X16700347Y-14712614D01*
X16971775Y-14712614D02*
X16943204Y-14698329D01*
X16928918Y-14669757D01*
X16928918Y-14412614D01*
X17200347Y-14698329D02*
X17171775Y-14712614D01*
X17114633Y-14712614D01*
X17086061Y-14698329D01*
X17071775Y-14669757D01*
X17071775Y-14555471D01*
X17086061Y-14526900D01*
X17114633Y-14512614D01*
X17171775Y-14512614D01*
X17200347Y-14526900D01*
X17214633Y-14555471D01*
X17214633Y-14584043D01*
X17071775Y-14612614D01*
X17328918Y-14698329D02*
X17357490Y-14712614D01*
X17414633Y-14712614D01*
X17443204Y-14698329D01*
X17457490Y-14669757D01*
X17457490Y-14655471D01*
X17443204Y-14626900D01*
X17414633Y-14612614D01*
X17371775Y-14612614D01*
X17343204Y-14598329D01*
X17328918Y-14569757D01*
X17328918Y-14555471D01*
X17343204Y-14526900D01*
X17371775Y-14512614D01*
X17414633Y-14512614D01*
X17443204Y-14526900D01*
X17557490Y-14826900D02*
X17571775Y-14812614D01*
X17600347Y-14769757D01*
X17614633Y-14741186D01*
X17628918Y-14698329D01*
X17643204Y-14626900D01*
X17643204Y-14569757D01*
X17628918Y-14498329D01*
X17614633Y-14455471D01*
X17600347Y-14426900D01*
X17571775Y-14384043D01*
X17557490Y-14369757D01*
X9928204Y-14972900D02*
G75*
G03*
X9928204Y-14972900I-15000J0D01*
G01*
X10271775Y-14808614D02*
X10300347Y-14808614D01*
X10328918Y-14822900D01*
X10343204Y-14837186D01*
X10357490Y-14865757D01*
X10371775Y-14922900D01*
X10371775Y-14994329D01*
X10357490Y-15051471D01*
X10343204Y-15080043D01*
X10328918Y-15094329D01*
X10300347Y-15108614D01*
X10271775Y-15108614D01*
X10243204Y-15094329D01*
X10228918Y-15080043D01*
X10214633Y-15051471D01*
X10200347Y-14994329D01*
X10200347Y-14922900D01*
X10214633Y-14865757D01*
X10228918Y-14837186D01*
X10243204Y-14822900D01*
X10271775Y-14808614D01*
X10500347Y-15080043D02*
X10514633Y-15094329D01*
X10500347Y-15108614D01*
X10486061Y-15094329D01*
X10500347Y-15080043D01*
X10500347Y-15108614D01*
X10614633Y-14808614D02*
X10800347Y-14808614D01*
X10700347Y-14922900D01*
X10743204Y-14922900D01*
X10771775Y-14937186D01*
X10786061Y-14951471D01*
X10800347Y-14980043D01*
X10800347Y-15051471D01*
X10786061Y-15080043D01*
X10771775Y-15094329D01*
X10743204Y-15108614D01*
X10657490Y-15108614D01*
X10628918Y-15094329D01*
X10614633Y-15080043D01*
X10986061Y-14808614D02*
X11014633Y-14808614D01*
X11043204Y-14822900D01*
X11057490Y-14837186D01*
X11071775Y-14865757D01*
X11086061Y-14922900D01*
X11086061Y-14994329D01*
X11071775Y-15051471D01*
X11057490Y-15080043D01*
X11043204Y-15094329D01*
X11014633Y-15108614D01*
X10986061Y-15108614D01*
X10957490Y-15094329D01*
X10943204Y-15080043D01*
X10928918Y-15051471D01*
X10914633Y-14994329D01*
X10914633Y-14922900D01*
X10928918Y-14865757D01*
X10943204Y-14837186D01*
X10957490Y-14822900D01*
X10986061Y-14808614D01*
X11271775Y-14808614D02*
X11300347Y-14808614D01*
X11328918Y-14822900D01*
X11343204Y-14837186D01*
X11357490Y-14865757D01*
X11371775Y-14922900D01*
X11371775Y-14994329D01*
X11357490Y-15051471D01*
X11343204Y-15080043D01*
X11328918Y-15094329D01*
X11300347Y-15108614D01*
X11271775Y-15108614D01*
X11243204Y-15094329D01*
X11228918Y-15080043D01*
X11214632Y-15051471D01*
X11200347Y-14994329D01*
X11200347Y-14922900D01*
X11214632Y-14865757D01*
X11228918Y-14837186D01*
X11243204Y-14822900D01*
X11271775Y-14808614D01*
X11500347Y-15108614D02*
X11500347Y-14908614D01*
X11500347Y-14937186D02*
X11514632Y-14922900D01*
X11543204Y-14908614D01*
X11586061Y-14908614D01*
X11614632Y-14922900D01*
X11628918Y-14951471D01*
X11628918Y-15108614D01*
X11628918Y-14951471D02*
X11643204Y-14922900D01*
X11671775Y-14908614D01*
X11714632Y-14908614D01*
X11743204Y-14922900D01*
X11757490Y-14951471D01*
X11757490Y-15108614D01*
X11900347Y-15108614D02*
X11900347Y-14908614D01*
X11900347Y-14937186D02*
X11914632Y-14922900D01*
X11943204Y-14908614D01*
X11986061Y-14908614D01*
X12014632Y-14922900D01*
X12028918Y-14951471D01*
X12028918Y-15108614D01*
X12028918Y-14951471D02*
X12043204Y-14922900D01*
X12071775Y-14908614D01*
X12114632Y-14908614D01*
X12143204Y-14922900D01*
X12157490Y-14951471D01*
X12157490Y-15108614D01*
X12743204Y-14794329D02*
X12486061Y-15180043D01*
X13128918Y-14808614D02*
X13157490Y-14808614D01*
X13186061Y-14822900D01*
X13200347Y-14837186D01*
X13214632Y-14865757D01*
X13228918Y-14922900D01*
X13228918Y-14994329D01*
X13214632Y-15051471D01*
X13200347Y-15080043D01*
X13186061Y-15094329D01*
X13157490Y-15108614D01*
X13128918Y-15108614D01*
X13100347Y-15094329D01*
X13086061Y-15080043D01*
X13071775Y-15051471D01*
X13057490Y-14994329D01*
X13057490Y-14922900D01*
X13071775Y-14865757D01*
X13086061Y-14837186D01*
X13100347Y-14822900D01*
X13128918Y-14808614D01*
X13357490Y-15080043D02*
X13371775Y-15094329D01*
X13357490Y-15108614D01*
X13343204Y-15094329D01*
X13357490Y-15080043D01*
X13357490Y-15108614D01*
X13557490Y-14808614D02*
X13586061Y-14808614D01*
X13614632Y-14822900D01*
X13628918Y-14837186D01*
X13643204Y-14865757D01*
X13657490Y-14922900D01*
X13657490Y-14994329D01*
X13643204Y-15051471D01*
X13628918Y-15080043D01*
X13614632Y-15094329D01*
X13586061Y-15108614D01*
X13557490Y-15108614D01*
X13528918Y-15094329D01*
X13514632Y-15080043D01*
X13500347Y-15051471D01*
X13486061Y-14994329D01*
X13486061Y-14922900D01*
X13500347Y-14865757D01*
X13514632Y-14837186D01*
X13528918Y-14822900D01*
X13557490Y-14808614D01*
X13943204Y-15108614D02*
X13771775Y-15108614D01*
X13857490Y-15108614D02*
X13857490Y-14808614D01*
X13828918Y-14851471D01*
X13800347Y-14880043D01*
X13771775Y-14894329D01*
X14228918Y-15108614D02*
X14057490Y-15108614D01*
X14143204Y-15108614D02*
X14143204Y-14808614D01*
X14114632Y-14851471D01*
X14086061Y-14880043D01*
X14057490Y-14894329D01*
X14400347Y-14937186D02*
X14371775Y-14922900D01*
X14357490Y-14908614D01*
X14343204Y-14880043D01*
X14343204Y-14865757D01*
X14357490Y-14837186D01*
X14371775Y-14822900D01*
X14400347Y-14808614D01*
X14457490Y-14808614D01*
X14486061Y-14822900D01*
X14500347Y-14837186D01*
X14514632Y-14865757D01*
X14514632Y-14880043D01*
X14500347Y-14908614D01*
X14486061Y-14922900D01*
X14457490Y-14937186D01*
X14400347Y-14937186D01*
X14371775Y-14951471D01*
X14357490Y-14965757D01*
X14343204Y-14994329D01*
X14343204Y-15051471D01*
X14357490Y-15080043D01*
X14371775Y-15094329D01*
X14400347Y-15108614D01*
X14457490Y-15108614D01*
X14486061Y-15094329D01*
X14500347Y-15080043D01*
X14514632Y-15051471D01*
X14514632Y-14994329D01*
X14500347Y-14965757D01*
X14486061Y-14951471D01*
X14457490Y-14937186D01*
X14628918Y-14808614D02*
X14628918Y-14865757D01*
X14743204Y-14808614D02*
X14743204Y-14865757D01*
X15186061Y-15222900D02*
X15171775Y-15208614D01*
X15143204Y-15165757D01*
X15128918Y-15137186D01*
X15114632Y-15094329D01*
X15100347Y-15022900D01*
X15100347Y-14965757D01*
X15114632Y-14894329D01*
X15128918Y-14851471D01*
X15143204Y-14822900D01*
X15171775Y-14780043D01*
X15186061Y-14765757D01*
X15428918Y-14808614D02*
X15371775Y-14808614D01*
X15343204Y-14822900D01*
X15328918Y-14837186D01*
X15300347Y-14880043D01*
X15286061Y-14937186D01*
X15286061Y-15051471D01*
X15300347Y-15080043D01*
X15314632Y-15094329D01*
X15343204Y-15108614D01*
X15400347Y-15108614D01*
X15428918Y-15094329D01*
X15443204Y-15080043D01*
X15457490Y-15051471D01*
X15457490Y-14980043D01*
X15443204Y-14951471D01*
X15428918Y-14937186D01*
X15400347Y-14922900D01*
X15343204Y-14922900D01*
X15314632Y-14937186D01*
X15300347Y-14951471D01*
X15286061Y-14980043D01*
X15814632Y-15108614D02*
X15814632Y-14808614D01*
X15943204Y-15108614D02*
X15943204Y-14951471D01*
X15928918Y-14922900D01*
X15900347Y-14908614D01*
X15857490Y-14908614D01*
X15828918Y-14922900D01*
X15814632Y-14937186D01*
X16128918Y-15108614D02*
X16100347Y-15094329D01*
X16086061Y-15080043D01*
X16071775Y-15051471D01*
X16071775Y-14965757D01*
X16086061Y-14937186D01*
X16100347Y-14922900D01*
X16128918Y-14908614D01*
X16171775Y-14908614D01*
X16200347Y-14922900D01*
X16214632Y-14937186D01*
X16228918Y-14965757D01*
X16228918Y-15051471D01*
X16214632Y-15080043D01*
X16200347Y-15094329D01*
X16171775Y-15108614D01*
X16128918Y-15108614D01*
X16400347Y-15108614D02*
X16371775Y-15094329D01*
X16357490Y-15065757D01*
X16357490Y-14808614D01*
X16628918Y-15094329D02*
X16600347Y-15108614D01*
X16543204Y-15108614D01*
X16514632Y-15094329D01*
X16500347Y-15065757D01*
X16500347Y-14951471D01*
X16514632Y-14922900D01*
X16543204Y-14908614D01*
X16600347Y-14908614D01*
X16628918Y-14922900D01*
X16643204Y-14951471D01*
X16643204Y-14980043D01*
X16500347Y-15008614D01*
X16757490Y-15094329D02*
X16786061Y-15108614D01*
X16843204Y-15108614D01*
X16871775Y-15094329D01*
X16886061Y-15065757D01*
X16886061Y-15051471D01*
X16871775Y-15022900D01*
X16843204Y-15008614D01*
X16800347Y-15008614D01*
X16771775Y-14994329D01*
X16757490Y-14965757D01*
X16757490Y-14951471D01*
X16771775Y-14922900D01*
X16800347Y-14908614D01*
X16843204Y-14908614D01*
X16871775Y-14922900D01*
X16986061Y-15222900D02*
X17000347Y-15208614D01*
X17028918Y-15165757D01*
X17043204Y-15137186D01*
X17057490Y-15094329D01*
X17071775Y-15022900D01*
X17071775Y-14965757D01*
X17057490Y-14894329D01*
X17043204Y-14851471D01*
X17028918Y-14822900D01*
X17000347Y-14780043D01*
X16986061Y-14765757D01*
X9910704Y-15351400D02*
X9910704Y-15386400D01*
X9893204Y-15368900D02*
X9928204Y-15368900D01*
X10271775Y-15204614D02*
X10300347Y-15204614D01*
X10328918Y-15218900D01*
X10343204Y-15233186D01*
X10357490Y-15261757D01*
X10371775Y-15318900D01*
X10371775Y-15390329D01*
X10357490Y-15447471D01*
X10343204Y-15476043D01*
X10328918Y-15490329D01*
X10300347Y-15504614D01*
X10271775Y-15504614D01*
X10243204Y-15490329D01*
X10228918Y-15476043D01*
X10214633Y-15447471D01*
X10200347Y-15390329D01*
X10200347Y-15318900D01*
X10214633Y-15261757D01*
X10228918Y-15233186D01*
X10243204Y-15218900D01*
X10271775Y-15204614D01*
X10500347Y-15476043D02*
X10514633Y-15490329D01*
X10500347Y-15504614D01*
X10486061Y-15490329D01*
X10500347Y-15476043D01*
X10500347Y-15504614D01*
X10614633Y-15204614D02*
X10800347Y-15204614D01*
X10700347Y-15318900D01*
X10743204Y-15318900D01*
X10771775Y-15333186D01*
X10786061Y-15347471D01*
X10800347Y-15376043D01*
X10800347Y-15447471D01*
X10786061Y-15476043D01*
X10771775Y-15490329D01*
X10743204Y-15504614D01*
X10657490Y-15504614D01*
X10628918Y-15490329D01*
X10614633Y-15476043D01*
X11071775Y-15204614D02*
X10928918Y-15204614D01*
X10914633Y-15347471D01*
X10928918Y-15333186D01*
X10957490Y-15318900D01*
X11028918Y-15318900D01*
X11057490Y-15333186D01*
X11071775Y-15347471D01*
X11086061Y-15376043D01*
X11086061Y-15447471D01*
X11071775Y-15476043D01*
X11057490Y-15490329D01*
X11028918Y-15504614D01*
X10957490Y-15504614D01*
X10928918Y-15490329D01*
X10914633Y-15476043D01*
X11271775Y-15204614D02*
X11300347Y-15204614D01*
X11328918Y-15218900D01*
X11343204Y-15233186D01*
X11357490Y-15261757D01*
X11371775Y-15318900D01*
X11371775Y-15390329D01*
X11357490Y-15447471D01*
X11343204Y-15476043D01*
X11328918Y-15490329D01*
X11300347Y-15504614D01*
X11271775Y-15504614D01*
X11243204Y-15490329D01*
X11228918Y-15476043D01*
X11214632Y-15447471D01*
X11200347Y-15390329D01*
X11200347Y-15318900D01*
X11214632Y-15261757D01*
X11228918Y-15233186D01*
X11243204Y-15218900D01*
X11271775Y-15204614D01*
X11500347Y-15504614D02*
X11500347Y-15304614D01*
X11500347Y-15333186D02*
X11514632Y-15318900D01*
X11543204Y-15304614D01*
X11586061Y-15304614D01*
X11614632Y-15318900D01*
X11628918Y-15347471D01*
X11628918Y-15504614D01*
X11628918Y-15347471D02*
X11643204Y-15318900D01*
X11671775Y-15304614D01*
X11714632Y-15304614D01*
X11743204Y-15318900D01*
X11757490Y-15347471D01*
X11757490Y-15504614D01*
X11900347Y-15504614D02*
X11900347Y-15304614D01*
X11900347Y-15333186D02*
X11914632Y-15318900D01*
X11943204Y-15304614D01*
X11986061Y-15304614D01*
X12014632Y-15318900D01*
X12028918Y-15347471D01*
X12028918Y-15504614D01*
X12028918Y-15347471D02*
X12043204Y-15318900D01*
X12071775Y-15304614D01*
X12114632Y-15304614D01*
X12143204Y-15318900D01*
X12157490Y-15347471D01*
X12157490Y-15504614D01*
X12743204Y-15190329D02*
X12486061Y-15576043D01*
X13128918Y-15204614D02*
X13157490Y-15204614D01*
X13186061Y-15218900D01*
X13200347Y-15233186D01*
X13214632Y-15261757D01*
X13228918Y-15318900D01*
X13228918Y-15390329D01*
X13214632Y-15447471D01*
X13200347Y-15476043D01*
X13186061Y-15490329D01*
X13157490Y-15504614D01*
X13128918Y-15504614D01*
X13100347Y-15490329D01*
X13086061Y-15476043D01*
X13071775Y-15447471D01*
X13057490Y-15390329D01*
X13057490Y-15318900D01*
X13071775Y-15261757D01*
X13086061Y-15233186D01*
X13100347Y-15218900D01*
X13128918Y-15204614D01*
X13357490Y-15476043D02*
X13371775Y-15490329D01*
X13357490Y-15504614D01*
X13343204Y-15490329D01*
X13357490Y-15476043D01*
X13357490Y-15504614D01*
X13557490Y-15204614D02*
X13586061Y-15204614D01*
X13614632Y-15218900D01*
X13628918Y-15233186D01*
X13643204Y-15261757D01*
X13657490Y-15318900D01*
X13657490Y-15390329D01*
X13643204Y-15447471D01*
X13628918Y-15476043D01*
X13614632Y-15490329D01*
X13586061Y-15504614D01*
X13557490Y-15504614D01*
X13528918Y-15490329D01*
X13514632Y-15476043D01*
X13500347Y-15447471D01*
X13486061Y-15390329D01*
X13486061Y-15318900D01*
X13500347Y-15261757D01*
X13514632Y-15233186D01*
X13528918Y-15218900D01*
X13557490Y-15204614D01*
X13943204Y-15504614D02*
X13771775Y-15504614D01*
X13857490Y-15504614D02*
X13857490Y-15204614D01*
X13828918Y-15247471D01*
X13800347Y-15276043D01*
X13771775Y-15290329D01*
X14043204Y-15204614D02*
X14228918Y-15204614D01*
X14128918Y-15318900D01*
X14171775Y-15318900D01*
X14200347Y-15333186D01*
X14214632Y-15347471D01*
X14228918Y-15376043D01*
X14228918Y-15447471D01*
X14214632Y-15476043D01*
X14200347Y-15490329D01*
X14171775Y-15504614D01*
X14086061Y-15504614D01*
X14057490Y-15490329D01*
X14043204Y-15476043D01*
X14400347Y-15333186D02*
X14371775Y-15318900D01*
X14357490Y-15304614D01*
X14343204Y-15276043D01*
X14343204Y-15261757D01*
X14357490Y-15233186D01*
X14371775Y-15218900D01*
X14400347Y-15204614D01*
X14457490Y-15204614D01*
X14486061Y-15218900D01*
X14500347Y-15233186D01*
X14514632Y-15261757D01*
X14514632Y-15276043D01*
X14500347Y-15304614D01*
X14486061Y-15318900D01*
X14457490Y-15333186D01*
X14400347Y-15333186D01*
X14371775Y-15347471D01*
X14357490Y-15361757D01*
X14343204Y-15390329D01*
X14343204Y-15447471D01*
X14357490Y-15476043D01*
X14371775Y-15490329D01*
X14400347Y-15504614D01*
X14457490Y-15504614D01*
X14486061Y-15490329D01*
X14500347Y-15476043D01*
X14514632Y-15447471D01*
X14514632Y-15390329D01*
X14500347Y-15361757D01*
X14486061Y-15347471D01*
X14457490Y-15333186D01*
X14628918Y-15204614D02*
X14628918Y-15261757D01*
X14743204Y-15204614D02*
X14743204Y-15261757D01*
X15186061Y-15618900D02*
X15171775Y-15604614D01*
X15143204Y-15561757D01*
X15128918Y-15533186D01*
X15114632Y-15490329D01*
X15100347Y-15418900D01*
X15100347Y-15361757D01*
X15114632Y-15290329D01*
X15128918Y-15247471D01*
X15143204Y-15218900D01*
X15171775Y-15176043D01*
X15186061Y-15161757D01*
X15457490Y-15504614D02*
X15286061Y-15504614D01*
X15371775Y-15504614D02*
X15371775Y-15204614D01*
X15343204Y-15247471D01*
X15314632Y-15276043D01*
X15286061Y-15290329D01*
X15814632Y-15504614D02*
X15814632Y-15204614D01*
X15943204Y-15504614D02*
X15943204Y-15347471D01*
X15928918Y-15318900D01*
X15900347Y-15304614D01*
X15857490Y-15304614D01*
X15828918Y-15318900D01*
X15814632Y-15333186D01*
X16128918Y-15504614D02*
X16100347Y-15490329D01*
X16086061Y-15476043D01*
X16071775Y-15447471D01*
X16071775Y-15361757D01*
X16086061Y-15333186D01*
X16100347Y-15318900D01*
X16128918Y-15304614D01*
X16171775Y-15304614D01*
X16200347Y-15318900D01*
X16214632Y-15333186D01*
X16228918Y-15361757D01*
X16228918Y-15447471D01*
X16214632Y-15476043D01*
X16200347Y-15490329D01*
X16171775Y-15504614D01*
X16128918Y-15504614D01*
X16400347Y-15504614D02*
X16371775Y-15490329D01*
X16357490Y-15461757D01*
X16357490Y-15204614D01*
X16628918Y-15490329D02*
X16600347Y-15504614D01*
X16543204Y-15504614D01*
X16514632Y-15490329D01*
X16500347Y-15461757D01*
X16500347Y-15347471D01*
X16514632Y-15318900D01*
X16543204Y-15304614D01*
X16600347Y-15304614D01*
X16628918Y-15318900D01*
X16643204Y-15347471D01*
X16643204Y-15376043D01*
X16500347Y-15404614D01*
X16743204Y-15618900D02*
X16757490Y-15604614D01*
X16786061Y-15561757D01*
X16800347Y-15533186D01*
X16814633Y-15490329D01*
X16828918Y-15418900D01*
X16828918Y-15361757D01*
X16814633Y-15290329D01*
X16800347Y-15247471D01*
X16786061Y-15218900D01*
X16757490Y-15176043D01*
X16743204Y-15161757D01*
X9922346Y-15779042D02*
X9922346Y-15750758D01*
X9894062Y-15750758D01*
X9894062Y-15779042D01*
X9922346Y-15779042D01*
X10271775Y-15600614D02*
X10300347Y-15600614D01*
X10328918Y-15614900D01*
X10343204Y-15629186D01*
X10357490Y-15657757D01*
X10371775Y-15714900D01*
X10371775Y-15786329D01*
X10357490Y-15843471D01*
X10343204Y-15872043D01*
X10328918Y-15886329D01*
X10300347Y-15900614D01*
X10271775Y-15900614D01*
X10243204Y-15886329D01*
X10228918Y-15872043D01*
X10214633Y-15843471D01*
X10200347Y-15786329D01*
X10200347Y-15714900D01*
X10214633Y-15657757D01*
X10228918Y-15629186D01*
X10243204Y-15614900D01*
X10271775Y-15600614D01*
X10500347Y-15872043D02*
X10514633Y-15886329D01*
X10500347Y-15900614D01*
X10486061Y-15886329D01*
X10500347Y-15872043D01*
X10500347Y-15900614D01*
X10771775Y-15700614D02*
X10771775Y-15900614D01*
X10700347Y-15586329D02*
X10628918Y-15800614D01*
X10814633Y-15800614D01*
X10986061Y-15600614D02*
X11014633Y-15600614D01*
X11043204Y-15614900D01*
X11057490Y-15629186D01*
X11071775Y-15657757D01*
X11086061Y-15714900D01*
X11086061Y-15786329D01*
X11071775Y-15843471D01*
X11057490Y-15872043D01*
X11043204Y-15886329D01*
X11014633Y-15900614D01*
X10986061Y-15900614D01*
X10957490Y-15886329D01*
X10943204Y-15872043D01*
X10928918Y-15843471D01*
X10914633Y-15786329D01*
X10914633Y-15714900D01*
X10928918Y-15657757D01*
X10943204Y-15629186D01*
X10957490Y-15614900D01*
X10986061Y-15600614D01*
X11271775Y-15600614D02*
X11300347Y-15600614D01*
X11328918Y-15614900D01*
X11343204Y-15629186D01*
X11357490Y-15657757D01*
X11371775Y-15714900D01*
X11371775Y-15786329D01*
X11357490Y-15843471D01*
X11343204Y-15872043D01*
X11328918Y-15886329D01*
X11300347Y-15900614D01*
X11271775Y-15900614D01*
X11243204Y-15886329D01*
X11228918Y-15872043D01*
X11214632Y-15843471D01*
X11200347Y-15786329D01*
X11200347Y-15714900D01*
X11214632Y-15657757D01*
X11228918Y-15629186D01*
X11243204Y-15614900D01*
X11271775Y-15600614D01*
X11500347Y-15900614D02*
X11500347Y-15700614D01*
X11500347Y-15729186D02*
X11514632Y-15714900D01*
X11543204Y-15700614D01*
X11586061Y-15700614D01*
X11614632Y-15714900D01*
X11628918Y-15743471D01*
X11628918Y-15900614D01*
X11628918Y-15743471D02*
X11643204Y-15714900D01*
X11671775Y-15700614D01*
X11714632Y-15700614D01*
X11743204Y-15714900D01*
X11757490Y-15743471D01*
X11757490Y-15900614D01*
X11900347Y-15900614D02*
X11900347Y-15700614D01*
X11900347Y-15729186D02*
X11914632Y-15714900D01*
X11943204Y-15700614D01*
X11986061Y-15700614D01*
X12014632Y-15714900D01*
X12028918Y-15743471D01*
X12028918Y-15900614D01*
X12028918Y-15743471D02*
X12043204Y-15714900D01*
X12071775Y-15700614D01*
X12114632Y-15700614D01*
X12143204Y-15714900D01*
X12157490Y-15743471D01*
X12157490Y-15900614D01*
X12743204Y-15586329D02*
X12486061Y-15972043D01*
X13128918Y-15600614D02*
X13157490Y-15600614D01*
X13186061Y-15614900D01*
X13200347Y-15629186D01*
X13214632Y-15657757D01*
X13228918Y-15714900D01*
X13228918Y-15786329D01*
X13214632Y-15843471D01*
X13200347Y-15872043D01*
X13186061Y-15886329D01*
X13157490Y-15900614D01*
X13128918Y-15900614D01*
X13100347Y-15886329D01*
X13086061Y-15872043D01*
X13071775Y-15843471D01*
X13057490Y-15786329D01*
X13057490Y-15714900D01*
X13071775Y-15657757D01*
X13086061Y-15629186D01*
X13100347Y-15614900D01*
X13128918Y-15600614D01*
X13357490Y-15872043D02*
X13371775Y-15886329D01*
X13357490Y-15900614D01*
X13343204Y-15886329D01*
X13357490Y-15872043D01*
X13357490Y-15900614D01*
X13557490Y-15600614D02*
X13586061Y-15600614D01*
X13614632Y-15614900D01*
X13628918Y-15629186D01*
X13643204Y-15657757D01*
X13657490Y-15714900D01*
X13657490Y-15786329D01*
X13643204Y-15843471D01*
X13628918Y-15872043D01*
X13614632Y-15886329D01*
X13586061Y-15900614D01*
X13557490Y-15900614D01*
X13528918Y-15886329D01*
X13514632Y-15872043D01*
X13500347Y-15843471D01*
X13486061Y-15786329D01*
X13486061Y-15714900D01*
X13500347Y-15657757D01*
X13514632Y-15629186D01*
X13528918Y-15614900D01*
X13557490Y-15600614D01*
X13943204Y-15900614D02*
X13771775Y-15900614D01*
X13857490Y-15900614D02*
X13857490Y-15600614D01*
X13828918Y-15643471D01*
X13800347Y-15672043D01*
X13771775Y-15686329D01*
X14214632Y-15600614D02*
X14071775Y-15600614D01*
X14057490Y-15743471D01*
X14071775Y-15729186D01*
X14100347Y-15714900D01*
X14171775Y-15714900D01*
X14200347Y-15729186D01*
X14214632Y-15743471D01*
X14228918Y-15772043D01*
X14228918Y-15843471D01*
X14214632Y-15872043D01*
X14200347Y-15886329D01*
X14171775Y-15900614D01*
X14100347Y-15900614D01*
X14071775Y-15886329D01*
X14057490Y-15872043D01*
X14328918Y-15600614D02*
X14528918Y-15600614D01*
X14400347Y-15900614D01*
X14628918Y-15600614D02*
X14628918Y-15657757D01*
X14743204Y-15600614D02*
X14743204Y-15657757D01*
X15186061Y-16014900D02*
X15171775Y-16000614D01*
X15143204Y-15957757D01*
X15128918Y-15929186D01*
X15114632Y-15886329D01*
X15100347Y-15814900D01*
X15100347Y-15757757D01*
X15114632Y-15686329D01*
X15128918Y-15643471D01*
X15143204Y-15614900D01*
X15171775Y-15572043D01*
X15186061Y-15557757D01*
X15286061Y-15629186D02*
X15300347Y-15614900D01*
X15328918Y-15600614D01*
X15400347Y-15600614D01*
X15428918Y-15614900D01*
X15443204Y-15629186D01*
X15457490Y-15657757D01*
X15457490Y-15686329D01*
X15443204Y-15729186D01*
X15271775Y-15900614D01*
X15457490Y-15900614D01*
X15557490Y-15600614D02*
X15743204Y-15600614D01*
X15643204Y-15714900D01*
X15686061Y-15714900D01*
X15714632Y-15729186D01*
X15728918Y-15743471D01*
X15743204Y-15772043D01*
X15743204Y-15843471D01*
X15728918Y-15872043D01*
X15714632Y-15886329D01*
X15686061Y-15900614D01*
X15600347Y-15900614D01*
X15571775Y-15886329D01*
X15557490Y-15872043D01*
X16100347Y-15900614D02*
X16100347Y-15600614D01*
X16228918Y-15900614D02*
X16228918Y-15743471D01*
X16214632Y-15714900D01*
X16186061Y-15700614D01*
X16143204Y-15700614D01*
X16114632Y-15714900D01*
X16100347Y-15729186D01*
X16414632Y-15900614D02*
X16386061Y-15886329D01*
X16371775Y-15872043D01*
X16357490Y-15843471D01*
X16357490Y-15757757D01*
X16371775Y-15729186D01*
X16386061Y-15714900D01*
X16414632Y-15700614D01*
X16457490Y-15700614D01*
X16486061Y-15714900D01*
X16500347Y-15729186D01*
X16514632Y-15757757D01*
X16514632Y-15843471D01*
X16500347Y-15872043D01*
X16486061Y-15886329D01*
X16457490Y-15900614D01*
X16414632Y-15900614D01*
X16686061Y-15900614D02*
X16657490Y-15886329D01*
X16643204Y-15857757D01*
X16643204Y-15600614D01*
X16914633Y-15886329D02*
X16886061Y-15900614D01*
X16828918Y-15900614D01*
X16800347Y-15886329D01*
X16786061Y-15857757D01*
X16786061Y-15743471D01*
X16800347Y-15714900D01*
X16828918Y-15700614D01*
X16886061Y-15700614D01*
X16914633Y-15714900D01*
X16928918Y-15743471D01*
X16928918Y-15772043D01*
X16786061Y-15800614D01*
X17043204Y-15886329D02*
X17071775Y-15900614D01*
X17128918Y-15900614D01*
X17157490Y-15886329D01*
X17171775Y-15857757D01*
X17171775Y-15843471D01*
X17157490Y-15814900D01*
X17128918Y-15800614D01*
X17086061Y-15800614D01*
X17057490Y-15786329D01*
X17043204Y-15757757D01*
X17043204Y-15743471D01*
X17057490Y-15714900D01*
X17086061Y-15700614D01*
X17128918Y-15700614D01*
X17157490Y-15714900D01*
X17271775Y-16014900D02*
X17286061Y-16000614D01*
X17314633Y-15957757D01*
X17328918Y-15929186D01*
X17343204Y-15886329D01*
X17357490Y-15814900D01*
X17357490Y-15757757D01*
X17343204Y-15686329D01*
X17328918Y-15643471D01*
X17314633Y-15614900D01*
X17286061Y-15572043D01*
X17271775Y-15557757D01*
X9903204Y-16185900D02*
X9928204Y-16160900D01*
X9903204Y-16135900D01*
X9878204Y-16160900D01*
X9903204Y-16185900D01*
X10271775Y-15996614D02*
X10300347Y-15996614D01*
X10328918Y-16010900D01*
X10343204Y-16025186D01*
X10357490Y-16053757D01*
X10371775Y-16110900D01*
X10371775Y-16182329D01*
X10357490Y-16239471D01*
X10343204Y-16268043D01*
X10328918Y-16282329D01*
X10300347Y-16296614D01*
X10271775Y-16296614D01*
X10243204Y-16282329D01*
X10228918Y-16268043D01*
X10214633Y-16239471D01*
X10200347Y-16182329D01*
X10200347Y-16110900D01*
X10214633Y-16053757D01*
X10228918Y-16025186D01*
X10243204Y-16010900D01*
X10271775Y-15996614D01*
X10500347Y-16268043D02*
X10514633Y-16282329D01*
X10500347Y-16296614D01*
X10486061Y-16282329D01*
X10500347Y-16268043D01*
X10500347Y-16296614D01*
X10786061Y-15996614D02*
X10643204Y-15996614D01*
X10628918Y-16139471D01*
X10643204Y-16125186D01*
X10671775Y-16110900D01*
X10743204Y-16110900D01*
X10771775Y-16125186D01*
X10786061Y-16139471D01*
X10800347Y-16168043D01*
X10800347Y-16239471D01*
X10786061Y-16268043D01*
X10771775Y-16282329D01*
X10743204Y-16296614D01*
X10671775Y-16296614D01*
X10643204Y-16282329D01*
X10628918Y-16268043D01*
X10986061Y-15996614D02*
X11014633Y-15996614D01*
X11043204Y-16010900D01*
X11057490Y-16025186D01*
X11071775Y-16053757D01*
X11086061Y-16110900D01*
X11086061Y-16182329D01*
X11071775Y-16239471D01*
X11057490Y-16268043D01*
X11043204Y-16282329D01*
X11014633Y-16296614D01*
X10986061Y-16296614D01*
X10957490Y-16282329D01*
X10943204Y-16268043D01*
X10928918Y-16239471D01*
X10914633Y-16182329D01*
X10914633Y-16110900D01*
X10928918Y-16053757D01*
X10943204Y-16025186D01*
X10957490Y-16010900D01*
X10986061Y-15996614D01*
X11271775Y-15996614D02*
X11300347Y-15996614D01*
X11328918Y-16010900D01*
X11343204Y-16025186D01*
X11357490Y-16053757D01*
X11371775Y-16110900D01*
X11371775Y-16182329D01*
X11357490Y-16239471D01*
X11343204Y-16268043D01*
X11328918Y-16282329D01*
X11300347Y-16296614D01*
X11271775Y-16296614D01*
X11243204Y-16282329D01*
X11228918Y-16268043D01*
X11214632Y-16239471D01*
X11200347Y-16182329D01*
X11200347Y-16110900D01*
X11214632Y-16053757D01*
X11228918Y-16025186D01*
X11243204Y-16010900D01*
X11271775Y-15996614D01*
X11500347Y-16296614D02*
X11500347Y-16096614D01*
X11500347Y-16125186D02*
X11514632Y-16110900D01*
X11543204Y-16096614D01*
X11586061Y-16096614D01*
X11614632Y-16110900D01*
X11628918Y-16139471D01*
X11628918Y-16296614D01*
X11628918Y-16139471D02*
X11643204Y-16110900D01*
X11671775Y-16096614D01*
X11714632Y-16096614D01*
X11743204Y-16110900D01*
X11757490Y-16139471D01*
X11757490Y-16296614D01*
X11900347Y-16296614D02*
X11900347Y-16096614D01*
X11900347Y-16125186D02*
X11914632Y-16110900D01*
X11943204Y-16096614D01*
X11986061Y-16096614D01*
X12014632Y-16110900D01*
X12028918Y-16139471D01*
X12028918Y-16296614D01*
X12028918Y-16139471D02*
X12043204Y-16110900D01*
X12071775Y-16096614D01*
X12114632Y-16096614D01*
X12143204Y-16110900D01*
X12157490Y-16139471D01*
X12157490Y-16296614D01*
X12743204Y-15982329D02*
X12486061Y-16368043D01*
X13128918Y-15996614D02*
X13157490Y-15996614D01*
X13186061Y-16010900D01*
X13200347Y-16025186D01*
X13214632Y-16053757D01*
X13228918Y-16110900D01*
X13228918Y-16182329D01*
X13214632Y-16239471D01*
X13200347Y-16268043D01*
X13186061Y-16282329D01*
X13157490Y-16296614D01*
X13128918Y-16296614D01*
X13100347Y-16282329D01*
X13086061Y-16268043D01*
X13071775Y-16239471D01*
X13057490Y-16182329D01*
X13057490Y-16110900D01*
X13071775Y-16053757D01*
X13086061Y-16025186D01*
X13100347Y-16010900D01*
X13128918Y-15996614D01*
X13357490Y-16268043D02*
X13371775Y-16282329D01*
X13357490Y-16296614D01*
X13343204Y-16282329D01*
X13357490Y-16268043D01*
X13357490Y-16296614D01*
X13557490Y-15996614D02*
X13586061Y-15996614D01*
X13614632Y-16010900D01*
X13628918Y-16025186D01*
X13643204Y-16053757D01*
X13657490Y-16110900D01*
X13657490Y-16182329D01*
X13643204Y-16239471D01*
X13628918Y-16268043D01*
X13614632Y-16282329D01*
X13586061Y-16296614D01*
X13557490Y-16296614D01*
X13528918Y-16282329D01*
X13514632Y-16268043D01*
X13500347Y-16239471D01*
X13486061Y-16182329D01*
X13486061Y-16110900D01*
X13500347Y-16053757D01*
X13514632Y-16025186D01*
X13528918Y-16010900D01*
X13557490Y-15996614D01*
X13943204Y-16296614D02*
X13771775Y-16296614D01*
X13857490Y-16296614D02*
X13857490Y-15996614D01*
X13828918Y-16039471D01*
X13800347Y-16068043D01*
X13771775Y-16082329D01*
X14086061Y-16296614D02*
X14143204Y-16296614D01*
X14171775Y-16282329D01*
X14186061Y-16268043D01*
X14214632Y-16225186D01*
X14228918Y-16168043D01*
X14228918Y-16053757D01*
X14214632Y-16025186D01*
X14200347Y-16010900D01*
X14171775Y-15996614D01*
X14114632Y-15996614D01*
X14086061Y-16010900D01*
X14071775Y-16025186D01*
X14057490Y-16053757D01*
X14057490Y-16125186D01*
X14071775Y-16153757D01*
X14086061Y-16168043D01*
X14114632Y-16182329D01*
X14171775Y-16182329D01*
X14200347Y-16168043D01*
X14214632Y-16153757D01*
X14228918Y-16125186D01*
X14328918Y-15996614D02*
X14528918Y-15996614D01*
X14400347Y-16296614D01*
X14628918Y-15996614D02*
X14628918Y-16053757D01*
X14743204Y-15996614D02*
X14743204Y-16053757D01*
X15186061Y-16410900D02*
X15171775Y-16396614D01*
X15143204Y-16353757D01*
X15128918Y-16325186D01*
X15114632Y-16282329D01*
X15100347Y-16210900D01*
X15100347Y-16153757D01*
X15114632Y-16082329D01*
X15128918Y-16039471D01*
X15143204Y-16010900D01*
X15171775Y-15968043D01*
X15186061Y-15953757D01*
X15271775Y-15996614D02*
X15457490Y-15996614D01*
X15357490Y-16110900D01*
X15400347Y-16110900D01*
X15428918Y-16125186D01*
X15443204Y-16139471D01*
X15457490Y-16168043D01*
X15457490Y-16239471D01*
X15443204Y-16268043D01*
X15428918Y-16282329D01*
X15400347Y-16296614D01*
X15314632Y-16296614D01*
X15286061Y-16282329D01*
X15271775Y-16268043D01*
X15571775Y-16025186D02*
X15586061Y-16010900D01*
X15614632Y-15996614D01*
X15686061Y-15996614D01*
X15714632Y-16010900D01*
X15728918Y-16025186D01*
X15743204Y-16053757D01*
X15743204Y-16082329D01*
X15728918Y-16125186D01*
X15557490Y-16296614D01*
X15743204Y-16296614D01*
X16100347Y-16296614D02*
X16100347Y-15996614D01*
X16228918Y-16296614D02*
X16228918Y-16139471D01*
X16214632Y-16110900D01*
X16186061Y-16096614D01*
X16143204Y-16096614D01*
X16114632Y-16110900D01*
X16100347Y-16125186D01*
X16414632Y-16296614D02*
X16386061Y-16282329D01*
X16371775Y-16268043D01*
X16357490Y-16239471D01*
X16357490Y-16153757D01*
X16371775Y-16125186D01*
X16386061Y-16110900D01*
X16414632Y-16096614D01*
X16457490Y-16096614D01*
X16486061Y-16110900D01*
X16500347Y-16125186D01*
X16514632Y-16153757D01*
X16514632Y-16239471D01*
X16500347Y-16268043D01*
X16486061Y-16282329D01*
X16457490Y-16296614D01*
X16414632Y-16296614D01*
X16686061Y-16296614D02*
X16657490Y-16282329D01*
X16643204Y-16253757D01*
X16643204Y-15996614D01*
X16914633Y-16282329D02*
X16886061Y-16296614D01*
X16828918Y-16296614D01*
X16800347Y-16282329D01*
X16786061Y-16253757D01*
X16786061Y-16139471D01*
X16800347Y-16110900D01*
X16828918Y-16096614D01*
X16886061Y-16096614D01*
X16914633Y-16110900D01*
X16928918Y-16139471D01*
X16928918Y-16168043D01*
X16786061Y-16196614D01*
X17043204Y-16282329D02*
X17071775Y-16296614D01*
X17128918Y-16296614D01*
X17157490Y-16282329D01*
X17171775Y-16253757D01*
X17171775Y-16239471D01*
X17157490Y-16210900D01*
X17128918Y-16196614D01*
X17086061Y-16196614D01*
X17057490Y-16182329D01*
X17043204Y-16153757D01*
X17043204Y-16139471D01*
X17057490Y-16110900D01*
X17086061Y-16096614D01*
X17128918Y-16096614D01*
X17157490Y-16110900D01*
X17271775Y-16410900D02*
X17286061Y-16396614D01*
X17314633Y-16353757D01*
X17328918Y-16325186D01*
X17343204Y-16282329D01*
X17357490Y-16210900D01*
X17357490Y-16153757D01*
X17343204Y-16082329D01*
X17328918Y-16039471D01*
X17314633Y-16010900D01*
X17286061Y-15968043D01*
X17271775Y-15953757D01*
X9873204Y-16529400D02*
X9928204Y-16584400D01*
X9928204Y-16529400D02*
X9873204Y-16584400D01*
X9928204Y-16556900D02*
G75*
G03*
X9928204Y-16556900I-27500J0D01*
G01*
X10271775Y-16392614D02*
X10300347Y-16392614D01*
X10328918Y-16406900D01*
X10343204Y-16421186D01*
X10357490Y-16449757D01*
X10371775Y-16506900D01*
X10371775Y-16578329D01*
X10357490Y-16635471D01*
X10343204Y-16664043D01*
X10328918Y-16678329D01*
X10300347Y-16692614D01*
X10271775Y-16692614D01*
X10243204Y-16678329D01*
X10228918Y-16664043D01*
X10214633Y-16635471D01*
X10200347Y-16578329D01*
X10200347Y-16506900D01*
X10214633Y-16449757D01*
X10228918Y-16421186D01*
X10243204Y-16406900D01*
X10271775Y-16392614D01*
X10500347Y-16664043D02*
X10514633Y-16678329D01*
X10500347Y-16692614D01*
X10486061Y-16678329D01*
X10500347Y-16664043D01*
X10500347Y-16692614D01*
X10786061Y-16392614D02*
X10643204Y-16392614D01*
X10628918Y-16535471D01*
X10643204Y-16521186D01*
X10671775Y-16506900D01*
X10743204Y-16506900D01*
X10771775Y-16521186D01*
X10786061Y-16535471D01*
X10800347Y-16564043D01*
X10800347Y-16635471D01*
X10786061Y-16664043D01*
X10771775Y-16678329D01*
X10743204Y-16692614D01*
X10671775Y-16692614D01*
X10643204Y-16678329D01*
X10628918Y-16664043D01*
X11071775Y-16392614D02*
X10928918Y-16392614D01*
X10914633Y-16535471D01*
X10928918Y-16521186D01*
X10957490Y-16506900D01*
X11028918Y-16506900D01*
X11057490Y-16521186D01*
X11071775Y-16535471D01*
X11086061Y-16564043D01*
X11086061Y-16635471D01*
X11071775Y-16664043D01*
X11057490Y-16678329D01*
X11028918Y-16692614D01*
X10957490Y-16692614D01*
X10928918Y-16678329D01*
X10914633Y-16664043D01*
X11271775Y-16392614D02*
X11300347Y-16392614D01*
X11328918Y-16406900D01*
X11343204Y-16421186D01*
X11357490Y-16449757D01*
X11371775Y-16506900D01*
X11371775Y-16578329D01*
X11357490Y-16635471D01*
X11343204Y-16664043D01*
X11328918Y-16678329D01*
X11300347Y-16692614D01*
X11271775Y-16692614D01*
X11243204Y-16678329D01*
X11228918Y-16664043D01*
X11214632Y-16635471D01*
X11200347Y-16578329D01*
X11200347Y-16506900D01*
X11214632Y-16449757D01*
X11228918Y-16421186D01*
X11243204Y-16406900D01*
X11271775Y-16392614D01*
X11500347Y-16692614D02*
X11500347Y-16492614D01*
X11500347Y-16521186D02*
X11514632Y-16506900D01*
X11543204Y-16492614D01*
X11586061Y-16492614D01*
X11614632Y-16506900D01*
X11628918Y-16535471D01*
X11628918Y-16692614D01*
X11628918Y-16535471D02*
X11643204Y-16506900D01*
X11671775Y-16492614D01*
X11714632Y-16492614D01*
X11743204Y-16506900D01*
X11757490Y-16535471D01*
X11757490Y-16692614D01*
X11900347Y-16692614D02*
X11900347Y-16492614D01*
X11900347Y-16521186D02*
X11914632Y-16506900D01*
X11943204Y-16492614D01*
X11986061Y-16492614D01*
X12014632Y-16506900D01*
X12028918Y-16535471D01*
X12028918Y-16692614D01*
X12028918Y-16535471D02*
X12043204Y-16506900D01*
X12071775Y-16492614D01*
X12114632Y-16492614D01*
X12143204Y-16506900D01*
X12157490Y-16535471D01*
X12157490Y-16692614D01*
X12743204Y-16378329D02*
X12486061Y-16764043D01*
X13128918Y-16392614D02*
X13157490Y-16392614D01*
X13186061Y-16406900D01*
X13200347Y-16421186D01*
X13214632Y-16449757D01*
X13228918Y-16506900D01*
X13228918Y-16578329D01*
X13214632Y-16635471D01*
X13200347Y-16664043D01*
X13186061Y-16678329D01*
X13157490Y-16692614D01*
X13128918Y-16692614D01*
X13100347Y-16678329D01*
X13086061Y-16664043D01*
X13071775Y-16635471D01*
X13057490Y-16578329D01*
X13057490Y-16506900D01*
X13071775Y-16449757D01*
X13086061Y-16421186D01*
X13100347Y-16406900D01*
X13128918Y-16392614D01*
X13357490Y-16664043D02*
X13371775Y-16678329D01*
X13357490Y-16692614D01*
X13343204Y-16678329D01*
X13357490Y-16664043D01*
X13357490Y-16692614D01*
X13557490Y-16392614D02*
X13586061Y-16392614D01*
X13614632Y-16406900D01*
X13628918Y-16421186D01*
X13643204Y-16449757D01*
X13657490Y-16506900D01*
X13657490Y-16578329D01*
X13643204Y-16635471D01*
X13628918Y-16664043D01*
X13614632Y-16678329D01*
X13586061Y-16692614D01*
X13557490Y-16692614D01*
X13528918Y-16678329D01*
X13514632Y-16664043D01*
X13500347Y-16635471D01*
X13486061Y-16578329D01*
X13486061Y-16506900D01*
X13500347Y-16449757D01*
X13514632Y-16421186D01*
X13528918Y-16406900D01*
X13557490Y-16392614D01*
X13771775Y-16421186D02*
X13786061Y-16406900D01*
X13814632Y-16392614D01*
X13886061Y-16392614D01*
X13914632Y-16406900D01*
X13928918Y-16421186D01*
X13943204Y-16449757D01*
X13943204Y-16478329D01*
X13928918Y-16521186D01*
X13757490Y-16692614D01*
X13943204Y-16692614D01*
X14228918Y-16692614D02*
X14057490Y-16692614D01*
X14143204Y-16692614D02*
X14143204Y-16392614D01*
X14114632Y-16435471D01*
X14086061Y-16464043D01*
X14057490Y-16478329D01*
X14328918Y-16392614D02*
X14528918Y-16392614D01*
X14400347Y-16692614D01*
X14628918Y-16392614D02*
X14628918Y-16449757D01*
X14743204Y-16392614D02*
X14743204Y-16449757D01*
X15186061Y-16806900D02*
X15171775Y-16792614D01*
X15143204Y-16749757D01*
X15128918Y-16721186D01*
X15114632Y-16678329D01*
X15100347Y-16606900D01*
X15100347Y-16549757D01*
X15114632Y-16478329D01*
X15128918Y-16435471D01*
X15143204Y-16406900D01*
X15171775Y-16364043D01*
X15186061Y-16349757D01*
X15343204Y-16521186D02*
X15314632Y-16506900D01*
X15300347Y-16492614D01*
X15286061Y-16464043D01*
X15286061Y-16449757D01*
X15300347Y-16421186D01*
X15314632Y-16406900D01*
X15343204Y-16392614D01*
X15400347Y-16392614D01*
X15428918Y-16406900D01*
X15443204Y-16421186D01*
X15457490Y-16449757D01*
X15457490Y-16464043D01*
X15443204Y-16492614D01*
X15428918Y-16506900D01*
X15400347Y-16521186D01*
X15343204Y-16521186D01*
X15314632Y-16535471D01*
X15300347Y-16549757D01*
X15286061Y-16578329D01*
X15286061Y-16635471D01*
X15300347Y-16664043D01*
X15314632Y-16678329D01*
X15343204Y-16692614D01*
X15400347Y-16692614D01*
X15428918Y-16678329D01*
X15443204Y-16664043D01*
X15457490Y-16635471D01*
X15457490Y-16578329D01*
X15443204Y-16549757D01*
X15428918Y-16535471D01*
X15400347Y-16521186D01*
X15814632Y-16692614D02*
X15814632Y-16392614D01*
X15943204Y-16692614D02*
X15943204Y-16535471D01*
X15928918Y-16506900D01*
X15900347Y-16492614D01*
X15857490Y-16492614D01*
X15828918Y-16506900D01*
X15814632Y-16521186D01*
X16128918Y-16692614D02*
X16100347Y-16678329D01*
X16086061Y-16664043D01*
X16071775Y-16635471D01*
X16071775Y-16549757D01*
X16086061Y-16521186D01*
X16100347Y-16506900D01*
X16128918Y-16492614D01*
X16171775Y-16492614D01*
X16200347Y-16506900D01*
X16214632Y-16521186D01*
X16228918Y-16549757D01*
X16228918Y-16635471D01*
X16214632Y-16664043D01*
X16200347Y-16678329D01*
X16171775Y-16692614D01*
X16128918Y-16692614D01*
X16400347Y-16692614D02*
X16371775Y-16678329D01*
X16357490Y-16649757D01*
X16357490Y-16392614D01*
X16628918Y-16678329D02*
X16600347Y-16692614D01*
X16543204Y-16692614D01*
X16514632Y-16678329D01*
X16500347Y-16649757D01*
X16500347Y-16535471D01*
X16514632Y-16506900D01*
X16543204Y-16492614D01*
X16600347Y-16492614D01*
X16628918Y-16506900D01*
X16643204Y-16535471D01*
X16643204Y-16564043D01*
X16500347Y-16592614D01*
X16757490Y-16678329D02*
X16786061Y-16692614D01*
X16843204Y-16692614D01*
X16871775Y-16678329D01*
X16886061Y-16649757D01*
X16886061Y-16635471D01*
X16871775Y-16606900D01*
X16843204Y-16592614D01*
X16800347Y-16592614D01*
X16771775Y-16578329D01*
X16757490Y-16549757D01*
X16757490Y-16535471D01*
X16771775Y-16506900D01*
X16800347Y-16492614D01*
X16843204Y-16492614D01*
X16871775Y-16506900D01*
X16986061Y-16806900D02*
X17000347Y-16792614D01*
X17028918Y-16749757D01*
X17043204Y-16721186D01*
X17057490Y-16678329D01*
X17071775Y-16606900D01*
X17071775Y-16549757D01*
X17057490Y-16478329D01*
X17043204Y-16435471D01*
X17028918Y-16406900D01*
X17000347Y-16364043D01*
X16986061Y-16349757D01*
X9848204Y-16912900D02*
X9928204Y-16992900D01*
X9928204Y-16912900D02*
X9848204Y-16992900D01*
X9888204Y-16912900D02*
X9888204Y-16992900D01*
X9848204Y-16952900D02*
X9928204Y-16952900D01*
X10271775Y-16788614D02*
X10300347Y-16788614D01*
X10328918Y-16802900D01*
X10343204Y-16817186D01*
X10357490Y-16845757D01*
X10371775Y-16902900D01*
X10371775Y-16974329D01*
X10357490Y-17031472D01*
X10343204Y-17060043D01*
X10328918Y-17074329D01*
X10300347Y-17088614D01*
X10271775Y-17088614D01*
X10243204Y-17074329D01*
X10228918Y-17060043D01*
X10214633Y-17031472D01*
X10200347Y-16974329D01*
X10200347Y-16902900D01*
X10214633Y-16845757D01*
X10228918Y-16817186D01*
X10243204Y-16802900D01*
X10271775Y-16788614D01*
X10500347Y-17060043D02*
X10514633Y-17074329D01*
X10500347Y-17088614D01*
X10486061Y-17074329D01*
X10500347Y-17060043D01*
X10500347Y-17088614D01*
X10686061Y-16917186D02*
X10657490Y-16902900D01*
X10643204Y-16888614D01*
X10628918Y-16860043D01*
X10628918Y-16845757D01*
X10643204Y-16817186D01*
X10657490Y-16802900D01*
X10686061Y-16788614D01*
X10743204Y-16788614D01*
X10771775Y-16802900D01*
X10786061Y-16817186D01*
X10800347Y-16845757D01*
X10800347Y-16860043D01*
X10786061Y-16888614D01*
X10771775Y-16902900D01*
X10743204Y-16917186D01*
X10686061Y-16917186D01*
X10657490Y-16931472D01*
X10643204Y-16945757D01*
X10628918Y-16974329D01*
X10628918Y-17031472D01*
X10643204Y-17060043D01*
X10657490Y-17074329D01*
X10686061Y-17088614D01*
X10743204Y-17088614D01*
X10771775Y-17074329D01*
X10786061Y-17060043D01*
X10800347Y-17031472D01*
X10800347Y-16974329D01*
X10786061Y-16945757D01*
X10771775Y-16931472D01*
X10743204Y-16917186D01*
X10986061Y-16788614D02*
X11014633Y-16788614D01*
X11043204Y-16802900D01*
X11057490Y-16817186D01*
X11071775Y-16845757D01*
X11086061Y-16902900D01*
X11086061Y-16974329D01*
X11071775Y-17031472D01*
X11057490Y-17060043D01*
X11043204Y-17074329D01*
X11014633Y-17088614D01*
X10986061Y-17088614D01*
X10957490Y-17074329D01*
X10943204Y-17060043D01*
X10928918Y-17031472D01*
X10914633Y-16974329D01*
X10914633Y-16902900D01*
X10928918Y-16845757D01*
X10943204Y-16817186D01*
X10957490Y-16802900D01*
X10986061Y-16788614D01*
X11271775Y-16788614D02*
X11300347Y-16788614D01*
X11328918Y-16802900D01*
X11343204Y-16817186D01*
X11357490Y-16845757D01*
X11371775Y-16902900D01*
X11371775Y-16974329D01*
X11357490Y-17031472D01*
X11343204Y-17060043D01*
X11328918Y-17074329D01*
X11300347Y-17088614D01*
X11271775Y-17088614D01*
X11243204Y-17074329D01*
X11228918Y-17060043D01*
X11214632Y-17031472D01*
X11200347Y-16974329D01*
X11200347Y-16902900D01*
X11214632Y-16845757D01*
X11228918Y-16817186D01*
X11243204Y-16802900D01*
X11271775Y-16788614D01*
X11500347Y-17088614D02*
X11500347Y-16888614D01*
X11500347Y-16917186D02*
X11514632Y-16902900D01*
X11543204Y-16888614D01*
X11586061Y-16888614D01*
X11614632Y-16902900D01*
X11628918Y-16931472D01*
X11628918Y-17088614D01*
X11628918Y-16931472D02*
X11643204Y-16902900D01*
X11671775Y-16888614D01*
X11714632Y-16888614D01*
X11743204Y-16902900D01*
X11757490Y-16931472D01*
X11757490Y-17088614D01*
X11900347Y-17088614D02*
X11900347Y-16888614D01*
X11900347Y-16917186D02*
X11914632Y-16902900D01*
X11943204Y-16888614D01*
X11986061Y-16888614D01*
X12014632Y-16902900D01*
X12028918Y-16931472D01*
X12028918Y-17088614D01*
X12028918Y-16931472D02*
X12043204Y-16902900D01*
X12071775Y-16888614D01*
X12114632Y-16888614D01*
X12143204Y-16902900D01*
X12157490Y-16931472D01*
X12157490Y-17088614D01*
X12743204Y-16774329D02*
X12486061Y-17160043D01*
X13128918Y-16788614D02*
X13157490Y-16788614D01*
X13186061Y-16802900D01*
X13200347Y-16817186D01*
X13214632Y-16845757D01*
X13228918Y-16902900D01*
X13228918Y-16974329D01*
X13214632Y-17031472D01*
X13200347Y-17060043D01*
X13186061Y-17074329D01*
X13157490Y-17088614D01*
X13128918Y-17088614D01*
X13100347Y-17074329D01*
X13086061Y-17060043D01*
X13071775Y-17031472D01*
X13057490Y-16974329D01*
X13057490Y-16902900D01*
X13071775Y-16845757D01*
X13086061Y-16817186D01*
X13100347Y-16802900D01*
X13128918Y-16788614D01*
X13357490Y-17060043D02*
X13371775Y-17074329D01*
X13357490Y-17088614D01*
X13343204Y-17074329D01*
X13357490Y-17060043D01*
X13357490Y-17088614D01*
X13557490Y-16788614D02*
X13586061Y-16788614D01*
X13614632Y-16802900D01*
X13628918Y-16817186D01*
X13643204Y-16845757D01*
X13657490Y-16902900D01*
X13657490Y-16974329D01*
X13643204Y-17031472D01*
X13628918Y-17060043D01*
X13614632Y-17074329D01*
X13586061Y-17088614D01*
X13557490Y-17088614D01*
X13528918Y-17074329D01*
X13514632Y-17060043D01*
X13500347Y-17031472D01*
X13486061Y-16974329D01*
X13486061Y-16902900D01*
X13500347Y-16845757D01*
X13514632Y-16817186D01*
X13528918Y-16802900D01*
X13557490Y-16788614D01*
X13757490Y-16788614D02*
X13943204Y-16788614D01*
X13843204Y-16902900D01*
X13886061Y-16902900D01*
X13914632Y-16917186D01*
X13928918Y-16931472D01*
X13943204Y-16960043D01*
X13943204Y-17031472D01*
X13928918Y-17060043D01*
X13914632Y-17074329D01*
X13886061Y-17088614D01*
X13800347Y-17088614D01*
X13771775Y-17074329D01*
X13757490Y-17060043D01*
X14228918Y-17088614D02*
X14057490Y-17088614D01*
X14143204Y-17088614D02*
X14143204Y-16788614D01*
X14114632Y-16831472D01*
X14086061Y-16860043D01*
X14057490Y-16874329D01*
X14500347Y-16788614D02*
X14357490Y-16788614D01*
X14343204Y-16931472D01*
X14357490Y-16917186D01*
X14386061Y-16902900D01*
X14457490Y-16902900D01*
X14486061Y-16917186D01*
X14500347Y-16931472D01*
X14514632Y-16960043D01*
X14514632Y-17031472D01*
X14500347Y-17060043D01*
X14486061Y-17074329D01*
X14457490Y-17088614D01*
X14386061Y-17088614D01*
X14357490Y-17074329D01*
X14343204Y-17060043D01*
X14628918Y-16788614D02*
X14628918Y-16845757D01*
X14743204Y-16788614D02*
X14743204Y-16845757D01*
X15186061Y-17202900D02*
X15171775Y-17188614D01*
X15143204Y-17145757D01*
X15128918Y-17117186D01*
X15114632Y-17074329D01*
X15100347Y-17002900D01*
X15100347Y-16945757D01*
X15114632Y-16874329D01*
X15128918Y-16831472D01*
X15143204Y-16802900D01*
X15171775Y-16760043D01*
X15186061Y-16745757D01*
X15286061Y-16817186D02*
X15300347Y-16802900D01*
X15328918Y-16788614D01*
X15400347Y-16788614D01*
X15428918Y-16802900D01*
X15443204Y-16817186D01*
X15457490Y-16845757D01*
X15457490Y-16874329D01*
X15443204Y-16917186D01*
X15271775Y-17088614D01*
X15457490Y-17088614D01*
X15814632Y-17088614D02*
X15814632Y-16788614D01*
X15943204Y-17088614D02*
X15943204Y-16931472D01*
X15928918Y-16902900D01*
X15900347Y-16888614D01*
X15857490Y-16888614D01*
X15828918Y-16902900D01*
X15814632Y-16917186D01*
X16128918Y-17088614D02*
X16100347Y-17074329D01*
X16086061Y-17060043D01*
X16071775Y-17031472D01*
X16071775Y-16945757D01*
X16086061Y-16917186D01*
X16100347Y-16902900D01*
X16128918Y-16888614D01*
X16171775Y-16888614D01*
X16200347Y-16902900D01*
X16214632Y-16917186D01*
X16228918Y-16945757D01*
X16228918Y-17031472D01*
X16214632Y-17060043D01*
X16200347Y-17074329D01*
X16171775Y-17088614D01*
X16128918Y-17088614D01*
X16400347Y-17088614D02*
X16371775Y-17074329D01*
X16357490Y-17045757D01*
X16357490Y-16788614D01*
X16628918Y-17074329D02*
X16600347Y-17088614D01*
X16543204Y-17088614D01*
X16514632Y-17074329D01*
X16500347Y-17045757D01*
X16500347Y-16931472D01*
X16514632Y-16902900D01*
X16543204Y-16888614D01*
X16600347Y-16888614D01*
X16628918Y-16902900D01*
X16643204Y-16931472D01*
X16643204Y-16960043D01*
X16500347Y-16988614D01*
X16757490Y-17074329D02*
X16786061Y-17088614D01*
X16843204Y-17088614D01*
X16871775Y-17074329D01*
X16886061Y-17045757D01*
X16886061Y-17031472D01*
X16871775Y-17002900D01*
X16843204Y-16988614D01*
X16800347Y-16988614D01*
X16771775Y-16974329D01*
X16757490Y-16945757D01*
X16757490Y-16931472D01*
X16771775Y-16902900D01*
X16800347Y-16888614D01*
X16843204Y-16888614D01*
X16871775Y-16902900D01*
X16986061Y-17202900D02*
X17000347Y-17188614D01*
X17028918Y-17145757D01*
X17043204Y-17117186D01*
X17057490Y-17074329D01*
X17071775Y-17002900D01*
X17071775Y-16945757D01*
X17057490Y-16874329D01*
X17043204Y-16831472D01*
X17028918Y-16802900D01*
X17000347Y-16760043D01*
X16986061Y-16745757D01*
X9838204Y-17303900D02*
X9928204Y-17393900D01*
X9928204Y-17303900D02*
X9838204Y-17393900D01*
X9915024Y-17380720D02*
X9915024Y-17317080D01*
X9851384Y-17317080D01*
X9851384Y-17380720D01*
X9915024Y-17380720D01*
X10271775Y-17184614D02*
X10300347Y-17184614D01*
X10328918Y-17198900D01*
X10343204Y-17213186D01*
X10357490Y-17241757D01*
X10371775Y-17298900D01*
X10371775Y-17370329D01*
X10357490Y-17427472D01*
X10343204Y-17456043D01*
X10328918Y-17470329D01*
X10300347Y-17484614D01*
X10271775Y-17484614D01*
X10243204Y-17470329D01*
X10228918Y-17456043D01*
X10214633Y-17427472D01*
X10200347Y-17370329D01*
X10200347Y-17298900D01*
X10214633Y-17241757D01*
X10228918Y-17213186D01*
X10243204Y-17198900D01*
X10271775Y-17184614D01*
X10500347Y-17456043D02*
X10514633Y-17470329D01*
X10500347Y-17484614D01*
X10486061Y-17470329D01*
X10500347Y-17456043D01*
X10500347Y-17484614D01*
X10657490Y-17484614D02*
X10714633Y-17484614D01*
X10743204Y-17470329D01*
X10757490Y-17456043D01*
X10786061Y-17413186D01*
X10800347Y-17356043D01*
X10800347Y-17241757D01*
X10786061Y-17213186D01*
X10771775Y-17198900D01*
X10743204Y-17184614D01*
X10686061Y-17184614D01*
X10657490Y-17198900D01*
X10643204Y-17213186D01*
X10628918Y-17241757D01*
X10628918Y-17313186D01*
X10643204Y-17341757D01*
X10657490Y-17356043D01*
X10686061Y-17370329D01*
X10743204Y-17370329D01*
X10771775Y-17356043D01*
X10786061Y-17341757D01*
X10800347Y-17313186D01*
X10986061Y-17184614D02*
X11014633Y-17184614D01*
X11043204Y-17198900D01*
X11057490Y-17213186D01*
X11071775Y-17241757D01*
X11086061Y-17298900D01*
X11086061Y-17370329D01*
X11071775Y-17427472D01*
X11057490Y-17456043D01*
X11043204Y-17470329D01*
X11014633Y-17484614D01*
X10986061Y-17484614D01*
X10957490Y-17470329D01*
X10943204Y-17456043D01*
X10928918Y-17427472D01*
X10914633Y-17370329D01*
X10914633Y-17298900D01*
X10928918Y-17241757D01*
X10943204Y-17213186D01*
X10957490Y-17198900D01*
X10986061Y-17184614D01*
X11271775Y-17184614D02*
X11300347Y-17184614D01*
X11328918Y-17198900D01*
X11343204Y-17213186D01*
X11357490Y-17241757D01*
X11371775Y-17298900D01*
X11371775Y-17370329D01*
X11357490Y-17427472D01*
X11343204Y-17456043D01*
X11328918Y-17470329D01*
X11300347Y-17484614D01*
X11271775Y-17484614D01*
X11243204Y-17470329D01*
X11228918Y-17456043D01*
X11214632Y-17427472D01*
X11200347Y-17370329D01*
X11200347Y-17298900D01*
X11214632Y-17241757D01*
X11228918Y-17213186D01*
X11243204Y-17198900D01*
X11271775Y-17184614D01*
X11500347Y-17484614D02*
X11500347Y-17284614D01*
X11500347Y-17313186D02*
X11514632Y-17298900D01*
X11543204Y-17284614D01*
X11586061Y-17284614D01*
X11614632Y-17298900D01*
X11628918Y-17327472D01*
X11628918Y-17484614D01*
X11628918Y-17327472D02*
X11643204Y-17298900D01*
X11671775Y-17284614D01*
X11714632Y-17284614D01*
X11743204Y-17298900D01*
X11757490Y-17327472D01*
X11757490Y-17484614D01*
X11900347Y-17484614D02*
X11900347Y-17284614D01*
X11900347Y-17313186D02*
X11914632Y-17298900D01*
X11943204Y-17284614D01*
X11986061Y-17284614D01*
X12014632Y-17298900D01*
X12028918Y-17327472D01*
X12028918Y-17484614D01*
X12028918Y-17327472D02*
X12043204Y-17298900D01*
X12071775Y-17284614D01*
X12114632Y-17284614D01*
X12143204Y-17298900D01*
X12157490Y-17327472D01*
X12157490Y-17484614D01*
X12743204Y-17170329D02*
X12486061Y-17556043D01*
X13128918Y-17184614D02*
X13157490Y-17184614D01*
X13186061Y-17198900D01*
X13200347Y-17213186D01*
X13214632Y-17241757D01*
X13228918Y-17298900D01*
X13228918Y-17370329D01*
X13214632Y-17427472D01*
X13200347Y-17456043D01*
X13186061Y-17470329D01*
X13157490Y-17484614D01*
X13128918Y-17484614D01*
X13100347Y-17470329D01*
X13086061Y-17456043D01*
X13071775Y-17427472D01*
X13057490Y-17370329D01*
X13057490Y-17298900D01*
X13071775Y-17241757D01*
X13086061Y-17213186D01*
X13100347Y-17198900D01*
X13128918Y-17184614D01*
X13357490Y-17456043D02*
X13371775Y-17470329D01*
X13357490Y-17484614D01*
X13343204Y-17470329D01*
X13357490Y-17456043D01*
X13357490Y-17484614D01*
X13557490Y-17184614D02*
X13586061Y-17184614D01*
X13614632Y-17198900D01*
X13628918Y-17213186D01*
X13643204Y-17241757D01*
X13657490Y-17298900D01*
X13657490Y-17370329D01*
X13643204Y-17427472D01*
X13628918Y-17456043D01*
X13614632Y-17470329D01*
X13586061Y-17484614D01*
X13557490Y-17484614D01*
X13528918Y-17470329D01*
X13514632Y-17456043D01*
X13500347Y-17427472D01*
X13486061Y-17370329D01*
X13486061Y-17298900D01*
X13500347Y-17241757D01*
X13514632Y-17213186D01*
X13528918Y-17198900D01*
X13557490Y-17184614D01*
X13757490Y-17184614D02*
X13943204Y-17184614D01*
X13843204Y-17298900D01*
X13886061Y-17298900D01*
X13914632Y-17313186D01*
X13928918Y-17327472D01*
X13943204Y-17356043D01*
X13943204Y-17427472D01*
X13928918Y-17456043D01*
X13914632Y-17470329D01*
X13886061Y-17484614D01*
X13800347Y-17484614D01*
X13771775Y-17470329D01*
X13757490Y-17456043D01*
X14214632Y-17184614D02*
X14071775Y-17184614D01*
X14057490Y-17327472D01*
X14071775Y-17313186D01*
X14100347Y-17298900D01*
X14171775Y-17298900D01*
X14200347Y-17313186D01*
X14214632Y-17327472D01*
X14228918Y-17356043D01*
X14228918Y-17427472D01*
X14214632Y-17456043D01*
X14200347Y-17470329D01*
X14171775Y-17484614D01*
X14100347Y-17484614D01*
X14071775Y-17470329D01*
X14057490Y-17456043D01*
X14486061Y-17284614D02*
X14486061Y-17484614D01*
X14414632Y-17170329D02*
X14343204Y-17384614D01*
X14528918Y-17384614D01*
X14628918Y-17184614D02*
X14628918Y-17241757D01*
X14743204Y-17184614D02*
X14743204Y-17241757D01*
X15186061Y-17598900D02*
X15171775Y-17584614D01*
X15143204Y-17541757D01*
X15128918Y-17513186D01*
X15114632Y-17470329D01*
X15100347Y-17398900D01*
X15100347Y-17341757D01*
X15114632Y-17270329D01*
X15128918Y-17227472D01*
X15143204Y-17198900D01*
X15171775Y-17156043D01*
X15186061Y-17141757D01*
X15457490Y-17484614D02*
X15286061Y-17484614D01*
X15371775Y-17484614D02*
X15371775Y-17184614D01*
X15343204Y-17227472D01*
X15314632Y-17256043D01*
X15286061Y-17270329D01*
X15571775Y-17213186D02*
X15586061Y-17198900D01*
X15614632Y-17184614D01*
X15686061Y-17184614D01*
X15714632Y-17198900D01*
X15728918Y-17213186D01*
X15743204Y-17241757D01*
X15743204Y-17270329D01*
X15728918Y-17313186D01*
X15557490Y-17484614D01*
X15743204Y-17484614D01*
X16100347Y-17484614D02*
X16100347Y-17184614D01*
X16228918Y-17484614D02*
X16228918Y-17327472D01*
X16214632Y-17298900D01*
X16186061Y-17284614D01*
X16143204Y-17284614D01*
X16114632Y-17298900D01*
X16100347Y-17313186D01*
X16414632Y-17484614D02*
X16386061Y-17470329D01*
X16371775Y-17456043D01*
X16357490Y-17427472D01*
X16357490Y-17341757D01*
X16371775Y-17313186D01*
X16386061Y-17298900D01*
X16414632Y-17284614D01*
X16457490Y-17284614D01*
X16486061Y-17298900D01*
X16500347Y-17313186D01*
X16514632Y-17341757D01*
X16514632Y-17427472D01*
X16500347Y-17456043D01*
X16486061Y-17470329D01*
X16457490Y-17484614D01*
X16414632Y-17484614D01*
X16686061Y-17484614D02*
X16657490Y-17470329D01*
X16643204Y-17441757D01*
X16643204Y-17184614D01*
X16914633Y-17470329D02*
X16886061Y-17484614D01*
X16828918Y-17484614D01*
X16800347Y-17470329D01*
X16786061Y-17441757D01*
X16786061Y-17327472D01*
X16800347Y-17298900D01*
X16828918Y-17284614D01*
X16886061Y-17284614D01*
X16914633Y-17298900D01*
X16928918Y-17327472D01*
X16928918Y-17356043D01*
X16786061Y-17384614D01*
X17043204Y-17470329D02*
X17071775Y-17484614D01*
X17128918Y-17484614D01*
X17157490Y-17470329D01*
X17171775Y-17441757D01*
X17171775Y-17427472D01*
X17157490Y-17398900D01*
X17128918Y-17384614D01*
X17086061Y-17384614D01*
X17057490Y-17370329D01*
X17043204Y-17341757D01*
X17043204Y-17327472D01*
X17057490Y-17298900D01*
X17086061Y-17284614D01*
X17128918Y-17284614D01*
X17157490Y-17298900D01*
X17271775Y-17598900D02*
X17286061Y-17584614D01*
X17314633Y-17541757D01*
X17328918Y-17513186D01*
X17343204Y-17470329D01*
X17357490Y-17398900D01*
X17357490Y-17341757D01*
X17343204Y-17270329D01*
X17328918Y-17227472D01*
X17314633Y-17198900D01*
X17286061Y-17156043D01*
X17271775Y-17141757D01*
X9828204Y-17694900D02*
X9928204Y-17794900D01*
X9928204Y-17694900D02*
X9828204Y-17794900D01*
X9878204Y-17794900D02*
X9928204Y-17744900D01*
X9878204Y-17694900D01*
X9828204Y-17744900D01*
X9878204Y-17794900D01*
X10371775Y-17880614D02*
X10200347Y-17880614D01*
X10286061Y-17880614D02*
X10286061Y-17580614D01*
X10257490Y-17623472D01*
X10228918Y-17652043D01*
X10200347Y-17666329D01*
X10500347Y-17852043D02*
X10514633Y-17866329D01*
X10500347Y-17880614D01*
X10486061Y-17866329D01*
X10500347Y-17852043D01*
X10500347Y-17880614D01*
X10700347Y-17580614D02*
X10728918Y-17580614D01*
X10757490Y-17594900D01*
X10771775Y-17609186D01*
X10786061Y-17637757D01*
X10800347Y-17694900D01*
X10800347Y-17766329D01*
X10786061Y-17823472D01*
X10771775Y-17852043D01*
X10757490Y-17866329D01*
X10728918Y-17880614D01*
X10700347Y-17880614D01*
X10671775Y-17866329D01*
X10657490Y-17852043D01*
X10643204Y-17823472D01*
X10628918Y-17766329D01*
X10628918Y-17694900D01*
X10643204Y-17637757D01*
X10657490Y-17609186D01*
X10671775Y-17594900D01*
X10700347Y-17580614D01*
X10986061Y-17580614D02*
X11014633Y-17580614D01*
X11043204Y-17594900D01*
X11057490Y-17609186D01*
X11071775Y-17637757D01*
X11086061Y-17694900D01*
X11086061Y-17766329D01*
X11071775Y-17823472D01*
X11057490Y-17852043D01*
X11043204Y-17866329D01*
X11014633Y-17880614D01*
X10986061Y-17880614D01*
X10957490Y-17866329D01*
X10943204Y-17852043D01*
X10928918Y-17823472D01*
X10914633Y-17766329D01*
X10914633Y-17694900D01*
X10928918Y-17637757D01*
X10943204Y-17609186D01*
X10957490Y-17594900D01*
X10986061Y-17580614D01*
X11271775Y-17580614D02*
X11300347Y-17580614D01*
X11328918Y-17594900D01*
X11343204Y-17609186D01*
X11357490Y-17637757D01*
X11371775Y-17694900D01*
X11371775Y-17766329D01*
X11357490Y-17823472D01*
X11343204Y-17852043D01*
X11328918Y-17866329D01*
X11300347Y-17880614D01*
X11271775Y-17880614D01*
X11243204Y-17866329D01*
X11228918Y-17852043D01*
X11214632Y-17823472D01*
X11200347Y-17766329D01*
X11200347Y-17694900D01*
X11214632Y-17637757D01*
X11228918Y-17609186D01*
X11243204Y-17594900D01*
X11271775Y-17580614D01*
X11500347Y-17880614D02*
X11500347Y-17680614D01*
X11500347Y-17709186D02*
X11514632Y-17694900D01*
X11543204Y-17680614D01*
X11586061Y-17680614D01*
X11614632Y-17694900D01*
X11628918Y-17723472D01*
X11628918Y-17880614D01*
X11628918Y-17723472D02*
X11643204Y-17694900D01*
X11671775Y-17680614D01*
X11714632Y-17680614D01*
X11743204Y-17694900D01*
X11757490Y-17723472D01*
X11757490Y-17880614D01*
X11900347Y-17880614D02*
X11900347Y-17680614D01*
X11900347Y-17709186D02*
X11914632Y-17694900D01*
X11943204Y-17680614D01*
X11986061Y-17680614D01*
X12014632Y-17694900D01*
X12028918Y-17723472D01*
X12028918Y-17880614D01*
X12028918Y-17723472D02*
X12043204Y-17694900D01*
X12071775Y-17680614D01*
X12114632Y-17680614D01*
X12143204Y-17694900D01*
X12157490Y-17723472D01*
X12157490Y-17880614D01*
X12743204Y-17566329D02*
X12486061Y-17952043D01*
X13128918Y-17580614D02*
X13157490Y-17580614D01*
X13186061Y-17594900D01*
X13200347Y-17609186D01*
X13214632Y-17637757D01*
X13228918Y-17694900D01*
X13228918Y-17766329D01*
X13214632Y-17823472D01*
X13200347Y-17852043D01*
X13186061Y-17866329D01*
X13157490Y-17880614D01*
X13128918Y-17880614D01*
X13100347Y-17866329D01*
X13086061Y-17852043D01*
X13071775Y-17823472D01*
X13057490Y-17766329D01*
X13057490Y-17694900D01*
X13071775Y-17637757D01*
X13086061Y-17609186D01*
X13100347Y-17594900D01*
X13128918Y-17580614D01*
X13357490Y-17852043D02*
X13371775Y-17866329D01*
X13357490Y-17880614D01*
X13343204Y-17866329D01*
X13357490Y-17852043D01*
X13357490Y-17880614D01*
X13557490Y-17580614D02*
X13586061Y-17580614D01*
X13614632Y-17594900D01*
X13628918Y-17609186D01*
X13643204Y-17637757D01*
X13657490Y-17694900D01*
X13657490Y-17766329D01*
X13643204Y-17823472D01*
X13628918Y-17852043D01*
X13614632Y-17866329D01*
X13586061Y-17880614D01*
X13557490Y-17880614D01*
X13528918Y-17866329D01*
X13514632Y-17852043D01*
X13500347Y-17823472D01*
X13486061Y-17766329D01*
X13486061Y-17694900D01*
X13500347Y-17637757D01*
X13514632Y-17609186D01*
X13528918Y-17594900D01*
X13557490Y-17580614D01*
X13757490Y-17580614D02*
X13943204Y-17580614D01*
X13843204Y-17694900D01*
X13886061Y-17694900D01*
X13914632Y-17709186D01*
X13928918Y-17723472D01*
X13943204Y-17752043D01*
X13943204Y-17823472D01*
X13928918Y-17852043D01*
X13914632Y-17866329D01*
X13886061Y-17880614D01*
X13800347Y-17880614D01*
X13771775Y-17866329D01*
X13757490Y-17852043D01*
X14086061Y-17880614D02*
X14143204Y-17880614D01*
X14171775Y-17866329D01*
X14186061Y-17852043D01*
X14214632Y-17809186D01*
X14228918Y-17752043D01*
X14228918Y-17637757D01*
X14214632Y-17609186D01*
X14200347Y-17594900D01*
X14171775Y-17580614D01*
X14114632Y-17580614D01*
X14086061Y-17594900D01*
X14071775Y-17609186D01*
X14057490Y-17637757D01*
X14057490Y-17709186D01*
X14071775Y-17737757D01*
X14086061Y-17752043D01*
X14114632Y-17766329D01*
X14171775Y-17766329D01*
X14200347Y-17752043D01*
X14214632Y-17737757D01*
X14228918Y-17709186D01*
X14486061Y-17680614D02*
X14486061Y-17880614D01*
X14414632Y-17566329D02*
X14343204Y-17780614D01*
X14528918Y-17780614D01*
X14628918Y-17580614D02*
X14628918Y-17637757D01*
X14743204Y-17580614D02*
X14743204Y-17637757D01*
X15186061Y-17994900D02*
X15171775Y-17980614D01*
X15143204Y-17937757D01*
X15128918Y-17909186D01*
X15114632Y-17866329D01*
X15100347Y-17794900D01*
X15100347Y-17737757D01*
X15114632Y-17666329D01*
X15128918Y-17623472D01*
X15143204Y-17594900D01*
X15171775Y-17552043D01*
X15186061Y-17537757D01*
X15457490Y-17880614D02*
X15286061Y-17880614D01*
X15371775Y-17880614D02*
X15371775Y-17580614D01*
X15343204Y-17623472D01*
X15314632Y-17652043D01*
X15286061Y-17666329D01*
X15557490Y-17580614D02*
X15757490Y-17580614D01*
X15628918Y-17880614D01*
X16100347Y-17880614D02*
X16100347Y-17580614D01*
X16228918Y-17880614D02*
X16228918Y-17723472D01*
X16214632Y-17694900D01*
X16186061Y-17680614D01*
X16143204Y-17680614D01*
X16114632Y-17694900D01*
X16100347Y-17709186D01*
X16414632Y-17880614D02*
X16386061Y-17866329D01*
X16371775Y-17852043D01*
X16357490Y-17823472D01*
X16357490Y-17737757D01*
X16371775Y-17709186D01*
X16386061Y-17694900D01*
X16414632Y-17680614D01*
X16457490Y-17680614D01*
X16486061Y-17694900D01*
X16500347Y-17709186D01*
X16514632Y-17737757D01*
X16514632Y-17823472D01*
X16500347Y-17852043D01*
X16486061Y-17866329D01*
X16457490Y-17880614D01*
X16414632Y-17880614D01*
X16686061Y-17880614D02*
X16657490Y-17866329D01*
X16643204Y-17837757D01*
X16643204Y-17580614D01*
X16914633Y-17866329D02*
X16886061Y-17880614D01*
X16828918Y-17880614D01*
X16800347Y-17866329D01*
X16786061Y-17837757D01*
X16786061Y-17723472D01*
X16800347Y-17694900D01*
X16828918Y-17680614D01*
X16886061Y-17680614D01*
X16914633Y-17694900D01*
X16928918Y-17723472D01*
X16928918Y-17752043D01*
X16786061Y-17780614D01*
X17043204Y-17866329D02*
X17071775Y-17880614D01*
X17128918Y-17880614D01*
X17157490Y-17866329D01*
X17171775Y-17837757D01*
X17171775Y-17823472D01*
X17157490Y-17794900D01*
X17128918Y-17780614D01*
X17086061Y-17780614D01*
X17057490Y-17766329D01*
X17043204Y-17737757D01*
X17043204Y-17723472D01*
X17057490Y-17694900D01*
X17086061Y-17680614D01*
X17128918Y-17680614D01*
X17157490Y-17694900D01*
X17271775Y-17994900D02*
X17286061Y-17980614D01*
X17314633Y-17937757D01*
X17328918Y-17909186D01*
X17343204Y-17866329D01*
X17357490Y-17794900D01*
X17357490Y-17737757D01*
X17343204Y-17666329D01*
X17328918Y-17623472D01*
X17314633Y-17594900D01*
X17286061Y-17552043D01*
X17271775Y-17537757D01*
X9848204Y-18060900D02*
X9848204Y-18220900D01*
X9768204Y-18140900D02*
X9928204Y-18140900D01*
X9928204Y-18140900D02*
G75*
G03*
X9928204Y-18140900I-80000J0D01*
G01*
X10371775Y-18276614D02*
X10200347Y-18276614D01*
X10286061Y-18276614D02*
X10286061Y-17976614D01*
X10257490Y-18019472D01*
X10228918Y-18048043D01*
X10200347Y-18062329D01*
X10500347Y-18248043D02*
X10514633Y-18262329D01*
X10500347Y-18276614D01*
X10486061Y-18262329D01*
X10500347Y-18248043D01*
X10500347Y-18276614D01*
X10771775Y-17976614D02*
X10714633Y-17976614D01*
X10686061Y-17990900D01*
X10671775Y-18005186D01*
X10643204Y-18048043D01*
X10628918Y-18105186D01*
X10628918Y-18219472D01*
X10643204Y-18248043D01*
X10657490Y-18262329D01*
X10686061Y-18276614D01*
X10743204Y-18276614D01*
X10771775Y-18262329D01*
X10786061Y-18248043D01*
X10800347Y-18219472D01*
X10800347Y-18148043D01*
X10786061Y-18119472D01*
X10771775Y-18105186D01*
X10743204Y-18090900D01*
X10686061Y-18090900D01*
X10657490Y-18105186D01*
X10643204Y-18119472D01*
X10628918Y-18148043D01*
X10986061Y-17976614D02*
X11014633Y-17976614D01*
X11043204Y-17990900D01*
X11057490Y-18005186D01*
X11071775Y-18033757D01*
X11086061Y-18090900D01*
X11086061Y-18162329D01*
X11071775Y-18219472D01*
X11057490Y-18248043D01*
X11043204Y-18262329D01*
X11014633Y-18276614D01*
X10986061Y-18276614D01*
X10957490Y-18262329D01*
X10943204Y-18248043D01*
X10928918Y-18219472D01*
X10914633Y-18162329D01*
X10914633Y-18090900D01*
X10928918Y-18033757D01*
X10943204Y-18005186D01*
X10957490Y-17990900D01*
X10986061Y-17976614D01*
X11271775Y-17976614D02*
X11300347Y-17976614D01*
X11328918Y-17990900D01*
X11343204Y-18005186D01*
X11357490Y-18033757D01*
X11371775Y-18090900D01*
X11371775Y-18162329D01*
X11357490Y-18219472D01*
X11343204Y-18248043D01*
X11328918Y-18262329D01*
X11300347Y-18276614D01*
X11271775Y-18276614D01*
X11243204Y-18262329D01*
X11228918Y-18248043D01*
X11214632Y-18219472D01*
X11200347Y-18162329D01*
X11200347Y-18090900D01*
X11214632Y-18033757D01*
X11228918Y-18005186D01*
X11243204Y-17990900D01*
X11271775Y-17976614D01*
X11500347Y-18276614D02*
X11500347Y-18076614D01*
X11500347Y-18105186D02*
X11514632Y-18090900D01*
X11543204Y-18076614D01*
X11586061Y-18076614D01*
X11614632Y-18090900D01*
X11628918Y-18119472D01*
X11628918Y-18276614D01*
X11628918Y-18119472D02*
X11643204Y-18090900D01*
X11671775Y-18076614D01*
X11714632Y-18076614D01*
X11743204Y-18090900D01*
X11757490Y-18119472D01*
X11757490Y-18276614D01*
X11900347Y-18276614D02*
X11900347Y-18076614D01*
X11900347Y-18105186D02*
X11914632Y-18090900D01*
X11943204Y-18076614D01*
X11986061Y-18076614D01*
X12014632Y-18090900D01*
X12028918Y-18119472D01*
X12028918Y-18276614D01*
X12028918Y-18119472D02*
X12043204Y-18090900D01*
X12071775Y-18076614D01*
X12114632Y-18076614D01*
X12143204Y-18090900D01*
X12157490Y-18119472D01*
X12157490Y-18276614D01*
X12743204Y-17962329D02*
X12486061Y-18348043D01*
X13128918Y-17976614D02*
X13157490Y-17976614D01*
X13186061Y-17990900D01*
X13200347Y-18005186D01*
X13214632Y-18033757D01*
X13228918Y-18090900D01*
X13228918Y-18162329D01*
X13214632Y-18219472D01*
X13200347Y-18248043D01*
X13186061Y-18262329D01*
X13157490Y-18276614D01*
X13128918Y-18276614D01*
X13100347Y-18262329D01*
X13086061Y-18248043D01*
X13071775Y-18219472D01*
X13057490Y-18162329D01*
X13057490Y-18090900D01*
X13071775Y-18033757D01*
X13086061Y-18005186D01*
X13100347Y-17990900D01*
X13128918Y-17976614D01*
X13357490Y-18248043D02*
X13371775Y-18262329D01*
X13357490Y-18276614D01*
X13343204Y-18262329D01*
X13357490Y-18248043D01*
X13357490Y-18276614D01*
X13557490Y-17976614D02*
X13586061Y-17976614D01*
X13614632Y-17990900D01*
X13628918Y-18005186D01*
X13643204Y-18033757D01*
X13657490Y-18090900D01*
X13657490Y-18162329D01*
X13643204Y-18219472D01*
X13628918Y-18248043D01*
X13614632Y-18262329D01*
X13586061Y-18276614D01*
X13557490Y-18276614D01*
X13528918Y-18262329D01*
X13514632Y-18248043D01*
X13500347Y-18219472D01*
X13486061Y-18162329D01*
X13486061Y-18090900D01*
X13500347Y-18033757D01*
X13514632Y-18005186D01*
X13528918Y-17990900D01*
X13557490Y-17976614D01*
X13914632Y-17976614D02*
X13857490Y-17976614D01*
X13828918Y-17990900D01*
X13814632Y-18005186D01*
X13786061Y-18048043D01*
X13771775Y-18105186D01*
X13771775Y-18219472D01*
X13786061Y-18248043D01*
X13800347Y-18262329D01*
X13828918Y-18276614D01*
X13886061Y-18276614D01*
X13914632Y-18262329D01*
X13928918Y-18248043D01*
X13943204Y-18219472D01*
X13943204Y-18148043D01*
X13928918Y-18119472D01*
X13914632Y-18105186D01*
X13886061Y-18090900D01*
X13828918Y-18090900D01*
X13800347Y-18105186D01*
X13786061Y-18119472D01*
X13771775Y-18148043D01*
X14043204Y-17976614D02*
X14228918Y-17976614D01*
X14128918Y-18090900D01*
X14171775Y-18090900D01*
X14200347Y-18105186D01*
X14214632Y-18119472D01*
X14228918Y-18148043D01*
X14228918Y-18219472D01*
X14214632Y-18248043D01*
X14200347Y-18262329D01*
X14171775Y-18276614D01*
X14086061Y-18276614D01*
X14057490Y-18262329D01*
X14043204Y-18248043D01*
X14414632Y-17976614D02*
X14443204Y-17976614D01*
X14471775Y-17990900D01*
X14486061Y-18005186D01*
X14500347Y-18033757D01*
X14514632Y-18090900D01*
X14514632Y-18162329D01*
X14500347Y-18219472D01*
X14486061Y-18248043D01*
X14471775Y-18262329D01*
X14443204Y-18276614D01*
X14414632Y-18276614D01*
X14386061Y-18262329D01*
X14371775Y-18248043D01*
X14357490Y-18219472D01*
X14343204Y-18162329D01*
X14343204Y-18090900D01*
X14357490Y-18033757D01*
X14371775Y-18005186D01*
X14386061Y-17990900D01*
X14414632Y-17976614D01*
X14628918Y-17976614D02*
X14628918Y-18033757D01*
X14743204Y-17976614D02*
X14743204Y-18033757D01*
X15186061Y-18390900D02*
X15171775Y-18376614D01*
X15143204Y-18333757D01*
X15128918Y-18305186D01*
X15114632Y-18262329D01*
X15100347Y-18190900D01*
X15100347Y-18133757D01*
X15114632Y-18062329D01*
X15128918Y-18019472D01*
X15143204Y-17990900D01*
X15171775Y-17948043D01*
X15186061Y-17933757D01*
X15443204Y-17976614D02*
X15300347Y-17976614D01*
X15286061Y-18119472D01*
X15300347Y-18105186D01*
X15328918Y-18090900D01*
X15400347Y-18090900D01*
X15428918Y-18105186D01*
X15443204Y-18119472D01*
X15457490Y-18148043D01*
X15457490Y-18219472D01*
X15443204Y-18248043D01*
X15428918Y-18262329D01*
X15400347Y-18276614D01*
X15328918Y-18276614D01*
X15300347Y-18262329D01*
X15286061Y-18248043D01*
X15814632Y-18276614D02*
X15814632Y-17976614D01*
X15943204Y-18276614D02*
X15943204Y-18119472D01*
X15928918Y-18090900D01*
X15900347Y-18076614D01*
X15857490Y-18076614D01*
X15828918Y-18090900D01*
X15814632Y-18105186D01*
X16128918Y-18276614D02*
X16100347Y-18262329D01*
X16086061Y-18248043D01*
X16071775Y-18219472D01*
X16071775Y-18133757D01*
X16086061Y-18105186D01*
X16100347Y-18090900D01*
X16128918Y-18076614D01*
X16171775Y-18076614D01*
X16200347Y-18090900D01*
X16214632Y-18105186D01*
X16228918Y-18133757D01*
X16228918Y-18219472D01*
X16214632Y-18248043D01*
X16200347Y-18262329D01*
X16171775Y-18276614D01*
X16128918Y-18276614D01*
X16400347Y-18276614D02*
X16371775Y-18262329D01*
X16357490Y-18233757D01*
X16357490Y-17976614D01*
X16628918Y-18262329D02*
X16600347Y-18276614D01*
X16543204Y-18276614D01*
X16514632Y-18262329D01*
X16500347Y-18233757D01*
X16500347Y-18119472D01*
X16514632Y-18090900D01*
X16543204Y-18076614D01*
X16600347Y-18076614D01*
X16628918Y-18090900D01*
X16643204Y-18119472D01*
X16643204Y-18148043D01*
X16500347Y-18176614D01*
X16757490Y-18262329D02*
X16786061Y-18276614D01*
X16843204Y-18276614D01*
X16871775Y-18262329D01*
X16886061Y-18233757D01*
X16886061Y-18219472D01*
X16871775Y-18190900D01*
X16843204Y-18176614D01*
X16800347Y-18176614D01*
X16771775Y-18162329D01*
X16757490Y-18133757D01*
X16757490Y-18119472D01*
X16771775Y-18090900D01*
X16800347Y-18076614D01*
X16843204Y-18076614D01*
X16871775Y-18090900D01*
X16986061Y-18390900D02*
X17000347Y-18376614D01*
X17028918Y-18333757D01*
X17043204Y-18305186D01*
X17057490Y-18262329D01*
X17071775Y-18190900D01*
X17071775Y-18133757D01*
X17057490Y-18062329D01*
X17043204Y-18019472D01*
X17028918Y-17990900D01*
X17000347Y-17948043D01*
X16986061Y-17933757D01*
X9881342Y-18650038D02*
X9881342Y-18423762D01*
X9655066Y-18423762D01*
X9655066Y-18650038D01*
X9881342Y-18650038D01*
X9928204Y-18536900D02*
G75*
G03*
X9928204Y-18536900I-160000J0D01*
G01*
X10186061Y-18372614D02*
X10371775Y-18372614D01*
X10271775Y-18486900D01*
X10314633Y-18486900D01*
X10343204Y-18501186D01*
X10357490Y-18515472D01*
X10371775Y-18544043D01*
X10371775Y-18615472D01*
X10357490Y-18644043D01*
X10343204Y-18658329D01*
X10314633Y-18672614D01*
X10228918Y-18672614D01*
X10200347Y-18658329D01*
X10186061Y-18644043D01*
X10500347Y-18644043D02*
X10514633Y-18658329D01*
X10500347Y-18672614D01*
X10486061Y-18658329D01*
X10500347Y-18644043D01*
X10500347Y-18672614D01*
X10628918Y-18401186D02*
X10643204Y-18386900D01*
X10671775Y-18372614D01*
X10743204Y-18372614D01*
X10771775Y-18386900D01*
X10786061Y-18401186D01*
X10800347Y-18429757D01*
X10800347Y-18458329D01*
X10786061Y-18501186D01*
X10614633Y-18672614D01*
X10800347Y-18672614D01*
X10986061Y-18372614D02*
X11014633Y-18372614D01*
X11043204Y-18386900D01*
X11057490Y-18401186D01*
X11071775Y-18429757D01*
X11086061Y-18486900D01*
X11086061Y-18558329D01*
X11071775Y-18615472D01*
X11057490Y-18644043D01*
X11043204Y-18658329D01*
X11014633Y-18672614D01*
X10986061Y-18672614D01*
X10957490Y-18658329D01*
X10943204Y-18644043D01*
X10928918Y-18615472D01*
X10914633Y-18558329D01*
X10914633Y-18486900D01*
X10928918Y-18429757D01*
X10943204Y-18401186D01*
X10957490Y-18386900D01*
X10986061Y-18372614D01*
X11271775Y-18372614D02*
X11300347Y-18372614D01*
X11328918Y-18386900D01*
X11343204Y-18401186D01*
X11357490Y-18429757D01*
X11371775Y-18486900D01*
X11371775Y-18558329D01*
X11357490Y-18615472D01*
X11343204Y-18644043D01*
X11328918Y-18658329D01*
X11300347Y-18672614D01*
X11271775Y-18672614D01*
X11243204Y-18658329D01*
X11228918Y-18644043D01*
X11214632Y-18615472D01*
X11200347Y-18558329D01*
X11200347Y-18486900D01*
X11214632Y-18429757D01*
X11228918Y-18401186D01*
X11243204Y-18386900D01*
X11271775Y-18372614D01*
X11500347Y-18672614D02*
X11500347Y-18472614D01*
X11500347Y-18501186D02*
X11514632Y-18486900D01*
X11543204Y-18472614D01*
X11586061Y-18472614D01*
X11614632Y-18486900D01*
X11628918Y-18515472D01*
X11628918Y-18672614D01*
X11628918Y-18515472D02*
X11643204Y-18486900D01*
X11671775Y-18472614D01*
X11714632Y-18472614D01*
X11743204Y-18486900D01*
X11757490Y-18515472D01*
X11757490Y-18672614D01*
X11900347Y-18672614D02*
X11900347Y-18472614D01*
X11900347Y-18501186D02*
X11914632Y-18486900D01*
X11943204Y-18472614D01*
X11986061Y-18472614D01*
X12014632Y-18486900D01*
X12028918Y-18515472D01*
X12028918Y-18672614D01*
X12028918Y-18515472D02*
X12043204Y-18486900D01*
X12071775Y-18472614D01*
X12114632Y-18472614D01*
X12143204Y-18486900D01*
X12157490Y-18515472D01*
X12157490Y-18672614D01*
X12743204Y-18358329D02*
X12486061Y-18744043D01*
X13128918Y-18372614D02*
X13157490Y-18372614D01*
X13186061Y-18386900D01*
X13200347Y-18401186D01*
X13214632Y-18429757D01*
X13228918Y-18486900D01*
X13228918Y-18558329D01*
X13214632Y-18615472D01*
X13200347Y-18644043D01*
X13186061Y-18658329D01*
X13157490Y-18672614D01*
X13128918Y-18672614D01*
X13100347Y-18658329D01*
X13086061Y-18644043D01*
X13071775Y-18615472D01*
X13057490Y-18558329D01*
X13057490Y-18486900D01*
X13071775Y-18429757D01*
X13086061Y-18401186D01*
X13100347Y-18386900D01*
X13128918Y-18372614D01*
X13357490Y-18644043D02*
X13371775Y-18658329D01*
X13357490Y-18672614D01*
X13343204Y-18658329D01*
X13357490Y-18644043D01*
X13357490Y-18672614D01*
X13657490Y-18672614D02*
X13486061Y-18672614D01*
X13571775Y-18672614D02*
X13571775Y-18372614D01*
X13543204Y-18415472D01*
X13514632Y-18444043D01*
X13486061Y-18458329D01*
X13771775Y-18401186D02*
X13786061Y-18386900D01*
X13814632Y-18372614D01*
X13886061Y-18372614D01*
X13914632Y-18386900D01*
X13928918Y-18401186D01*
X13943204Y-18429757D01*
X13943204Y-18458329D01*
X13928918Y-18501186D01*
X13757490Y-18672614D01*
X13943204Y-18672614D01*
X14200347Y-18372614D02*
X14143204Y-18372614D01*
X14114632Y-18386900D01*
X14100347Y-18401186D01*
X14071775Y-18444043D01*
X14057490Y-18501186D01*
X14057490Y-18615472D01*
X14071775Y-18644043D01*
X14086061Y-18658329D01*
X14114632Y-18672614D01*
X14171775Y-18672614D01*
X14200347Y-18658329D01*
X14214632Y-18644043D01*
X14228918Y-18615472D01*
X14228918Y-18544043D01*
X14214632Y-18515472D01*
X14200347Y-18501186D01*
X14171775Y-18486900D01*
X14114632Y-18486900D01*
X14086061Y-18501186D01*
X14071775Y-18515472D01*
X14057490Y-18544043D01*
X14414632Y-18372614D02*
X14443204Y-18372614D01*
X14471775Y-18386900D01*
X14486061Y-18401186D01*
X14500347Y-18429757D01*
X14514632Y-18486900D01*
X14514632Y-18558329D01*
X14500347Y-18615472D01*
X14486061Y-18644043D01*
X14471775Y-18658329D01*
X14443204Y-18672614D01*
X14414632Y-18672614D01*
X14386061Y-18658329D01*
X14371775Y-18644043D01*
X14357490Y-18615472D01*
X14343204Y-18558329D01*
X14343204Y-18486900D01*
X14357490Y-18429757D01*
X14371775Y-18401186D01*
X14386061Y-18386900D01*
X14414632Y-18372614D01*
X14628918Y-18372614D02*
X14628918Y-18429757D01*
X14743204Y-18372614D02*
X14743204Y-18429757D01*
X15186061Y-18786900D02*
X15171775Y-18772614D01*
X15143204Y-18729757D01*
X15128918Y-18701186D01*
X15114632Y-18658329D01*
X15100347Y-18586900D01*
X15100347Y-18529757D01*
X15114632Y-18458329D01*
X15128918Y-18415472D01*
X15143204Y-18386900D01*
X15171775Y-18344043D01*
X15186061Y-18329757D01*
X15428918Y-18472614D02*
X15428918Y-18672614D01*
X15357490Y-18358329D02*
X15286061Y-18572614D01*
X15471775Y-18572614D01*
X15814632Y-18672614D02*
X15814632Y-18372614D01*
X15943204Y-18672614D02*
X15943204Y-18515472D01*
X15928918Y-18486900D01*
X15900347Y-18472614D01*
X15857490Y-18472614D01*
X15828918Y-18486900D01*
X15814632Y-18501186D01*
X16128918Y-18672614D02*
X16100347Y-18658329D01*
X16086061Y-18644043D01*
X16071775Y-18615472D01*
X16071775Y-18529757D01*
X16086061Y-18501186D01*
X16100347Y-18486900D01*
X16128918Y-18472614D01*
X16171775Y-18472614D01*
X16200347Y-18486900D01*
X16214632Y-18501186D01*
X16228918Y-18529757D01*
X16228918Y-18615472D01*
X16214632Y-18644043D01*
X16200347Y-18658329D01*
X16171775Y-18672614D01*
X16128918Y-18672614D01*
X16400347Y-18672614D02*
X16371775Y-18658329D01*
X16357490Y-18629757D01*
X16357490Y-18372614D01*
X16628918Y-18658329D02*
X16600347Y-18672614D01*
X16543204Y-18672614D01*
X16514632Y-18658329D01*
X16500347Y-18629757D01*
X16500347Y-18515472D01*
X16514632Y-18486900D01*
X16543204Y-18472614D01*
X16600347Y-18472614D01*
X16628918Y-18486900D01*
X16643204Y-18515472D01*
X16643204Y-18544043D01*
X16500347Y-18572614D01*
X16757490Y-18658329D02*
X16786061Y-18672614D01*
X16843204Y-18672614D01*
X16871775Y-18658329D01*
X16886061Y-18629757D01*
X16886061Y-18615472D01*
X16871775Y-18586900D01*
X16843204Y-18572614D01*
X16800347Y-18572614D01*
X16771775Y-18558329D01*
X16757490Y-18529757D01*
X16757490Y-18515472D01*
X16771775Y-18486900D01*
X16800347Y-18472614D01*
X16843204Y-18472614D01*
X16871775Y-18486900D01*
X16986061Y-18786900D02*
X17000347Y-18772614D01*
X17028918Y-18729757D01*
X17043204Y-18701186D01*
X17057490Y-18658329D01*
X17071775Y-18586900D01*
X17071775Y-18529757D01*
X17057490Y-18458329D01*
X17043204Y-18415472D01*
X17028918Y-18386900D01*
X17000347Y-18344043D01*
X16986061Y-18329757D01*
X9763204Y-19151900D02*
X9928204Y-18986900D01*
X9763204Y-18821900D01*
X9598204Y-18986900D01*
X9763204Y-19151900D01*
X9928204Y-18986900D02*
G75*
G03*
X9928204Y-18986900I-165000J0D01*
G01*
X10186061Y-18822614D02*
X10371775Y-18822614D01*
X10271775Y-18936900D01*
X10314633Y-18936900D01*
X10343204Y-18951186D01*
X10357490Y-18965472D01*
X10371775Y-18994043D01*
X10371775Y-19065472D01*
X10357490Y-19094043D01*
X10343204Y-19108329D01*
X10314633Y-19122614D01*
X10228918Y-19122614D01*
X10200347Y-19108329D01*
X10186061Y-19094043D01*
X10500347Y-19094043D02*
X10514633Y-19108329D01*
X10500347Y-19122614D01*
X10486061Y-19108329D01*
X10500347Y-19094043D01*
X10500347Y-19122614D01*
X10614633Y-18822614D02*
X10800347Y-18822614D01*
X10700347Y-18936900D01*
X10743204Y-18936900D01*
X10771775Y-18951186D01*
X10786061Y-18965472D01*
X10800347Y-18994043D01*
X10800347Y-19065472D01*
X10786061Y-19094043D01*
X10771775Y-19108329D01*
X10743204Y-19122614D01*
X10657490Y-19122614D01*
X10628918Y-19108329D01*
X10614633Y-19094043D01*
X10986061Y-18822614D02*
X11014633Y-18822614D01*
X11043204Y-18836900D01*
X11057490Y-18851186D01*
X11071775Y-18879757D01*
X11086061Y-18936900D01*
X11086061Y-19008329D01*
X11071775Y-19065472D01*
X11057490Y-19094043D01*
X11043204Y-19108329D01*
X11014633Y-19122614D01*
X10986061Y-19122614D01*
X10957490Y-19108329D01*
X10943204Y-19094043D01*
X10928918Y-19065472D01*
X10914633Y-19008329D01*
X10914633Y-18936900D01*
X10928918Y-18879757D01*
X10943204Y-18851186D01*
X10957490Y-18836900D01*
X10986061Y-18822614D01*
X11271775Y-18822614D02*
X11300347Y-18822614D01*
X11328918Y-18836900D01*
X11343204Y-18851186D01*
X11357490Y-18879757D01*
X11371775Y-18936900D01*
X11371775Y-19008329D01*
X11357490Y-19065472D01*
X11343204Y-19094043D01*
X11328918Y-19108329D01*
X11300347Y-19122614D01*
X11271775Y-19122614D01*
X11243204Y-19108329D01*
X11228918Y-19094043D01*
X11214632Y-19065472D01*
X11200347Y-19008329D01*
X11200347Y-18936900D01*
X11214632Y-18879757D01*
X11228918Y-18851186D01*
X11243204Y-18836900D01*
X11271775Y-18822614D01*
X11500347Y-19122614D02*
X11500347Y-18922614D01*
X11500347Y-18951186D02*
X11514632Y-18936900D01*
X11543204Y-18922614D01*
X11586061Y-18922614D01*
X11614632Y-18936900D01*
X11628918Y-18965472D01*
X11628918Y-19122614D01*
X11628918Y-18965472D02*
X11643204Y-18936900D01*
X11671775Y-18922614D01*
X11714632Y-18922614D01*
X11743204Y-18936900D01*
X11757490Y-18965472D01*
X11757490Y-19122614D01*
X11900347Y-19122614D02*
X11900347Y-18922614D01*
X11900347Y-18951186D02*
X11914632Y-18936900D01*
X11943204Y-18922614D01*
X11986061Y-18922614D01*
X12014632Y-18936900D01*
X12028918Y-18965472D01*
X12028918Y-19122614D01*
X12028918Y-18965472D02*
X12043204Y-18936900D01*
X12071775Y-18922614D01*
X12114632Y-18922614D01*
X12143204Y-18936900D01*
X12157490Y-18965472D01*
X12157490Y-19122614D01*
X12743204Y-18808329D02*
X12486061Y-19194043D01*
X13128918Y-18822614D02*
X13157490Y-18822614D01*
X13186061Y-18836900D01*
X13200347Y-18851186D01*
X13214632Y-18879757D01*
X13228918Y-18936900D01*
X13228918Y-19008329D01*
X13214632Y-19065472D01*
X13200347Y-19094043D01*
X13186061Y-19108329D01*
X13157490Y-19122614D01*
X13128918Y-19122614D01*
X13100347Y-19108329D01*
X13086061Y-19094043D01*
X13071775Y-19065472D01*
X13057490Y-19008329D01*
X13057490Y-18936900D01*
X13071775Y-18879757D01*
X13086061Y-18851186D01*
X13100347Y-18836900D01*
X13128918Y-18822614D01*
X13357490Y-19094043D02*
X13371775Y-19108329D01*
X13357490Y-19122614D01*
X13343204Y-19108329D01*
X13357490Y-19094043D01*
X13357490Y-19122614D01*
X13657490Y-19122614D02*
X13486061Y-19122614D01*
X13571775Y-19122614D02*
X13571775Y-18822614D01*
X13543204Y-18865472D01*
X13514632Y-18894043D01*
X13486061Y-18908329D01*
X13771775Y-18851186D02*
X13786061Y-18836900D01*
X13814632Y-18822614D01*
X13886061Y-18822614D01*
X13914632Y-18836900D01*
X13928918Y-18851186D01*
X13943204Y-18879757D01*
X13943204Y-18908329D01*
X13928918Y-18951186D01*
X13757490Y-19122614D01*
X13943204Y-19122614D01*
X14086061Y-19122614D02*
X14143204Y-19122614D01*
X14171775Y-19108329D01*
X14186061Y-19094043D01*
X14214632Y-19051186D01*
X14228918Y-18994043D01*
X14228918Y-18879757D01*
X14214632Y-18851186D01*
X14200347Y-18836900D01*
X14171775Y-18822614D01*
X14114632Y-18822614D01*
X14086061Y-18836900D01*
X14071775Y-18851186D01*
X14057490Y-18879757D01*
X14057490Y-18951186D01*
X14071775Y-18979757D01*
X14086061Y-18994043D01*
X14114632Y-19008329D01*
X14171775Y-19008329D01*
X14200347Y-18994043D01*
X14214632Y-18979757D01*
X14228918Y-18951186D01*
X14371775Y-19122614D02*
X14428918Y-19122614D01*
X14457490Y-19108329D01*
X14471775Y-19094043D01*
X14500347Y-19051186D01*
X14514632Y-18994043D01*
X14514632Y-18879757D01*
X14500347Y-18851186D01*
X14486061Y-18836900D01*
X14457490Y-18822614D01*
X14400347Y-18822614D01*
X14371775Y-18836900D01*
X14357490Y-18851186D01*
X14343204Y-18879757D01*
X14343204Y-18951186D01*
X14357490Y-18979757D01*
X14371775Y-18994043D01*
X14400347Y-19008329D01*
X14457490Y-19008329D01*
X14486061Y-18994043D01*
X14500347Y-18979757D01*
X14514632Y-18951186D01*
X14628918Y-18822614D02*
X14628918Y-18879757D01*
X14743204Y-18822614D02*
X14743204Y-18879757D01*
X15186061Y-19236900D02*
X15171775Y-19222614D01*
X15143204Y-19179757D01*
X15128918Y-19151186D01*
X15114632Y-19108329D01*
X15100347Y-19036900D01*
X15100347Y-18979757D01*
X15114632Y-18908329D01*
X15128918Y-18865472D01*
X15143204Y-18836900D01*
X15171775Y-18794043D01*
X15186061Y-18779757D01*
X15286061Y-18851186D02*
X15300347Y-18836900D01*
X15328918Y-18822614D01*
X15400347Y-18822614D01*
X15428918Y-18836900D01*
X15443204Y-18851186D01*
X15457490Y-18879757D01*
X15457490Y-18908329D01*
X15443204Y-18951186D01*
X15271775Y-19122614D01*
X15457490Y-19122614D01*
X15814632Y-19122614D02*
X15814632Y-18822614D01*
X15943204Y-19122614D02*
X15943204Y-18965472D01*
X15928918Y-18936900D01*
X15900347Y-18922614D01*
X15857490Y-18922614D01*
X15828918Y-18936900D01*
X15814632Y-18951186D01*
X16128918Y-19122614D02*
X16100347Y-19108329D01*
X16086061Y-19094043D01*
X16071775Y-19065472D01*
X16071775Y-18979757D01*
X16086061Y-18951186D01*
X16100347Y-18936900D01*
X16128918Y-18922614D01*
X16171775Y-18922614D01*
X16200347Y-18936900D01*
X16214632Y-18951186D01*
X16228918Y-18979757D01*
X16228918Y-19065472D01*
X16214632Y-19094043D01*
X16200347Y-19108329D01*
X16171775Y-19122614D01*
X16128918Y-19122614D01*
X16400347Y-19122614D02*
X16371775Y-19108329D01*
X16357490Y-19079757D01*
X16357490Y-18822614D01*
X16628918Y-19108329D02*
X16600347Y-19122614D01*
X16543204Y-19122614D01*
X16514632Y-19108329D01*
X16500347Y-19079757D01*
X16500347Y-18965472D01*
X16514632Y-18936900D01*
X16543204Y-18922614D01*
X16600347Y-18922614D01*
X16628918Y-18936900D01*
X16643204Y-18965472D01*
X16643204Y-18994043D01*
X16500347Y-19022614D01*
X16757490Y-19108329D02*
X16786061Y-19122614D01*
X16843204Y-19122614D01*
X16871775Y-19108329D01*
X16886061Y-19079757D01*
X16886061Y-19065472D01*
X16871775Y-19036900D01*
X16843204Y-19022614D01*
X16800347Y-19022614D01*
X16771775Y-19008329D01*
X16757490Y-18979757D01*
X16757490Y-18965472D01*
X16771775Y-18936900D01*
X16800347Y-18922614D01*
X16843204Y-18922614D01*
X16871775Y-18936900D01*
X16986061Y-19236900D02*
X17000347Y-19222614D01*
X17028918Y-19179757D01*
X17043204Y-19151186D01*
X17057490Y-19108329D01*
X17071775Y-19036900D01*
X17071775Y-18979757D01*
X17057490Y-18908329D01*
X17043204Y-18865472D01*
X17028918Y-18836900D01*
X17000347Y-18794043D01*
X16986061Y-18779757D01*
X17528918Y-19236900D02*
X17514633Y-19222614D01*
X17486061Y-19179757D01*
X17471775Y-19151186D01*
X17457490Y-19108329D01*
X17443204Y-19036900D01*
X17443204Y-18979757D01*
X17457490Y-18908329D01*
X17471775Y-18865472D01*
X17486061Y-18836900D01*
X17514633Y-18794043D01*
X17528918Y-18779757D01*
X17643204Y-18922614D02*
X17643204Y-19122614D01*
X17643204Y-18951186D02*
X17657490Y-18936900D01*
X17686061Y-18922614D01*
X17728918Y-18922614D01*
X17757490Y-18936900D01*
X17771775Y-18965472D01*
X17771775Y-19122614D01*
X17957490Y-19122614D02*
X17928918Y-19108329D01*
X17914633Y-19094043D01*
X17900347Y-19065472D01*
X17900347Y-18979757D01*
X17914633Y-18951186D01*
X17928918Y-18936900D01*
X17957490Y-18922614D01*
X18000347Y-18922614D01*
X18028918Y-18936900D01*
X18043204Y-18951186D01*
X18057490Y-18979757D01*
X18057490Y-19065472D01*
X18043204Y-19094043D01*
X18028918Y-19108329D01*
X18000347Y-19122614D01*
X17957490Y-19122614D01*
X18143204Y-18922614D02*
X18257490Y-18922614D01*
X18186061Y-18822614D02*
X18186061Y-19079757D01*
X18200347Y-19108329D01*
X18228918Y-19122614D01*
X18257490Y-19122614D01*
X18586061Y-18922614D02*
X18586061Y-19222614D01*
X18586061Y-18936900D02*
X18614633Y-18922614D01*
X18671775Y-18922614D01*
X18700347Y-18936900D01*
X18714633Y-18951186D01*
X18728918Y-18979757D01*
X18728918Y-19065472D01*
X18714633Y-19094043D01*
X18700347Y-19108329D01*
X18671775Y-19122614D01*
X18614633Y-19122614D01*
X18586061Y-19108329D01*
X18900347Y-19122614D02*
X18871775Y-19108329D01*
X18857490Y-19079757D01*
X18857490Y-18822614D01*
X19143204Y-19122614D02*
X19143204Y-18965472D01*
X19128918Y-18936900D01*
X19100347Y-18922614D01*
X19043204Y-18922614D01*
X19014633Y-18936900D01*
X19143204Y-19108329D02*
X19114633Y-19122614D01*
X19043204Y-19122614D01*
X19014633Y-19108329D01*
X19000347Y-19079757D01*
X19000347Y-19051186D01*
X19014633Y-19022614D01*
X19043204Y-19008329D01*
X19114633Y-19008329D01*
X19143204Y-18994043D01*
X19243204Y-18922614D02*
X19357490Y-18922614D01*
X19286061Y-18822614D02*
X19286061Y-19079757D01*
X19300347Y-19108329D01*
X19328918Y-19122614D01*
X19357490Y-19122614D01*
X19571775Y-19108329D02*
X19543204Y-19122614D01*
X19486061Y-19122614D01*
X19457490Y-19108329D01*
X19443204Y-19079757D01*
X19443204Y-18965472D01*
X19457490Y-18936900D01*
X19486061Y-18922614D01*
X19543204Y-18922614D01*
X19571775Y-18936900D01*
X19586061Y-18965472D01*
X19586061Y-18994043D01*
X19443204Y-19022614D01*
X19843204Y-19122614D02*
X19843204Y-18822614D01*
X19843204Y-19108329D02*
X19814633Y-19122614D01*
X19757490Y-19122614D01*
X19728918Y-19108329D01*
X19714633Y-19094043D01*
X19700347Y-19065472D01*
X19700347Y-18979757D01*
X19714633Y-18951186D01*
X19728918Y-18936900D01*
X19757490Y-18922614D01*
X19814633Y-18922614D01*
X19843204Y-18936900D01*
X19957490Y-19236900D02*
X19971775Y-19222614D01*
X20000347Y-19179757D01*
X20014633Y-19151186D01*
X20028918Y-19108329D01*
X20043204Y-19036900D01*
X20043204Y-18979757D01*
X20028918Y-18908329D01*
X20014633Y-18865472D01*
X20000347Y-18836900D01*
X19971775Y-18794043D01*
X19957490Y-18779757D01*
M02*
